<?xml version="1.0" encoding="utf-8" ?>
<svg baseProfile="full" height="200mm" version="1.1" viewBox="0,0,200,200" width="200mm" xmlns="http://www.w3.org/2000/svg" xmlns:ev="http://www.w3.org/2001/xml-events" xmlns:xlink="http://www.w3.org/1999/xlink"><defs /><rect fill="#1a1a1a" height="200" width="200" x="0" y="0" /><text alignment-baseline="middle" fill="#e1ed5e" style="dominant-baseline: central; font-size:9.0px; font-family:Arial;" text-anchor="middle" x="100.0" y="100.0">2024</text><line stroke="#e1ed5e" stroke-width="0.3" x1="100.0" x2="100.0" y1="15.0" y2="10.0" /><path d="M 100.0 14.0 a86.0,86.0 0 0,1 42.35913384403234,11.155469271406648" fill="none" id="id49" stroke="none" /><text fill="#e1ed5e" style="font-size:6.75px; font-family:Arial;" text-anchor="middle"><textPath startOffset="22.145653131862478" xlink:href="#id49">January</textPath></text><path d="M 100.0 79.0 l 0.0 -14.872325417352457 a35.87232541735246,35.87232541735246 0 0,0 0.615796167182443,0.005285869476268429 l -0.2553032423335882 14.870133946070624" fill="#ffa70f" stroke="none" /><path d="M 100.36049292484886 79.00309439819443 l 0.2545403840397627 -14.825701274917025 a35.8278861979779,35.8278861979779 0 0,0 0.6148520557495181,0.015836407925716608 l -0.5090057538600222 14.819147149641264" fill="#ffa60f" stroke="none" /><path d="M 101.08105385017728 79.02784411241856 l 0.7656087930246788 -14.852606050645496 a35.87232541735246,35.87232541735246 0 0,0 0.6147075668369765,0.03697928076736762 l -1.0204607119941176 14.837274792053437" fill="#ffa70f" stroke="none" /><path d="M 101.80034050326958 79.07731436759882 l 2.0344313328741146 -23.643175910961702 a44.73054314601458,44.73054314601458 0 0,0 0.7644672126252453,0.07239583984917491 l -2.4399981088843727 23.604768315607345" fill="#e5ff1a" stroke="none" /><path d="M 102.51750503828377 79.15144685158666 l 1.7793604855586689 -14.735657362833415 a35.84269927110275,35.84269927110275 0 0,0 0.6102171387008566,0.0790048255775495 l -2.0320554461503173 14.702940941055468" fill="#ffa60f" stroke="none" /><path d="M 102.87502721639298 79.19773525538626 l 2.0381394444920846 -14.746961722316113 a35.88713849047731,35.88713849047731 0 0,0 0.6095257776730232,0.08957929914500885 l -2.2909903277727897 14.709801349872222" fill="#ffa70f" stroke="none" /><path d="M 103.58742460773223 79.30868818359171 l 2.538105018731782 -14.639115272883265 a35.8575123442276,35.8575123442276 0 0,0 0.6055911509410411,0.11035888100409602 l -2.7890309032238774 14.593388217947803" fill="#ffa70f" stroke="none" /><path d="M 104.29559338865022 79.4440306129975 l 4.851101586100868 -23.214277208035053 a44.71573007288973,44.71573007288973 0 0,0 0.7500266999993233,0.16346482838961743 l -5.248890702719326 23.12758092151172" fill="#e5ff1a" stroke="none" /><path d="M 104.9986988182912 79.60360301121754 l 4.590857649716769 -18.732265844858755 a40.286621208558664,40.286621208558664 0 0,0 0.6702824859097124,0.17038318679897743 l -4.911745428851876 18.65069742622451" fill="#ffe115" stroke="none" /><path d="M 105.3480935250658 79.69241777938227 l 3.776234388848485 -14.338977053495187 a35.8278861979779,35.8278861979779 0 0,0 0.5934097707072347,0.16173647178229608 l -4.021825560490412 14.27204008756875" fill="#ffa60f" stroke="none" /><path d="M 106.04205211174951 79.88797359093562 l 4.2662314816797 -14.200897085920609 a35.8278861979779,35.8278861979779 0 0,0 0.5875080103182345,0.18201148339406809 l -4.509380124869565 14.125569014719893" fill="#ffa60f" stroke="none" /><path d="M 106.72888874123014 80.10723608172694 l 7.6038183142139735 -22.479337736002897 a44.73054314601458,44.73054314601458 0 0,0 0.7252615121194873,0.2522836020129648 l -7.988585598378479 22.345495701421342" fill="#e5ff1a" stroke="none" /><path d="M 107.40779381753099 80.34994680014964 l 5.235793137902224 -13.888563347930921 a35.84269927110275,35.84269927110275 0 0,0 0.5738718896213251,0.2219859750778228 l -5.473437290017075 13.79663748471506" fill="#ffa60f" stroke="none" /><path d="M 107.74402155503746 80.48000691201159 l 5.462512265486104 -13.769099286142776 a35.81307312485305,35.81307312485305 0 0,0 0.569505523862154,0.2316129386386982 l -5.698072250538697 13.673299090924784" fill="#ffa60f" stroke="none" /><path d="M 108.4095320186766 80.7573450057729 l 5.937884940532756 -13.587042781016688 a35.8278861979779,35.8278861979779 0 0,0 0.5614512929413442,0.2511300219605242 l -6.170249636329732 13.483109008146311" fill="#ffa60f" stroke="none" /><path d="M 109.06512990194946 81.05736502329252 l 10.243831250592313 -21.405667457807713 a44.73054314601458,44.73054314601458 0 0,0 0.689787044894177,0.33740940932736274 l -10.609778544748556 21.226664298383128" fill="#e5ff1a" stroke="none" /><path d="M 109.71004243097381 81.37971332152246 l 6.856162102096016 -13.147594849628039 a35.8278861979779,35.8278861979779 0 0,0 0.5428968616629964,0.2890620000482034 l -7.080847779545572 13.027962381857263" fill="#ffa60f" stroke="none" /><path d="M 110.02825361518725 81.54914285379988 l 7.087921553551113 -13.040977329291687 a35.84269927110275,35.84269927110275 0 0,0 0.5380771074946786,0.2984623011687733 l -7.310742849201892 12.917382112689769" fill="#ffa60f" stroke="none" /><line stroke="#e1ed5e" stroke-width="0.3" x1="143.13028292997686" x2="145.6673583964461" y1="26.7553504044142" y2="22.446841604673864" /><path d="M 143.63769802327073 25.89364864446614 a86.0,86.0 0 0,1 29.32050498858742,28.57503671076993" fill="none" id="id50" stroke="none" /><text fill="#e1ed5e" style="font-size:6.75px; font-family:Arial;" text-anchor="middle"><textPath startOffset="20.669276256404974" xlink:href="#id50">February</textPath></text><path d="M 110.65571695917076 81.90426304109057 l 12.048752141230228 -20.461415244626256 a44.74535621913943,44.74535621913943 0 0,0 0.6585392335002423,0.3954338883478682 l -12.398224131287906 20.251567355742466" fill="#e5ff1a" stroke="none" /><path d="M 111.8722381534696 82.67804972795209 l 17.728799556239228 -25.86684838414679 a52.3592758053139,52.3592758053139 0 0,0 0.7370313786017967,0.5145051430055106 l -18.170226026014785 25.558698425336154" fill="#8bff24" stroke="none" /><path d="M 113.31354834802062 83.75963576809568 l 15.035262806382093 -18.34057592425029 a44.71573007288973,44.71573007288973 0 0,0 0.5894505595649894,0.49174062132473634 l -15.347887700108975 18.079773119013684" fill="#e5ff1a" stroke="none" /><path d="M 113.59037401385872 83.9905735841838 l 9.826099245853651 -11.57512020424049 a36.18339995297437,36.18339995297437 0 0,0 0.4700749523389984,0.4060395479187707 l -10.02335367795551 11.404736523856998" fill="#ffab0f" stroke="none" /><path d="M 114.39649973595853 84.71141617570332 l 21.44750113497137 -22.77650296514079 a52.285210439689635,52.285210439689635 0 0,0 0.6481561361796874,0.6209189165751733 l -21.835329757016368 22.404971918260035" fill="#8cff24" stroke="none" /><path d="M 115.41159269507618 85.73525988315684 l 17.426369449946236 -16.129587402280446 a44.74535621913943,44.74535621913943 0 0,0 0.5169202997815439,0.5681859605681586 l -17.70068745056966 15.828063866154615" fill="#e5ff1a" stroke="none" /><path d="M 115.6541949942343 86.00192230759917 l 11.064309934791515 -9.893774169611307 a35.84269927110275,35.84269927110275 0 0,0 0.406198374494379,0.4621791853674557 l -11.232519373244486 9.702382706432553" fill="#ffa60f" stroke="none" /><path d="M 116.35404254752997 86.82634096563983 l 15.031260831952656 -12.108119719095674 a40.30143428168351,40.30143428168351 0 0,0 0.42937065438598465,0.5424957953840573 l -15.2368979169802 11.848303979796938" fill="#ffe115" stroke="none" /><path d="M 116.57777611688842 87.10902102172516 l 11.717092642221155 -9.11128210879243 a35.84269927110275,35.84269927110275 0 0,0 0.3735287553221461,0.4889611311508201 l -11.871773374897609 8.908800064400728" fill="#ffa60f" stroke="none" /><path d="M 117.01052211995028 87.68569379921539 l 19.3783164051632 -14.028406664190316 a44.923113096637664,44.923113096637664 0 0,0 0.4468457168056473,0.6285444607093658 l -19.61627722049881 13.693684976771447" fill="#e2ff1b" stroke="none" /><path d="M 117.21940702142032 87.97951657250589 l 12.170594287888429 -8.496020028931884 a35.84269927110275,35.84269927110275 0 0,0 0.34786237960441,0.507541607836002 l -12.314646404308164 8.285843686025833" fill="#ffa60f" stroke="none" /><path d="M 117.42321728460499 88.27688183743584 l 12.314646404308164 -8.285843686025833 a35.84269927110275,35.84269927110275 0 0,0 0.3390984946800992,0.513438340732841 l -12.455069337908988 8.073225466953934" fill="#ffa60f" stroke="none" /><path d="M 117.81537515405839 88.88188828441811 l 13.132189303544093 -8.195457377933042 a36.47966141547143,36.47966141547143 0 0,0 0.3269829011529479,0.5341019953143169 l -13.270940169152443 7.968818266494171" fill="#ffaf10" stroke="none" /><line stroke="#e1ed5e" stroke-width="0.3" x1="172.87174338648825" x2="177.1583165268699" y1="56.24261187166439" y2="53.66864786411523" /><path d="M 173.72905801456457 55.72781907015455 a86.0,86.0 0 0,1 12.242430191666344,42.057860355516425" fill="none" id="id51" stroke="none" /><text fill="#e1ed5e" style="font-size:6.75px; font-family:Arial;" text-anchor="middle"><textPath startOffset="22.145653131862474" xlink:href="#id51">March</textPath></text><path d="M 118.18653347947321 89.5 l 20.79499466510186 -12.005995767693395 a45.011991535386784,45.011991535386784 0 0,0 0.38060132717261613,0.6724860765992099 l -20.998029357295852 11.647252920995067" fill="#e1ff1b" stroke="none" /><path d="M 118.53625476483649 90.13048839642627 l 13.088260770939097 -6.968761661305406 a35.8278861979779,35.8278861979779 0 0,0 0.2843914064231841,0.5453580202289586 l -13.205960246337227 6.743057397971949" fill="#ffa60f" stroke="none" /><path d="M 118.70294669586156 90.45014215332178 l 13.245538548773803 -6.763266361202635 a35.87232541735246,35.87232541735246 0 0,0 0.27532878686027057,0.5508420091630268 l -13.35968724884581 6.534892495875857" fill="#ffa70f" stroke="none" /><path d="M 119.0197475246899 91.09779779509293 l 13.469898787765336 -6.304592767735742 a35.87232541735246,35.87232541735246 0 0,0 0.2562574330656128,0.5599687383518268 l -13.576140685686001 6.072435047169232" fill="#ffa70f" stroke="none" /><path d="M 119.31412917781788 91.75594674310238 l 21.92083271604206 -9.356699993191807 a44.834234657888544,44.834234657888544 0 0,0 0.2960642679540871,0.7104464646774505 l -22.078222828532628 8.979021019073079" fill="#e4ff1b" stroke="none" /><path d="M 119.58574465831526 92.42381321644754 l 13.843110379237176 -5.354812478570109 a35.84269927110275,35.84269927110275 0 0,0 0.2170519788833707,0.5757561613145096 l -13.932993041934987 5.116388037061442" fill="#ffa60f" stroke="none" /><path d="M 119.71291397450082 92.76114493625339 l 13.932993041934987 -5.116388037061442 a35.84269927110275,35.84269927110275 0 0,0 0.2071363756527195,0.5793973081662179 l -14.018769587631649 4.876455772514307" fill="#ffa60f" stroke="none" /><path d="M 119.94978838288452 93.4421083053983 l 14.07227019719106 -4.625834724619109 a35.81307312485305,35.81307312485305 0 0,0 0.1869703071872922,0.5856818242737761 l -14.149605220155609 4.383583866653946" fill="#ffa60f" stroke="none" /><path d="M 120.16314734710363 94.1308016681162 l 22.770655233514876 -6.628205875390992 a44.71573007288973,44.71573007288973 0 0,0 0.20820816735776745,0.7388573339135465 l -22.88108189294723 6.236340617574433" fill="#e5ff1a" stroke="none" /><path d="M 120.35273937422433 94.82641323984039 l 17.256519676335035 -4.386539820629098 a38.80531389607336,38.80531389607336 0 0,0 0.15857047474922817,0.6470216492840305 l -17.329277677600555 4.089662346736973" fill="#ffce13" stroke="none" /><path d="M 120.43855184770803 95.1765574152323 l 17.314860641263113 -4.086259965416891 a38.7905008229485,38.7905008229485 0 0,0 0.14738384001950922,0.649400393269459 l -17.382455342840288 3.788425238208406" fill="#ffce13" stroke="none" /><path d="M 120.592083275326 95.88100663000786 l 14.554385686722306 -2.911284756688541 a35.84269927110275,35.84269927110275 0 0,0 0.11550515972815024,0.6043718035323701 l -14.602217138732613 2.661010388122856" fill="#ffa60f" stroke="none" /><path d="M 120.7213421655516 96.59031103205396 l 26.324338518804453 -4.331659885683629 a47.67834469786033,47.67834469786033 0 0,0 0.12595825815022602,0.8087423736821076 l -26.394818269092944 3.87912933007008" fill="#c1ff1e" stroke="none" /><path d="M 120.82617615685814 97.30363454192243 l 14.70515095204443 -1.9038761981206076 a35.8278861979779,35.8278861979779 0 0,0 0.07373364262870456,0.6106203339392701 l -14.735666680932798 1.6511621872579245" fill="#ffa60f" stroke="none" /><path d="M 120.86939407059847 97.66154086499901 l 14.750387626668 -1.6528116999325082 a35.84269927110275,35.84269927110275 0 0,0 0.06326681471328145,0.6120490413233485 l -14.776586833862947 1.3993581363262284" fill="#ffa60f" stroke="none" /><path d="M 120.9064616781168 98.02013634271609 l 3.2443603826844787 -0.30724430138899217 a24.25887608746767,24.25887608746767 0 0,0 0.03570257034704902,0.41491798594953505 l -3.2491565757292684 0.25150526806379514" fill="#ff0000" stroke="none" /><path d="M 120.99303781780057 99.45929381324524 l 31.408111835096413 -0.8089615486293321 a52.41852809781331,52.41852809781331 0 0,0 0.015447411744312588,0.8997342911056646 l -31.417370678439394 0.2696803415546011" fill="#8aff24" stroke="none" /><line stroke="#e1ed5e" stroke-width="0.3" x1="184.99686870605535" x2="189.99668451229388" y1="99.2704041080226" y2="99.22748670261217" /><path d="M 185.99683186730306 99.26182062694052 a86.0,86.0 0 0,1 -10.086455211305974,41.156179273409016" fill="none" id="id52" stroke="none" /><text fill="#e1ed5e" style="font-size:6.75px; font-family:Arial;" text-anchor="middle"><textPath startOffset="21.40746469413373" xlink:href="#id52">April</textPath></text><path d="M 120.99922638620191 99.81974689727618 l 14.990277758878202 -0.12867350572996525 a35.99083000235128,35.99083000235128 0 0,0 0.0,0.6178532169075824 l -14.990277758878202 -0.12867350572996344" fill="#ffa80f" stroke="none" /><path d="M 120.99303781780057 100.54070618675476 l 14.822970272009199 0.3817871335115278 a35.8278861979779,35.8278861979779 0 0,0 -0.021113395521017365,0.6146934738591142 l -14.814232189491337 -0.6361868719347528" fill="#ffa60f" stroke="none" /><path d="M 120.98066250479742 100.90099992219065 l 24.093476527963936 1.0346775499598178 a45.11568304726076,45.11568304726076 0 0,0 -0.03987025561610522,0.7734723075280536 l -24.07216468289126 -1.4481216508646022" fill="#e0ff1b" stroke="none" /><path d="M 120.93736805541906 101.62068470465957 l 14.916582461302553 1.1546378215656 a35.96120385610158,35.96120385610158 0 0,0 -0.05292526355333971,0.615071787435478 l -14.894563575051473 -1.4105306563767352" fill="#ffa80f" stroke="none" /><path d="M 120.86939407059847 102.33845913500097 l 14.750387626668 1.6528116999325064 a35.84269927110275,35.84269927110275 0 0,0 -0.07376412787234929,0.610872795488591 l -14.719841412535986 -1.905778172344506" fill="#ffa60f" stroke="none" /><path d="M 120.82617615685814 102.69636545807757 l 15.08710292482481 1.953327527941924 a36.21302609922408,36.21302609922408 0 0,0 -0.0851100671488569,0.6158140483565898 l -15.051348341120743 -2.212029884498599" fill="#ffab0f" stroke="none" /><path d="M 120.7213421655516 103.40968896794604 l 14.645745250328742 2.4099518075818924 a35.84269927110275,35.84269927110275 0 0,0 -0.10511329410389633,0.6062655476203742 l -14.602217138732613 -2.6610103881228544" fill="#ffa60f" stroke="none" /><path d="M 120.592083275326 104.11899336999214 l 23.31316270178573 4.663285463557989 a44.774982365389135,44.774982365389135 0 0,0 -0.15722903321059556,0.7523978414634165 l -23.229675957750768 -5.062799756306814" fill="#e4ff1a" stroke="none" /><path d="M 120.43855184770803 104.8234425847677 l 14.445870410112944 3.40918608272084 a35.84269927110275,35.84269927110275 0 0,0 -0.14646431813266125,0.5976243990523877 l -14.385218565463987 -3.6566663063813274" fill="#ffa60f" stroke="none" /><path d="M 120.35273937422433 105.17358676015961 l 14.385218565463987 3.6566663063813274 a35.84269927110275,35.84269927110275 0 0,0 -0.15670175378285045,0.5950220829432922 l -14.320327330876406 -3.9030688936974225" fill="#ffa60f" stroke="none" /><path d="M 120.16314734710363 105.8691983318838 l 14.251215830094884 4.148321228695672 a35.84269927110275,35.84269927110275 0 0,0 -0.17703507949533323,0.5892922021008555 l -14.17790443059592 -4.392351034387252" fill="#ffa60f" stroke="none" /><path d="M 119.94978838288452 106.5578916946017 l 22.698571828069174 7.461471410810622 a44.89348695038796,44.89348695038796 0 0,0 -0.24694534377240948,0.7300500295511246 l -22.5671410627244 -7.850023114835907" fill="#e3ff1b" stroke="none" /><path d="M 119.71291397450082 107.23885506374661 l 16.71402957725135 6.137623174199451 a38.80531389607336,38.80531389607336 0 0,0 -0.23499263012045876,0.6233458701984729 l -16.606206263316448 -6.423637324592082" fill="#ffce13" stroke="none" /><path d="M 119.58574465831526 107.57618678355244 l 13.829294899816777 5.3494683543399955 a35.8278861979779,35.8278861979779 0 0,0 -0.22680984115819447,0.5717089628728846 l -13.735426383692458 -5.586078334426444" fill="#ffa60f" stroke="none" /><path d="M 119.31412917781788 108.2440532568976 l 13.651133860456278 5.826857298432685 a35.84269927110275,35.84269927110275 0 0,0 -0.24640339770487804,0.5638191948029964 l -13.549096580734435 -6.060338563011526" fill="#ffa60f" stroke="none" /><path d="M 119.0197475246899 108.90220220490707 l 21.6672176715548 10.141351912244243 a44.923113096637664,44.923113096637664 0 0,0 -0.33290324737378807,0.6956397498734277 l -21.4899351662211 -10.511804164182774" fill="#e2ff1b" stroke="none" /><path d="M 118.70294669586154 109.54985784667822 l 14.670357436490507 7.4907890375073025 a37.47213731483659,37.47213731483659 0 0,0 -0.2974429966021891,0.5703861653138791 l -14.539606370913368 -7.7415214459256845" fill="#ffbc11" stroke="none" /><path d="M 118.5362547648365 109.86951160357373 l 14.408854515059833 7.671903447311246 a37.32400658358806,37.32400658358806 0 0,0 -0.30597625258820904,0.562961841938743 l -14.275032912856284 -7.918120122724592" fill="#ffba11" stroke="none" /><line stroke="#e1ed5e" stroke-width="0.3" x1="174.33088141563837" x2="178.70328620479359" y1="141.23008692659167" y2="143.65538615756765" /><path d="M 175.20536237346943 141.71514677278685 a86.0,86.0 0 0,1 -30.301960400862466,31.631185727798858" fill="none" id="id53" stroke="none" /><text fill="#e1ed5e" style="font-size:6.75px; font-family:Arial;" text-anchor="middle"><textPath startOffset="22.145653131862474" xlink:href="#id53">May</textPath></text><path d="M 118.18653347947321 110.5 l 15.419854156355607 8.902656948036675 a38.80531389607336,38.80531389607336 0 0,0 -0.33802438563135995,0.5740393059912989 l -15.264756060594483 -9.166047422321522" fill="#ffce13" stroke="none" /><path d="M 117.81537515405839 111.11811171558189 l 20.508835352520535 12.799030086877245 a45.17493533976017,45.17493533976017 0 0,0 -0.4162167033422838,0.6543617894109641 l -20.28610095755236 -13.149205550966881" fill="#dfff1b" stroke="none" /><path d="M 117.423217284605 111.72311816256416 l 13.555943097756392 9.121043498689112 a37.33881965671291,37.33881965671291 0 0,0 -0.36238260291618796,0.5287270475900134 l -13.397370758024884 -9.352405281349169" fill="#ffba11" stroke="none" /><path d="M 117.21940702142032 112.02048342749411 l 13.385224456340369 9.343926219444048 a37.32400658358806,37.32400658358806 0 0,0 -0.37125816369904246,0.522221101176313 l -13.222851194111366 -9.572324547329867" fill="#ffba11" stroke="none" /><path d="M 116.79662413953412 112.60449989151573 l 11.871773374897609 8.908800064400726 a35.84269927110275,35.84269927110275 0 0,0 -0.3735287553221501,0.48896113115082807 l -11.717092642221155 -9.111282108792432" fill="#ffa60f" stroke="none" /><path d="M 116.1254893667686 113.45245675266167 l 19.34831230628266 16.141050272474143 a46.197037385375026,46.197037385375026 0 0,0 -0.51323904627967,0.6045943059962257 l -19.068378696495877 -16.470811360919924" fill="#d3ff1c" stroke="none" /><path d="M 115.89218393027572 113.72728997021213 l 12.476840381657802 10.77719755714514 a37.48695038796144,37.48695038796144 0 0,0 -0.4248323542032492,0.4833812336836733 l -12.289996963495966 -10.989791068640107" fill="#ffbc11" stroke="none" /><path d="M 115.6541949942343 113.99807769240083 l 11.174732189629752 9.992514430785072 a35.99083000235128,35.99083000235128 0 0,0 -0.41578371938949865,0.45701914219612755 l -11.001550769398374 -10.18287114853887" fill="#ffa80f" stroke="none" /><path d="M 115.16444852881244 114.52719865689866 l 10.803733609758218 10.349732407806945 a35.96120385610158,35.96120385610158 0 0,0 -0.4308720731762689,0.44211270483674325 l -10.624474735431143 -10.533667804711426" fill="#ffa80f" stroke="none" /><path d="M 114.65682725009322 115.03919595460226 l 16.665980856207568 17.100764551247718 a44.87867387726311,44.87867387726311 0 0,0 -0.5563406480061553,0.5329617558552979 l -16.369967722336103 -17.384338437408594" fill="#e3ff1b" stroke="none" /><path d="M 114.13192950727249 115.5334660781643 l 9.988379990327092 10.978979316003265 a35.84269927110275,35.84269927110275 0 0,0 -0.4586755631998824,0.4101505169472124 l -9.798439400303831 -11.148825362833865" fill="#ffa60f" stroke="none" /><path d="M 113.86319453409587 115.77377054828091 l 9.788660518666799 11.137698790615467 a35.8278861979779,35.8278861979779 0 0,0 -0.46545631197759696,0.4020500763780881 l -9.596024726926347 -11.304092999458272" fill="#ffa60f" stroke="none" /><path d="M 113.31354834802062 116.24036423190432 l 9.40995211242652 11.478611540349025 a35.84269927110275,35.84269927110275 0 0,0 -0.4791814385119261,0.3859946473909437 l -9.211519903559342 -11.638454481533373" fill="#ffa60f" stroke="none" /><path d="M 112.7482090630111 116.68781488649013 l 14.441775515068777 18.90474773644708 a44.78979543851399,44.78979543851399 0 0,0 -0.6150001734282715,0.46150759550625936 l -14.115122352729738 -19.149874359217357" fill="#e4ff1a" stroke="none" /><path d="M 112.16784306229584 117.11559508785304 l 8.608756119080219 12.109293585551322 a35.8575123442276,35.8575123442276 0 0,0 -0.504745555583392,0.3523515983125332 l -8.399615472323068 -12.255289999668978" fill="#ffa70f" stroke="none" /><path d="M 111.8722381534696 117.32195027204791 l 8.399615472323068 12.255289999668978 a35.8575123442276,35.8575123442276 0 0,0 -0.5107197638936191,0.34363504984650506 l -8.187999420332446 -12.397674723572605" fill="#ffa70f" stroke="none" /><path d="M 111.27062007382361 117.71928675628689 l 7.973970327330176 12.536405795830536 a35.8575123442276,35.8575123442276 0 0,0 -0.5222149298681144,0.3259007390869223 l -7.757591268672346 -12.671442331759005" fill="#ffa70f" stroke="none" /><line stroke="#e1ed5e" stroke-width="0.3" x1="143.1302829299769" x2="145.66735839644613" y1="173.24464959558577" y2="177.55315839532614" /><path d="M 143.63769802327073 174.10635135553383 a86.0,86.0 0 0,1 -40.68552437913181,11.842963189579606" fill="none" id="id54" stroke="none" /><text fill="#e1ed5e" style="font-size:6.75px; font-family:Arial;" text-anchor="middle"><textPath startOffset="21.407464694133747" xlink:href="#id54">June</textPath></text><path d="M 110.65571695917076 118.09573695890943 l 12.05626851811185 20.47417969580817 a44.76016929226428,44.76016929226428 0 0,0 -0.6654505710899334,0.38419806635116477 l -11.703025479161518 -20.678124659435507" fill="#e4ff1a" stroke="none" /><path d="M 110.02825361518725 118.45085714620011 l 8.495602580653578 15.630951868741827 a38.7905008229485,38.7905008229485 0 0,0 -0.5877891049096717,0.31296459101140417 l -8.226024659957353 -15.774486927475799" fill="#ffce13" stroke="none" /><path d="M 109.71004243097381 118.62028667847754 l 6.863011414885322 13.160729310017283 a35.84269927110275,35.84269927110275 0 0,0 -0.5480054779170247,0.2798155017180535 l -6.6360787152547145 -13.276602763408173" fill="#ffa60f" stroke="none" /><path d="M 109.06512990194946 118.94263497670748 l 10.269408856711145 21.459114817252917 a44.78979543851399,44.78979543851399 0 0,0 -0.6963987482886356,0.3259497774332683 l -9.899521394551003 -21.63224082625672" fill="#e4ff1a" stroke="none" /><path d="M 108.07796709384702 119.3841803445677 l 5.709468395039774 13.700645689106631 a35.84269927110275,35.84269927110275 0 0,0 -0.5699766438322572,0.23180453902913814 l -5.473437290017076 -13.79663748471506" fill="#ffa60f" stroke="none" /><path d="M 107.06938296918513 119.77432235084164 l 5.006579238933832 14.004293186159188 a35.87232541735246,35.87232541735246 0 0,0 -0.5816342737110078,0.20232259284956275 l -4.765439193177802 -14.088174211577341" fill="#ffa70f" stroke="none" /><path d="M 106.38641147887787 120.00534299687104 l 4.518389875368806 14.153791929834217 a35.8575123442276,35.8575123442276 0 0,0 -0.5879938217931493,0.18216198903083672 l -4.274755420704032 -14.229270506671698" fill="#ffa70f" stroke="none" /><path d="M 105.69591212413111 120.21278271476187 l 6.536973213704195 23.19741181066369 a45.100869974135904,45.100869974135904 0 0,0 -0.7469962576681154,0.2035971517722564 l -6.137795555101385 -23.306209456580092" fill="#e0ff1b" stroke="none" /><path d="M 104.64783097203109 120.47920084513623 l 3.904702577725617 17.204840023435633 a38.64237009169997,38.64237009169997 0 0,0 -0.648156907486161,0.14126278124747635 l -3.60878325362032 -17.269334262816827" fill="#ffcc13" stroke="none" /><path d="M 103.94208987418118 120.62667999033965 l 2.7862502143871657 14.578838478946862 a35.84269927110275,35.84269927110275 0 0,0 -0.6053409755826185,0.1103132907200168 l -2.5355745052534897 -14.624519943598242" fill="#ffa60f" stroke="none" /><path d="M 103.58742460773223 120.69131181640829 l 2.5355745052534897 14.624519943598242 a35.84269927110275,35.84269927110275 0 0,0 -0.6071454515254523,0.0999055530025691 l -2.2841515506749652 -14.665891495096481" fill="#ffa60f" stroke="none" /><path d="M 103.2317021107853 120.74984581791261 l 4.2651173166795004 27.38511276180191 a48.715259816600046,48.715259816600046 0 0,0 -0.8274052452561897,0.1216000777882027 l -3.7943869658156255 -27.454293912888996" fill="#b5ff20" stroke="none" /><path d="M 102.15924093988457 120.88869738790638 l 1.8307601291379594 17.710943517702884 a38.80531389607336,38.80531389607336 0 0,0 -0.663202100013441,0.06280592839989685 l -1.526458465739503 -17.739761201607962" fill="#ffce13" stroke="none" /><path d="M 101.44090949804482 120.95050786540614 l 1.0184279217311822 14.807718467766481 a35.84269927110275,35.84269927110275 0 0,0 -0.6141998936916143,0.03694874041160655 l -0.7640836759071028 -14.823019186002778" fill="#ffa60f" stroke="none" /><path d="M 101.08105385017728 120.97215588758144 l 0.8395769732272655 16.287568985817423 a37.3091935104632,37.3091935104632 0 0,0 -0.6398957331060738,0.027479876081453455 l -0.5598554795203622 -16.299581430324707" fill="#ffba11" stroke="none" /><path d="M 100.72087961077811 120.9876233191556 l 0.8141041078220708 23.701752833741924 a44.71573007288973,44.71573007288973 0 0,0 -0.7673787509464717,0.0197649545445548 l -0.4071120428048553 -23.712235505636524" fill="#e5ff1a" stroke="none" /><line stroke="#e1ed5e" stroke-width="0.3" x1="101.45913802915013" x2="101.54496967792366" y1="184.9874750549273" y2="189.98673829345242" /><path d="M 101.47630435890484 185.9873277026323 a86.0,86.0 0 0,1 -42.54439059252881,-10.42667462771756" fill="none" id="id55" stroke="none" /><text fill="#e1ed5e" style="font-size:6.75px; font-family:Arial;" text-anchor="middle"><textPath startOffset="22.145653131862474" xlink:href="#id55">July</textPath></text><path d="M 99.63950707515114 120.99690560180557 l -0.25454038403975904 14.825701274917025 a35.8278861979779,35.8278861979779 0 0,0 -0.6148520557495137,-0.015836407925712632 l 0.5090057538600168 -14.819147149641264" fill="#ffa60f" stroke="none" /><path d="M 98.91894614982273 120.97215588758144 l -0.7633211173483029 14.808225753681416 a35.8278861979779,35.8278861979779 0 0,0 -0.6139460571189677,-0.03693347023372601 l 1.0174115265997168 -14.792940305622999" fill="#ffa60f" stroke="none" /><path d="M 98.55909050195518 120.95050786540614 l -1.0174115265997168 14.792940305622999 a35.8278861979779,35.8278861979779 0 0,0 -0.6132215786294114,-0.04746722847023059 l 1.2712021000043643 -14.773295310157714" fill="#ffa60f" stroke="none" /><path d="M 98.19965949673042 120.92268563240118 l -2.062369840566521 23.96786371997615 a45.056430754761344,45.056430754761344 0 0,0 -0.7700367938188891,-0.0729232849788852 l 2.473506197770426 -23.928928679492085" fill="#e1ff1b" stroke="none" /><path d="M 97.12497278360702 120.80226474461374 l -2.030027446703058 14.688267347301917 a35.8278861979779,35.8278861979779 0 0,0 -0.608519405998269,-0.08943139716513265 l 2.281871958309012 -14.651254876837902" fill="#ffa60f" stroke="none" /><path d="M 96.41257539226777 120.69131181640829 l -2.535574505253486 14.624519943598242 a35.84269927110275,35.84269927110275 0 0,0 -0.6053409755826185,-0.11031329072001282 l 2.7862502143871617 -14.578838478946864" fill="#ffa60f" stroke="none" /><path d="M 96.05791012581884 120.62667999033965 l -2.7862502143871617 14.578838478946864 a35.84269927110275,35.84269927110275 0 0,0 -0.6033581028757995,-0.12068851860434718 l 3.0361048027939193 -14.528860563679654" fill="#ffa60f" stroke="none" /><path d="M 95.70440661134978 120.55596938700252 l -5.763145044824386 27.57873532147575 a49.174465083470494,49.174465083470494 0 0,0 -0.8248140354784905,-0.17976438007201856 l 6.235721496922013 -27.475739483270015" fill="#b0ff20" stroke="none" /><path d="M 94.6519064749342 120.30758222061772 l -3.776234388848489 14.338977053495185 a35.8278861979779,35.8278861979779 0 0,0 -0.5934097707072307,-0.1617364717822921 l 4.021825560490415 -14.27204008756875" fill="#ffa60f" stroke="none" /><path d="M 93.95794788825049 120.11202640906438 l -4.266231481679701 14.200897085920609 a35.8278861979779,35.8278861979779 0 0,0 -0.5875080103182285,-0.18201148339406412 l 4.509380124869564 -14.125569014719895" fill="#ffa60f" stroke="none" /><path d="M 93.61358852112213 120.00534299687104 l -4.509380124869564 14.125569014719895 a35.8278861979779,35.8278861979779 0 0,0 -0.5842969705215079,-0.19207001982293243 l 4.7511998330388145 -14.046078073494941" fill="#ffa60f" stroke="none" /><path d="M 93.27111125876986 119.89276391827306 l -7.741465462224082 22.886267070799448 a45.16012226663531,45.16012226663531 0 0,0 -0.7322267126443053,-0.25470646031687555 l 8.133197946913409 -22.75000217791398" fill="#e0ff1b" stroke="none" /><path d="M 92.25597844496254 119.51999308798841 l -5.473437290017073 13.796637484715061 a35.84269927110275,35.84269927110275 0 0,0 -0.5699766438322572,-0.23180453902913814 l 5.709468395039771 -13.700645689106633" fill="#ffa60f" stroke="none" /><path d="M 91.59046798132341 119.24265499422711 l -11.27664262932344 25.803165161551178 a49.15965201034564,49.15965201034564 0 0,0 -0.770370599851704,-0.3445769705952232 l 11.717926632030778 -25.6057844400461" fill="#b0ff20" stroke="none" /><path d="M 91.26138138417905 119.09545874513695 l -6.213398235185177 13.577396483727755 a35.931577709851865,35.931577709851865 0 0,0 -0.5586697928890589,-0.2614856719636205 l 6.445556741945726 -13.468734580193608" fill="#ffa80f" stroke="none" /><path d="M 90.93487009805054 118.94263497670748 l -6.790854424549962 14.190273932703981 a36.73148365859393,36.73148365859393 0 0,0 -0.566434024392068,-0.27707126570109847 l 7.033448698204099 -14.071608916905662" fill="#ffb210" stroke="none" /><path d="M 89.97174638481275 118.45085714620012 l -7.080847779545571 13.027962381857263 a35.8278861979779,35.8278861979779 0 0,0 -0.537854730952109,-0.2983389526492065 l 7.303446698653782 -12.904490513774908" fill="#ffa60f" stroke="none" /><line stroke="#e1ed5e" stroke-width="0.3" x1="58.13341422392154" x2="55.67067388415222" y1="173.97424548756322" y2="178.32567169271397" /><path d="M 57.64086615596768 174.84453072859336 a86.0,86.0 0 0,1 -31.369924170532247,-30.572349798747897" fill="none" id="id56" stroke="none" /><text fill="#e1ed5e" style="font-size:6.75px; font-family:Arial;" text-anchor="middle"><textPath startOffset="22.145653131862474" xlink:href="#id56">August</textPath></text><path d="M 89.34428304082925 118.09573695890944 l -7.523893258497473 12.777215633107225 a35.8278861979779,35.8278861979779 0 0,0 -0.5272964774087251,-0.31662638422557576 l 7.742122492463626 -12.646175248345731" fill="#ffa60f" stroke="none" /><path d="M 89.03521579738668 117.91015095944536 l -12.398224131287906 20.251567355742466 a44.74535621913943,44.74535621913943 0 0,0 -0.6516540477092934,-0.4066803218955784 l 12.744042307786911 -20.03575123700534" fill="#e5ff1a" stroke="none" /><path d="M 88.72937992617639 117.7192867562869 l -7.966020207362749 12.523906886761916 a35.84269927110275,35.84269927110275 0 0,0 -0.5163300718190376,-0.33467891443015013 l 8.179835911438795 -12.38531413062787" fill="#ffa60f" stroke="none" /><path d="M 87.83215693770417 117.11559508785305 l -9.458473821761114 13.304527947435265 a37.32400658358806,37.32400658358806 0 0,0 -0.5190151757778704,-0.37572696195414973 l 9.685470007912937 -13.140200214108049" fill="#ffba11" stroke="none" /><path d="M 87.2517909369889 116.68781488649013 l -9.019365405737224 11.80663884162915 a35.8575123442276,35.8575123442276 0 0,0 -0.48593768682317695,-0.3778680844415236 l 9.22071303719563 -11.650069705566834" fill="#ffa70f" stroke="none" /><path d="M 86.96720088162412 116.46651593811092 l -17.05326289531196 21.54624058208024 a48.4782506466024,48.4782506466024 0 0,0 -0.6481062630265787,-0.5220685284590395 l 17.4206199286938 -21.25032375982779" fill="#b8ff1f" stroke="none" /><path d="M 86.68645165197938 116.24036423190432 l -9.419343282199396 11.490067240489093 a35.8575123442276,35.8575123442276 0 0,0 -0.47267998714233134,-0.39432645672043226 l 9.615197603503619 -11.326678599856791" fill="#ffa70f" stroke="none" /><path d="M 85.86807049272751 115.53346607816431 l -9.978411547222969 10.968022250817635 a35.8278861979779,35.8278861979779 0 0,0 -0.4513805735588652,-0.4177911201654057 l 10.1652218920958 -10.795113384519853" fill="#ffa60f" stroke="none" /><path d="M 85.34317274990678 115.03919595460226 l -10.349036499419212 10.619023148758663 a35.8278861979779,35.8278861979779 0 0,0 -0.4367727786355495,-0.43303970039521444 l 10.529801198184723 -10.43980343813479" fill="#ffa60f" stroke="none" /><path d="M 85.08716467003676 114.78537596483092 l -10.540320480100993 10.450232812198863 a35.84269927110275,35.84269927110275 0 0,0 -0.4294522009043673,-0.4406557908018563 l 10.71815948215617 -10.267754329329268" fill="#ffa60f" stroke="none" /><path d="M 84.83555147118756 114.52719865689866 l -17.136219052309567 16.41611021515518 a44.73054314601458,44.73054314601458 0 0,0 -0.5264234663022066,-0.5590434785710943 l 17.415498352348028 -16.119525276639596" fill="#e5ff1a" stroke="none" /><path d="M 84.1078160697243 113.72728997021213 l -11.221309274069588 9.692699689759467 a35.8278861979779,35.8278861979779 0 0,0 -0.3980400299065116,-0.46889015437245085 l 11.386043867483211 -9.49864275293746" fill="#ffa60f" stroke="none" /><path d="M 83.64595745247003 113.17365903436017 l -11.558958828562213 9.31107901652638 a35.84269927110275,35.84269927110275 0 0,0 -0.38186738301737694,-0.48247696381926497 l 11.717092642221152 -9.111282108792434" fill="#ffa60f" stroke="none" /><path d="M 83.4222238831116 112.89097897827486 l -18.721622076043978 14.558046563050585 a44.71573007288973,44.71573007288973 0 0,0 -0.4659975765529047,-0.6100057864309143 l 18.968771629951178 -14.2345198633788" fill="#e5ff1a" stroke="none" /><path d="M 83.20337586046588 112.60449989151573 l -11.919165683779438 8.944364136514096 a35.90195156360216,35.90195156360216 0 0,0 -0.3656835682120783,-0.4961199918424585 l 12.070951271575346 -8.73843783540276" fill="#ffa70f" stroke="none" /><path d="M 82.576782715395 111.72311816256416 l -12.314646404308165 8.285843686025833 a35.84269927110275,35.84269927110275 0 0,0 -0.33909849468009523,-0.5134383407328371 l 12.455069337908988 -8.073225466953936" fill="#ffa60f" stroke="none" /><path d="M 82.18462484594161 111.11811171558189 l -12.579255017079076 7.850385488335863 a35.8278861979779,35.8278861979779 0 0,0 -0.32114075944311865,-0.5245592958853078 l 12.7121637409776 -7.6332890763259975" fill="#ffa60f" stroke="none" /><path d="M 81.99639281039703 110.81064883170644 l -20.50963480687195 12.31544641185463 a44.923113096637664,44.923113096637664 0 0,0 -0.39131516229469837,-0.6645386952422294 l 20.71802367929642 -11.961556548318843" fill="#e2ff1b" stroke="none" /><line stroke="#e1ed5e" stroke-width="0.3" x1="26.387840678322732" x2="22.057713659400548" y1="142.50000000000003" y2="145.00000000000006" /><path d="M 25.521815274538298 143.00000000000003 a86.0,86.0 0 0,1 -11.493303480769221,-40.785679425670985" fill="none" id="id57" stroke="none" /><text fill="#e1ed5e" style="font-size:6.75px; font-family:Arial;" text-anchor="middle"><textPath startOffset="21.40746469413373" xlink:href="#id57">September</textPath></text><path d="M 81.81346652052679 110.50000000000001 l -13.251838056169165 7.650952268986604 a36.30190453797319,36.30190453797319 0 0,0 -0.30695271581538364,-0.5423560372046222 l 13.381224137005926 -7.42233946168286" fill="#ffad10" stroke="none" /><path d="M 81.4637452351635 109.86951160357371 l -13.480516338499715 7.177615657148721 a36.27227839172349,36.27227839172349 0 0,0 -0.2879188632283148,-0.5521223837654178 l 13.601743270702979 -6.9451470302788" fill="#ffac0f" stroke="none" /><path d="M 81.29705330413844 109.54985784667822 l -13.219153013816088 6.749793719048844 a35.84269927110275,35.84269927110275 0 0,0 -0.2751013990115216,-0.5503870811444436 l 13.333074326039347 -6.521874781740648" fill="#ffa60f" stroke="none" /><path d="M 80.9802524753101 108.90220220490708 l -13.443066320060627 6.2920338179992195 a35.84269927110275,35.84269927110275 0 0,0 -0.256045795818751,-0.5595062727730011 l 13.549096580734433 -6.06033856301153" fill="#ffa60f" stroke="none" /><path d="M 80.83023694016515 108.57439118712176 l -13.535574528258648 6.054290320932674 a35.8278861979779,35.8278861979779 0 0,0 -0.2463015640923772,-0.5635861795688777 l 13.637509974367994 -5.821042071587947" fill="#ffa60f" stroke="none" /><path d="M 80.68587082218212 108.24405325689762 l -21.852713285600657 9.3276238589681 a44.76016929226428,44.76016929226428 0 0,0 -0.29557517500041347,-0.7092728196366763 l 22.009614305137557 -8.951118529890142" fill="#e4ff1a" stroke="none" /><path d="M 80.28708602549918 107.23885506374661 l -13.919087859258402 5.111281861375749 a35.8278861979779,35.8278861979779 0 0,0 -0.2070507703176929,-0.5791578548083784 l 14.00477879962004 -4.871589050186449" fill="#ffa60f" stroke="none" /><path d="M 80.05021161711548 106.5578916946017 l -14.100414737585439 4.635086394068348 a35.84269927110275,35.84269927110275 0 0,0 -0.18712497723322527,-0.5861663259896985 l 14.177904430595918 -4.392351034387258" fill="#ffa60f" stroke="none" /><path d="M 79.94057633289273 106.21446072829308 l -14.16375482537576 4.387967450520604 a35.8278861979779,35.8278861979779 0 0,0 -0.17696191442597298,-0.5890486593806044 l 14.236993059805362 -4.144181187549275" fill="#ffa60f" stroke="none" /><path d="M 79.83685265289637 105.86919833188381 l -22.770655233514876 6.628205875391 a44.71573007288973,44.71573007288973 0 0,0 -0.20820816735778236,-0.7388573339135837 l 22.881081892947233 -6.236340617574421" fill="#e5ff1a" stroke="none" /><path d="M 79.64726062577567 105.17358676015961 l -30.320939730798344 7.707464310456444 a52.285210439689635,52.285210439689635 0 0,0 -0.21365348735456569,-0.8717791378379576 l 30.448780744669204 -7.185829348010388" fill="#8cff24" stroke="none" /><path d="M 79.56144815229197 104.8234425847677 l -14.517955591800135 3.42619798932124 a35.91676463672702,35.91676463672702 0 0,0 -0.13646512885716777,-0.6012905372507695 l 14.574631582214968 -3.1764731181314443" fill="#ffa70f" stroke="none" /><path d="M 79.407916724674 104.11899336999214 l -14.539860351705613 2.908379282879472 a35.8278861979779,35.8278861979779 0 0,0 -0.11545742374810003,-0.6041220287134422 l 14.58764406773587 -2.658354689132715" fill="#ffa60f" stroke="none" /><path d="M 79.34024301695615 103.76489593502545 l -23.346059736776095 4.254429782208402 a44.73054314601458,44.73054314601458 0 0,0 -0.1311780315866093,-0.7566000269862101 l 23.41565258585494 -3.8530367223015998" fill="#e5ff1a" stroke="none" /><path d="M 79.2786578344484 103.40968896794605 l -14.631128738102863 2.407546666057366 a35.8278861979779,35.8278861979779 0 0,0 -0.094651317433513,-0.607729356196896 l 14.670301547674644 -2.15602912792902" fill="#ffa60f" stroke="none" /><path d="M 79.17382384314188 102.69636545807758 l -16.203577922182824 2.097877568958081 a37.33881965671291,37.33881965671291 0 0,0 -0.0768431374804705,-0.6363714119692581 l 16.237203145922955 -1.8194124800654239" fill="#ffba11" stroke="none" /><path d="M 79.13060592940153 102.33845913500099 l -14.750387626668 1.6528116999325069 a35.84269927110275,35.84269927110275 0 0,0 -0.06326681471328145,-0.6120490413233485 l 14.776586833862947 -1.3993581363262269" fill="#ffa60f" stroke="none" /><path d="M 79.03789590574601 101.26102812881392 l -44.3738121703665 2.66941835027315 a65.45403244768399,65.45403244768399 0 0,0 -0.057843943137473,-1.1221570437333779 l 44.41309770296054 -1.9072895131630412" fill="#35ff66" stroke="none" /><line stroke="#e1ed5e" stroke-width="0.3" x1="15.003131293944662" x2="10.003315487706104" y1="100.72959589197737" y2="100.7725132973878" /><path d="M 14.003168132696942 100.73817937305945 a86.0,86.0 0 0,1 10.791469493833604,-42.45332614584628" fill="none" id="id58" stroke="none" /><text fill="#e1ed5e" style="font-size:6.75px; font-family:Arial;" text-anchor="middle"><textPath startOffset="22.145653131862435" xlink:href="#id58">October</textPath></text><path d="M 79.00077361379809 100.18025310272382 l -14.842152484580987 0.12740202840061302 a35.84269927110275,35.84269927110275 0 0,0 0.0,-0.6153102622488557 l 14.842152484580987 0.12740202840060758" fill="#ffa60f" stroke="none" /><path d="M 79.00696218219943 99.45929381324524 l -16.30378648299913 -0.4199277062899075 a37.3091935104632,37.3091935104632 0 0,0 0.02198633083747893,-0.6401080331421042 l 16.2941754651648 0.6997420039961503" fill="#ffba11" stroke="none" /><path d="M 79.01933749520258 99.09900007780938 l -14.814232189491339 -0.6361868719347378 a35.8278861979779,35.8278861979779 0 0,0 0.03166231528406433,-0.6142404578552969 l 14.801128284750703 0.8903991231667467" fill="#ffa60f" stroke="none" /><path d="M 79.06263194458094 98.37931529534042 l -28.075666593006087 -2.1732341572239875 a49.15965201034564,49.15965201034564 0 0,0 0.07234984538473299,-0.8408148724024743 l 28.03422312492361 2.6548700770021423" fill="#b0ff20" stroke="none" /><path d="M 79.13060592940154 97.66154086499901 l -16.384412603274935 -1.8359076068112663 a37.48695038796144,37.48695038796144 0 0,0 0.07714798991690527,-0.6388960274623259 l 16.35048252709836 2.1168973111970284" fill="#ffbc11" stroke="none" /><path d="M 79.2786578344484 96.59031103205396 l -16.282794619626962 -2.67932765832957 a37.50176346108629,37.50176346108629 0 0,0 0.10997871176733608,-0.6343279837686571 l 16.234401090367392 2.95844867501882" fill="#ffbd11" stroke="none" /><path d="M 79.34024301695615 96.23510406497455 l -16.350985658341305 -2.9796942669399606 a37.620268046085116,37.620268046085116 0 0,0 0.12123347733417088,-0.6343447818037095 l 16.297425888724977 3.2599416137769848" fill="#ffbe11" stroke="none" /><path d="M 79.407916724674 95.88100663000787 l -27.612661866725652 -5.523305711042823 a49.15965201034564,49.15965201034564 0 0,0 0.17262596544382883,-0.8260777359516734 l 27.513778190457455 5.9964998982799065" fill="#b0ff20" stroke="none" /><path d="M 79.64726062577567 94.8264132398404 l -14.385218565463987 -3.656666306381319 a35.84269927110275,35.84269927110275 0 0,0 0.15670175378285842,-0.5950220829433239 l 14.320327330876404 3.9030688936974274" fill="#ffa60f" stroke="none" /><path d="M 79.83685265289637 94.1308016681162 l -14.251215830094884 -4.148321228695674 a35.84269927110275,35.84269927110275 0 0,0 0.17703507949533323,-0.5892922021008555 l 14.17790443059592 4.392351034387253" fill="#ffa60f" stroke="none" /><path d="M 79.94057633289273 93.78553927170692 l -26.89839952351581 -8.33319293050915 a49.15965201034564,49.15965201034564 0 0,0 0.25664916287835116,-0.8039498473003772 l 26.751385644860203 8.793711811500918" fill="#b0ff20" stroke="none" /><path d="M 80.05021161711548 93.44210830539832 l -14.100414737585442 -4.6350863940683436 a35.84269927110275,35.84269927110275 0 0,0 0.19715972838142548,-0.5828677039717989 l 14.01876958763165 4.876455772514304" fill="#ffa60f" stroke="none" /><path d="M 80.41425534168474 92.42381321644754 l -13.829294899816775 -5.349468354340001 a35.8278861979779,35.8278861979779 0 0,0 0.22680984115818253,-0.5717089628728529 l 13.735426383692461 5.586078334426436" fill="#ffa60f" stroke="none" /><path d="M 80.5471966667186 92.08871423366112 l -14.0784690006678 -5.725590780341183 a36.198213026099225,36.198213026099225 0 0,0 0.23903602955633102,-0.5735994529240759 l 13.97810712657499 5.9664227427065235" fill="#ffab0f" stroke="none" /><path d="M 80.9802524753101 91.09779779509293 l -15.160344253162183 -7.095806601136838 a37.73877263108394,37.73877263108394 0 0,0 0.2796636095491291,-0.5843893831922263 l 15.036301385653148 7.3550084863941505" fill="#ffc011" stroke="none" /><path d="M 81.29705330413844 90.45014215332179 l -14.894634483631105 -7.605306495814511 a37.72395955795909,37.72395955795909 0 0,0 0.2994418887917844,-0.5742193046512398 l 14.76188452586438 7.859872043570237" fill="#ffc011" stroke="none" /><line stroke="#e1ed5e" stroke-width="0.3" x1="26.387840678322718" x2="22.05771365940052" y1="57.49999999999999" y2="54.99999999999999" /><path d="M 25.521815274538284 56.99999999999999 a86.0,86.0 0 0,1 29.574782752854787,-30.34633250058573" fill="none" id="id59" stroke="none" /><text fill="#e1ed5e" style="font-size:6.75px; font-family:Arial;" text-anchor="middle"><textPath startOffset="21.40746469413373" xlink:href="#id59">November</textPath></text><path d="M 82.18462484594161 88.88188828441811 l -53.44612546217515 -33.35433514674566 a84.0,84.0 0 0,0 0.7739292334964403,-1.2167453012853122 l 52.865678537052815 34.266894122709644" fill="#4dd2ff" stroke="none" /><path d="M 82.98947788004972 87.6856937992154 l -7.223372430902945 -5.229164589376202 a29.917470021161535,29.917470021161535 0 0,0 0.30472792460419523,-0.41342195441804774 l 7.1325424867149305 5.3523928530631135" fill="#ff5407" stroke="none" /><path d="M 83.64595745247003 86.82634096563983 l -13.047088258586694 -10.509810746198932 a37.753585704208795,37.753585704208795 0 0,0 0.41089057608780527,-0.5012196929539909 l 12.864750863260259 10.732232720851416" fill="#ffc011" stroke="none" /><path d="M 83.8745106332314 86.54754324733833 l -12.853376194061973 -10.722743567252076 a37.73877263108394,37.73877263108394 0 0,0 0.4192695629238476,-0.4938984908859718 l 12.667412067631009 10.941808840587603" fill="#ffc011" stroke="none" /><path d="M 84.34580500576568 86.00192230759919 l -12.37833476736656 -11.068783277579106 a37.60545497296026,37.60545497296026 0 0,0 0.4344366589203737,-0.47752199025461517 l 12.18650040760432 11.27964284339138" fill="#ffbe11" stroke="none" /><path d="M 84.83555147118756 85.47280134310135 l -10.72885624810643 -10.278001589138967 a35.8575123442276,35.8575123442276 0 0,0 0.4296296849383664,-0.44083790505622905 l 10.550839762017262 10.460662186262926" fill="#ffa70f" stroke="none" /><path d="M 85.34317274990677 84.96080404539775 l -19.66420321867669 -20.177204824114842 a49.174465083470494,49.174465083470494 0 0,0 0.6095936311468312,-0.5839769090728529 l 19.314937101664558 20.511793863493264" fill="#b0ff20" stroke="none" /><path d="M 86.13680546590413 84.22622945171909 l -10.776327564006811 -12.26148258467357 a37.32400658358806,37.32400658358806 0 0,0 0.48489309016520754,-0.4188391024451569 l 10.564254994078755 12.44466581958344" fill="#ffba11" stroke="none" /><path d="M 86.40962598614128 83.9905735841838 l -10.861434581026522 -12.794742625760467 a37.7832118504585,37.7832118504585 0 0,0 0.4980648941907059,-0.4155034490256948 l 10.640195352673906 12.979308258698042" fill="#ffc011" stroke="none" /><path d="M 86.96720088162412 83.53348406188908 l -10.2135714699146 -12.904513901181211 a37.45732424171173,37.45732424171173 0 0,0 0.5076181895125873,-0.39472697446615906 l 9.990543335766768 13.077941927268174" fill="#ffbc11" stroke="none" /><path d="M 88.12776184653039 82.6780497279521 l -4.455229742049728 -6.500313339804483 a28.88055490242182,28.88055490242182 0 0,0 0.41134672253014565,-0.276772432739235 l 4.342986731422593 6.575835446600827" fill="#ff4506" stroke="none" /><path d="M 88.72937992617638 82.28071324371311 l -6.423696933681745 -10.099118527448724 a32.96896308488126,32.96896308488126 0 0,0 0.48014721656975845,-0.29964737467412744 l 6.249385588322288 10.207901698964388" fill="#ff7f0b" stroke="none" /><line stroke="#e1ed5e" stroke-width="0.3" x1="56.869717070023135" x2="54.33264160355391" y1="26.7553504044142" y2="22.446841604673864" /><path d="M 56.362301976729285 25.89364864446614 a86.0,86.0 0 0,1 42.16139366436587,-11.88097634709845" fill="none" id="id60" stroke="none" /><text fill="#e1ed5e" style="font-size:6.75px; font-family:Arial;" text-anchor="middle"><textPath startOffset="22.145653131862474" xlink:href="#id60">December</textPath></text><path d="M 90.93487009805054 81.0573650232925 l -3.3122999923887733 -6.921433048155052 a28.673171878673877,28.673171878673877 0 0,0 0.4458149632137476,-0.20866391330116563 l 3.192996315303503 6.97727319302676" fill="#ff4206" stroke="none" /><path d="M 96.05791012581881 79.37332000966035 l -3.1338363189763916 -16.39755585406498 a37.69433341170938,37.69433341170938 0 0,0 0.6366128953847571,-0.11601207623042273 l 2.851888690040596 16.44893610422676" fill="#ffbf11" stroke="none" /></svg>