<?xml version="1.0" encoding="utf-8" ?>
<svg baseProfile="full" height="200mm" version="1.1" viewBox="0,0,200,200" width="200mm" xmlns="http://www.w3.org/2000/svg" xmlns:ev="http://www.w3.org/2001/xml-events" xmlns:xlink="http://www.w3.org/1999/xlink"><defs /><rect fill="#1a1a1a" height="200" width="200" x="0" y="0" /><text alignment-baseline="middle" fill="#e1ed5e" style="dominant-baseline: central; font-size:9.0px; font-family:Arial;" text-anchor="middle" x="100.0" y="100.0">2023</text><line stroke="#e1ed5e" stroke-width="0.3" x1="100.0" x2="100.0" y1="15.0" y2="10.0" /><path d="M 100.0 14.0 a86.0,86.0 0 0,1 42.46469731375804,11.215312516191453" fill="none" id="id37" stroke="none" /><text fill="#e1ed5e" style="font-size:6.75px; font-family:Arial;" text-anchor="middle"><textPath startOffset="22.20632615414155" xlink:href="#id37">January</textPath></text><path d="M 100.0 79.0 l 0.0 -11.555223880597012 a32.55522388059701,32.55522388059701 0 0,0 0.5603846633896509,0.004823407717546983 l -0.19890418411712252 11.553511849488023" fill="#ff0500" stroke="none" /><path d="M 100.72285384407766 79.0124445844662 l 0.5775638177058322 -16.76916119271009 a37.77910447761194,37.77910447761194 0 0,0 0.6497271393433717,0.027978617357468517 l -0.8661317894385354 16.756734848828426" fill="#ff5e08" stroke="none" /><path d="M 101.08401301168833 79.027996857942 l 0.9017262465387493 -17.44536778782138 a38.46865671641791,38.46865671641791 0 0,0 0.6609976796878353,0.039873185145134514 l -1.2018859750661965 17.427261333295938" fill="#ff6909" stroke="none" /><path d="M 101.80526077348638 79.07773832637324 l 1.4388197806592906 -16.67535482644282 a37.73731343283582,37.73731343283582 0 0,0 0.646700517885591,0.06141200657272452 l -1.7256454256351257 16.64811727535492" fill="#ff5d08" stroke="none" /><path d="M 102.52436894288641 79.15227682838746 l 3.0267309215702687 -24.996523802779222 a46.17910447761194,46.17910447761194 0 0,0 0.7883108955200598,0.10234537891269442 l -3.4565565455981746 24.94072010070239" fill="#ffe215" stroke="none" /><path d="M 102.88285421437855 79.19881850522331 l 2.31775741812724 -16.723735967939852 a37.883582089552235,37.883582089552235 0 0,0 0.6451592422714896,0.09507970170762516 l -2.6052856408273852 16.68136178207126" fill="#ff6008" stroke="none" /><path d="M 103.59715602781102 79.31037775812273 l 2.870566302790493 -16.51052441590604 a37.75820895522388,37.75820895522388 0 0,0 0.6393811106139882,0.11684281114349798 l -3.1543425345073817 16.458666123411806" fill="#ff5d08" stroke="none" /><path d="M 104.307194497241 79.44645832069477 l 5.147204568344722 -24.561993588901068 a46.095522388059706,46.095522388059706 0 0,0 0.7751890054898681,0.1694262917418006 l -5.569236297988118 24.469753799063398" fill="#ffe015" stroke="none" /><path d="M 106.40334571778207 80.00007090966166 l 14.087360579120556 -43.99984399874436 a67.2,67.2 0 0,0 1.0986149688242641,0.36219608237044415 l -14.842658370187237 43.75083419211468" fill="#34ff5c" stroke="none" /><path d="M 107.76421540070413 80.48803036053334 l 12.878554301466464 -32.36463023780192 a55.832835820895525,55.832835820895525 0 0,0 0.8899119407560485,0.36301742499251355 l -13.4337501118109 32.138151926625824" fill="#95ff23" stroke="none" /><path d="M 109.41281617654863 81.2277094730956 l 11.257915466877062 -22.452033048098595 a46.116417910447765,46.116417910447765 0 0,0 0.7065463720314592,0.3619204941644889 l -11.642722326497276 22.254920028621605" fill="#ffe115" stroke="none" /><path d="M 109.73455568895987 81.39251694778311 l 9.87984756491449 -18.88520667986192 a42.31343283582089,42.31343283582089 0 0,0 0.6424689360996715,0.34318465555616706 l -10.203461547542473 18.712343297804" fill="#ffa70f" stroke="none" /><path d="M 110.05341064243156 81.56283822128135 l 10.323502271631213 -18.93248851307229 a42.56417910447762,42.56417910447762 0 0,0 0.6402380403584722,0.3562917762884712 l -10.64786440106172 18.75198133922364" fill="#ffab0f" stroke="none" /><path d="M 110.36928655335952 81.73862282372117 l 10.637546702998673 -18.73381081467012 a42.54328358208955,42.54328358208955 0 0,0 0.6336989579110364,0.36707933885956134 l -10.958442393375037 18.547927318420513" fill="#ffaa0f" stroke="none" /><line stroke="#e1ed5e" stroke-width="0.3" x1="143.23703022742887" x2="145.7803849466894" y1="26.81831364943548" y2="22.513508569990506" /><path d="M 143.74570117128098 25.957352633546492 a86.0,86.0 0 0,1 28.547481713284135,27.462654790039103" fill="none" id="id38" stroke="none" /><text fill="#e1ed5e" style="font-size:6.75px; font-family:Arial;" text-anchor="middle"><textPath startOffset="19.985693538727396" xlink:href="#id38">February</textPath></text><path d="M 110.68208982089419 81.91981866633111 l 8.822024429196201 -14.931891051686739 a38.343283582089555,38.343283582089555 0 0,0 0.5653588144185425,0.3406223598442212 l -9.07774530983238 14.777822082383905" fill="#ff6709" stroke="none" /><path d="M 111.2981086023043 82.29822771554956 l 9.004761184523122 -14.108576716263483 a37.73731343283582,37.73731343283582 0 0,0 0.5445547775458607,0.3541935750924302 l -9.246282987853263 13.951484217011524" fill="#ff5d08" stroke="none" /><path d="M 111.90073688211348 82.69761687909136 l 17.774135383136638 -25.84166872087947 a52.364179104477614,52.364179104477614 0 0,0 0.7382572778142993,0.5171964020234602 l -18.21632380053459 25.531887476092074" fill="#c4ff1e" stroke="none" /><path d="M 112.19680574252982 82.90503203632743 l 10.303570224286382 -14.441420697669663 a38.74029850746268,38.74029850746268 0 0,0 0.5395134163980853,0.39197944144267144 l -10.550628957038256 14.261922021410317" fill="#ff6e0a" stroke="none" /><path d="M 113.06298171725822 83.55741782278167 l 10.775335167768223 -13.563085198919392 a38.322388059701495,38.322388059701495 0 0,0 0.5129663353559436,0.414783102107051 l -11.007204901688658 13.375595999548212" fill="#ff6709" stroke="none" /><path d="M 113.6212207817346 84.01681056812373 l 10.856316264845194 -12.738840532271531 a37.73731343283582,37.73731343283582 0 0,0 0.4907759200437252,0.4255960416756952 l -11.073985983535684 12.550079497176165" fill="#ff5d08" stroke="none" /><path d="M 113.89432698308785 84.25364557470407 l 16.604066374814433 -18.81728523858749 a46.095522388059706,46.095522388059706 0 0,0 0.5904375734957672,0.5301006832387363 l -16.92551493590619 18.528685546579457" fill="#ffe015" stroke="none" /><path d="M 114.42810811169701 84.74124197986012 l 11.786544039505713 -12.465114760731183 a38.15522388059701,38.15522388059701 0 0,0 0.4733369126007207,0.45534973489754893 l -11.999364195718853 12.260381939071332" fill="#ff6409" stroke="none" /><path d="M 114.68862486808459 84.99185889309783 l 11.765515441600092 -12.021446359259953 a37.82089552238806,37.82089552238806 0 0,0 0.46135044944989667,0.4593692640032688 l -11.970701691217311 11.817141244606566" fill="#ff5e08" stroke="none" /><path d="M 115.19652480421416 85.50635884689758 l 12.157219843371324 -11.594912922481928 a37.8,37.8 0 0,0 0.4450188204531667,0.47471504961950134 l -12.355005985794953 11.383928455984371" fill="#ff5e08" stroke="none" /><path d="M 115.68641384162765 86.03803664274999 l 18.7456547500446 -16.684893524435097 a46.095522388059706,46.095522388059706 0 0,0 0.5224337800470318,0.5972321224042758 l -19.03008039366948 16.359745845827874" fill="#ffe015" stroke="none" /><path d="M 115.9244219780498 86.31012108654704 l 13.468416598350583 -11.578504553666683 a38.76119402985074,38.76119402985074 0 0,0 0.4305988178919378,0.5096931825253803 l -13.665726029729639 11.344952421512197" fill="#ff6e0a" stroke="none" /><path d="M 116.38621287248628 86.86637796730983 l 13.141579676839743 -10.53303418741122 a37.841791044776116,37.841791044776116 0 0,0 0.40300772143714536,0.5117788801502959 l -13.320941478870854 10.305262913307885" fill="#ff5f08" stroke="none" /><path d="M 116.82858285166822 87.43820079747576 l 15.103862420104202 -11.274371025549122 a39.84776119402985,39.84776119402985 0 0,0 0.40556935118061144,0.5531961392223498 l -15.29569438379844 11.012712442655278" fill="#ff800b" stroke="none" /><path d="M 117.2510076193507 88.02491185347247 l 20.632548416377656 -14.3224437334588 a46.116417910447765,46.116417910447765 0 0,0 0.4470559246458761,0.6559994056141423 l -20.876028806692265 13.965166304574252" fill="#ffe115" stroke="none" /><path d="M 117.65298651832404 88.62581576622439 l 14.491257589668992 -9.337016908323266 a38.23880597014926,38.23880597014926 0 0,0 0.3517467650446778,0.556378910132341 l -14.649831950959625 9.086190350476718" fill="#ff6509" stroke="none" /><line stroke="#e1ed5e" stroke-width="0.3" x1="172.23445277983987" x2="176.4835382374775" y1="55.19839476539836" y2="52.563006222186495" /><path d="M 173.08426987136738 54.67131705675599 a86.0,86.0 0 0,1 12.851231095245387,41.99856678651699" fill="none" id="id39" stroke="none" /><text fill="#e1ed5e" style="font-size:6.75px; font-family:Arial;" text-anchor="middle"><textPath startOffset="22.20632615414155" xlink:href="#id39">March</textPath></text><path d="M 117.84615892207809 88.93136811851018 l 14.330199253847772 -8.887946197375403 a37.862686567164175,37.862686567164175 0 0,0 0.33875241144812157,0.5568198954714113 l -14.481067463582118 8.63995852869691" fill="#ff5f08" stroke="none" /><path d="M 118.21658344932153 89.55222093294921 l 14.808904157309147 -8.49336865450796 a38.071641791044776,38.071641791044776 0 0,0 0.32114763936834534,0.5712858158197069 l -14.952909437969925 8.237199328753459" fill="#ff6309" stroke="none" /><path d="M 118.56541770881063 90.18545643968196 l 28.097512771244748 -14.853652492779847 a52.7820895522388,52.7820895522388 0 0,0 0.4177088276990508,0.8068805010650437 l -28.349031032103916 14.367799269454459" fill="#beff1f" stroke="none" /><path d="M 118.73160827565052 90.50648371742162 l 15.600354354944761 -7.906540426386183 a38.48955223880597,38.48955223880597 0 0,0 0.2944267225271863,0.593546306452671 l -15.734141090425355 7.636834531434562" fill="#ff6909" stroke="none" /><path d="M 119.04729006885535 91.15688171328212 l 15.199927000220889 -7.056896384027602 a37.75820895522388,37.75820895522388 0 0,0 0.2686185206440119,0.5918653035048682 l -15.319147837828247 6.794209071680672" fill="#ff5d08" stroke="none" /><path d="M 119.34039704204932 91.81776055985345 l 15.87644533302557 -6.7167637195232865 a38.23880597014926,38.23880597014926 0 0,0 0.2512440925355809,0.6084074985775675 l -15.989711112447349 6.442481650492416" fill="#ff6509" stroke="none" /><path d="M 119.61058180528143 92.48833698450437 l 41.32856941650354 -15.830549519223633 a65.25671641791044,65.25671641791044 0 0,0 0.3927690249845018,1.0524257144849674 l -41.594943029989665 15.116800667709333" fill="#31ff40" stroke="none" /><path d="M 119.7369772167798 92.82701384747503 l 16.280551355930807 -5.916821413376318 a38.322388059701495,38.322388059701495 0 0,0 0.21998313412418835,0.6219219434165064 l -16.379987570864802 5.635701843533197" fill="#ff6709" stroke="none" /><path d="M 119.97218684219823 93.5106431181261 l 15.977749473758577 -5.1914855054991165 a37.8,37.8 0 0,0 0.19574012921722886,0.6205497004324455 l -16.06474508674401 4.915685638640252" fill="#ff5e08" stroke="none" /><path d="M 120.18372546131832 94.20196356495316 l 16.649063091973023 -4.7826589101033194 a38.322388059701495,38.322388059701495 0 0,0 0.1766721022699404,0.6355835517707883 l -16.728921964809324 4.495364054913579" fill="#ff6709" stroke="none" /><path d="M 120.37134235888165 94.90015583598534 l 30.425258587742647 -7.616782179289539 a52.364179104477614,52.364179104477614 0 0,0 0.211369753777499,0.876264089016446 l -30.551861141780964 7.091932858613687" fill="#c4ff1e" stroke="none" /><path d="M 120.73433829027371 96.67025291283417 l 33.051154170167656 -5.307716252377772 a54.474626865671645,54.474626865671645 0 0,0 0.14071083164551762,0.9271085711381511 l -33.137620895252475 4.738008568847539" fill="#a7ff21" stroke="none" /><path d="M 120.83666639777658 97.38593545837742 l 43.767365936026216 -5.490836067030108 a65.11044776119402,65.11044776119402 0 0,0 0.12994075625951934,1.1132530461490138 l -43.85539704528933 4.736639282556242" fill="#31ff3e" stroke="none" /><path d="M 120.91429891909075 98.10471618934814 l 16.731439135272606 -1.5162270485214913 a37.8,37.8 0 0,0 0.053145929124909445,0.6485149490260161 l -16.75505954821701 1.2279981822877064" fill="#ff5e08" stroke="none" /><path d="M 120.94382443527127 98.46500227214037 l 17.130172821684564 -1.2554906789060885 a38.17611940298508,38.17611940298508 0 0,0 0.04239259724868942,0.6557947160295569 l -17.149246009937666 0.9604368986234963" fill="#ff6409" stroke="none" /><path d="M 120.98425023603335 99.18683210126433 l 20.984250236033354 -0.8131678987356683 a42.0,42.0 0 0,0 0.021776611088709874,0.7226597051500019 l -20.99513854157771 0.45183804616066736" fill="#ffa20e" stroke="none" /><line stroke="#e1ed5e" stroke-width="0.3" x1="184.98032266829074" x2="189.97916517819016" y1="98.17113171792111" y2="98.06355123074" /><path d="M 185.9800911702706 98.14961562048488 a86.0,86.0 0 0,1 -9.607161424134198,41.387399972396054" fill="none" id="id40" stroke="none" /><text fill="#e1ed5e" style="font-size:6.75px; font-family:Arial;" text-anchor="middle"><textPath startOffset="21.466115282336823" xlink:href="#id40">April</textPath></text><path d="M 120.99980553446 99.90962569577887 l 31.426574650574956 -0.13524671994883544 a52.42686567164179,52.42686567164179 0 0,0 -0.003883838906106408,0.9024673822755772 l -31.424246514379345 -0.40573014053042644" fill="#c3ff1e" stroke="none" /><path d="M 120.99824983174949 100.27111621757518 l 17.4045195122859 0.22471622809963115 a38.40597014925373,38.40597014925373 0 0,0 -0.014224725159160494,0.6609670831619592 l -17.398072724441732 -0.5242731270517051" fill="#ff6809" stroke="none" /><path d="M 120.9764740272857 100.99374915477107 l 33.457997876357204 1.5850546219880757 a54.495522388059705,54.495522388059705 0 0,0 -0.05245492227395382,0.9366178744250906 l -33.42575660319572 -2.1607442127485896" fill="#a7ff21" stroke="none" /><path d="M 120.92983693683757 101.71520430193887 l 16.78552096625978 1.375576783445502 a37.841791044776116,37.841791044776116 0 0,0 -0.05879065287782742,0.648749955560735 l -16.759355717104878 -1.6643081275548075" fill="#ff5f08" stroke="none" /><path d="M 120.8583938346157 102.4346265915055 l 18.92821410663634 2.209332787515447 a40.05671641791045,40.05671641791045 0 0,0 -0.08583294206347478,0.6841730000309094 l -18.88737965532602 -2.5348235418337515" fill="#ff830c" stroke="none" /><path d="M 120.76222939487914 103.15116336523771 l 12.643268049418943 1.9189173925626615 a33.788059701492536,33.788059701492536 0 0,0 -0.09222249074407624,0.5742695378966045 l -12.608363804313578 -2.136266160152471" fill="#ff1b02" stroke="none" /><path d="M 120.70491114924044 103.5080841355445 l 16.93476314893099 2.869298666087144 a38.17611940298508,38.17611940298508 0 0,0 -0.11535288541920621,0.6469602412043882 l -16.882863821172595 -3.1603776580247502" fill="#ff6409" stroke="none" /><path d="M 120.64145759157962 103.86396538481128 l 11.070393673493951 2.0723157635953044 a32.26268656716418,32.26268656716418 0 0,0 -0.10688177461251204,0.5449878660767095 l -11.033081965905774 -2.2625673567399587" fill="#ff0000" stroke="none" /><path d="M 120.41448212921028 104.9243191809786 l 43.16494977569338 10.41211767122341 a65.40298507462686,65.40298507462686 0 0,0 -0.2734115286133925,1.0921431469513936 l -42.97932693278493 -11.1535886575722" fill="#31ff43" stroke="none" /><path d="M 120.13307415673323 105.97154293290107 l 16.146525144603956 4.789118013849021 a37.841791044776116,37.841791044776116 0 0,0 -0.19060230347402354,0.6228993559285816 l -16.0616960686238 -5.06634434232966" fill="#ff5f08" stroke="none" /><path d="M 120.02730092923936 106.31721596034902 l 16.260972694785387 5.12920221258189 a38.05074626865672,38.05074626865672 0 0,0 -0.20240777203921817,0.6229470678014277 l -16.170272671729922 -5.408348180361113" fill="#ff6209" stroke="none" /><path d="M 119.9155931802556 106.66101706037122 l 16.0513736079672 5.368580914329044 a37.92537313432835,37.92537313432835 0 0,0 -0.2123986485950608,0.6173298944208157 l -15.956584128428908 -5.644083511839161" fill="#ff6008" stroke="none" /><path d="M 119.79798401119884 107.00284435728193 l 31.538878011869983 11.155774941301848 a54.45373134328358,54.45373134328358 0 0,0 -0.3201768913635613,0.8809892945293754 l -31.342176859501194 -11.697012032837355" fill="#a7ff21" stroke="none" /><path d="M 119.54520255179757 107.68017299344265 l 15.71395389239048 6.174706247464337 a37.883582089552235,37.883582089552235 0 0,0 -0.24371299537447508,0.6048756677621682 l -15.605338282758611 -6.444281283069318" fill="#ff6008" stroke="none" /><path d="M 119.26925614724726 108.34839909993367 l 19.192562590442307 8.315171640829458 a41.91641791044776,41.91641791044776 0 0,0 -0.29253451147170806,0.659588096513103 l -19.046586994239327 -8.64430807383525" fill="#ffa00e" stroke="none" /><path d="M 118.97047184881838 109.00673069616215 l 15.214129661838415 7.223308399111138 a37.841791044776116,37.841791044776116 0 0,0 -0.2844382609659228,0.5860270654197872 l -15.087538144257778 -7.484124420496201" fill="#ff5f08" stroke="none" /><path d="M 118.64920377521936 109.65438752849418 l 39.191162560460974 20.2886233434624 a65.13134328358208,65.13134328358208 0 0,0 -0.5239893849383167,0.9911904457477803 l -38.83612066729776 -20.960228804296314" fill="#31ff3f" stroke="none" /><line stroke="#e1ed5e" stroke-width="0.3" x1="174.80103733775053" x2="179.2010983576182" y1="140.37084112569926" y2="142.7455964860345" /><path d="M 175.68104954172406 140.8457921977663 a86.0,86.0 0 0,1 -30.038265399797805,32.042727171017184" fill="none" id="id41" stroke="none" /><text fill="#e1ed5e" style="font-size:6.75px; font-family:Arial;" text-anchor="middle"><textPath startOffset="22.206326154141568" xlink:href="#id41">May</textPath></text><path d="M 118.30583269289576 110.29060199501025 l 14.84502850219905 8.345115050679949 a38.02985074626866,38.02985074626866 0 0,0 -0.32569489253996936,0.5678764980476284 l -14.6991816135067 -8.599411394585893" fill="#ff6209" stroke="none" /><path d="M 118.12598468904814 110.60418214915192 l 14.446680334256277 8.451691444249446 a37.73731343283582,37.73731343283582 0 0,0 -0.3328415308348275,0.5578615506882546 l -14.299057927723222 -8.699115088823806" fill="#ff5d08" stroke="none" /><path d="M 117.75023020441432 111.22182372390056 l 14.288493766538496 9.033288947896063 a37.904477611940294,37.904477611940294 0 0,0 -0.35340535107863746,0.5484929529775963 l -14.130883552082809 -9.277903500795112" fill="#ff6008" stroke="none" /><path d="M 117.35343817320211 111.8261652097733 l 52.0603145196063 35.47849562931987 a84.0,84.0 0 0,0 -0.8245563713514552,1.1878349512519217 l -51.44189724109271 -36.36937184275882" fill="#4dd2ff" stroke="none" /><path d="M 117.14729908036423 112.12312394758627 l 13.83727318823422 9.782938827355684 a37.94626865671641,37.94626865671641 0 0,0 -0.38166755924965695,0.5301028582096972 l -13.666825836608961 -10.019675291016513" fill="#ff6108" stroke="none" /><path d="M 116.71984013943494 112.70617746262583 l 13.375872111547944 10.164941970100658 a37.8,37.8 0 0,0 -0.3981477290074768,0.5146596105961452 l -13.198917565322398 -10.393679574810056" fill="#ff5e08" stroke="none" /><path d="M 116.27256486870786 113.27417163493432 l 13.29330921115338 10.843875534608038 a38.15522388059701,38.15522388059701 0 0,0 -0.4195330389993928,0.5053545716519952 l -13.104680172260444 -11.071091363373803" fill="#ff6409" stroke="none" /><path d="M 115.80600337817218 113.82643327865902 l 25.195241205802816 22.039747375534088 a54.474626865671645,54.474626865671645 0 0,0 -0.6234521183749075,0.7004550641647375 l -24.81213023777957 -22.470176609439694" fill="#a7ff21" stroke="none" /><path d="M 115.56566222782051 114.09645910891815 l 12.638388435722925 11.445483216793251 a38.05074626865672,38.05074626865672 0 0,0 -0.44384128461670674,0.4817020547331038 l -12.439500743110496 -11.66133652632769" fill="#ff6209" stroke="none" /><path d="M 115.07121518719521 114.62390073753431 l 12.02697968172194 11.670018300002507 a37.75820895522388,37.75820895522388 0 0,0 -0.45662148310910167,0.4625551516188447 l -11.824317573557304 -11.875313945602016" fill="#ff5d08" stroke="none" /><path d="M 114.55890576462653 115.13401014063108 l 11.618151664905946 12.077090679389178 a37.75820895522388,37.75820895522388 0 0,0 -0.472272783339115,0.44656339442798 l -11.408543047176025 -12.27528871056308" fill="#ff5d08" stroke="none" /><path d="M 114.0293411484842 115.62618273729858 l 22.349229033555428 24.89305329593534 a54.45373134328358,54.45373134328358 0 0,0 -0.7028619187317735,0.6201939229267813 l -21.91742476191707 -25.274070360634408" fill="#a7ff21" stroke="none" /><path d="M 113.75828350139079 115.86535959552629 l 11.225664150388505 12.94487051575279 a38.134328358208954,38.134328358208954 0 0,0 -0.4996223932804863,0.4257890426299722 l -11.001176280530972 -13.136183948605709" fill="#ff6409" stroke="none" /><path d="M 113.20401910651253 116.32954008644616 l 10.523800302802522 13.01488717337649 a37.73731343283582,37.73731343283582 0 0,0 -0.5086316101019541,0.4040877127430273 l -10.298211199983216 -13.194108800124644" fill="#ff5d08" stroke="none" /><path d="M 112.63410532772338 116.77436683061366 l 10.069570514931762 13.369420727683128 a37.73731343283582,37.73731343283582 0 0,0 -0.5222395456955948,0.38634033092137027 l -9.837945998817604 -13.540771007344267" fill="#ff5d08" stroke="none" /><path d="M 112.04921762599082 117.19931262002967 l 19.194823302697817 27.39910398474379 a54.45373134328358,54.45373134328358 0 0,0 -0.7723175708186728,0.5312070675766812 l -18.72034884725626 -27.72545184168556" fill="#a7ff21" stroke="none" /><path d="M 111.7513745106137 117.40417183066458 l 9.494642888177443 14.061878135820539 a37.96716417910448,37.96716417910448 0 0,0 -0.5447841516313285,0.3610532295294273 l -9.25118403780615 -14.223229386441284" fill="#ff6108" stroke="none" /><path d="M 111.1453310114006 117.79835938074945 l 8.882995164310328 14.185558073612249 a37.73731343283582,37.73731343283582 0 0,0 -0.5535179750470154,0.3400159491621384 l -8.637497989331004 -14.336362489602767" fill="#ff5d08" stroke="none" /><line stroke="#e1ed5e" stroke-width="0.3" x1="143.8653032363475" x2="146.44561519142675" y1="172.8068346515853" y2="177.08958963109032" /><path d="M 144.38136562736335 173.6633856474863 a86.0,86.0 0 0,1 -40.68145358897372,12.25698825130547" fill="none" id="id42" stroke="none" /><text fill="#e1ed5e" style="font-size:6.75px; font-family:Arial;" text-anchor="middle"><textPath startOffset="21.466115282336833" xlink:href="#id42">June</textPath></text><path d="M 110.5260780823613 118.17145234162733 l 8.378967627750281 14.464837684877471 a37.71641791044776,37.71641791044776 0 0,0 -0.5645810703554583,0.3205838664086524 l -8.128737790473624 -14.606924717080753" fill="#ff5d08" stroke="none" /><path d="M 110.21172684928248 118.3499491758327 l 21.449706844612273 38.544022597196836 a65.11044776119402,65.11044776119402 0 0,0 -0.9840271823057617,0.5365700787229404 l -20.783056850437863 -38.907533327679545" fill="#31ff3e" stroke="none" /><path d="M 109.57404056367764 118.69057910512821 l 9.535934929593346 18.616188740530685 a41.91641791044776,41.91641791044776 0 0,0 -0.6450060310332164,0.3234194140656119 l -9.21407499087737 -18.7775759955056" fill="#ffa00e" stroke="none" /><path d="M 108.92500713936063 119.00905698771935 l 7.113363899132201 15.150502136480792 a37.73731343283582,37.73731343283582 0 0,0 -0.5903769150686969,0.2710130855489171 l -6.8515189882960845 -15.270702292363783" fill="#ff5d08" stroke="none" /><path d="M 108.2653958097858 119.30500536409082 l 6.587643824515847 15.3863774095888 a37.73731343283582,37.73731343283582 0 0,0 -0.5993557653209803,0.2505307585133616 l -6.321816599697406 -15.497493211122135" fill="#ff5d08" stroke="none" /><path d="M 107.59598834532513 119.57807347666477 l 12.093115773651945 31.169072201655364 a54.43283582089552,54.43283582089552 0 0,0 -0.876445845691029,0.3313968243504742 l -11.554799707200642 -31.372617276112468" fill="#a8ff21" stroke="none" /><path d="M 105.88484417918355 120.15858648285463 l 5.2758652790491345 18.072523802041815 a39.82686567164179,39.82686567164179 0 0,0 -0.659739297107086,0.18644891532018182 l -4.963994813837442 -18.160661510700514" fill="#ff7f0b" stroke="none" /><path d="M 105.18746579009965 120.34920634021253 l 8.26381366164134 32.41699437878632 a54.45373134328358,54.45373134328358 0 0,0 -0.91027635816835,0.22372378192401784 l -7.704584018729778 -32.55443941902437" fill="#a7ff21" stroke="none" /><path d="M 104.83641907484287 120.43548508189849 l 3.8546981880090896 16.28738661751313 a37.73731343283582,37.73731343283582 0 0,0 -0.6334115524343195,0.1441624071230865 l -3.573766486181908 -16.3513257582139" fill="#ff5d08" stroke="none" /><path d="M 104.13013068566511 120.58985236759428 l 3.291775800216666 16.410419648202 a37.73731343283582,37.73731343283582 0 0,0 -0.6379984956054745,0.12227393013200652 l -3.008809690039487 -16.464650776682475" fill="#ff5d08" stroke="none" /><path d="M 102.70371172650421 120.8252237178851 l 4.307106939436056 33.175306639138334 a54.45373134328358,54.45373134328358 0 0,0 -0.9305690900777143,0.11267895735496068 l -3.7354104263069616 -33.24453112521864" fill="#a7ff21" stroke="none" /><path d="M 102.34483914955558 120.86867818915974 l 1.9062025723252891 16.964885652282096 a38.071641791044776,38.071641791044776 0 0,0 -0.6518724467508378,0.06756924445135143 l -1.6138975289688486 -16.995184265189206" fill="#ff6309" stroke="none" /><path d="M 101.98527174616119 120.90594882070398 l 1.5822912126120534 16.662353239187947 a37.73731343283582,37.73731343283582 0 0,0 -0.6472051364763938,0.05584358247237202 l -1.295241758394118 -16.687121073938982" fill="#ff5d08" stroke="none" /><path d="M 101.62511606390274 120.93702456842531 l 1.293624727484762 16.666288213671894 a37.71641791044776,37.71641791044776 0 0,0 -0.6477116585015231,0.04466998820706993 l -1.0065503082043086 -16.68608654639525" fill="#ff5d08" stroke="none" /><path d="M 100.90346689309514 120.98055641714683 l 1.1249736020092151 26.124446070067208 a47.14865671641791,47.14865671641791 0 0,0 -0.811135719881905,0.027937154260061676 l -0.6751175304526578 -26.13994002275336" fill="#fff016" stroke="none" /><line stroke="#e1ed5e" stroke-width="0.3" x1="102.19456741930631" x2="102.32365962044197" y1="184.97166512339345" y2="189.96999836594603" /><path d="M 102.22038585953345 185.97133177190398 a86.0,86.0 0 0,1 -42.740103519485714,-10.115201625700543" fill="none" id="id43" stroke="none" /><text fill="#e1ed5e" style="font-size:6.75px; font-family:Arial;" text-anchor="middle"><textPath startOffset="22.20632615414155" xlink:href="#id43">July</textPath></text><path d="M 100.18074693466247 120.99922214144158 l 0.37965848663926227 44.10881387122703 a65.11044776119402,65.11044776119402 0 0,0 -1.1208108426034051,0.0 l 0.3796584866392319 -44.10881387122703" fill="#31ff3e" stroke="none" /><path d="M 99.81925306533755 120.99922214144158 l -0.1440580046414139 16.736693467954925 a37.73731343283582,37.73731343283582 0 0,0 -0.6495136318943698,-0.011181966202823536 l 0.43213132642845165 -16.731734024472942" fill="#ff5d08" stroke="none" /><path d="M 99.09653310690486 120.98055641714683 l -0.6607444442039062 15.343989021495442 a36.35820895522388,36.35820895522388 0 0,0 -0.6250355830453027,-0.03230720023260568 l 0.9247680956626979 -15.330342014500633" fill="#ff4606" stroke="none" /><path d="M 92.7421414339146 119.70592522655815 l -4.54970238471025 12.352968052469286 a34.16417910447761,34.16417910447761 0 0,0 -0.5500917304049128,-0.20799762296085045 l 4.761664335875445 -12.272822179401803" fill="#ff2103" stroke="none" /><path d="M 92.40401165467489 119.57807347666478 l -6.1448144524868855 15.837784812466138 a37.98805970149254,37.98805970149254 0 0,0 -0.6075899340854746,-0.24177257399977212 l 6.416525462614218 -15.7296653940603" fill="#ff6109" stroke="none" /><path d="M 91.7346041902142 119.30500536409082 l -6.085963083822376 14.214630815350453 a36.46268656716418,36.46268656716418 0 0,0 -0.5748591270868039,-0.25200134776236904 l 6.329742885566923 -14.107764914293632" fill="#ff4806" stroke="none" /><line stroke="#e1ed5e" stroke-width="0.3" x1="58.666819895761336" x2="56.23545636021788" y1="174.27360380694188" y2="178.64263932499728" /><path d="M 58.180547188652646 175.14741091055294 a86.0,86.0 0 0,1 -31.652253787137756,-30.449443065178592" fill="none" id="id44" stroke="none" /><text fill="#e1ed5e" style="font-size:6.75px; font-family:Arial;" text-anchor="middle"><textPath startOffset="22.20632615414155" xlink:href="#id44">August</textPath></text><path d="M 87.07902340077011 116.55440617244103 l -10.349637972517467 13.259996983895551 a37.82089552238806,37.82089552238806 0 0,0 -0.50975814744436,-0.4049827021400134 l 10.576353612679185 -13.079880367750407" fill="#ff5e08" stroke="none" /><path d="M 86.24171649860922 115.8653595955263 l -16.441491030020227 18.959499377340382 a46.095522388059706,46.095522388059706 0 0,0 -0.5949782780975796,-0.5249991534829164 l 16.765411661024395 -18.673677082085177" fill="#ffe015" stroke="none" /><path d="M 85.97065885151581 115.62618273729859 l -11.181594288493368 12.45430086823499 a37.73731343283582,37.73731343283582 0 0,0 -0.47962409319687616,-0.4381252373578545 l 11.3943179311571 -12.259982864290558" fill="#ff5d08" stroke="none" /><path d="M 85.44109423537348 115.13401014063109 l -11.618151664905938 12.077090679389187 a37.75820895522388,37.75820895522388 0 0,0 -0.46451595627556197,-0.4546266308645936 l 11.824317573557295 -11.875313945602024" fill="#ff5d08" stroke="none" /><path d="M 84.9287848128048 114.62390073753433 l -24.00897066139254 23.296383164967615 a54.45373134328358,54.45373134328358 0 0,0 -0.646945201100932,-0.6783194569014971 l 24.406422413872427 -22.879656591483617" fill="#a7ff21" stroke="none" /><path d="M 84.43433777217949 114.09645910891817 l -15.534685785576087 14.068406453975049 a41.95820895522388,41.95820895522388 0 0,0 -0.48020400985685247,-0.5395142956819351 l 15.774548645081278 -13.79891798855225" fill="#ffa10e" stroke="none" /><path d="M 84.19399662182784 113.82643327865904 l -12.597620602901397 11.01987368776705 a37.73731343283582,37.73731343283582 0 0,0 -0.4234800275772871,-0.4926029441933097 l 12.785443140049464 -10.80139364441221" fill="#ff5d08" stroke="none" /><path d="M 83.72743513129214 113.27417163493432 l -13.001860288131745 10.606129176967425 a37.77910447761194,37.77910447761194 0 0,0 -0.40672280099981234,-0.5074492307368225 l 13.182501001186418 -10.380752112652342" fill="#ff5e08" stroke="none" /><path d="M 83.28015986056508 112.70617746262583 l -26.63528762510976 20.241383201655687 a54.45373134328358,54.45373134328358 0 0,0 -0.5607145661617993,-0.7511687920385506 l 26.979763457966644 -19.779901530107825" fill="#a7ff21" stroke="none" /><path d="M 82.85270091963577 112.12312394758628 l -13.666653296887311 9.662310728374738 a37.73731343283582,37.73731343283582 0 0,0 -0.3704350265325236,-0.5336392840699058 l 13.830949230581968 -9.42563018211782" fill="#ff5d08" stroke="none" /><path d="M 82.44556493220864 111.52570212397912 l -17.502033769081542 11.491297043012015 a41.93731343283582,41.93731343283582 0 0,0 -0.3910058101515118,-0.6068497004553765 l 17.6972444426101 -11.188325742635191" fill="#ffa10e" stroke="none" /><path d="M 82.24976979558568 111.22182372390057 l -14.182522242930046 8.966292985365326 a37.77910447761194,37.77910447761194 0 0,0 -0.3427740611744634,-0.5526609282503505 l 14.334760943772466 -8.72083572574971" fill="#ff5e08" stroke="none" /><line stroke="#e1ed5e" stroke-width="0.3" x1="26.63291911575756" x2="22.317208475507996" y1="142.92168965132927" y2="145.44649492493687" /><path d="M 25.769776987707644 143.4266507060508 a86.0,86.0 0 0,1 -11.730757126820373,-40.83630448921669" fill="none" id="id45" stroke="none" /><text fill="#e1ed5e" style="font-size:6.75px; font-family:Arial;" text-anchor="middle"><textPath startOffset="21.46611528233685" xlink:href="#id45">September</textPath></text><path d="M 81.87401531095188 110.60418214915194 l -14.446680334256271 8.451691444249455 a37.73731343283582,37.73731343283582 0 0,0 -0.323189547212743,-0.5635082172934305 l 14.59002187762139 -8.201763381097718" fill="#ff5d08" stroke="none" /><path d="M 81.51974371655577 109.97397251340807 l -29.458080165251417 15.898809916895253 a54.474626865671645,54.474626865671645 0 0,0 -0.43825483687335526,-0.8290129907168847 l 29.727387510349658 -15.389381911092242" fill="#a7ff21" stroke="none" /><path d="M 81.35079622478065 109.6543875284942 l -14.84513733350794 7.685084599796374 a37.71641791044776,37.71641791044776 0 0,0 -0.29350796122964035,-0.5791190526135856 l 14.975223964523849 -7.428411335480104" fill="#ff5d08" stroke="none" /><path d="M 81.02952815118164 109.00673069616217 l -15.100873113487257 7.169536872566898 a37.71641791044776,37.71641791044776 0 0,0 -0.27339981751653014,-0.588878884141012 l 15.222047547843612 -6.908537921147058" fill="#ff5d08" stroke="none" /><path d="M 80.73074385275274 108.34839909993369 l -15.357884750194083 6.65379868561879 a37.73731343283582,37.73731343283582 0 0,0 -0.25310778902158637,-0.5982720464148429 l 15.470143520407976 -6.388452113537788" fill="#ff5d08" stroke="none" /><path d="M 80.45479744820244 107.68017299344265 l -31.19453223192368 12.257708936798027 a54.516417910447764,54.516417910447764 0 0,0 -0.3356802234234177,-0.8763551384400908 l 31.40090673494061 -11.718930231524778" fill="#a6ff21" stroke="none" /><path d="M 80.32549172779594 107.34259656027581 l -15.680876742323829 5.852159049533258 a37.73731343283582,37.73731343283582 0 0,0 -0.22188774589508928,-0.6105397797084103 l 15.779288749224143 -5.58137147281873" fill="#ff5d08" stroke="none" /><path d="M 80.0844068197444 106.66101706037122 l -15.873025012323122 5.3089300152809455 a37.73731343283582,37.73731343283582 0 0,0 -0.20074049220363555,-0.6178157080995891 l 15.962057755543007 -5.034915407203553" fill="#ff5d08" stroke="none" /><path d="M 79.86692584326677 105.97154293290107 l -32.05265537390364 9.506934022529075 a54.43283582089552,54.43283582089552 0 0,0 -0.25870465762358097,-0.900584852050276 l 32.211552668413326 -8.953791694974203" fill="#a8ff21" stroke="none" /><path d="M 79.67330655649465 105.27499134158121 l -16.220903623573417 4.209495578057841 a37.75820895522388,37.75820895522388 0 0,0 -0.1578449304167455,-0.6305120340387192 l 16.29095986828522 -3.92965570462173" fill="#ff5d08" stroke="none" /><path d="M 79.58551787078972 104.9243191809786 l -16.29095986828522 3.92965570462173 a37.75820895522388,37.75820895522388 0 0,0 -0.14696831578456399,-0.6331356578817178 l 16.356188750000342 -3.6486513893914383" fill="#ff5d08" stroke="none" /><path d="M 79.4281124754447 104.21870165774334 l -16.396101400167947 3.3623681869178266 a37.73731343283582,37.73731343283582 0 0,0 -0.1250184488019367,-0.6374663770301229 l 16.45154978194555 -3.079638082819749" fill="#ff5d08" stroke="none" /><path d="M 79.29508885075956 103.50808413554451 l -43.49061436422543 7.368722000133789 a65.11044776119402,65.11044776119402 0 0,0 -0.1777150780201174,-1.1066319604735781 l 43.61101119660684 -6.619010809966998" fill="#31ff3e" stroke="none" /><path d="M 79.18660465613746 102.79330883721812 l -16.58858673675015 2.226308834439519 a37.73731343283582,37.73731343283582 0 0,0 -0.0808629595026789,-0.6445573490118806 l 16.624451205499675 -1.94043373114023" fill="#ff5d08" stroke="none" /><path d="M 79.1416061653843 102.43462659150553 l -16.665960446961595 1.945278759183027 a37.77910447761194,37.77910447761194 0 0,0 -0.06983323272248576,-0.6465690050072775 l 16.696975981185133 -1.6581134322909674" fill="#ff5e08" stroke="none" /><path d="M 79.07016306316243 101.71520430193888 l -33.321133431781206 2.7306735155245856 a54.43283582089552,54.43283582089552 0 0,0 -0.06849061162129992,-0.934499979528297 l 33.36320060206684 -2.156700399499528" fill="#a8ff21" stroke="none" /><path d="M 79.0235259727143 100.99374915477108 l -16.760307108368576 0.7940105186877374 a37.77910447761194,37.77910447761194 0 0,0 -0.02518223264181974,-0.649841529749944 l 16.771491473861595 -0.5053917419237967" fill="#ff5e08" stroke="none" /><line stroke="#e1ed5e" stroke-width="0.3" x1="15.007084014347285" x2="10.007500721073583" y1="101.09737516637583" y2="101.16192664675087" /><path d="M 14.007167355692545 101.11028546245083 a86.0,86.0 0 0,1 10.666146001902534,-42.60595125391555" fill="none" id="id46" stroke="none" /><text fill="#e1ed5e" style="font-size:6.75px; font-family:Arial;" text-anchor="middle"><textPath startOffset="22.20632615414155" xlink:href="#id46">October</textPath></text><path d="M 79.00175016825051 100.2711162175752 l -16.735918522618253 0.21608367191814792 a37.73731343283582,37.73731343283582 0 0,0 -0.0027956209902065252,-0.6496038630489176 l 16.73715844089796 0.07202966933444509" fill="#ff5d08" stroke="none" /><path d="M 79.00019446554 99.90962569577889 l -16.75805376978797 -0.07211959401526212 a37.75820895522388,37.75820895522388 0 0,0 0.00839129964008756,-0.64991540466142 l 16.754329463030167 0.36057125673715407" fill="#ff5d08" stroke="none" /><path d="M 79.01574976396665 99.18683210126434 l -33.47040112274773 -1.2970230265405505 a54.495522388059705,54.495522388059705 0 0,0 0.0443915121662041,-0.9370346606240719 l 33.44311600234803 1.8729687937876316" fill="#a7ff21" stroke="none" /><path d="M 79.05617556472873 98.46500227214037 l -16.775899174520763 -1.2295255432109495 a37.82089552238806,37.82089552238806 0 0,0 0.05317530774797043,-0.6488734426407174 l 16.752249382953295 1.5181129030594454" fill="#ff5e08" stroke="none" /><path d="M 79.12142395522702 97.74499172005258 l -16.661311430754164 -1.7995190452913772 a37.75820895522388,37.75820895522388 0 0,0 0.07535396231096003,-0.6455867311910196 l 16.627867115439617 2.0860495148072586" fill="#ff5d08" stroke="none" /><path d="M 79.16333360222342 97.38593545837743 l -16.66933311822126 -2.0912516332980498 a37.8,37.8 0 0,0 0.08655120169589904,-0.644906984283613 l 16.630865917467528 2.377876959646322" fill="#ff5e08" stroke="none" /><path d="M 79.26566170972629 96.67025291283419 l -33.15431008205957 -5.3242821582840385 a54.57910447761194,54.57910447761194 0 0,0 0.15694907234744027,-0.9263223093721964 l 33.0577491481919 5.894190255972063" fill="#a6ff21" stroke="none" /><path d="M 79.3925641242962 95.95851677861259 l -16.444938877924823 -3.22514382443055 a37.75820895522388,37.75820895522388 0 0,0 0.13057274853891024,-0.6367190938435141 l 16.386986833470917 3.5077385744374667" fill="#ff5d08" stroke="none" /><path d="M 79.54389044137918 95.25157060432595 l -16.30382463328884 -3.7845691004327486 a37.73731343283582,37.73731343283582 0 0,0 0.15232792311340151,-0.6314975837046063 l 16.236263909914626 4.064651915796752" fill="#ff5d08" stroke="none" /><path d="M 79.62865764111835 94.90015583598534 l -16.25653390231152 -4.069726387601742 a37.75820895522388,37.75820895522388 0 0,0 0.16326589881627324,-0.6291301084907492 l 16.18407167162494 4.348952921641355" fill="#ff5d08" stroke="none" /><path d="M 79.81627453868168 94.20196356495316 l -32.15337757569216 -9.236473962696516 a54.45373134328358,54.45373134328358 0 0,0 0.2665486886834743,-0.8986696697895709 l 31.98962298989698 9.788573019232626" fill="#a7ff21" stroke="none" /><path d="M 80.02781315780177 93.51064311812611 l -19.91256837401256 -6.469985667301135 a41.93731343283582,41.93731343283582 0 0,0 0.22898313572144557,-0.684630430283482 l 19.798247944519343 6.811789200506938" fill="#ffa10e" stroke="none" /><path d="M 80.2630227832202 92.82701384747504 l -19.697699650179253 -7.158711553216452 a41.95820895522388,41.95820895522388 0 0,0 0.2525392898395341,-0.6766797421344104 l 19.571555771838092 7.4967144323802035" fill="#ffa10e" stroke="none" /><path d="M 80.38941819471856 92.48833698450439 l -15.6494394107818 -5.994381829281079 a37.75820895522388,37.75820895522388 0 0,0 0.23770851279978522,-0.6049422369685129 l 15.543937348100325 6.262873071145355" fill="#ff5d08" stroke="none" /><path d="M 80.65960295795068 91.81776055985345 l -30.80992603415022 -13.034592381765785 a54.45373134328358,54.45373134328358 0 0,0 0.3726431941790786,-0.860111869858032 l 30.580992130128458 13.563003396210416" fill="#a7ff21" stroke="none" /><path d="M 80.95270993114464 91.15688171328213 l -15.218879527652588 -7.065695506700946 a37.77910447761194,37.77910447761194 0 0,0 0.27892098063095844,-0.5874787189272813 l 15.095000353179879 7.3266166412687594" fill="#ff5e08" stroke="none" /><path d="M 81.10775173730289 90.83032412892265 l -15.113798610157685 -7.335740696861871 a37.8,37.8 0 0,0 0.28915197668385695,-0.5829127407018693 l 14.985286620520416 7.594813026062702" fill="#ff5e08" stroke="none" /><path d="M 81.43458229118936 90.18545643968196 l -14.852334167048507 -7.851634848254433 a37.8,37.8 0 0,0 0.30904542140675073,-0.5726142300015491 l 14.714980646423285 8.106130061588456" fill="#ff5e08" stroke="none" /><path d="M 81.6062741919709 89.86733742301443 l -14.733282861157642 -8.116212312908837 a37.82089552238806,37.82089552238806 0 0,0 0.3190325067270651,-0.5675232308637213 l 14.591392713138147 8.368619053707345" fill="#ff5e08" stroke="none" /><line stroke="#e1ed5e" stroke-width="0.3" x1="26.266209847984243" x2="21.928928074336255" y1="57.711370442889674" y2="55.22380399835377" /><path d="M 25.398753493254645 57.213857153982495 a86.0,86.0 0 0,1 29.58750427330803,-30.492523968695096" fill="none" id="id47" stroke="none" /><text fill="#e1ed5e" style="font-size:6.75px; font-family:Arial;" text-anchor="middle"><textPath startOffset="21.46611528233685" xlink:href="#id47">November</textPath></text><path d="M 81.96595687620814 89.24020034530311 l -14.391345856001069 -8.586427187131251 a37.75820895522388,37.75820895522388 0 0,0 0.33781766417592635,-0.5552834167311607 l 14.241412393538925 8.832878377069486" fill="#ff5d08" stroke="none" /><path d="M 82.34701348167596 88.62581576622439 l -28.121822304315216 -18.119471600273375 a54.45373134328358,54.45373134328358 0 0,0 0.5144668340868257,-0.7835682838549252 l 27.80575883487047 18.600857948105965" fill="#a7ff21" stroke="none" /><path d="M 82.7489923806493 88.02491185347247 l -13.955292730877735 -9.687310112564056 a37.98805970149254,37.98805970149254 0 0,0 0.3775061265637307,-0.5339556441759331 l 13.786473984510126 9.926092257071774" fill="#ff6109" stroke="none" /><path d="M 82.95767976084542 87.72973835380427 l -13.633856191323664 -9.816209316956586 a37.8,37.8 0 0,0 0.38472729747545986,-0.5247676013912987 l 13.462866281334572 10.049439362019386" fill="#ff5e08" stroke="none" /><path d="M 83.39014120810768 87.1503855733568 l -13.353995924227856 -10.330834285301203 a37.883582089552235,37.883582089552235 0 0,0 0.4034527879434134,-0.5123440694160443 l 13.174189055690473 10.559170748670295" fill="#ff6008" stroke="none" /><path d="M 83.84228863543731 86.58626213691792 l -25.771951559596012 -21.395245566687137 a54.495522388059705,54.495522388059705 0 0,0 0.6053917612194827,-0.7165928948928018 l 25.399849184889405 21.835697411209054" fill="#a7ff21" stroke="none" /><path d="M 84.31358615837235 86.03803664274999 l -12.736431537082755 -11.336280696035836 a38.05074626865672,38.05074626865672 0 0,0 0.43967883625689763,-0.4855043526190433 l 12.539409060209811 11.553837835924435" fill="#ff6209" stroke="none" /><path d="M 84.5562425177563 85.77008943001954 l -12.339639062927056 -11.369769340989363 a37.77910447761194,37.77910447761194 0 0,0 0.4447728177884733,-0.4744526311288411 l 12.142098923168126 11.580491388996254" fill="#ff5e08" stroke="none" /><path d="M 85.05521093208273 85.24692304244772 l -11.985572128100818 -11.831820923171286 a37.841791044776116,37.841791044776116 0 0,0 0.4616053392009908,-0.45962305917676805 l 11.780130988732514 12.036379832998163" fill="#ff5f08" stroke="none" /><path d="M 85.57189188830299 84.74124197986013 l -22.998835019839426 -24.322915769416984 a54.474626865671645,54.474626865671645 0 0,0 0.686878653678418,-0.6383788498541234 l 22.576748482366153 24.715199205345755" fill="#a7ff21" stroke="none" /><path d="M 86.10567301691215 84.25364557470407 l -13.839026179175058 -15.683682367881827 a41.91641791044776,41.91641791044776 0 0,0 0.5451254128503208,-0.47272738626877686 l 13.567006967677964 15.919574747570286" fill="#ffa00e" stroke="none" /><path d="M 86.37877921826538 84.01681056812374 l -13.580560421192127 -15.93547841864678 a41.93731343283582,41.93731343283582 0 0,0 0.5534576351473288,-0.46350485284638665 l 13.304245249085689 16.166884428886977" fill="#ffa10e" stroke="none" /><path d="M 86.93701828274178 83.55741782278169 l -13.010989750224367 -16.377139064075156 a41.91641791044776,41.91641791044776 0 0,0 0.5688006908957136,-0.44395796141116134 l 12.727156504169226 16.59867541470954" fill="#ffa00e" stroke="none" /><path d="M 87.51073957382395 83.11751280151077 l -19.895826808266513 -26.894390054508722 a54.45373134328358,54.45373134328358 0 0,0 0.7583451796836267,-0.5509700239480234 l 19.429936312229106 27.23287931327341" fill="#a7ff21" stroke="none" /><path d="M 88.09926311788651 82.69761687909137 l -11.853370765169752 -17.23351791445725 a41.91641791044776,41.91641791044776 0 0,0 0.5979981920601808,-0.4037710486854499 l 11.554967878703032 17.435000875441364" fill="#ffa00e" stroke="none" /><path d="M 88.39885842347998 82.49532879139004 l -11.56651130315728 -17.452418458733515 a41.93731343283582,41.93731343283582 0 0,0 0.6051613723889907,-0.3936137902605107 l 11.264382904984002 17.64893117315356" fill="#ffa10e" stroke="none" /><path d="M 89.00827224532344 82.1063720568725 l -10.980790712134588 -17.87582333820896 a41.97910447761194,41.97910447761194 0 0,0 0.6189677701181521,-0.37292115581854124 l 10.671460875798788 18.06219110348612" fill="#ffa10e" stroke="none" /><line stroke="#e1ed5e" stroke-width="0.3" x1="56.762969772571076" x2="54.21961505331055" y1="26.818313649435495" y2="22.513508569990535" /><path d="M 56.25429882871897 25.957352633546506 a86.0,86.0 0 0,1 42.265352541879196,-11.944610805530505" fill="none" id="id48" stroke="none" /><text fill="#e1ed5e" style="font-size:6.75px; font-family:Arial;" text-anchor="middle"><textPath startOffset="22.20632615414155" xlink:href="#id48">December</textPath></text><path d="M 89.63071344664047 81.73862282372117 l -16.57022308924915 -29.181862432939106 a54.55820895522388,54.55820895522388 0 0,0 0.8206487596347154,-0.45669014623916226 l 16.06545024054239 29.46276797673845" fill="#a6ff21" stroke="none" /><path d="M 90.26544431104013 81.39251694778311 l -9.69581118870531 -18.53342341817822 a41.91641791044776,41.91641791044776 0 0,0 0.642198469549194,-0.3289589992269797 l 9.375352231567351 18.697574942717708" fill="#ffa00e" stroke="none" /><path d="M 90.58718382345135 81.22770947309562 l -9.394084204057995 -18.734932734811046 a41.95820895522388,41.95820895522388 0 0,0 0.6484116376547907,-0.31817277457638016 l 9.07020129939278 18.893860669522258" fill="#ffa10e" stroke="none" /><path d="M 91.23893434514133 80.91482961587045 l -9.031307481028445 -19.673867182047978 a42.647761194029854,42.647761194029854 0 0,0 0.669809249959516,-0.3005238859858353 l 8.691316112602156 19.826411398550345" fill="#ffac0f" stroke="none" /><path d="M 91.90106846888425 80.62456947434976 l -12.901879981409278 -30.865735593598036 a54.45373134328358,54.45373134328358 0 0,0 0.8679305829379904,-0.3540506772195009 l 12.368665528882907 31.083247157001114" fill="#a7ff21" stroke="none" /><path d="M 92.57280143429618 80.3572730644239 l -7.4050278237166385 -19.58409192979827 a41.93731343283582,41.93731343283582 0 0,0 0.6774227583825404,-0.2495005189181204 l 7.066822739561529 19.708655716522713" fill="#ffa10e" stroke="none" /><path d="M 92.91201910852362 80.23233633223022 l -7.292509693319982 -20.338073863158172 a42.605970149253736,42.605970149253736 0 0,0 0.6924849688706083,-0.2415944083401634 l 6.941342720386088 20.460589124670545" fill="#ffab0f" stroke="none" /><path d="M 93.59665428221793 80.00007090966166 l -6.390602741229277 -19.960128236427224 a41.95820895522388,41.95820895522388 0 0,0 0.6897422602953798,-0.21430627776705405 l 6.046075108223169 20.0671746490768" fill="#ffa10e" stroke="none" /><path d="M 94.28887869178378 79.79150937346287 l -9.115063262068487 -32.253153198970686 a54.516417910447764,54.516417910447764 0 0,0 0.9052376189207045,-0.2474356368001929 l 8.55852775392406 32.405275376597174" fill="#a6ff21" stroke="none" /><path d="M 95.33964822691252 79.52364482259891 l -4.6510774412007425 -20.435606211873925 a41.95820895522388,41.95820895522388 0 0,0 0.7056117511440099,-0.15421939882934987 l 4.298622965903212 20.512639108799142" fill="#ffa10e" stroke="none" /><path d="M 95.692805502759 79.44645832069477 l -4.290051434565418 -20.47173653829306 a41.91641791044776,41.91641791044776 0 0,0 0.7074565001083825,-0.14190911851653276 l 3.9370285249898997 20.542549612886805" fill="#ffa00e" stroke="none" /><path d="M 96.04723909329186 79.375362276772 l -3.9881587655741835 -20.80933597149572 a42.188059701492534,42.188059701492534 0 0,0 0.7143942790977695,-0.13055098821180458 l 3.6293693653735204 20.87490244105826" fill="#ffa50f" stroke="none" /><path d="M 96.75951476605007 79.25152402106235 l -6.8098555364201285 -43.60276743036448 a65.13134328358208,65.13134328358208 0 0,0 1.10918993831234,-0.1634657640500097 l 6.05829661767914 43.71352767857546" fill="#31ff3f" stroke="none" /><path d="M 97.47563105711357 79.15227682838746 l -2.5645579011811357 -21.179627222105875 a42.33432835820896,42.33432835820896 0 0,0 0.7241857300391158,-0.08137070474484324 l 2.199605467632302 21.22063388032132" fill="#ffa70f" stroke="none" /><path d="M 97.83486435360386 79.11191278185805 l -2.2039141952868215 -21.26220221309374 a42.376119402985076,42.376119402985076 0 0,0 0.726195265931344,-0.06896099076936701 l 1.8375938022652412 21.296988748378286" fill="#ffa80f" stroke="none" /><path d="M 98.55514903715128 79.0497635885617 l -2.0141653720905963 -29.205254937736377 a50.27462686567164,50.27462686567164 0 0,0 0.8638568263600668,-0.052110202856699275 l 1.5111464968909067 29.23559840997338" fill="#e1ff1b" stroke="none" /><path d="M 99.27714615592234 79.0124445844662 l -1.1544083778553706 -33.51743924570324 a54.53731343283582,54.53731343283582 0 0,0 0.9384920220312097,-0.024238480107901826 l 0.5772897206292817 33.5323445179535" fill="#a6ff21" stroke="none" /></svg>