<?xml version="1.0" encoding="utf-8" ?>
<svg baseProfile="full" height="200mm" version="1.1" viewBox="0,0,200,200" width="200mm" xmlns="http://www.w3.org/2000/svg" xmlns:ev="http://www.w3.org/2001/xml-events" xmlns:xlink="http://www.w3.org/1999/xlink"><defs /><rect fill="#1a1a1a" height="200" width="200" x="0" y="0" /><text alignment-baseline="middle" fill="#e1ed5e" style="dominant-baseline: central; font-size:9.0px; font-family:Arial;" text-anchor="middle" x="100.0" y="100.0">2026</text><line stroke="#e1ed5e" stroke-width="0.3" x1="100.0" x2="100.0" y1="15.0" y2="10.0" /><path d="M 100.0 14.0 a86.0,86.0 0 0,1 42.46469731375804,11.215312516191453" fill="none" id="id73" stroke="none" /><text fill="#e1ed5e" style="font-size:6.75px; font-family:Arial;" text-anchor="middle"><textPath startOffset="22.20632615414155" xlink:href="#id73">January</textPath></text><path d="M 100.0 79.0 l 0.0 -62.22350041084634 a83.22350041084634,83.22350041084634 0 0,0 1.4325557531071522,0.012330459640985558 l -1.0710752738346239 62.214281327813914" fill="#4be0ff" stroke="none" /><path d="M 100.72285384407766 79.0124445844662 l 2.140051273797708 -62.13489084812513 a83.17173377156944,83.17173377156944 0 0,0 1.430392101794102,0.06159569281296732 l -3.209284207981142 62.08884742878797" fill="#4be1ff" stroke="none" /><path d="M 101.44485096284872 79.0497635885617 l 4.323867877317197 -62.69577732987534 a83.84470008216927,83.84470008216927 0 0,0 1.4389739275993296,0.11169207150883392 l -5.402431994278867 62.61205999617804" fill="#4dd5ff" stroke="none" /><path d="M 103.59715602781102 79.31037775812273 l 10.658459027351332 -61.303843717509814 a83.22350041084634,83.22350041084634 0 0,0 1.4092706088091282,0.2575351959288316 l -11.712124757263362 61.111293040230244" fill="#4be0ff" stroke="none" /><path d="M 104.307194497241 79.44645832069477 l 12.75170236118269 -60.849967683267636 a83.17173377156944,83.17173377156944 0 0,0 1.398700139342642,0.30570167557757105 l -13.79724522467886 60.62145250959419" fill="#4be1ff" stroke="none" /><path d="M 105.01212808612495 79.60689891045804 l 14.838699666646017 -60.37497389122406 a83.17173377156944,83.17173377156944 0 0,0 1.3873485263255376,0.35366602996389235 l -15.875757081656579 60.110604865091304" fill="#4be1ff" stroke="none" /><path d="M 106.0581310904928 79.89281104454417 l 17.93545301482787 -59.52851422063052 a83.17173377156944,83.17173377156944 0 0,0 1.3672428130931291,0.42480899742502126 l -18.95748120063172 59.21096508832297" fill="#4be1ff" stroke="none" /><path d="M 106.40334571778207 80.00007090966166 l 18.95748120063172 -59.21096508832297 a83.17173377156944,83.17173377156944 0 0,0 1.3597278527457255,0.44828089488125017 l -19.97389187561986 58.87587046918249" fill="#4be1ff" stroke="none" /><path d="M 108.09893153111575 80.62456947434976 l 23.97736261841417 -57.36210039763173 a83.17173377156944,83.17173377156944 0 0,0 1.3161580011920135,0.5635101686272377 l -24.9612043773965 56.9408707010417" fill="#4be1ff" stroke="none" /><path d="M 108.43124777332544 80.76684994638697 l 24.98198806130773 -56.98828191727903 a83.22350041084634,83.22350041084634 0 0,0 1.307076123775447,0.5864469563835413 l -25.95924630354996 56.54981463037896" fill="#4be0ff" stroke="none" /><path d="M 109.08828744355905 81.06846463323043 l 26.906408922878615 -56.04792270046897 a83.17173377156944,83.17173377156944 0 0,0 1.2853151134015766,0.6306985440839029 l -27.867195303290625 55.57646899625024" fill="#4be1ff" stroke="none" /><line stroke="#e1ed5e" stroke-width="0.3" x1="143.23703022742887" x2="145.7803849466894" y1="26.81831364943548" y2="22.513508569990506" /><path d="M 143.74570117128098 25.957352633546492 a86.0,86.0 0 0,1 28.547481713284135,27.462654790039103" fill="none" id="id74" stroke="none" /><text fill="#e1ed5e" style="font-size:6.75px; font-family:Arial;" text-anchor="middle"><textPath startOffset="19.985693538727396" xlink:href="#id74">February</textPath></text><path d="M 110.68208982089419 81.91981866633111 l 31.624954498505982 -53.52743906755052 a83.17173377156944,83.17173377156944 0 0,0 1.2263392282916905,0.7388556634424632 l -32.54165579301531 52.97513679464944" fill="#4be1ff" stroke="none" /><path d="M 111.2981086023043 82.29822771554956 l 33.44871429260671 -52.40713684541901 a83.17173377156944,83.17173377156944 0 0,0 1.2001798978798437,0.7806303907568406 l -34.34586121627083 51.82360753050264" fill="#4be1ff" stroke="none" /><path d="M 112.48926042617603 83.11751280151076 l 37.00597625044434 -50.02321186339542 a83.22350041084634,83.22350041084634 0 0,0 1.144338373396318,0.8618919382196369 l -37.861560777599045 49.378803335669936" fill="#4be0ff" stroke="none" /><path d="M 112.77801427241765 83.33499621200491 l 37.830061974955456 -49.337722800448915 a83.17173377156944,83.17173377156944 0 0,0 1.1286303074211552,0.880913856979507 l -38.673724837536035 48.67923055424618" fill="#4be1ff" stroke="none" /><path d="M 113.34407831869373 83.78471172551755 l 39.57171623021008 -48.086257504196524 a83.27526705012326,83.27526705012326 0 0,0 1.0990053628884962,0.9203853857168676 l -40.39357913005769 47.39797096108583" fill="#4bdfff" stroke="none" /><path d="M 113.89432698308785 84.25364557470407 l 41.47747734556955 -47.00616731889905 a83.68940016433854,83.68940016433854 0 0,0 1.0719775761375911,0.9624320521519371 l -42.280465909303125 46.28523625797782" fill="#4cd8ff" stroke="none" /><path d="M 116.82858285166822 87.43820079747576 l 49.86349199927326 -37.220910373296974 a83.22350041084634,83.22350041084634 0 0,0 0.847046359775497,1.1553702828039325 l -50.49680097156238 36.35707764682155" fill="#4be0ff" stroke="none" /><path d="M 117.45458315368197 88.32363383020206 l 51.675318901163614 -34.56856804419225 a83.17173377156944,83.17173377156944 0 0,0 0.7857881820663943,1.1968093111155393 l -52.262703718587936 33.67394066909904" fill="#4be1ff" stroke="none" /><path d="M 117.65298651832404 88.62581576622439 l 52.262703718587936 -33.67394066909904 a83.17173377156944,83.17173377156944 0 0,0 0.7650706541450235,1.2101580427424208 l -52.834601968978916 32.76933497864241" fill="#4be1ff" stroke="none" /><line stroke="#e1ed5e" stroke-width="0.3" x1="172.23445277983987" x2="176.4835382374775" y1="55.19839476539836" y2="52.563006222186495" /><path d="M 173.08426987136738 54.67131705675599 a86.0,86.0 0 0,1 12.851231095245387,41.99856678651699" fill="none" id="id75" stroke="none" /><text fill="#e1ed5e" style="font-size:6.75px; font-family:Arial;" text-anchor="middle"><textPath startOffset="22.20632615414155" xlink:href="#id75">March</textPath></text><path d="M 117.84615892207809 88.93136811851018 l 52.834601968978916 -32.76933497864241 a83.17173377156944,83.17173377156944 0 0,0 0.7441264192772397,1.2231481784238845 l -53.39084418654238 31.855019027011444" fill="#4be1ff" stroke="none" /><path d="M 118.21658344932153 89.55222093294921 l 53.93126554470459 -30.931263745755146 a83.17173377156944,83.17173377156944 0 0,0 0.701582718956839,1.2480373723207012 l -54.45570590495386 29.99834286349965" fill="#4be1ff" stroke="none" /><path d="M 118.89224826269711 90.83032412892265 l 56.024752654128086 -27.192572077829194 a83.27526705012326,83.27526705012326 0 0,0 0.614816562464819,1.2949604783227218 l -56.48452741043466 26.224169183865932" fill="#4bdfff" stroke="none" /><path d="M 119.04729006885535 91.15688171328212 l 57.00101103596648 -26.46395792952056 a83.84470008216927,83.84470008216927 0 0,0 0.5964859012942457,1.3142776162994387 l -57.44809925422407 25.47885830437906" fill="#4dd5ff" stroke="none" /><path d="M 119.34039704204932 91.81776055985345 l 57.59211083022741 -24.365189590050193 a83.5341002465078,83.5341002465078 0 0,0 0.5488521066424966,1.3290889107933932 l -58.002984623756106 23.370226108803497" fill="#4cdaff" stroke="none" /><path d="M 119.61058180528143 92.48833698450437 l 58.54169572603733 -22.42388803228894 a83.68940016433854,83.68940016433854 0 0,0 0.5037121986582724,1.349698262454999 l -58.91901251319723 21.412866632804608" fill="#4cd8ff" stroke="none" /><path d="M 119.85752413597 93.16781622104841 l 59.27887032537304 -20.39550013880945 a83.68940016433854,83.68940016433854 0 0,0 0.45695490978382514,1.366237017934903 l -59.621162528928636 19.37209001795223" fill="#4cd8ff" stroke="none" /><path d="M 120.18372546131832 94.20196356495316 l 60.352158548674886 -17.3369388554934 a83.79293344289235,83.79293344289235 0 0,0 0.38629830906305734,1.3897205510251187 l -60.64164362830431 16.29550700104933" fill="#4cd6ff" stroke="none" /><path d="M 120.37134235888165 94.90015583598534 l 60.81272538193676 -15.224103408270514 a83.68940016433854,83.68940016433854 0 0,0 0.33781505237060455,1.4004614843482994 l -61.065773234568184 14.175056692262809" fill="#4cd8ff" stroke="none" /><path d="M 120.53481517161879 95.60439243477599 l 61.1994861359584 -13.100138569488509 a83.58586688578472,83.58586688578472 0 0,0 0.28905069070481104,1.4095138221400438 l -61.41591612257821 12.044749091185054" fill="#4cd9ff" stroke="none" /><path d="M 120.6074358757038 95.95851677861258 l 61.822307627111385 -12.124449664162288 a84.0,84.0 0 0,0 0.26605710436056285,1.4212876901497489 l -62.02185045538181 11.058483896549978" fill="#4dd2ff" stroke="none" /><path d="M 120.83666639777658 97.38593545837742 l 46.33033629612442 -5.812373582276658 a67.69350862777321,67.69350862777321 0 0,0 0.13509576431135636,1.1574180070267894 l -46.423522413439365 5.0140118369250155" fill="#83ff25" stroke="none" /><path d="M 120.91429891909075 98.10471618934814 l 47.84339210414846 -4.335636917711414 a69.03944124897288,69.03944124897288 0 0,0 0.0970678637947424,1.1844738021788965 l -47.91093445176269 3.511449198324748" fill="#67ff28" stroke="none" /><path d="M 120.94382443527127 98.46500227214037 l 46.56860223651935 -3.4130680785440983 a67.69350862777321,67.69350862777321 0 0,0 0.07517012447796052,1.1628485545894354 l -46.62045295200172 2.610960459701628" fill="#83ff25" stroke="none" /><line stroke="#e1ed5e" stroke-width="0.3" x1="184.98032266829074" x2="189.97916517819016" y1="98.17113171792111" y2="98.06355123074" /><path d="M 185.9800911702706 98.14961562048488 a86.0,86.0 0 0,1 -9.607161424134198,41.387399972396054" fill="none" id="id76" stroke="none" /><text fill="#e1ed5e" style="font-size:6.75px; font-family:Arial;" text-anchor="middle"><textPath startOffset="21.466115282336823" xlink:href="#id76">April</textPath></text><path d="M 120.99980553446 99.90962569577887 l 46.69307623356511 -0.20094730256563512 a67.69350862777321,67.69350862777321 0 0,0 -0.005014808326441807,1.1652648455274814 l -46.68961712794916 -0.602827021165531" fill="#83ff25" stroke="none" /><path d="M 120.9904718944345 100.63252640178507 l 46.62057972938083 1.404863487284343 a67.6417419884963,67.6417419884963 0 0,0 -0.04508762466991247,1.1635112503739489 l -46.58948997185971 -2.207151984672298" fill="#84ff25" stroke="none" /><path d="M 120.9764740272857 100.99374915477107 l 46.58948997185971 2.207151984672298 a67.6417419884963,67.6417419884963 0 0,0 -0.06510887799579716,1.162562754285243 l -46.544594742976386 -3.0087864552929644" fill="#84ff25" stroke="none" /><path d="M 120.92983693683757 101.71520430193887 l 46.4859073461561 3.8095293575519866 a67.6417419884963,67.6417419884963 0 0,0 -0.10508757813793318,1.1596326679454425 l -46.41344517174109 -4.609143414046" fill="#84ff25" stroke="none" /><path d="M 120.70491114924044 103.5080841355445 l 45.98633922464824 7.791578815428745 a67.6417419884963,67.6417419884963 0 0,0 -0.20438615121641765,1.1463060781641612 l -45.84540663109264 -8.582003644326125" fill="#84ff25" stroke="none" /><path d="M 120.5718875245553 104.21870165774334 l 45.690889054127325 9.369885440328874 a67.6417419884963,67.6417419884963 0 0,0 -0.24372273475775114,1.138591477311929 l -45.52283228064513 -10.154990737056972" fill="#84ff25" stroke="none" /><path d="M 120.41448212921028 104.9243191809786 l 45.341286109494995 10.93708689086702 a67.6417419884963,67.6417419884963 0 0,0 -0.2827704584744137,1.1295274195252325 l -45.14630433672552 -11.715942149789647" fill="#84ff25" stroke="none" /><path d="M 120.23288151984713 105.62410040840565 l 45.03769600432692 12.519053415259593 a67.74527526705012,67.74527526705012 0 0,0 -0.3219751089442676,1.120837593400995 l -44.81552825849655 -13.29244848416517" fill="#82ff25" stroke="none" /><path d="M 120.13307415673323 105.97154293290107 l 44.716269059695904 13.263007845219072 a67.6417419884963,67.6417419884963 0 0,0 -0.3406993030205093,1.1134250350007693 l -44.48134298416926 -14.030759852771897" fill="#84ff25" stroke="none" /><path d="M 119.67450827220406 107.3425965602758 l 29.487512808956623 11.004844803568648 a52.47411668036155,52.47411668036155 0 0,0 -0.3231049266689778,0.8435250067875182 l -29.29371360269414 -11.51079337718931" fill="#ff0000" stroke="none" /><path d="M 119.41010516605496 108.01547362559984 l 43.15837681129394 17.822408899649265 a67.69350862777321,67.69350862777321 0 0,0 -0.4540268699938965,1.0731854032963357 l -42.84519896010774 -18.562668828611763" fill="#83ff25" stroke="none" /><path d="M 119.26925614724726 108.34839909993367 l 42.940199401260955 18.603827739539945 a67.79704190632702,67.79704190632702 0 0,0 -0.47315528191522493,1.0668402513724158 l -42.61360303461446 -19.34021632740505" fill="#81ff25" stroke="none" /><path d="M 118.97047184881838 109.00673069616215 l 42.50819780750017 20.181885462969753 a68.05587510271158,68.05587510271158 0 0,0 -0.5115427739618461,1.0539296283261739 l -42.1545017769236 -20.910604047261202" fill="#7bff26" stroke="none" /><path d="M 118.64920377521936 109.65438752849418 l 41.420540513079644 21.44273581718963 a67.6417419884963,67.6417419884963 0 0,0 -0.5441858403931136,1.0293945282352945 l -41.04530216446164 -22.15254536051106" fill="#84ff25" stroke="none" /><line stroke="#e1ed5e" stroke-width="0.3" x1="174.80103733775053" x2="179.2010983576182" y1="140.37084112569926" y2="142.7455964860345" /><path d="M 175.68104954172406 140.8457921977663 a86.0,86.0 0 0,1 -30.038265399797805,32.042727171017184" fill="none" id="id77" stroke="none" /><text fill="#e1ed5e" style="font-size:6.75px; font-family:Arial;" text-anchor="middle"><textPath startOffset="22.206326154141568" xlink:href="#id77">May</textPath></text><path d="M 118.48025628344425 109.97397251340804 l 41.54641018200779 22.42299818955171 a68.21117502054233,68.21117502054233 0 0,0 -0.5665541934578331,1.0284604279157574 l -41.15427957909845 -23.13482913586527" fill="#78ff26" stroke="none" /><path d="M 118.30583269289576 110.29060199501025 l 40.793277126650196 22.93189203818223 a67.79704190632702,67.79704190632702 0 0,0 -0.580626793029828,1.012371754825538 l -40.39249833746799 -23.630683638866085" fill="#81ff25" stroke="none" /><path d="M 118.12598468904814 110.60418214915192 l 40.39249833746799 23.630683638866085 a67.79704190632702,67.79704190632702 0 0,0 -0.5979670824828802,1.0022272252436293 l -39.979750379286884 -24.322472957995817" fill="#81ff25" stroke="none" /><path d="M 117.75023020441432 111.22182372390056 l 39.38013274603016 24.896404317610102 a67.5899753492194,67.5899753492194 0 0,0 -0.6301804027543911,0.9780539795461536 l -38.94574747989871 -25.570579897077707" fill="#85ff25" stroke="none" /><path d="M 117.35343817320211 111.8261652097733 l 38.628154487431786 26.324635623069714 a67.74527526705012,67.74527526705012 0 0,0 -0.6649975994095754,0.9579786398141011 l -38.16929598086008 -26.985655525070836" fill="#82ff25" stroke="none" /><path d="M 116.71984013943494 112.70617746262583 l 37.13535570821087 28.22086908913526 a67.6417419884963,67.6417419884963 0 0,0 -0.7124710571118914,0.9209648833821278 l -36.64407783388091 -28.85591196663064" fill="#84ff25" stroke="none" /><path d="M 116.27256486870786 113.27417163493432 l 36.14194152844481 29.482404214648707 a67.6417419884963,67.6417419884963 0 0,0 -0.7437499428244125,0.8958947182530976 l -35.62909558572686 -30.100160190015576" fill="#84ff25" stroke="none" /><path d="M 115.80600337817218 113.82643327865902 l 35.30050713383072 30.87941302497554 a67.90057518488086,67.90057518488086 0 0,0 -0.7771096356892268,0.8730909137795321 l -34.76373864849315 -31.48247810849594" fill="#7eff26" stroke="none" /><path d="M 115.32070863581623 114.36230785411682 l 34.216668917131095 32.076214254305285 a67.90057518488086,67.90057518488086 0 0,0 -0.8067023174394206,0.845824154681869 l -33.65946004831271 -32.66044552556966" fill="#7eff26" stroke="none" /><path d="M 115.07121518719521 114.62390073753431 l 33.65946004831271 32.66044552556966 a67.90057518488086,67.90057518488086 0 0,0 -0.8211422682058074,0.8318127824043424 l -33.09227715505136 -33.23499880195467" fill="#7eff26" stroke="none" /><path d="M 114.0293411484842 115.62618273729858 l 31.263412649703493 34.821863256823114 a67.79704190632702,67.79704190632702 0 0,0 -0.8750907932867845,0.7721658800137035 l -30.65937950351012 -35.3548522786091" fill="#81ff25" stroke="none" /><path d="M 113.48314897796784 116.09983520530334 l 30.212446395167042 36.07580164738061 a68.05587510271158,68.05587510271158 0 0,0 -0.9045917937713542,0.7444174619780513 l -29.586984472850997 -36.59051422821584" fill="#7bff26" stroke="none" /><path d="M 113.20401910651253 116.32954008644616 l 29.424239783781406 36.38924627316514 a67.79704190632702,67.79704190632702 0 0,0 -0.9137830822625533,0.7259645455002957 l -28.793499208801503 -36.89034473267056" fill="#81ff25" stroke="none" /><path d="M 112.63410532772338 116.77436683061366 l 28.216514610314 37.46321203418894 a67.90057518488086,67.90057518488086 0 0,0 -0.9396632221881263,0.695140387599843 l -27.56746641770731 -37.943362370528554" fill="#7eff26" stroke="none" /><path d="M 112.04921762599082 117.19931262002967 l 26.939951651866092 38.454666917913514 a67.95234182415777,67.95234182415777 0 0,0 -0.9637684374322808,0.6628887193757267 l -26.274026329810926 -38.912696426654335" fill="#7dff26" stroke="none" /><path d="M 111.45004920935366 117.60387380957326 l 25.459189121208734 39.142220648073334 a67.69350862777321,67.69350862777321 0 0,0 -0.9822592362940771,0.6269243185901379 l -24.78164808286773 -39.57465939548728" fill="#83ff25" stroke="none" /><path d="M 111.1453310114006 117.79835938074945 l 25.55092318965298 40.80314106186604 a69.1429745275267,69.1429745275267 0 0,0 -1.0141654444299417,0.622983248495225 l -24.84477854529073 -41.236912777189644" fill="#65ff29" stroke="none" /><line stroke="#e1ed5e" stroke-width="0.3" x1="143.8653032363475" x2="146.44561519142675" y1="172.8068346515853" y2="177.08958963109032" /><path d="M 144.38136562736335 173.6633856474863 a86.0,86.0 0 0,1 -40.68145358897372,12.25698825130547" fill="none" id="id78" stroke="none" /><text fill="#e1ed5e" style="font-size:6.75px; font-family:Arial;" text-anchor="middle"><textPath startOffset="21.466115282336833" xlink:href="#id78">June</textPath></text><path d="M 110.5260780823613 118.17145234162733 l 23.612319773908233 40.762584135285614 a68.10764174198849,68.10764174198849 0 0,0 -1.0195105316039663,0.5789046874351697 l -22.90716047538307 -41.16299198851541" fill="#7aff26" stroke="none" /><path d="M 109.57404056367764 118.69057910512821 l 21.405886913530686 41.78887900168765 a67.95234182415777,67.95234182415777 0 0,0 -1.0456444630610429,0.5243078410017817 l -20.683388542786883 -42.15115468359873" fill="#7dff26" stroke="none" /><path d="M 109.2508944713604 118.85261126421891 l 20.66058436578271 42.10468152518242 a67.90057518488086,67.90057518488086 0 0,0 -1.0537112994404967,0.5058454576616527 l -19.932760398341983 -42.45408125934363" fill="#7eff26" stroke="none" /><path d="M 108.92500713936063 119.00905698771935 l 20.020763755509048 42.64151649669171 a68.10764174198849,68.10764174198849 0 0,0 -1.0655019069071447,0.48911966589269384 l -19.28379385283448 -42.97982323291848" fill="#7aff26" stroke="none" /><path d="M 107.93186726928326 119.44442032107085 l 17.73427349196365 43.474336642262756 a67.95234182415777,67.95234182415777 0 0,0 -1.0868456882063522,0.43247832927600716 l -16.98330672771543 -43.77316181594483" fill="#7dff26" stroke="none" /><path d="M 107.59598834532513 119.57807347666477 l 17.020756136155814 43.869684774745146 a68.05587510271158,68.05587510271158 0 0,0 -1.0957960964021989,0.4143363201145832 l -16.26308981899334 -44.15616934496636" fill="#7bff26" stroke="none" /><path d="M 106.91757812671514 119.82793768551818 l 15.568813877627582 44.62507914596082 a68.26294165981923,68.26294165981923 0 0,0 -1.112784335661734,0.3775168642818614 l -14.79835980902862 -44.88645899714081" fill="#77ff27" stroke="none" /><path d="M 106.57524785965236 119.94407469862006 l 14.668691815083132 44.493149389279765 a67.84880854560394,67.84880854560394 0 0,0 -1.1123284068220398,0.3561324296910713 l -13.900642063170151 -44.73905466563054" fill="#80ff26" stroke="none" /><path d="M 105.53697534728816 120.25689768951611 l 12.379712341800392 45.290894505483436 a67.95234182415777,67.95234182415777 0 0,0 -1.1309520428991975,0.29869471359284006 l -11.598269856089697 -45.497280568379864" fill="#7dff26" stroke="none" /><path d="M 104.83641907484287 120.43548508189849 l 10.825312703263736 45.74055987106944 a68.00410846343468,68.00410846343468 0 0,0 -1.1414322853268124,0.2597862719559127 l -10.036360268544062 -45.92012287660304" fill="#7cff26" stroke="none" /><path d="M 104.48393922423573 120.51570834832081 l 10.003200487921118 45.76840440894906 a67.84880854560394,67.84880854560394 0 0,0 -1.1431184664418124,0.2395515889755465 l -9.213890560049927 -45.93381197865115" fill="#80ff26" stroke="none" /><path d="M 104.13013068566511 120.58985236759428 l 9.224071654591421 45.98456757199774 a67.90057518488086,67.90057518488086 0 0,0 -1.1479477704686472,0.22000692234903693 l -8.431156269551071 -46.13653169269524" fill="#7eff26" stroke="none" /><path d="M 103.41894727170886 120.7198165907248 l 7.694738354322571 46.632356320456225 a68.26294165981923,68.26294165981923 0 0,0 -1.1610035526415008,0.1813248776785946 l -6.890898938072554 -46.75789950548193" fill="#77ff27" stroke="none" /><line stroke="#e1ed5e" stroke-width="0.3" x1="102.19456741930631" x2="102.32365962044197" y1="184.97166512339345" y2="189.96999836594603" /><path d="M 102.22038585953345 185.97133177190398 a86.0,86.0 0 0,1 -42.740103519485714,-10.115201625700543" fill="none" id="id79" stroke="none" /><text fill="#e1ed5e" style="font-size:6.75px; font-family:Arial;" text-anchor="middle"><textPath startOffset="22.20632615414155" xlink:href="#id79">July</textPath></text><line stroke="#e1ed5e" stroke-width="0.3" x1="58.666819895761336" x2="56.23545636021788" y1="174.27360380694188" y2="178.64263932499728" /><path d="M 58.180547188652646 175.14741091055294 a86.0,86.0 0 0,1 -31.652253787137756,-30.449443065178592" fill="none" id="id80" stroke="none" /><text fill="#e1ed5e" style="font-size:6.75px; font-family:Arial;" text-anchor="middle"><textPath startOffset="22.20632615414155" xlink:href="#id80">August</textPath></text><line stroke="#e1ed5e" stroke-width="0.3" x1="26.63291911575756" x2="22.317208475507996" y1="142.92168965132927" y2="145.44649492493687" /><path d="M 25.769776987707644 143.4266507060508 a86.0,86.0 0 0,1 -11.730757126820373,-40.83630448921669" fill="none" id="id81" stroke="none" /><text fill="#e1ed5e" style="font-size:6.75px; font-family:Arial;" text-anchor="middle"><textPath startOffset="21.46611528233685" xlink:href="#id81">September</textPath></text><line stroke="#e1ed5e" stroke-width="0.3" x1="15.007084014347285" x2="10.007500721073583" y1="101.09737516637583" y2="101.16192664675087" /><path d="M 14.007167355692545 101.11028546245083 a86.0,86.0 0 0,1 10.666146001902534,-42.60595125391555" fill="none" id="id82" stroke="none" /><text fill="#e1ed5e" style="font-size:6.75px; font-family:Arial;" text-anchor="middle"><textPath startOffset="22.20632615414155" xlink:href="#id82">October</textPath></text><line stroke="#e1ed5e" stroke-width="0.3" x1="26.266209847984243" x2="21.928928074336255" y1="57.711370442889674" y2="55.22380399835377" /><path d="M 25.398753493254645 57.213857153982495 a86.0,86.0 0 0,1 29.58750427330803,-30.492523968695096" fill="none" id="id83" stroke="none" /><text fill="#e1ed5e" style="font-size:6.75px; font-family:Arial;" text-anchor="middle"><textPath startOffset="21.46611528233685" xlink:href="#id83">November</textPath></text><line stroke="#e1ed5e" stroke-width="0.3" x1="56.762969772571076" x2="54.21961505331055" y1="26.818313649435495" y2="22.513508569990535" /><path d="M 56.25429882871897 25.957352633546506 a86.0,86.0 0 0,1 42.265352541879196,-11.944610805530505" fill="none" id="id84" stroke="none" /><text fill="#e1ed5e" style="font-size:6.75px; font-family:Arial;" text-anchor="middle"><textPath startOffset="22.20632615414155" xlink:href="#id84">December</textPath></text></svg>