<?xml version="1.0" encoding="utf-8" ?>
<svg baseProfile="full" height="200mm" version="1.1" viewBox="0,0,200,200" width="200mm" xmlns="http://www.w3.org/2000/svg" xmlns:ev="http://www.w3.org/2001/xml-events" xmlns:xlink="http://www.w3.org/1999/xlink"><defs /><rect fill="#1a1a1a" height="200" width="200" x="0" y="0" /><text alignment-baseline="middle" fill="#e1ed5e" style="dominant-baseline: central; font-size:9.0px; font-family:Arial;" text-anchor="middle" x="100.0" y="100.0">2020</text><line stroke="#e1ed5e" stroke-width="0.3" x1="100.0" x2="100.0" y1="15.0" y2="10.0" /><path d="M 100.0 14.0 a86.0,86.0 0 0,1 42.35913384403234,11.155469271406648" fill="none" id="id1" stroke="none" /><text fill="#e1ed5e" style="font-size:6.75px; font-family:Arial;" text-anchor="middle"><textPath startOffset="22.145653131862478" xlink:href="#id1">January</textPath></text><line stroke="#e1ed5e" stroke-width="0.3" x1="143.13028292997686" x2="145.6673583964461" y1="26.7553504044142" y2="22.446841604673864" /><path d="M 143.63769802327073 25.89364864446614 a86.0,86.0 0 0,1 29.32050498858742,28.57503671076993" fill="none" id="id2" stroke="none" /><text fill="#e1ed5e" style="font-size:6.75px; font-family:Arial;" text-anchor="middle"><textPath startOffset="20.669276256404974" xlink:href="#id2">February</textPath></text><line stroke="#e1ed5e" stroke-width="0.3" x1="172.87174338648825" x2="177.1583165268699" y1="56.24261187166439" y2="53.66864786411523" /><path d="M 173.72905801456457 55.72781907015455 a86.0,86.0 0 0,1 12.242430191666344,42.057860355516425" fill="none" id="id3" stroke="none" /><text fill="#e1ed5e" style="font-size:6.75px; font-family:Arial;" text-anchor="middle"><textPath startOffset="22.145653131862474" xlink:href="#id3">March</textPath></text><line stroke="#e1ed5e" stroke-width="0.3" x1="184.99686870605535" x2="189.99668451229388" y1="99.2704041080226" y2="99.22748670261217" /><path d="M 185.99683186730306 99.26182062694052 a86.0,86.0 0 0,1 -10.086455211305974,41.156179273409016" fill="none" id="id4" stroke="none" /><text fill="#e1ed5e" style="font-size:6.75px; font-family:Arial;" text-anchor="middle"><textPath startOffset="21.40746469413373" xlink:href="#id4">April</textPath></text><line stroke="#e1ed5e" stroke-width="0.3" x1="174.33088141563837" x2="178.70328620479359" y1="141.23008692659167" y2="143.65538615756765" /><path d="M 175.20536237346943 141.71514677278685 a86.0,86.0 0 0,1 -30.301960400862466,31.631185727798858" fill="none" id="id5" stroke="none" /><text fill="#e1ed5e" style="font-size:6.75px; font-family:Arial;" text-anchor="middle"><textPath startOffset="22.145653131862474" xlink:href="#id5">May</textPath></text><line stroke="#e1ed5e" stroke-width="0.3" x1="143.1302829299769" x2="145.66735839644613" y1="173.24464959558577" y2="177.55315839532614" /><path d="M 143.63769802327073 174.10635135553383 a86.0,86.0 0 0,1 -40.68552437913181,11.842963189579606" fill="none" id="id6" stroke="none" /><text fill="#e1ed5e" style="font-size:6.75px; font-family:Arial;" text-anchor="middle"><textPath startOffset="21.407464694133747" xlink:href="#id6">June</textPath></text><line stroke="#e1ed5e" stroke-width="0.3" x1="101.45913802915013" x2="101.54496967792366" y1="184.9874750549273" y2="189.98673829345242" /><path d="M 101.47630435890484 185.9873277026323 a86.0,86.0 0 0,1 -42.54439059252881,-10.42667462771756" fill="none" id="id7" stroke="none" /><text fill="#e1ed5e" style="font-size:6.75px; font-family:Arial;" text-anchor="middle"><textPath startOffset="22.145653131862474" xlink:href="#id7">July</textPath></text><line stroke="#e1ed5e" stroke-width="0.3" x1="58.13341422392154" x2="55.67067388415222" y1="173.97424548756322" y2="178.32567169271397" /><path d="M 57.64086615596768 174.84453072859336 a86.0,86.0 0 0,1 -31.369924170532247,-30.572349798747897" fill="none" id="id8" stroke="none" /><text fill="#e1ed5e" style="font-size:6.75px; font-family:Arial;" text-anchor="middle"><textPath startOffset="22.145653131862474" xlink:href="#id8">August</textPath></text><path d="M 82.18462484594161 111.11811171558189 l -42.506307264089955 26.527079485684883 a71.10461159682879,71.10461159682879 0 0,0 -0.6373412274989962,-1.0410489970668688 l 42.955416456044354 -25.793493372493458" fill="#aaff21" stroke="none" /><line stroke="#e1ed5e" stroke-width="0.3" x1="26.387840678322732" x2="22.057713659400548" y1="142.50000000000003" y2="145.00000000000006" /><path d="M 25.521815274538298 143.00000000000003 a86.0,86.0 0 0,1 -11.493303480769221,-40.785679425670985" fill="none" id="id9" stroke="none" /><text fill="#e1ed5e" style="font-size:6.75px; font-family:Arial;" text-anchor="middle"><textPath startOffset="21.40746469413373" xlink:href="#id9">September</textPath></text><path d="M 81.63589988554817 110.18625677009913 l -55.09230034335548 30.558770310297394 a84.0,84.0 0 0,0 -0.6886186015386815,-1.266980666101652 l 55.60876429450949 -29.608534810721153" fill="#4dd2ff" stroke="none" /><path d="M 81.29705330413844 109.54985784667822 l -41.237845999778834 21.056337998773028 a67.30258429742392,67.30258429742392 0 0,0 -0.5165636370539607,-1.0334733063701358 l 41.59322955004453 -20.34533283623914" fill="#ffd714" stroke="none" /><path d="M 81.1358732173502 109.22738970284198 l -44.7947981468063 21.911380469563625 a70.86664752211738,70.86664752211738 0 0,0 -0.5251581082516796,-1.097378466416738 l 45.16433551301789 -21.13918950108178" fill="#b1ff20" stroke="none" /><path d="M 80.5471966667186 107.91128576633889 l -43.7518464490403 17.793495062541723 a68.2316899363245,68.2316899363245 0 0,0 -0.4319433937826444,-1.0887795186410358 l 44.05084851778907 -17.03981452668712" fill="#fff717" stroke="none" /><path d="M 80.28708602549918 107.23885506374661 l -50.60354716596216 18.5823234515049 a74.90752944287195,74.90752944287195 0 0,0 -0.43289357312453597,-1.210880369034378 l 50.91508090913064 -17.710908126089603" fill="#3cff2e" stroke="none" /><path d="M 80.16572619554312 106.89939002012753 l -57.96592118092995 20.163556379530288 a82.37277103263531,82.37277103263531 0 0,0 -0.45310742475003724,-1.3395315893603925 l 58.303514027252355 -19.16552311569573" fill="#47fcff" stroke="none" /><path d="M 79.73907114497094 105.5222062557868 l -44.09026576895075 12.016997996030588 a66.69857521207103,66.69857521207103 0 0,0 -0.291601467609754,-1.10725826902309 l 44.29005671736524 -11.258359222634695" fill="#ffc212" stroke="none" /><path d="M 79.48165901384964 104.47187691870673 l -60.036521110487556 13.084680345972254 a82.44585199023845,82.44585199023845 0 0,0 -0.28951170756169603,-1.3854183251006316 l 60.25229052887362 -12.052145569586214" fill="#48faff" stroke="none" /><path d="M 79.407916724674 104.11899336999214 l -49.41563243451366 9.884510452403848 a71.39452624826073,71.39452624826073 0 0,0 -0.2300729667608892,-1.2038389816748012 l 49.57803169355671 -9.034768905695731" fill="#a1ff22" stroke="none" /><line stroke="#e1ed5e" stroke-width="0.3" x1="15.003131293944662" x2="10.003315487706104" y1="100.72959589197737" y2="100.7725132973878" /><path d="M 14.003168132696942 100.73817937305945 a86.0,86.0 0 0,1 10.791469493833604,-42.45332614584628" fill="none" id="id10" stroke="none" /><text fill="#e1ed5e" style="font-size:6.75px; font-family:Arial;" text-anchor="middle"><textPath startOffset="22.145653131862435" xlink:href="#id10">October</textPath></text><path d="M 79.00696218219943 99.45929381324524 l -40.55459234394878 -1.0445424417373708 a61.56804196774179,61.56804196774179 0 0,0 0.03628208525437387,-1.0563133249537893 l 40.530685571697546 1.7405620312552987" fill="#ff0000" stroke="none" /><path d="M 79.06263194458094 98.37931529534042 l -41.875805512301135 -3.2414521877557765 a63.001072600465534,63.001072600465534 0 0,0 0.09272071048746977,-1.0775552033735196 l 41.81399117911592 3.9598284385049767" fill="#ff3905" stroke="none" /><path d="M 79.48165901384962 95.52812308129327 l -46.52921585705698 -10.140826033505471 a68.62146869757825,68.62146869757825 0 0,0 0.26072608885845966,-1.1488072547022665 l 46.348278906640864 10.938067622146745" fill="#faff18" stroke="none" /><path d="M 80.16572619554312 93.10060997987247 l -50.84947276303934 -17.688086207180728 a74.83806528797015,74.83806528797015 0 0,0 0.4324921370280158,-1.2097574808261065 l 50.53834045596738 18.558378644387755" fill="#3dff2e" stroke="none" /><line stroke="#e1ed5e" stroke-width="0.3" x1="26.387840678322718" x2="22.05771365940052" y1="57.49999999999999" y2="54.99999999999999" /><path d="M 25.521815274538284 56.99999999999999 a86.0,86.0 0 0,1 29.574782752854787,-30.34633250058573" fill="none" id="id11" stroke="none" /><text fill="#e1ed5e" style="font-size:6.75px; font-family:Arial;" text-anchor="middle"><textPath startOffset="21.40746469413373" xlink:href="#id11">November</textPath></text><path d="M 81.81346652052679 89.5 l -46.69232830255701 -26.957828314571678 a74.91565662914334,74.91565662914334 0 0,0 0.6525734819219329,-1.1082124384934875 l 46.22268111050529 27.755391921358736" fill="#3bff2e" stroke="none" /><line stroke="#e1ed5e" stroke-width="0.3" x1="56.869717070023135" x2="54.33264160355391" y1="26.7553504044142" y2="22.446841604673864" /><path d="M 56.362301976729285 25.89364864446614 a86.0,86.0 0 0,1 42.16139366436587,-11.88097634709845" fill="none" id="id12" stroke="none" /><text fill="#e1ed5e" style="font-size:6.75px; font-family:Arial;" text-anchor="middle"><textPath startOffset="22.145653131862474" xlink:href="#id12">December</textPath></text><path d="M 93.27111125876988 80.10723608172694 l -19.539548463673764 -57.76520308262053 a81.98042834664781,81.98042834664781 0 0,0 1.3369729841249443,-0.43948957553964907 l 18.54505274190106 58.09211357956221" fill="#46fff8" stroke="none" /><path d="M 95.70440661134978 79.44403061299748 l -9.668926687825515 -46.26931439210701 a68.26878036939588,68.26878036939588 0 0,0 1.1492025613854908,-0.22987269757191728 l 8.873227640909047 46.4284764863418" fill="#fff817" stroke="none" /></svg>