<?xml version="1.0" encoding="utf-8" ?>
<svg baseProfile="full" height="200mm" version="1.1" viewBox="0,0,200,200" width="200mm" xmlns="http://www.w3.org/2000/svg" xmlns:ev="http://www.w3.org/2001/xml-events" xmlns:xlink="http://www.w3.org/1999/xlink"><defs /><rect fill="#1a1a1a" height="200" width="200" x="0" y="0" /><text alignment-baseline="middle" fill="#e1ed5e" style="dominant-baseline: central; font-size:9.0px; font-family:Arial;" text-anchor="middle" x="100.0" y="100.0">2025</text><line stroke="#e1ed5e" stroke-width="0.3" x1="100.0" x2="100.0" y1="15.0" y2="10.0" /><path d="M 100.0 14.0 a86.0,86.0 0 0,1 42.46469731375804,11.215312516191453" fill="none" id="id61" stroke="none" /><text fill="#e1ed5e" style="font-size:6.75px; font-family:Arial;" text-anchor="middle"><textPath startOffset="22.20632615414155" xlink:href="#id61">January</textPath></text><path d="M 103.95276090670814 79.375362276772 l 6.9594916276276315 -36.313097843602286 a57.97398543184183,57.97398543184183 0 0,0 0.9784727530527747,0.1962724292686434 l -7.583530790147531 36.18792145825643" fill="#ffee16" stroke="none" /><path d="M 106.0581310904928 79.89281104454417 l 10.883832807217273 -36.123893581263765 a58.727887617065555,58.727887617065555 0 0,0 0.9654155159624814,0.29995930021147343 l -11.504033695890472 35.93119414616977" fill="#fffe18" stroke="none" /><path d="M 107.08798089147638 80.2323363322302 l 12.734026024072808 -35.513913967122306 a58.727887617065555,58.727887617065555 0 0,0 0.9486446404643089,0.34939382702445615 l -13.343452990309693 35.28945687229153" fill="#fffe18" stroke="none" /><path d="M 108.09893153111575 80.62456947434976 l 14.550265648773506 -34.80924120971398 a58.727887617065555,58.727887617065555 0 0,0 0.9293443298007573,0.3978967415192504 l -15.147293736364578 34.55362494023194" fill="#fffe18" stroke="none" /><path d="M 108.43124777332544 80.76684994638697 l 10.672854231269916 -24.346646243725548 a47.58324661810614,47.58324661810614 0 0,0 0.747324076002691,0.33530252892846324 l -11.090360425739387 24.15932338428055" fill="#ff0000" stroke="none" /><line stroke="#e1ed5e" stroke-width="0.3" x1="143.23703022742887" x2="145.7803849466894" y1="26.81831364943548" y2="22.513508569990506" /><path d="M 143.74570117128098 25.957352633546492 a86.0,86.0 0 0,1 28.547481713284135,27.462654790039103" fill="none" id="id62" stroke="none" /><text fill="#e1ed5e" style="font-size:6.75px; font-family:Arial;" text-anchor="middle"><textPath startOffset="19.985693538727396" xlink:href="#id62">February</textPath></text><path d="M 111.60114157652 82.49532879139004 l 20.824109489591073 -31.420975894747343 a58.69510926118627,58.69510926118627 0 0,0 0.837370437902215,0.5653962576126661 l -21.361884621899833 31.057867724836008" fill="#fffd17" stroke="none" /><path d="M 112.19680574252982 82.90503203632743 l 21.912367444825943 -30.71223953098928 a58.727887617065555,58.727887617065555 0 0,0 0.8178688473456741,0.594216499927353 l -22.437781608525405 30.33050379624525" fill="#fffe18" stroke="none" /><path d="M 113.06298171725822 83.55741782278167 l 38.78115175789562 -48.81445052196032 a83.34443288241415,83.34443288241415 0 0,0 1.1156112777055471,0.9020800676738914 l -39.61566643416566 48.1396643570223" fill="#4cdcff" stroke="none" /><path d="M 113.6212207817346 84.01681056812373 l 24.47142318383434 -28.7148559356237 a58.727887617065555,58.727887617065555 0 0,0 0.7637595381236434,0.6623247452493585 l -24.962076520604747 28.28936619695467" fill="#fffe18" stroke="none" /><path d="M 114.16331599549186 84.49514656593476 l 25.445333055376363 -27.855493708546962 a58.727887617065555,58.727887617065555 0 0,0 0.7405086496372,0.688222086289702 l -25.921049588808412 27.41336703618262" fill="#fffe18" stroke="none" /><path d="M 114.68862486808459 84.99185889309783 l 26.41201224979206 -26.986543010121714 a58.76066597294485,58.76066597294485 0 0,0 0.7167799514568883,0.7137018705534139 l -26.872628001416274 26.52790528891818" fill="#ffff18" stroke="none" /><line stroke="#e1ed5e" stroke-width="0.3" x1="172.23445277983987" x2="176.4835382374775" y1="55.19839476539836" y2="52.563006222186495" /><path d="M 173.08426987136738 54.67131705675599 a86.0,86.0 0 0,1 12.851231095245387,41.99856678651699" fill="none" id="id63" stroke="none" /><text fill="#e1ed5e" style="font-size:6.75px; font-family:Arial;" text-anchor="middle"><textPath startOffset="22.20632615414155" xlink:href="#id63">March</textPath></text><path d="M 117.84615892207809 88.93136811851018 l 32.117514938328874 -19.92008203853969 a58.793444328824144,58.793444328824144 0 0,0 0.5260171120821171,0.8646338253760119 l -32.45564784869722 19.364280439956595" fill="#ffff18" stroke="none" /><path d="M 118.03404312379186 89.2402003453031 l 53.5391519585621 -31.943505114308277 a83.34443288241415,83.34443288241415 0 0,0 0.7244628528305637,1.2383418535715331 l -54.08107448586299 31.017183848382846" fill="#4cdcff" stroke="none" /><path d="M 118.3937258080291 89.86733742301442 l 33.07425410642485 -18.2198136660053 a58.76066597294485,58.76066597294485 0 0,0 0.48041573486113226,0.890137394192527 l -33.38297794050445 17.647795288480317" fill="#ffff18" stroke="none" /><path d="M 118.73160827565052 90.50648371742162 l 33.65257199574466 -17.05572930475712 a58.727887617065555,58.727887617065555 0 0,0 0.4492403383847197,0.9056411091665684 l -33.94117234708279 16.4739286070916" fill="#fffe18" stroke="none" /><path d="M 119.04729006885535 91.15688171328212 l 34.21971519654398 -15.887246328843311 a58.727887617065555,58.727887617065555 0 0,0 0.4178004923631685,0.9205680033683208 l -34.4881180058705 15.295856316632927" fill="#fffe18" stroke="none" /><path d="M 119.196687751892 91.48605970444005 l 56.96082739284085 -25.262747921736917 a83.31165452653485,83.31165452653485 0 0,0 0.5701266063733399,1.3159308129693827 l -57.387244709056866 24.27851796418093" fill="#4cddff" stroke="none" /><path d="M 119.47837535516314 92.15188598940014 l 34.99418839821971 -14.099655399896609 a58.727887617065555,58.727887617065555 0 0,0 0.3697240735618419,0.9409074394823927 l -35.23170602166325 13.49519895551843" fill="#fffe18" stroke="none" /><path d="M 119.7369772167798 92.82701384747503 l 35.45878373025008 -12.886743592439498 a58.727887617065555,58.727887617065555 0 0,0 0.33711742489452323,0.9530763568974748 l -35.675354235954416 12.274469609115407" fill="#fffe18" stroke="none" /><path d="M 119.97218684219823 93.5106431181261 l 35.97487557111876 -11.68894564258451 a58.82622268470343,58.82622268470343 0 0,0 0.30462043464723093,0.9657300228720912 l -36.17075148953419 11.067965453286" fill="#feff18" stroke="none" /><path d="M 120.08093135843002 93.85539295169968 l 59.835324604437425 -18.309138691787677 a83.57388137356921,83.57388137356921 0 0,0 0.40909057908043145,1.379250062838602 l -60.141621080629555 17.276459242202545" fill="#4cd9ff" stroke="none" /><path d="M 120.28053869075195 94.5502522615342 l 36.46698320251756 -9.79933828519136 a58.76066597294485,58.76066597294485 0 0,0 0.2540801910517753,0.979074621955402 l -36.630259725439636 9.170167237687108" fill="#ffff18" stroke="none" /><path d="M 120.45610955862082 95.25157060432595 l 36.78268191185931 -8.53827887172192 a58.76066597294485,58.76066597294485 0 0,0 0.2202282969318636,0.9872402727160741 l -36.924204595793206 7.903860429455882" fill="#ffff18" stroke="none" /><path d="M 120.53481517161879 95.60439243477599 l 36.95625685672706 -7.910721419412008 a58.793444328824144,58.793444328824144 0 0,0 0.20331530108293533,0.9914376140398965 l -37.08695145372499 7.2734081492086995" fill="#ffff18" stroke="none" /><path d="M 120.67395015179393 96.31383870115 l 61.60234782483033 -10.983686658956248 a83.57388137356921,83.57388137356921 0 0,0 0.24032719627045482,1.4184247165307786 l -61.78228688262101 9.921676154109631" fill="#4cd9ff" stroke="none" /><path d="M 120.78858239683441 97.02765380044208 l 37.41295864237786 -5.349295267570666 a58.793444328824144,58.793444328824144 0 0,0 0.13462019202382075,1.0030767957076177 l -37.499494833459515 4.704500129798384" fill="#ffff18" stroke="none" /><path d="M 120.87857604477298 97.74499172005257 l 37.607507943290365 -4.061830731101978 a58.82622268470343,58.82622268470343 0 0,0 0.10006865521689948,1.0076777017103653 l -37.671853724189496 3.413877498687177" fill="#feff18" stroke="none" /><path d="M 120.94382443527127 98.46500227214037 l 37.626964503117414 -2.7577248461494865 a58.727887617065555,58.727887617065555 0 0,0 0.06521426813281302,1.0088358634963244 l -37.66885936225464 2.109629918400127" fill="#fffe18" stroke="none" /><path d="M 120.96714384426684 98.82574320788733 l 62.50870667411501 -3.5007759723234084 a83.6066597294485,83.6066597294485 0 0,0 0.06810515598193807,1.437592201935903 l -62.55970543833045 2.4242726637645053" fill="#4cd8ff" stroke="none" /><line stroke="#e1ed5e" stroke-width="0.3" x1="184.98032266829074" x2="189.97916517819016" y1="98.17113171792111" y2="98.06355123074" /><path d="M 185.9800911702706 98.14961562048488 a86.0,86.0 0 0,1 -9.607161424134198,41.387399972396054" fill="none" id="id64" stroke="none" /><text fill="#e1ed5e" style="font-size:6.75px; font-family:Arial;" text-anchor="middle"><textPath startOffset="21.466115282336823" xlink:href="#id64">April</textPath></text><path d="M 120.99513854157772 99.54816195383933 l 37.75192445353411 -0.8124621683305235 a58.76066597294485,58.76066597294485 0 0,0 0.013058838564477504,1.011421438163804 l -37.760316299216306 0.16250447210625676" fill="#ffff18" stroke="none" /><path d="M 120.99824983174949 100.27111621757518 l 37.69196770007064 0.4866550211417217 a58.69510926118627,58.69510926118627 0 0,0 -0.021739375263340247,1.0101433452526032 l -37.67800626212229 -1.1353881821844396" fill="#fffd17" stroke="none" /><path d="M 120.9904718944345 100.63252640178507 l 37.74353322953468 1.137362770327369 a58.76066597294485,58.76066597294485 0 0,0 -0.03916780932686224,1.0107471204779785 l -37.71836328735661 -1.7868871378193538" fill="#ffff18" stroke="none" /><path d="M 120.95626037817324 101.35467743843564 l 62.18186937394482 4.019628216128231 a83.31165452653485,83.31165452653485 0 0,0 -0.10482764837899333,1.430289976176965 l -62.10346516690149 -5.089391328801965" fill="#4cddff" stroke="none" /><path d="M 120.89721153311464 102.0752229133903 l 37.543221344352176 3.7282750884166003 a58.727887617065555,58.727887617065555 0 0,0 -0.1085562588094933,1.0050961341671416 l -37.47348278404163 -4.373967544468533" fill="#fffe18" stroke="none" /><path d="M 120.81339534386255 102.79330883721812 l 37.42512711154473 5.022723902927056 a58.76066597294485,58.76066597294485 0 0,0 -0.1431688208286774,1.001322399422143 l -37.33312423969945 -5.666191774329608" fill="#ffff18" stroke="none" /><path d="M 120.70491114924044 103.5080841355445 l 37.19774099808909 6.302504953192069 a58.727887617065555,58.727887617065555 0 0,0 -0.1774520668193864,0.9952454291409737 l -37.08374248893051 -6.941869133066261" fill="#fffe18" stroke="none" /><path d="M 120.64145759157962 103.86396538481128 l 61.924372774738885 11.591896154433844 a84.0,84.0 0 0,0 -0.2782802680973435,1.4189450917282203 l -61.715662573665874 -12.656104973230008" fill="#4dd2ff" stroke="none" /><path d="M 120.49622156327973 104.57218783832717 l 36.79082434615769 8.207100958495696 a58.69510926118627,58.69510926118627 0 0,0 -0.2284621435073206,0.9842089348197239 l -36.644101636719824 -8.839178550663984" fill="#fffd17" stroke="none" /><path d="M 120.32669344350535 105.2749913415812 l 36.51824789824348 9.476870500769982 a58.727887617065555,58.727887617065555 0 0,0 -0.2623512433209924,0.9763065734554777 l -36.34970857858071 -10.104068007401008" fill="#fffe18" stroke="none" /><path d="M 120.13307415673323 105.97154293290107 l 36.29609883094725 10.765554767170775 a58.859001040582726,58.859001040582726 0 0,0 -0.2964622146251109,0.9688556705838024 l -36.10540984381601 -11.388737410306634" fill="#fdff18" stroke="none" /><path d="M 120.02730092923936 106.31721596034902 l 59.5192210758664 18.77416106426306 a83.40998959417274,83.40998959417274 0 0,0 -0.4436924847773,1.3655450559674878 l -59.18723634007285 -19.79590502020834" fill="#4cdbff" stroke="none" /><path d="M 119.79798401119884 107.00284435728193 l 35.59928862783724 12.592003173135446 a58.76066597294485,58.76066597294485 0 0,0 -0.34550079308735204,0.9506697958902325 l -35.37726357374466 -13.20292076603181" fill="#ffff18" stroke="none" /><path d="M 119.54520255179757 107.68017299344265 l 35.11424787271436 13.797938265534581 a58.727887617065555,58.727887617065555 0 0,0 -0.37780876605958147,0.9376903734884897 l -34.87153649239739 -14.400328006865884" fill="#fffe18" stroke="none" /><path d="M 119.26925614724726 108.34839909993367 l 57.50699961530194 24.914889301362923 a83.67221644120707,83.67221644120707 0 0,0 -0.583948060940641,1.3166487196352745 l -57.06961046963003 -25.901086357490883" fill="#4cd7ff" stroke="none" /><path d="M 119.12269723197855 108.67885076344098 l 34.35518914777415 15.592128868970715 a58.727887617065555,58.727887617065555 0 0,0 -0.4257083426045299,0.9169378971780882 l -34.08170618832978 -16.181186833427635" fill="#fffe18" stroke="none" /><path d="M 118.81262510543309 109.33194174019688 l 33.827488222880724 16.780015949074095 a58.76066597294485,58.76066597294485 0 0,0 -0.4572736284544459,0.9022442505009938 l -33.53363592464001 -17.35981441127778" fill="#ffff18" stroke="none" /><line stroke="#e1ed5e" stroke-width="0.3" x1="174.80103733775053" x2="179.2010983576182" y1="140.37084112569926" y2="142.7455964860345" /><path d="M 175.68104954172406 140.8457921977663 a86.0,86.0 0 0,1 -30.038265399797805,32.042727171017184" fill="none" id="id65" stroke="none" /><text fill="#e1ed5e" style="font-size:6.75px; font-family:Arial;" text-anchor="middle"><textPath startOffset="22.206326154141568" xlink:href="#id65">May</textPath></text><path d="M 118.48025628344425 109.97397251340804 l 33.172156179959764 17.903332555285 a58.69510926118627,58.69510926118627 0 0,0 -0.48751484309390775,0.884981048473981 l -32.85906492741435 -18.471684122156788" fill="#fffd17" stroke="none" /><path d="M 118.12598468904814 110.60418214915192 l 54.03844550897286 31.61392492957365 a83.6066597294485,83.6066597294485 0 0,0 -0.7374072524230829,1.2359369706469987 l -53.486257380851555 -32.539423994106755" fill="#4cd8ff" stroke="none" /><path d="M 117.94076556474637 110.91462005526583 l 32.20376753297345 19.591799787027625 a58.69510926118627,58.69510926118627 0 0,0 -0.5325473234670673,0.8586358521882158 l -31.86175556983842 -20.143231970581116" fill="#fffd17" stroke="none" /><path d="M 117.55443506779139 111.5257021239791 l 31.537702543747987 20.706685449583677 a58.727887617065555,58.727887617065555 0 0,0 -0.5621010969913498,0.840264873123719 l -31.17659834134592 -21.2464872369132" fill="#fffe18" stroke="none" /><path d="M 116.93607887273984 112.41649034213515 l 30.426784780213666 22.307045344116876 a58.727887617065555,58.727887617065555 0 0,0 -0.6047259060946307,0.8101291741089656 l -30.038297607423942 -22.82748739773516" fill="#fffe18" stroke="none" /><path d="M 116.71984013943494 112.70617746262583 l 30.012200042169887 22.807654654557286 a58.69510926118627,58.69510926118627 0 0,0 -0.6182360967245247,0.7991534940809608 l -29.615157128227292 -23.320886142751498" fill="#fffd17" stroke="none" /><path d="M 116.498646956653 112.99209946851258 l 29.640909438773573 23.341165174179974 a58.727887617065555,58.727887617065555 0 0,0 -0.6322534977654318,0.7888334518818443 l -29.234738028953288 -23.84792645964007" fill="#fffe18" stroke="none" /><path d="M 116.0416608686014 113.55231037782055 l 28.86998176092208 24.3899279900527 a58.793444328824144,58.793444328824144 0 0,0 -0.6597674068676584,0.7674585480810707 l -28.445871844483644 -24.8832636372953" fill="#ffff18" stroke="none" /><path d="M 115.56566222782051 114.09645910891815 l 27.964740724591174 25.325220240944013 a58.727887617065555,58.727887617065555 0 0,0 -0.685028905839227,0.7434635824364336 l -27.524665410756224 -25.802835078181783" fill="#fffe18" stroke="none" /><path d="M 114.81725581225074 114.88116024355365 l 37.027720950177056 37.18741553058699 a73.47814776274714,73.47814776274714 0 0,0 -0.9039563320878168,0.8847115285357458 l -36.382114665713445 -37.8192771620453" fill="#37ff75" stroke="none" /><path d="M 114.29624159901734 115.38237550388516 l 25.684142685435415 27.635454014003873 a58.727887617065555,58.727887617065555 0 0,0 -0.746404745897818,0.6818230382919441 l -25.204638390070734 -28.0734698188824" fill="#fffe18" stroke="none" /><path d="M 113.75828350139079 115.86535959552629 l 24.696190468157248 28.478403020065397 a58.69510926118627,58.69510926118627 0 0,0 -0.7690024244683155,0.6553605492832101 l -24.202322567111885 -28.899287959571552" fill="#fffd17" stroke="none" /><path d="M 113.20401910651253 116.32954008644616 l 23.72189280686148 29.337097772371795 a58.727887617065555,58.727887617065555 0 0,0 -0.7915470742165649,0.6288528679617315 l -23.21338823992756 -29.741084554338652" fill="#fffe18" stroke="none" /><path d="M 112.92097659922987 116.55440617244103 l 23.21338823992756 29.741084554338652 a58.727887617065555,58.727887617065555 0 0,0 -0.8022544663618476,0.6151345149208525 l -22.69800504507222 -30.136258411086878" fill="#fffe18" stroke="none" /><path d="M 112.34349029814194 116.9893568818739 l 22.156629307278717 30.495983997120156 a58.69510926118627,58.69510926118627 0 0,0 -0.8224936497376649,0.5868273805269792 l -21.628408329692167 -30.872855639491355" fill="#fffd17" stroke="none" /><path d="M 111.7513745106137 117.40417183066458 l 21.112120803927745 31.267744709305305 a58.727887617065555,58.727887617065555 0 0,0 -0.8426761156465623,0.5584797797264118 l -20.57076998954122 -31.626522510123035" fill="#fffe18" stroke="none" /><path d="M 111.1453310114006 117.79835938074945 l 24.37243821067467 38.92117818797603 a66.92247658688865,66.92247658688865 0 0,0 -0.9815959419430847,0.6029763999355795 l -23.698863068799277 -39.334943054739995" fill="#63ff29" stroke="none" /><line stroke="#e1ed5e" stroke-width="0.3" x1="143.8653032363475" x2="146.44561519142675" y1="172.8068346515853" y2="177.08958963109032" /><path d="M 144.38136562736335 173.6633856474863 a86.0,86.0 0 0,1 -40.68145358897372,12.25698825130547" fill="none" id="id66" stroke="none" /><text fill="#e1ed5e" style="font-size:6.75px; font-family:Arial;" text-anchor="middle"><textPath startOffset="21.466115282336833" xlink:href="#id66">June</textPath></text><path d="M 110.8373102113329 117.98757091392108 l 19.53760659847478 32.42816504512827 a58.859001040582726,58.859001040582726 0 0,0 -0.8723243906192016,0.5153846259383826 l -18.976514336827197 -32.759668243360395" fill="#fdff18" stroke="none" /><path d="M 110.21172684928248 118.3499491758327 l 18.3301028251949 32.9382542438204 a58.69510926118627,58.69510926118627 0 0,0 -0.8870708921132254,0.48370177874428355 l -17.760409121213026 -33.248896674324456" fill="#fffd17" stroke="none" /><path d="M 109.57404056367764 118.69057910512821 l 17.200396496555083 33.5788603798167 a58.727887617065555,58.727887617065555 0 0,0 -0.903699399690511,0.4531336394966187 l -16.61984318918181 -33.869961860222624" fill="#fffe18" stroke="none" /><path d="M 108.92500713936063 119.00905698771935 l 16.10401912554769 34.29938066254459 a58.89177939646202,58.89177939646202 0 0,0 -0.9213254437115552,0.42293532304856357 l -15.511225686068714 -34.57150305592723" fill="#fdff18" stroke="none" /><path d="M 108.59647513512805 119.15986991738527 l 15.457553624871245 34.451878477879035 a58.76066597294485,58.76066597294485 0 0,0 -0.9264019831896984,0.4061074049856522 l -14.862230967023793 -34.712850436159144" fill="#ffff18" stroke="none" /><path d="M 107.59598834532513 119.57807347666477 l 14.239514052136546 36.70124804184349 a60.36680541103018,60.36680541103018 0 0,0 -0.9719911708113849,0.3675238908225101 l -13.605652660564886 -36.940920182772636" fill="#dfff1b" stroke="none" /><path d="M 107.2578585660854 119.70592522655815 l 13.050551094896543 35.43375524608999 a58.76066597294485,58.76066597294485 0 0,0 -0.9521478683315745,0.3414063497851688 l -12.438683665935233 -35.65314913691512" fill="#ffff18" stroke="none" /><path d="M 106.57524785965236 119.94407469862006 l 12.326023953344158 37.387357512553635 a60.36680541103018,60.36680541103018 0 0,0 -0.9896667889555434,0.31686005317644184 l -11.680635819297676 -37.593990412389786" fill="#dfff1b" stroke="none" /><path d="M 106.2309692047433 120.05430185196036 l 11.69036157768177 37.625292652533325 a60.39958376690947,60.39958376690947 0 0,0 -0.9955146416723835,0.2999403952047602 l -11.040971961569142 -37.82094841684381" fill="#deff1b" stroke="none" /><path d="M 105.53697534728816 120.25689768951611 l 10.388310667180592 38.005397017895476 a60.39958376690947,60.39958376690947 0 0,0 -1.0052491322258286,0.265495432388027 l -9.732571092143266 -38.17858379958709" fill="#deff1b" stroke="none" /><path d="M 104.83641907484287 120.43548508189849 l 9.073947546245252 38.34045744293756 a60.39958376690947,60.39958376690947 0 0,0 -1.0137922029949316,0.23073580477760697 l -8.41263519385746 -38.49096998129285" fill="#deff1b" stroke="none" /><path d="M 104.13013068566511 120.58985236759428 l 7.748829996102171 38.630076814539514 a60.39958376690947,60.39958376690947 0 0,0 -1.0211337287448587,0.1957027094327098 l -7.082728652785608 -38.75773672232069" fill="#deff1b" stroke="none" /><path d="M 103.7750983002368 120.6578951692458 l 7.07683619966349 38.72549234900762 a60.36680541103018,60.36680541103018 0 0,0 -1.0237952302897628,0.1779999238665145 l -6.409191997901678 -38.84157085139513" fill="#dfff1b" stroke="none" /><path d="M 103.06178313531738 120.77559828337769 l 5.744427672192749 38.97856785112381 a60.39958376690947,60.39958376690947 0 0,0 -1.0298744786260152,0.14273121849994433 l -5.0726246023799035 -39.071673635116355" fill="#deff1b" stroke="none" /><path d="M 102.34483914955558 120.86867818915974 l 4.395658405748587 39.12062825990767 a60.36680541103018,60.36680541103018 0 0,0 -1.0336159748980465,0.1071385219989255 l -3.721609834244938 -39.19049615036236" fill="#dfff1b" stroke="none" /><path d="M 101.62511606390274 120.93702456842531 l 3.0464584694284835 39.2487510510075 a60.36680541103018,60.36680541103018 0 0,0 -1.0366913354299738,0.07149630413502835 l -2.3704043732195794 -39.29537569965881" fill="#dfff1b" stroke="none" /><path d="M 101.26447882468166 120.96189622390904 l 2.372378065453734 39.3280945803413 a60.39958376690947,60.39958376690947 0 0,0 -1.0383319239387538,0.053669900217766874 l -1.6950580731015004 -39.36310428732126" fill="#deff1b" stroke="none" /><line stroke="#e1ed5e" stroke-width="0.3" x1="102.19456741930631" x2="102.32365962044197" y1="184.97166512339345" y2="189.96999836594603" /><path d="M 102.22038585953345 185.97133177190398 a86.0,86.0 0 0,1 -42.740103519485714,-10.115201625700543" fill="none" id="id67" stroke="none" /><text fill="#e1ed5e" style="font-size:6.75px; font-family:Arial;" text-anchor="middle"><textPath startOffset="22.20632615414155" xlink:href="#id67">July</textPath></text><path d="M 100.54218724476979 120.99299961872073 l 1.016389512437862 39.35368242781 a60.36680541103018,60.36680541103018 0 0,0 -1.0389998508548437,0.017887324678794423 l -0.3388299716903501 -39.36534722976795" fill="#dfff1b" stroke="none" /><path d="M 99.81925306533755 120.99922214144158 l -0.33882997169032303 39.36534722976795 a60.36680541103018,60.36680541103018 0 0,0 -1.0389998508548437,-0.017887324678794423 l 1.0163895124378346 -39.35368242781" fill="#dfff1b" stroke="none" /><path d="M 99.09653310690486 120.98055641714683 l -1.6936478750373463 39.330356280426656 a60.36680541103018,60.36680541103018 0 0,0 -1.0377684297687169,-0.05364077400563712 l 2.370404373219552 -39.29537569965881" fill="#dfff1b" stroke="none" /><path d="M 98.73552117531835 120.96189622390904 l -2.370404373219552 39.29537569965881 a60.36680541103018,60.36680541103018 0 0,0 -1.0366913354299747,-0.07149630413502835 l 3.046458469428457 -39.2487510510075" fill="#dfff1b" stroke="none" /><path d="M 97.65516085044442 120.86867818915974 l -4.395658405748578 39.120628259907676 a60.36680541103018,60.36680541103018 0 0,0 -1.0316186200005588,-0.12491464817505152 l 5.068404448800526 -39.039168083007276" fill="#dfff1b" stroke="none" /><path d="M 97.2962882734958 120.8252237178851 l -5.064184295221175 39.00666253089819 a60.334027055150884,60.334027055150884 0 0,0 -1.028756669857606,-0.14257630039013305 l 5.734869556265612 -38.913711665015455" fill="#dfff1b" stroke="none" /><path d="M 96.58105272829116 120.7198165907248 l -6.40919199790165 38.84157085139514 a60.36680541103018,60.36680541103018 0 0,0 -1.0237952302897628,-0.1779999238665145 l 7.076836199663463 -38.72549234900762" fill="#dfff1b" stroke="none" /><path d="M 96.22490169976321 120.6578951692458 l -7.076836199663463 38.72549234900762 a60.36680541103018,60.36680541103018 0 0,0 -1.0205795678935405,-0.19559650318663557 l 7.742383382128699 -38.59793864747252" fill="#dfff1b" stroke="none" /><path d="M 95.51606077576429 120.51570834832081 l -8.405636329303475 38.458947543704426 a60.36680541103018,60.36680541103018 0 0,0 -1.0132420263290498,-0.2306105863596674 l 9.066398505025386 -38.30856022376707" fill="#dfff1b" stroke="none" /><line stroke="#e1ed5e" stroke-width="0.3" x1="58.666819895761336" x2="56.23545636021788" y1="174.27360380694188" y2="178.64263932499728" /><path d="M 58.180547188652646 175.14741091055294 a86.0,86.0 0 0,1 -31.652253787137756,-30.449443065178592" fill="none" id="id68" stroke="none" /><text fill="#e1ed5e" style="font-size:6.75px; font-family:Arial;" text-anchor="middle"><textPath startOffset="22.20632615414155" xlink:href="#id68">August</textPath></text><line stroke="#e1ed5e" stroke-width="0.3" x1="26.63291911575756" x2="22.317208475507996" y1="142.92168965132927" y2="145.44649492493687" /><path d="M 25.769776987707644 143.4266507060508 a86.0,86.0 0 0,1 -11.730757126820373,-40.83630448921669" fill="none" id="id69" stroke="none" /><text fill="#e1ed5e" style="font-size:6.75px; font-family:Arial;" text-anchor="middle"><textPath startOffset="21.46611528233685" xlink:href="#id69">September</textPath></text><line stroke="#e1ed5e" stroke-width="0.3" x1="15.007084014347285" x2="10.007500721073583" y1="101.09737516637583" y2="101.16192664675087" /><path d="M 14.007167355692545 101.11028546245083 a86.0,86.0 0 0,1 10.666146001902534,-42.60595125391555" fill="none" id="id70" stroke="none" /><text fill="#e1ed5e" style="font-size:6.75px; font-family:Arial;" text-anchor="middle"><textPath startOffset="22.20632615414155" xlink:href="#id70">October</textPath></text><line stroke="#e1ed5e" stroke-width="0.3" x1="26.266209847984243" x2="21.928928074336255" y1="57.711370442889674" y2="55.22380399835377" /><path d="M 25.398753493254645 57.213857153982495 a86.0,86.0 0 0,1 29.58750427330803,-30.492523968695096" fill="none" id="id71" stroke="none" /><text fill="#e1ed5e" style="font-size:6.75px; font-family:Arial;" text-anchor="middle"><textPath startOffset="21.46611528233685" xlink:href="#id71">November</textPath></text><line stroke="#e1ed5e" stroke-width="0.3" x1="56.762969772571076" x2="54.21961505331055" y1="26.818313649435495" y2="22.513508569990535" /><path d="M 56.25429882871897 25.957352633546506 a86.0,86.0 0 0,1 42.265352541879196,-11.944610805530505" fill="none" id="id72" stroke="none" /><text fill="#e1ed5e" style="font-size:6.75px; font-family:Arial;" text-anchor="middle"><textPath startOffset="22.20632615414155" xlink:href="#id72">December</textPath></text></svg>