<?xml version="1.0" encoding="utf-8" ?>
<svg baseProfile="full" height="200mm" version="1.1" viewBox="0,0,200,200" width="200mm" xmlns="http://www.w3.org/2000/svg" xmlns:ev="http://www.w3.org/2001/xml-events" xmlns:xlink="http://www.w3.org/1999/xlink"><defs /><rect fill="#1a1a1a" height="200" width="200" x="0" y="0" /><text alignment-baseline="middle" fill="#e1ed5e" style="dominant-baseline: central; font-size:9.0px; font-family:Arial;" text-anchor="middle" x="100.0" y="100.0">2021</text><line stroke="#e1ed5e" stroke-width="0.3" x1="100.0" x2="100.0" y1="15.0" y2="10.0" /><path d="M 100.0 14.0 a86.0,86.0 0 0,1 42.46469731375804,11.215312516191453" fill="none" id="id13" stroke="none" /><text fill="#e1ed5e" style="font-size:6.75px; font-family:Arial;" text-anchor="middle"><textPath startOffset="22.20632615414155" xlink:href="#id13">January</textPath></text><line stroke="#e1ed5e" stroke-width="0.3" x1="143.23703022742887" x2="145.7803849466894" y1="26.81831364943548" y2="22.513508569990506" /><path d="M 143.74570117128098 25.957352633546492 a86.0,86.0 0 0,1 28.547481713284135,27.462654790039103" fill="none" id="id14" stroke="none" /><text fill="#e1ed5e" style="font-size:6.75px; font-family:Arial;" text-anchor="middle"><textPath startOffset="19.985693538727396" xlink:href="#id14">February</textPath></text><line stroke="#e1ed5e" stroke-width="0.3" x1="172.23445277983987" x2="176.4835382374775" y1="55.19839476539836" y2="52.563006222186495" /><path d="M 173.08426987136738 54.67131705675599 a86.0,86.0 0 0,1 12.851231095245387,41.99856678651699" fill="none" id="id15" stroke="none" /><text fill="#e1ed5e" style="font-size:6.75px; font-family:Arial;" text-anchor="middle"><textPath startOffset="22.20632615414155" xlink:href="#id15">March</textPath></text><path d="M 119.85752413597 93.16781622104841 l 19.264078918618086 -6.628002897189806 a41.37241171260541,41.37241171260541 0 0,0 0.22589869953123112,0.6754083586691917 l -19.375314911921087 6.295421435598301" fill="#ffd013" stroke="none" /><path d="M 120.67395015179393 96.31383870115 l 13.768554264009914 -2.4549305525294303 a34.985698786214726,34.985698786214726 0 0,0 0.10060577252922381,0.5937809644337271 l -13.808771898059362 2.2175637997798656" fill="#ff750a" stroke="none" /><line stroke="#e1ed5e" stroke-width="0.3" x1="184.98032266829074" x2="189.97916517819016" y1="98.17113171792111" y2="98.06355123074" /><path d="M 185.9800911702706 98.14961562048488 a86.0,86.0 0 0,1 -9.607161424134198,41.387399972396054" fill="none" id="id16" stroke="none" /><text fill="#e1ed5e" style="font-size:6.75px; font-family:Arial;" text-anchor="middle"><textPath startOffset="21.466115282336823" xlink:href="#id16">April</textPath></text><path d="M 120.9904718944345 100.63252640178507 l 21.499464037615382 0.6478643594299596 a42.50922318757553,42.50922318757553 0 0,0 -0.028335164703725473,0.7312046965291464 l -21.485126740060455 -1.0178463029731122" fill="#ffe015" stroke="none" /><path d="M 120.81339534386255 102.79330883721812 l 25.66866609391066 3.4449214390608613 a46.89880118387683,46.89880118387683 0 0,0 -0.11426769851222848,0.7991880172543268 l -25.60556434438183 -3.8862549282955974" fill="#e4ff1b" stroke="none" /><path d="M 120.5718875245553 104.21870165774334 l 25.624924175646616 5.254933946644965 a47.15819316755727,47.15819316755727 0 0,0 -0.16991761990674387,0.7937985517159206 l -25.53067251701543 -5.695246317777055" fill="#e0ff1b" stroke="none" /><path d="M 120.49622156327973 104.57218783832717 l 16.929801994347557 3.776609973933978 a38.34592109007279,38.34592109007279 0 0,0 -0.14925589946543946,0.6429905085073007 l -16.862285528951563 -4.067469139789844" fill="#ffa60f" stroke="none" /><path d="M 120.41448212921028 104.9243191809786 l 18.747558822565402 4.522229019681465 a40.285266840570266,40.285266840570266 0 0,0 -0.16840907758125856,0.6727105506397721 l -18.666938430689083 -4.844267409718634" fill="#ffc111" stroke="none" /><path d="M 120.23288151984713 105.62410040840565 l 25.408338315387816 7.0627135218632695 a47.37168136924748,47.37168136924748 0 0,0 -0.2251448858922135,0.7837588840249479 l -25.283000792609503 -7.499029881392799" fill="#deff1b" stroke="none" /><path d="M 120.13307415673323 105.97154293290107 l 19.55416733779042 5.799837067390716 a41.39616557793619,41.39616557793619 0 0,0 -0.20850504947851634,0.6814065657172154 l -19.451435515805773 -6.135570605659988" fill="#ffd113" stroke="none" /><path d="M 120.02730092923936 106.31721596034902 l 19.711281983916436 6.2175340345508205 a41.66863243952697,41.66863243952697 0 0,0 -0.2216528158595689,0.6821772223395379 l -19.60133691704062 -6.555910156868154" fill="#ffd413" stroke="none" /><path d="M 119.9155931802556 106.66101706037122 l 24.938090964168197 8.340853715072818 a47.29597348708299,47.29597348708299 0 0,0 -0.2648781019784199,0.7698597510404617 l -24.79082203124655 -8.76888616920258" fill="#dfff1b" stroke="none" /><path d="M 119.79798401119884 107.00284435728193 l 18.69375100956868 6.612260556415323 a40.82872452967351,40.82872452967351 0 0,0 -0.2400646158816887,0.6605547192564947 l -18.577162132681764 -6.933063072677949" fill="#ffc912" stroke="none" /><path d="M 119.67450827220406 107.3425965602758 l 19.12184442560474 7.13634044434724 a41.41010262528479,41.41010262528479 0 0,0 -0.25497919771758415,0.6656702257770051 l -18.996170948293646 -7.464434236957389" fill="#ffd113" stroke="none" /><path d="M 119.41010516605496 108.01547362559984 l 23.485672631177103 9.698494054730197 a46.409399950972045,46.409399950972045 0 0,0 -0.31127230697848185,0.7357557853440999 l -23.31524934300631 -10.101324365740462" fill="#eaff1a" stroke="none" /><path d="M 119.26925614724726 108.34839909993367 l 18.613325066265983 8.064217167624625 a41.28515389512974,41.28515389512974 0 0,0 -0.2881289224558418,0.6496546563238579 l -18.471755059078866 -8.38342016044117" fill="#ffcf13" stroke="none" /><path d="M 119.12269723197855 108.67885076344098 l 18.251532064902285 8.283471786111397 a41.04331129198616,41.04331129198616 0 0,0 -0.297515894646889,0.6408227688128778 l -18.106241553415565 -8.596414622203106" fill="#ffcc13" stroke="none" /><path d="M 118.97047184881838 109.00673069616215 l 28.69531924789541 13.623857896939477 a52.76524595740818,52.76524595740818 0 0,0 -0.39661058277621397,0.817135272693226 l -28.45655540850448 -14.11578212559798" fill="#9aff22" stroke="none" /><path d="M 118.81262510543309 109.33194174019688 l 17.841238640065242 8.850088630850083 a40.91566883098981,40.91566883098981 0 0,0 -0.3184044298545164,0.628242147139048 l -17.686255540424458 -9.155884989691826" fill="#ffca12" stroke="none" /><line stroke="#e1ed5e" stroke-width="0.3" x1="174.80103733775053" x2="179.2010983576182" y1="140.37084112569926" y2="142.7455964860345" /><path d="M 175.68104954172406 140.8457921977663 a86.0,86.0 0 0,1 -30.038265399797805,32.042727171017184" fill="none" id="id17" stroke="none" /><text fill="#e1ed5e" style="font-size:6.75px; font-family:Arial;" text-anchor="middle"><textPath startOffset="22.206326154141568" xlink:href="#id17">May</textPath></text><path d="M 118.48025628344425 109.97397251340804 l 18.068285504509845 9.751627911558554 a41.5318578798405,41.5318578798405 0 0,0 -0.3449588463595903,0.626200506212854 l -17.897750248698745 -10.061198936169212" fill="#ffd213" stroke="none" /><path d="M 118.30583269289576 110.29060199501025 l 16.59624105769821 9.329557098175574 a40.03879862001135,40.03879862001135 0 0,0 -0.3428999051555191,0.5978748877576685 l -16.433189156390313 -9.613851831791559" fill="#ffbe11" stroke="none" /><path d="M 118.12598468904814 110.60418214915192 l 20.134904939695 11.77945381722581 a44.3274501213208,44.3274501213208 0 0,0 -0.39096626161912146,0.6552819428109995 l -19.929157802377652 -12.124297853922915" fill="#fff817" stroke="none" /><path d="M 117.75023020441432 111.22182372390056 l 16.66561340917141 10.536121153058902 a40.716808039231125,40.716808039231125 0 0,0 -0.3796263329948416,0.5891884992031846 l -16.48178221279952 -10.82143125218354" fill="#ffc712" stroke="none" /><path d="M 117.55443506779139 111.5257021239791 l 15.83892148259034 10.399348669919792 a39.947767322041514,39.947767322041514 0 0,0 -0.38235129416692476,0.5715633066747154 l -15.657567083012694 -10.670448890800314" fill="#ffbc11" stroke="none" /><path d="M 117.14729908036423 112.12312394758627 l 17.030780794746864 12.040745631789749 a41.85730207500919,41.85730207500919 0 0,0 -0.42100514451812154,0.5847393235851586 l -16.820995857853138 -12.332118560826038" fill="#ffd714" stroke="none" /><path d="M 116.71984013943494 112.70617746262583 l 20.75510224315553 15.772759198485387 a47.06826043020986,47.06826043020986 0 0,0 -0.49577039678890317,0.6408500683716867 l -20.48052502914856 -16.127687260970326" fill="#e1ff1b" stroke="none" /><path d="M 116.498646956653 112.99209946851258 l 16.242074713333327 12.790057924449808 a41.673426728636045,41.673426728636045 0 0,0 -0.44864834888757593,0.5597577980744961 l -16.019508452390898 -13.067743556102554" fill="#ffd413" stroke="none" /><path d="M 116.27256486870786 113.27417163493432 l 30.939988605384578 25.238966471755692 a60.928540212030484,60.928540212030484 0 0,0 -0.6699354121716635,0.8069803609746307 l -30.50095719331937 -25.76780808984409" fill="#3dff2e" stroke="none" /><path d="M 115.80600337817218 113.82643327865902 l 28.43706724829957 24.875561743352097 a58.781746462169195,58.781746462169195 0 0,0 -0.6727463125903554,0.7558376139299582 l -28.00466208606088 -25.36137352702292" fill="#55ff2b" stroke="none" /><path d="M 115.56566222782051 114.09645910891815 l 14.878603350602448 13.474249965075018 a41.07307275396277,41.07307275396277 0 0,0 -0.47909508122553446,0.5199630882425945 l -14.644461861381192 -13.728364308118946" fill="#ffcc13" stroke="none" /><path d="M 115.07121518719521 114.62390073753431 l 14.666788088351128 14.231477055992722 a41.4364774857079,41.4364774857079 0 0,0 -0.50110390105575,0.5076156061502154 l -14.419643562239841 -14.481833156123601" fill="#ffd113" stroke="none" /><path d="M 114.29624159901734 115.38237550388516 l 23.80520331038125 25.61376524944738 a55.9678806178239,55.9678806178239 0 0,0 -0.7113263120134272,0.649779720640193 l -23.360777448900954 -26.019737736674156" fill="#74ff27" stroke="none" /><path d="M 114.0293411484842 115.62618273729858 l 17.81013665087314 19.837314307013756 a47.659332445468834,47.659332445468834 0 0,0 -0.6151631673672145,0.542809971406536 l -17.466031130599337 -20.14094742019258" fill="#daff1c" stroke="none" /><path d="M 113.75828350139079 115.86535959552629 l 14.109121936010188 16.269928808292224 a42.5355033661185,42.5355033661185 0 0,0 -0.5572850212948769,0.47493038518783487 l -13.826971438138264 -16.510383583703007" fill="#ffe015" stroke="none" /><path d="M 113.48314897796784 116.09983520530334 l 13.949515118182626 16.656709420300192 a42.72636510658704,42.72636510658704 0 0,0 -0.567914514283535,0.46735498183206553 l -13.660730475354399 -16.894359520989436" fill="#ffe315" stroke="none" /><path d="M 113.20401910651253 116.32954008644616 l 16.477576731719004 20.377980946376077 a47.20634736853944,47.20634736853944 0 0,0 -0.6362572818498609,0.505481265089423 l -16.124361957151795 -20.658596125470627" fill="#e0ff1b" stroke="none" /><path d="M 112.92097659922987 116.55440617244103 l 16.10659841445627 20.63583740451909 a47.17747691948776,47.17747691948776 0 0,0 -0.6444696566839193,0.49415185114926286 l -15.749000029278855 -20.910028597495725" fill="#e0ff1b" stroke="none" /><path d="M 112.34349029814194 116.9893568818739 l 15.497430133721737 21.330382649819754 a47.36580294125931,47.36580294125931 0 0,0 -0.663736257147978,0.47355819618444517 l -15.127966548724874 -21.593985107848418" fill="#deff1b" stroke="none" /><path d="M 111.7513745106137 117.40417183066458 l 13.961507369087423 20.67745122472464 a45.949562664863464,45.949562664863464 0 0,0 -0.6593221815598515,0.43696279019817647 l -13.603510488787608 -20.914712036014134" fill="#f0ff19" stroke="none" /><path d="M 111.1453310114006 117.79835938074945 l 14.03102839690867 22.406627998238218 a47.43722254939596,47.43722254939596 0 0,0 -0.6957929163168605,0.427412838474983 l -13.6432562806595 -22.64482930354158" fill="#ddff1b" stroke="none" /><line stroke="#e1ed5e" stroke-width="0.3" x1="143.8653032363475" x2="146.44561519142675" y1="172.8068346515853" y2="177.08958963109032" /><path d="M 144.38136562736335 173.6633856474863 a86.0,86.0 0 0,1 -40.68145358897372,12.25698825130547" fill="none" id="id18" stroke="none" /><text fill="#e1ed5e" style="font-size:6.75px; font-family:Arial;" text-anchor="middle"><textPath startOffset="21.466115282336833" xlink:href="#id18">June</textPath></text><path d="M 110.5260780823613 118.17145234162733 l 13.380458766726226 23.099046661653833 a47.69461806217354,47.69461806217354 0 0,0 -0.7139458094793668,0.4053970634634433 l -12.98086419032566 -23.325946890911904" fill="#d9ff1c" stroke="none" /><path d="M 110.21172684928248 118.3499491758327 l 12.84480477975131 23.081455111433048 a47.4148174305828,47.4148174305828 0 0,0 -0.716589591994274,0.3907417810221968 l -12.445592375888388 -23.299137544215018" fill="#ddff1b" stroke="none" /><path d="M 108.92500713936063 119.00905698771935 l 11.114196086473983 23.67173308453021 a47.15102869628336,47.15102869628336 0 0,0 -0.7376486647246615,0.3386183225927916 l -10.705079425981904 -23.859538477457075" fill="#e0ff1b" stroke="none" /><path d="M 108.59647513512805 119.15986991738527 l 10.908223216222904 24.312306447393652 a47.64728088430269,47.64728088430269 0 0,0 -0.751191886169878,0.32930044740227943 l -10.488110655395273 -24.49647144809039" fill="#daff1c" stroke="none" /><path d="M 107.93186726928326 119.44442032107085 l 9.978099649832505 24.460616524462452 a47.41749862077773,47.41749862077773 0 0,0 -0.7584065911206245,0.3017856343351342 l -9.555571982670013 -24.628749003203655" fill="#ddff1b" stroke="none" /><path d="M 106.57524785965236 119.94407469862006 l 3.9838762268806 12.083913299530602 a33.723687768162065,33.723687768162065 0 0,0 -0.552873612542664,0.17701267156292275 l -3.775281269246996 -12.15069881775323" fill="#ff6209" stroke="none" /><path d="M 106.2309692047433 120.05430185196036 l 7.666248628916371 24.673731970851513 a46.837267994309734,46.837267994309734 0 0,0 -0.7719785991275958,0.2325908192801335 l -7.240395055348529 -24.80203815923737" fill="#e4ff1a" stroke="none" /><path d="M 104.83641907484287 120.43548508189849 l 6.167924152990815 26.061538519347682 a47.781468935674354,47.781468935674354 0 0,0 -0.8020002396302904,0.18253264345124762 l -5.718403763967662 -26.163847896376613" fill="#d8ff1c" stroke="none" /><path d="M 104.48393922423573 120.51570834832081 l 6.882619188088957 31.490571320010922 a53.23393443172807,53.23393443172807 0 0,0 -0.8968866925549535,0.1879513266908614 l -6.339541034104625 -31.604378627428325" fill="#95ff23" stroke="none" /><path d="M 104.13013068566511 120.58985236759428 l 5.257195631379194 26.20858518917003 a47.73065737172536,47.73065737172536 0 0,0 -0.8069490068925865,0.15465369772578744 l -4.805279009914903 -26.295196085244285" fill="#d9ff1c" stroke="none" /><path d="M 103.7750983002368 120.6578951692458 l 4.7343581806514345 25.90710683836327 a47.33614117742138,47.33614117742138 0 0,0 -0.8028007317563274,0.13957719757315543 l -4.287708477423057 -25.98476261445743" fill="#deff1b" stroke="none" /><path d="M 103.06178313531738 120.77559828337769 l 4.88373341656517 33.138363855788974 a54.496298468976185,54.496298468976185 0 0,0 -0.9292174460899656,0.12878107097941716 l -4.312587379288374 -33.21751949226099" fill="#86ff25" stroke="none" /><path d="M 102.70371172650421 120.8252237178851 l 3.3505291011036062 25.80730682926172 a47.023895385529826,47.023895385529826 0 0,0 -0.803599357865114,0.097304691012029 l -2.905802320187112 -25.861157048999097" fill="#e2ff1b" stroke="none" /><path d="M 101.98527174616119 120.90594882070398 l 2.4364598200415313 25.657194991054983 a46.77262096224778,46.77262096224778 0 0,0 -0.802163105413077,0.06921400806135768 l -1.9944523968869126 -25.695333251395002" fill="#e5ff1a" stroke="none" /><path d="M 101.62511606390274 120.93702456842531 l 1.9890274334181837 25.625441262785394 a46.702518749012796,46.702518749012796 0 0,0 -0.802031782205439,0.05531280745462758 l -1.5476328904338144 -25.655882414756306" fill="#e6ff1a" stroke="none" /><path d="M 101.26447882468166 120.96189622390904 l 1.569370340412477 26.016234966124536 a47.06352633620338,47.06352633620338 0 0,0 -0.809071169043136,0.04181973789932169 l -1.1213111029558613 -26.03939451078606" fill="#e2ff1b" stroke="none" /><line stroke="#e1ed5e" stroke-width="0.3" x1="102.19456741930631" x2="102.32365962044197" y1="184.97166512339345" y2="189.96999836594603" /><path d="M 102.22038585953345 185.97133177190398 a86.0,86.0 0 0,1 -42.740103519485714,-10.115201625700543" fill="none" id="id19" stroke="none" /><text fill="#e1ed5e" style="font-size:6.75px; font-family:Arial;" text-anchor="middle"><textPath startOffset="22.20632615414155" xlink:href="#id19">July</textPath></text><path d="M 99.45781275523022 120.99299961872073 l -0.6622612957991371 25.642158247577584 a46.65070894961238,46.65070894961238 0 0,0 -0.8025691296878353,-0.02764210357265036 l 1.1035507771616155 -25.62695934557884" fill="#e7ff1a" stroke="none" /><path d="M 98.73552117531835 120.96189622390904 l -1.5691225499441748 26.01212721992898 a47.0594111230955,47.0594111230955 0 0,0 -0.8081607669905939,-0.055735498129529965 l 2.0166460777136987 -25.981263377283167" fill="#e2ff1b" stroke="none" /><path d="M 98.37488393609728 120.93702456842531 l -2.085908643729073 26.873600902304933 a47.9544326656368,47.9544326656368 0 0,0 -0.8224314959052249,-0.0709628500779596 l 2.5481844573758394 -26.83371379994831" fill="#d6ff1c" stroke="none" /><path d="M 97.65516085044442 120.86867818915974 l -2.883188350899376 25.659896485887714 a46.82136833580348,46.82136833580348 0 0,0 -0.8001383386157084,-0.0968856097803831 l 3.3244541125664733 -25.60646534738198" fill="#e5ff1a" stroke="none" /><path d="M 97.2962882734958 120.8252237178851 l -3.3543046475207063 25.83638781375535 a47.0532204330126,47.0532204330126 0 0,0 -0.8023053776021624,-0.11119221471240434 l 3.7985386163096995 -25.774821033550342" fill="#e2ff1b" stroke="none" /><path d="M 96.93821686468263 120.77559828337769 l -2.994565376384725 20.319495060068036 a41.53897030743195,41.53897030743195 0 0,0 -0.7064871645926373,-0.11033876546699374 l 3.343888404585879 -20.264937987253933" fill="#ffd313" stroke="none" /><path d="M 96.22490169976321 120.6578951692458 l -4.6814141888802805 25.617389499935044 a47.0416259784068,47.0416259784068 0 0,0 -0.7953000326447565,-0.1524211440863944 l 5.121681836096732 -25.53301115750018" fill="#e2ff1b" stroke="none" /><path d="M 95.86986931433489 120.58985236759428 l -5.300778243801482 26.42585665679785 a47.95225686349079,47.95225686349079 0 0,0 -0.8079008534302063,-0.16930347890916708 l 5.754870558661075 -26.33069719716214" fill="#d6ff1c" stroke="none" /><path d="M 95.51606077576429 120.51570834832081 l -5.490061715866431 25.119097147485448 a46.712055910580816,46.712055910580816 0 0,0 -0.7840504042339892,-0.1784473193546913 l 5.921632269493283 -25.02087309455307" fill="#e6ff1a" stroke="none" /><path d="M 95.16358092515715 120.4354850818985 l -6.085631906208753 25.713826305942153 a47.42415143367954,47.42415143367954 0 0,0 -0.7927663135539889,-0.19484267196298874 l 6.527351504505952 -25.60526237566513" fill="#ddff1b" stroke="none" /><path d="M 94.46302465271185 120.25689768951611 l -6.962268033854198 25.47129838998602 a47.405685331892684,47.405685331892684 0 0,0 -0.7852838276955117,-0.2219290536948918 l 7.399683029654323 -25.34768054295261" fill="#ddff1b" stroke="none" /><path d="M 94.11515582081647 120.15858648285463 l -7.405749544803363 25.36846144497106 a47.427333622697134,47.427333622697134 0 0,0 -0.781704145827954,-0.23552104672107532 l 7.841328665071562 -25.23722502914426" fill="#ddff1b" stroke="none" /><path d="M 93.76903079525671 120.05430185196036 l -7.65426263860849 24.63515520057225 a46.796872064207314,46.796872064207314 0 0,0 -0.767198293724602,-0.24563266632702255 l 8.077182277424033 -24.49974968758552" fill="#e5ff1a" stroke="none" /><path d="M 93.42475214034765 119.94407469862007 l -8.076526541122833 24.497760704956598 a46.79477777626272,46.79477777626272 0 0,0 -0.7628223225376756,-0.25879074855720213 l 8.497018596597734 -24.35510696950127" fill="#e5ff1a" stroke="none" /><path d="M 92.7421414339146 119.70592522655815 l -9.5434542295985 25.911581734360205 a48.613177770927976,48.613177770927976 0 0,0 -0.782741098467857,-0.29596570694716484 l 9.988065548826642 -25.743467777306407" fill="#ceff1d" stroke="none" /><path d="M 92.40401165467489 119.57807347666478 l -9.55076822736884 24.616367694811075 a47.40421807626684,47.40421807626684 0 0,0 -0.7581941789777907,-0.3017011111598116 l 9.973083482388489 -24.448319739245196" fill="#ddff1b" stroke="none" /><path d="M 91.07499286063937 119.00905698771935 l -13.50551414740848 28.764916830635613 a52.77765492699602,52.77765492699602 0 0,0 -0.8190271025410768,-0.3931827814147775 l 13.998653917949799 -28.528179772721273" fill="#9aff23" stroke="none" /><path d="M 90.7491055286396 118.85261126421891 l -13.923185774555384 28.374381502224082 a52.60633841093488,52.60633841093488 0 0,0 -0.809501556600567,-0.40590088545617586 l 14.409541238838711 -28.130512775858605" fill="#9cff22" stroke="none" /><path d="M 90.42595943632237 118.69057910512821 l -11.6105439258905 22.666270135068668 a46.466930166216315,46.466930166216315 0 0,0 -0.7087514506621477,-0.3707852613241969 l 11.998986279079142 -22.463055454799754" fill="#e9ff1a" stroke="none" /><line stroke="#e1ed5e" stroke-width="0.3" x1="58.666819895761336" x2="56.23545636021788" y1="174.27360380694188" y2="178.64263932499728" /><path d="M 58.180547188652646 175.14741091055294 a86.0,86.0 0 0,1 -31.652253787137756,-30.449443065178592" fill="none" id="id20" stroke="none" /><text fill="#e1ed5e" style="font-size:6.75px; font-family:Arial;" text-anchor="middle"><textPath startOffset="22.20632615414155" xlink:href="#id20">August</textPath></text><path d="M 89.1626897886671 117.98757091392108 l -13.178391344903137 21.87325491522439 a46.536430428425305,46.536430428425305 0 0,0 -0.6825804063265721,-0.4192966356998509 l 13.552950951162018 -21.64316981269616" fill="#e8ff1a" stroke="none" /><path d="M 88.8546689885994 117.79835938074946 l -13.644886105625744 21.789984197768828 a46.709654376800046,46.709654376800046 0 0,0 -0.6777753194623592,-0.4325882767102215 l 14.017943227135026 -21.551881492234802" fill="#e6ff1a" stroke="none" /><path d="M 88.54995079064634 117.60387380957326 l -14.30755400285782 21.997143469410574 a47.24081596213283,47.24081596213283 0 0,0 -0.6778501476933189,-0.4492421158523218 l 14.684078849291101 -21.747603332466934" fill="#dfff1b" stroke="none" /><path d="M 87.65650970185807 116.9893568818739 l -15.5079875449379 21.344913679744675 a47.38376428202959,47.38376428202959 0 0,0 -0.6557349551667526,-0.48509704342363585 l 15.873107470523218 -21.074806687581273" fill="#ddff1b" stroke="none" /><path d="M 87.36589467227662 116.77436683061367 l -15.281404053061136 20.289199007260848 a46.40025405757092,46.40025405757092 0 0,0 -0.6338523752247914,-0.48601097247050923 l 15.628385156779416 -20.02314869296297" fill="#eaff1a" stroke="none" /><path d="M 85.18274418774928 114.88116024355367 l -18.628149272487644 18.70848947181796 a47.40105156305721,47.40105156305721 0 0,0 -0.5732353060316403,-0.5806843385671019 l 18.947425203574817 -18.385064639270194" fill="#ddff1b" stroke="none" /><path d="M 84.9287848128048 114.62390073753433 l -19.11192512325534 18.544682192789313 a47.63026322717212,47.63026322717212 0 0,0 -0.5658780300607237,-0.5933208521681175 l 19.42830970469502 -18.212954224038697" fill="#daff1b" stroke="none" /><path d="M 84.43433777217949 114.09645910891817 l -19.38005336333714 17.550819603207202 a47.14608454645011,47.14608454645011 0 0,0 -0.5395782949747867,-0.6062219344344097 l 19.679290507960264 -17.21462349903193" fill="#e0ff1b" stroke="none" /><path d="M 84.19399662182784 113.82643327865904 l -24.851862509625 21.739373997240904 a54.018410803508075,54.018410803508075 0 0,0 -0.6061830060442593,-0.7051277841972269 l 25.22238802524004 -21.308369113882147" fill="#8bff24" stroke="none" /><path d="M 83.72743513129214 113.27417163493432 l -24.87059840109446 20.287925997118244 a53.09589702895167,53.09589702895167 0 0,0 -0.5716205362678809,-0.7131845096696212 l 25.2161368494172 -19.85681365387036" fill="#96ff23" stroke="none" /><path d="M 82.6465618267979 111.8261652097733 l -21.35073748140668 14.550277949849232 a46.83727112947133,46.83727112947133 0 0,0 -0.4482926689552091,-0.6701367149399797 l 21.59803325577262 -14.18060432070343" fill="#e4ff1a" stroke="none" /><path d="M 82.44556493220864 111.52570212397912 l -21.19603937306029 13.916667501893174 a46.35637433590559,46.35637433590559 0 0,0 -0.4322072688782595,-0.670795279363687 l 21.432451505315598 -13.54975062260804" fill="#ebff1a" stroke="none" /><path d="M 82.24976979558568 111.22182372390057 l -21.506877071354644 13.596803002944718 a46.444425976296785,46.444425976296785 0 0,0 -0.4213954970861265,-0.679423716550133 l 21.737737208108726 -13.22458295502932" fill="#eaff1a" stroke="none" /><path d="M 82.05923443525364 110.91462005526583 l -23.376469892818072 14.221538439520714 a48.362593083196536,48.362593083196536 0 0,0 -0.42655605427773385,-0.7149324824278847 l 23.617806822794037 -13.817043863206717" fill="#d1ff1c" stroke="none" /><line stroke="#e1ed5e" stroke-width="0.3" x1="26.63291911575756" x2="22.317208475507996" y1="142.92168965132927" y2="145.44649492493687" /><path d="M 25.769776987707644 143.4266507060508 a86.0,86.0 0 0,1 -11.730757126820373,-40.83630448921669" fill="none" id="id21" stroke="none" /><text fill="#e1ed5e" style="font-size:6.75px; font-family:Arial;" text-anchor="middle"><textPath startOffset="21.46611528233685" xlink:href="#id21">September</textPath></text><path d="M 81.51974371655577 109.97397251340807 l -22.801911878278613 12.306411709822761 a46.910904161693125,46.910904161693125 0 0,0 -0.37740379023908605,-0.713905742800518 l 23.010368176742585 -11.912090951936118" fill="#e4ff1b" stroke="none" /><path d="M 81.02952815118164 109.00673069616217 l -23.961438613492454 11.376323499185421 a47.52491803543011,47.52491803543011 0 0,0 -0.34449994559996094,-0.7420222346683848 l 24.153713175932243 -10.962181197238209" fill="#dcff1b" stroke="none" /><path d="M 80.87730276802145 108.67885076344099 l -23.280842305652744 10.56602808520534 a46.566356172869426,46.566356172869426 0 0,0 -0.3249864118434577,-0.7327585647999202 l 23.45926980222748 -10.163721183912726" fill="#e8ff1a" stroke="none" /><path d="M 80.73074385275274 108.34839909993369 l -23.802010832125276 10.312213626155643 a46.939881833271315,46.939881833271315 0 0,0 -0.31483029996025413,-0.7441658297388718 l 23.975992113277837 -9.900973270750612" fill="#e3ff1b" stroke="none" /><path d="M 80.58989483394504 108.01547362559985 l -24.01285213911837 9.916194752676448 a46.97976108874309,46.97976108874309 0 0,0 -0.30223061456674705,-0.7501115996023586 l 24.179985367942503 -9.501383785231285" fill="#e3ff1b" stroke="none" /><path d="M 80.32549172779594 107.34259656027581 l -24.908425411118223 9.295913077733788 a47.58653148513401,47.58653148513401 0 0,0 -0.2797991495869085,-0.7698870907100975 l 25.064748821710356 -8.865778190017572" fill="#dbff1b" stroke="none" /><path d="M 79.97269907076064 106.31721596034903 l -24.762854020974594 7.810952519153822 a46.96555253640047,46.96555253640047 0 0,0 -0.23655705108609398,-0.7730821300487334 l 24.89363784456682 -7.3835434165530405" fill="#e3ff1b" stroke="none" /><path d="M 79.86692584326677 105.97154293290107 l -24.850952796722574 7.370882876299202 a46.92102947957612,46.92102947957612 0 0,0 -0.22300305842599377,-0.7763029016336762 l 24.974148492034672 -6.942022499160929" fill="#e3ff1b" stroke="none" /><path d="M 79.76711848015287 105.62410040840567 l -25.64408082048568 7.12824247372805 a47.61636192066568,47.61636192066568 0 0,0 -0.21271345282780504,-0.791585889319019 l 25.76298234965526 -6.685765651233491" fill="#daff1b" stroke="none" /><path d="M 79.67330655649465 105.27499134158121 l -25.79737333328731 6.694690474220158 a47.65189207997469,47.65189207997469 0 0,0 -0.19920461795498512,-0.7957234263089064 l 25.908789265537354 -6.24963920851386" fill="#daff1c" stroke="none" /><path d="M 79.4281124754447 104.21870165774334 l -25.780426950777063 5.286823087320248 a47.31693204233682,47.31693204233682 0 0,0 -0.1567543873129147,-0.7992872437751156 l 25.867611271065645 -4.842272116477178" fill="#deff1b" stroke="none" /><path d="M 79.35854240842038 103.8639653848113 l -25.97469187453631 4.862317006396393 a47.42587263739448,47.42587263739448 0 0,0 -0.1433019211433906,-0.8037132762744498 l 26.054540238018888 -4.414484979388729" fill="#ddff1b" stroke="none" /><path d="M 79.29508885075956 103.50808413554451 l -25.052715623951162 4.244743365436528 a46.409769900040104,46.409769900040104 0 0,0 -0.1266726948174511,-0.7887909915468104 l 25.1220700731299 -3.8128731441965034" fill="#eaff1a" stroke="none" /><path d="M 79.23777060512086 103.15116336523772 l -25.71170985865395 3.90236504101989 a47.00616228452358,47.00616228452358 0 0,0 -0.11452928101692388,-0.8010175246828991 l 25.775073190687472 -3.4592020443565903" fill="#e2ff1b" stroke="none" /><path d="M 79.1416061653843 102.43462659150553 l -25.99165728971496 3.0337896818220926 a47.16811281883971,47.16811281883971 0 0,0 -0.08718845629362332,-0.8072568208021215 l 26.040028047509637 -2.585936539135189" fill="#e0ff1b" stroke="none" /><path d="M 79.10278846688536 102.07522291339032 l -25.772123211989932 2.5593319248115245 a46.89889022246609,46.89889022246609 0 0,0 -0.07286167750786096,-0.8040225398335937 l 25.81235948577487 -2.1153279964293645" fill="#e4ff1b" stroke="none" /><path d="M 79.07016306316243 101.71520430193888 l -25.889266774850253 2.121630564073376 a46.976055327739346,46.976055327739346 0 0,0 -0.059108049625402746,-0.8064823755745001 l 25.92195138313999 -1.6756750520021155" fill="#e3ff1b" stroke="none" /><path d="M 79.04373962182676 101.35467743843564 l -25.827733269544332 1.669584501948016 a46.88164056337759,46.88164056337759 0 0,0 -0.0451261443888085,-0.8057576220913715 l 25.85264576482067 -1.2247551635212068" fill="#e4ff1a" stroke="none" /><path d="M 79.0095281055655 100.63252640178507 l -38.53966620756144 1.1613534233468195 a59.557160335846476,59.557160335846476 0 0,0 -0.022058659988151152,-1.0249792518092908 l 38.5539469302346 -0.49778435574739965" fill="#4cff2c" stroke="none" /><line stroke="#e1ed5e" stroke-width="0.3" x1="15.007084014347285" x2="10.007500721073583" y1="101.09737516637583" y2="101.16192664675087" /><path d="M 14.007167355692545 101.11028546245083 a86.0,86.0 0 0,1 10.666146001902534,-42.60595125391555" fill="none" id="id22" stroke="none" /><text fill="#e1ed5e" style="font-size:6.75px; font-family:Arial;" text-anchor="middle"><textPath startOffset="22.20632615414155" xlink:href="#id22">October</textPath></text><path d="M 79.00175016825051 100.2711162175752 l -27.307103358020456 0.3525721731421482 a48.30937935843446,48.30937935843446 0 0,0 -0.0035788110671592225,-0.831589654854146 l 27.30912646637712 0.11752695991567322" fill="#d2ff1c" stroke="none" /><path d="M 79.00486145842228 99.54816195383935 l -31.83388425452536 -0.685099554584224 a52.841255442118,52.841255442118 0 0,0 0.0273977016476709,-0.9091963351799385 l 31.817374858422042 1.2329660371891569" fill="#99ff23" stroke="none" /><path d="M 79.01574976396665 99.18683210126434 l -32.6183191539077 -1.2640037050800015 a53.64280088767871,53.64280088767871 0 0,0 0.043696893687478575,-0.9223723623892462 l 32.59172865198673 1.825287174092257" fill="#90ff24" stroke="none" /><path d="M 79.03285615573316 98.82574320788736 l -31.812605959310233 -1.7816527086371718 a52.8624572859115,52.8624572859115 0 0,0 0.05870101247437661,-0.908078681295472 l 31.777224355831443 2.3289904541856554" fill="#99ff23" stroke="none" /><path d="M 79.08570108090925 98.10471618934814 l -31.955221722388668 -2.8958280949570896 a53.08616548736485,53.08616548736485 0 0,0 0.09030430560559735,-0.90935203366091 l 31.900640291100842 3.4454556593224295" fill="#96ff23" stroke="none" /><path d="M 79.12142395522702 97.74499172005258 l -32.64449547059333 -3.5257963676753477 a53.834346720406984,53.834346720406984 0 0,0 0.10743706987307894,-0.9204552039596462 l 32.57896804771666 4.0871953099598555" fill="#8dff24" stroke="none" /><path d="M 79.26566170972629 96.67025291283419 l -6.346877722381759 -1.0192511240453603 a27.428198011630755,27.428198011630755 0 0,0 0.07887322951319531,-0.4655142653444167 l 6.328392631348341 1.128351177705605" fill="#ff0000" stroke="none" /><path d="M 79.3925641242962 95.95851677861259 l -32.168536656871986 -6.308819881303832 a53.78133552708387,53.78133552708387 0 0,0 0.1859827834575594,-0.9069181025802127 l 32.05517457749943 6.861613640047447" fill="#8eff24" stroke="none" /><path d="M 79.91906864156998 93.8553929516997 l -31.73854021358142 -9.711743664581816 a54.191156953255934,54.191156953255934 0 0,0 0.28061862604395965,-0.8896377305140493 l 31.566666103769254 10.25663156152228" fill="#89ff24" stroke="none" /><path d="M 80.14247586403 93.16781622104843 l -31.055608852625372 -10.684999076195629 a53.84235141498801,53.84235141498801 0 0,0 0.309072837382495,-0.873790531476211 l 30.867082934433068 11.217987234098452" fill="#8dff24" stroke="none" /><path d="M 80.65960295795068 91.81776055985345 l -29.94610596025159 -12.669140593859018 a53.51578671306574,53.51578671306574 0 0,0 0.3662245581307226,-0.8452967728973814 l 29.723590692278187 13.182736511342998" fill="#91ff24" stroke="none" /><path d="M 80.803312248108 91.48605970444005 l -30.05969998891058 -13.331804648580832 a53.88346968632161,53.88346968632161 0 0,0 0.3833364535767584,-0.8446310622839293 l 29.82576121837047 13.847257719706832" fill="#8dff24" stroke="none" /><path d="M 80.95270993114464 91.15688171328213 l -29.681232907332642 -13.78015731089976 a53.724124471289834,53.724124471289834 0 0,0 0.39664215677615866,-0.8354295385319894 l 29.43963255671473 14.289029265072282" fill="#8fff24" stroke="none" /><path d="M 81.6062741919709 89.86733742301443 l -29.11212182104303 -16.037169978034765 a54.237124692542665,54.237124692542665 0 0,0 0.4575091522644552,-0.8138577316354033 l 28.831755027486142 16.535911219604955" fill="#89ff24" stroke="none" /><line stroke="#e1ed5e" stroke-width="0.3" x1="26.266209847984243" x2="21.928928074336255" y1="57.711370442889674" y2="55.22380399835377" /><path d="M 25.398753493254645 57.213857153982495 a86.0,86.0 0 0,1 29.58750427330803,-30.492523968695096" fill="none" id="id23" stroke="none" /><text fill="#e1ed5e" style="font-size:6.75px; font-family:Arial;" text-anchor="middle"><textPath startOffset="21.46611528233685" xlink:href="#id23">November</textPath></text><path d="M 81.78341655067845 89.55222093294921 l -30.484549342212418 -17.483840335488694 a56.14245895600712,56.14245895600712 0 0,0 0.4880125111364742,-0.8341715731119452 l 30.17907715660562 18.005991320954532" fill="#72ff27" stroke="none" /><path d="M 82.15384107792192 88.93136811851018 l -29.297204427358142 -18.170855273624365 a55.474717818039004,55.474717818039004 0 0,0 0.5102945042136914,-0.8071633581758066 l 28.98008232689849 18.67246627951439" fill="#7aff26" stroke="none" /><path d="M 82.7489923806493 88.02491185347247 l -28.256351397133297 -19.614639686343317 a55.397027259682645,55.397027259682645 0 0,0 0.5505076423560149,-0.7786540194026651 l 27.9145311349734 20.09812020607777" fill="#7bff26" stroke="none" /><path d="M 83.39014120810768 87.1503855733568 l -27.765185176196216 -21.4795278195032 a56.10378360258731,56.10378360258731 0 0,0 0.5974943936170253,-0.7587572033879562 l 27.39133670198522 21.954277416844203" fill="#73ff27" stroke="none" /><path d="M 83.84228863543731 86.58626213691792 l -26.91477318697619 -22.34398820653646 a55.98083510552904,55.98083510552904 0 0,0 0.6218921275355871,-0.7361241241276215 l 26.52617044595348 22.803971280293194" fill="#74ff27" stroke="none" /><path d="M 84.07557802195018 86.31012108654704 l -26.339420037677847 -22.643426019695646 a55.734561892021254,55.734561892021254 0 0,0 0.6316799623916818,-0.7221193939363449 l 25.94574821170832 23.093460969834936" fill="#77ff27" stroke="none" /><path d="M 84.5562425177563 85.77008943001954 l -46.331272446731106 -42.68973170994139 a84.0,84.0 0 0,0 0.9889307121181763,-1.0549223324877994 l 45.58957441264248 43.480923459307235" fill="#4dd2ff" stroke="none" /><path d="M 84.80347519578584 85.50635884689758 l -22.860664638632844 -21.803292138336758 a52.59103568719607,52.59103568719607 0 0,0 0.6304306233967562,-0.6497141738266604 l 22.48196975153297 22.19357050771354" fill="#9cff22" stroke="none" /><path d="M 85.57189188830299 84.74124197986013 l -23.88188997560576 -25.256809651013285 a55.75990653834467,55.75990653834467 0 0,0 0.7030849357947297,-0.6534408228568048 l 23.443597156016175 25.664155059944736" fill="#77ff27" stroke="none" /><path d="M 85.83668400450813 84.49514656593479 l -23.740767542793552 -25.989473177071705 a56.20052214872231,56.20052214872231 0 0,0 0.7198725213988357,-0.6463086574571686 l 23.289884033798746 26.394280843298155" fill="#72ff27" stroke="none" /><path d="M 86.37877921826538 84.01681056812374 l -22.950999360779797 -26.930785155917558 a56.383831911943965,56.383831911943965 0 0,0 0.7441120977028411,-0.6231724823078105 l 22.484029726117843 27.321858795619182" fill="#70ff27" stroke="none" /><path d="M 86.65592168130627 83.78471172551755 l -22.320944848989367 -27.123683377827895 a56.12718005949641,56.12718005949641 0 0,0 0.7512933125182276,-0.6074936097753142 l 21.85074813790664 27.503883084867343" fill="#73ff27" stroke="none" /><path d="M 87.22198572758235 83.33499621200491 l -21.246829808589403 -27.709978381174267 a55.91805662977693,55.91805662977693 0 0,0 0.7688835202954405,-0.57910712685946 l 20.766700134535572 28.071602097539582" fill="#75ff27" stroke="none" /><path d="M 87.80319425747018 82.90503203632743 l -20.441185431940177 -28.650239864034074 a56.19486192798106,56.19486192798106 0 0,0 0.7922642253462338,-0.5550317201262251 l 19.944990067010284 28.997856426924244" fill="#72ff27" stroke="none" /><path d="M 88.39885842347998 82.49532879139004 l -19.40169719072166 -29.274733695170497 a56.120305904186075,56.120305904186075 0 0,0 0.8098239624781494,-0.5267320319148131 l 18.89490620245922 29.604364651244843" fill="#73ff27" stroke="none" /><path d="M 88.70189139769569 82.29822771554957 l -18.621399048555805 -29.1758361667887 a55.611933181445536,55.611933181445536 0 0,0 0.8113538679214053,-0.5080697176586393 l 18.116426028262158 29.492050225770267" fill="#79ff26" stroke="none" /><line stroke="#e1ed5e" stroke-width="0.3" x1="56.762969772571076" x2="54.21961505331055" y1="26.818313649435495" y2="22.513508569990535" /><path d="M 56.25429882871897 25.957352633546506 a86.0,86.0 0 0,1 42.265352541879196,-11.944610805530505" fill="none" id="id24" stroke="none" /><text fill="#e1ed5e" style="font-size:6.75px; font-family:Arial;" text-anchor="middle"><textPath startOffset="22.20632615414155" xlink:href="#id24">December</textPath></text><path d="M 89.3179101791058 81.91981866633112 l -19.349633665295958 -32.75060323161832 a59.03958904899004,59.03958904899004 0 0,0 0.8794179223061327,-0.5094156230989092 l 18.783019010524505 33.07882301210727" fill="#52ff2b" stroke="none" /><path d="M 89.94658935756843 81.56283822128135 l -16.83671498881474 -30.87720666266094 a56.16926019840696,56.16926019840696 0 0,0 0.8528498498620268,-0.4555628537355843 l 16.30272009242441 31.16244824289827" fill="#72ff27" stroke="none" /><path d="M 90.58718382345135 81.22770947309562 l -15.615808813644533 -31.14312383924781 a55.838881258889806,55.838881258889806 0 0,0 0.8629200660239419,-0.42343112877724615 l 15.077417480610166 31.407310128159885" fill="#76ff27" stroke="none" /><path d="M 90.91171255644093 81.06846463323043 l -15.087954555730331 -31.429259589104927 a55.863228923826426,55.863228923826426 0 0,0 0.8704602710016158,-0.40869276883320493 l 14.544716073429106 31.68431734057814" fill="#76ff27" stroke="none" /><path d="M 91.56875222667455 80.76684994638697 l -14.14661263006043 -32.27089640576109 a56.235456627328524,56.235456627328524 0 0,0 0.8899026488257106,-0.38100987210307463 l 13.589026223444412 32.50962580582696" fill="#71ff27" stroke="none" /><path d="M 92.23578459929587 80.48803036053334 l -13.139554924785013 -33.02054148900336 a56.53876846274269,56.53876846274269 0 0,0 0.907357942958555,-0.352040785216495 l 12.569213816826782 33.24182497811041" fill="#6eff28" stroke="none" /><path d="M 93.25333710446033 80.11325718540243 l -11.213284173074621 -33.052740578510104 a55.903028546193724,55.903028546193724 0 0,0 0.9139271423133932,-0.30130740970349534 l 10.642674208518818 33.24086171247283" fill="#75ff27" stroke="none" /><path d="M 93.94186890950719 79.89281104454417 l -10.115385009296624 -33.57338339183533 a56.064128197653325,56.064128197653325 0 0,0 0.9264190913997085,-0.2704471368637419 l 9.535975700173493 33.74252885761776" fill="#73ff27" stroke="none" /><path d="M 94.98787191387505 79.60689891045804 l -7.367305674499815 -29.975732223114097 a51.86781034043973,51.86781034043973 0 0,0 0.8688508136612592,-0.20562891614969572 l 6.850231173876022 30.098107051404664" fill="#a5ff21" stroke="none" /><path d="M 95.33964822691252 79.52364482259891 l -7.762771643552407 -34.10756892910042 a55.97980677252631,55.97980677252631 0 0,0 0.9414131458189366,-0.20575645057335865 l 7.174515773579949 34.23613887776964" fill="#74ff27" stroke="none" /><path d="M 95.692805502759 79.44645832069477 l -7.163134426614333 -34.18182812180674 a55.9243162934149,55.9243162934149 0 0,0 0.9438788677128841,-0.18933322131183758 l 6.573689149434313 34.300065299195786" fill="#75ff27" stroke="none" /><path d="M 96.40284397218896 79.31037775812273 l -5.980914056350719 -34.40019046444619 a55.916248895602,55.916248895602 0 0,0 0.9496996611109535,-0.15670858142400632 l 5.3878851891008805 34.49804530880982" fill="#75ff27" stroke="none" /></svg>