<?xml version="1.0" encoding="utf-8" ?>
<svg baseProfile="full" height="200mm" version="1.1" viewBox="0,0,200,200" width="200mm" xmlns="http://www.w3.org/2000/svg" xmlns:ev="http://www.w3.org/2001/xml-events" xmlns:xlink="http://www.w3.org/1999/xlink"><defs /><rect fill="#1a1a1a" height="200" width="200" x="0" y="0" /><text alignment-baseline="middle" fill="#e1ed5e" style="dominant-baseline: central; font-size:9.0px; font-family:Arial;" text-anchor="middle" x="100.0" y="100.0">2024</text><line stroke="#e1ed5e" stroke-width="0.3" x1="100.0" x2="100.0" y1="15.0" y2="10.0" /><path d="M 100.0 14.0 a86.0,86.0 0 0,1 42.35913384403234,11.155469271406648" fill="none" id="id49" stroke="none" /><text fill="#e1ed5e" style="font-size:6.75px; font-family:Arial;" text-anchor="middle"><textPath startOffset="22.145653131862478" xlink:href="#id49">January</textPath></text><path d="M 100.0 79.0 l 0.0 -7.457438963052198 a28.457438963052198,28.457438963052198 0 0,0 0.4885097812142118,0.0041932689402624 l -0.12801685636535703 7.4563400923063705" fill="#ff5407" stroke="none" /><path d="M 100.36049292484886 79.00309439819443 l 0.12763433587820955 -7.434060191632149 a28.435155778899652,28.435155778899652 0 0,0 0.4879834073828501,0.01256872157786881 l -0.25523105733180107 7.430773752704235" fill="#ff5307" stroke="none" /><path d="M 101.08105385017728 79.02784411241856 l 0.3838996715937914 -7.447551069297828 a28.457438963052198,28.457438963052198 0 0,0 0.4876461968904789,0.029335584272601675 l -0.5116902206167326 7.439863507200535" fill="#ff5407" stroke="none" /><path d="M 101.80034050326958 79.07731436759882 l 1.0201261109932371 -11.855411732921226 a32.89922033745978,32.89922033745978 0 0,0 0.5622640258765227,0.05324698783421028 l -1.2234897002547727 11.836152989581832" fill="#ff910d" stroke="none" /><path d="M 102.51750503828377 79.15144685158666 l 0.8922257845997896 -7.388909419341049 a28.4425835069505,28.4425835069505 0 0,0 0.48423116221228507,0.06269341859398345 l -1.0189347687028665 7.372504404546668" fill="#ff5407" stroke="none" /><path d="M 102.87502721639298 79.19773525538626 l 1.0219854716031747 -7.3945777710273495 a28.464866691103047,28.464866691103047 0 0,0 0.48346206290193283,0.07105227431609591 l -1.1487726401127896 7.3759444234123706" fill="#ff5407" stroke="none" /><path d="M 103.58742460773223 79.30868818359171 l 1.2726835063012094 -7.340500261864662 a28.450011235001348,28.450011235001348 0 0,0 0.4804871816732033,0.08756077037101388 l -1.3985054215254664 7.317571317562282" fill="#ff5407" stroke="none" /><path d="M 104.29559338865022 79.4440306129975 l 2.4324907481988816 -11.640348801694891 a32.89179260940893,32.89179260940893 0 0,0 0.5517012162763251,0.12024071228535473 l -2.631954381094341 11.59687663127582" fill="#ff910d" stroke="none" /><path d="M 104.9986988182912 79.60360301121754 l 2.3019964766827097 -9.392931183089306 a30.67090192220514,30.67090192220514 0 0,0 0.510297656362931,0.12971566874399487 l -2.462899426271035 9.352030282510043" fill="#ff720a" stroke="none" /><path d="M 105.3480935250658 79.69241777938227 l 1.89351945138042 -7.190001776338368 a28.435155778899652,28.435155778899652 0 0,0 0.47096552605812625,0.12836374841781098 l -2.0166663783732393 7.1564375337764154" fill="#ff5307" stroke="none" /><path d="M 106.04205211174951 79.88797359093562 l 2.1392189845279614 -7.120764256225595 a28.435155778899652,28.435155778899652 0 0,0 0.466281535629452,0.1444552116544078 l -2.2611411530290435 7.08299245676454" fill="#ff5307" stroke="none" /><path d="M 106.72888874123014 80.10723608172694 l 3.8127871313404644 -11.271827665933372 a32.89922033745978,32.89922033745978 0 0,0 0.533428315672581,0.1855540582876211 l -4.0057212190580636 11.204715175077162" fill="#ff910d" stroke="none" /><path d="M 107.40779381753099 80.34994680014964 l 2.6253868613926676 -6.964150564566962 a28.4425835069505,28.4425835069505 0 0,0 0.4553897857800439,0.17615455202653194 l -2.7445489096662374 6.9180561244023915" fill="#ff5407" stroke="none" /><path d="M 107.74402155503746 80.48000691201159 l 2.739070768129978 -6.9042476291441055 a28.427728050848803,28.427728050848803 0 0,0 0.4520625219558264,0.18384989218112122 l -2.8571877512762445 6.856210480383691" fill="#ff5307" stroke="none" /><path d="M 108.4095320186766 80.7573450057729 l 2.9774371707859495 -6.812958927699994 a28.435155778899652,28.435155778899652 0 0,0 0.4456013645022909,0.19931182252133606 l -3.093951938143872 6.760843354268806" fill="#ff5307" stroke="none" /><path d="M 109.06512990194946 81.05736502329252 l 5.136570385285323 -10.73345654094832 a32.89922033745978,32.89922033745978 0 0,0 0.5073369196931099,0.2481639103991542 l -5.3200675542405 10.643698880451943" fill="#ff910d" stroke="none" /><path d="M 109.71004243097381 81.37971332152246 l 3.43788943304837 -6.592606290583357 a28.435155778899652,28.435155778899652 0 0,0 0.4308754568427292,0.22941691161213046 l -3.550553705677659 6.532618911248654" fill="#ff5307" stroke="none" /><path d="M 110.02825361518725 81.54914285379988 l 3.554100712376636 -6.539145004067081 a28.4425835069505,28.4425835069505 0 0,0 0.4269852264010282,0.23684150740046278 l -3.6658301269337645 6.477170581233473" fill="#ff5407" stroke="none" /><line stroke="#e1ed5e" stroke-width="0.3" x1="143.13028292997686" x2="145.6673583964461" y1="26.7553504044142" y2="22.446841604673864" /><path d="M 143.63769802327073 25.89364864446614 a86.0,86.0 0 0,1 29.32050498858742,28.57503671076993" fill="none" id="id50" stroke="none" /><text fill="#e1ed5e" style="font-size:6.75px; font-family:Arial;" text-anchor="middle"><textPath startOffset="20.669276256404974" xlink:href="#id50">February</textPath></text><path d="M 110.65571695917076 81.90426304109057 l 6.041612938978061 -10.25997959313277 a32.90664806551063,32.90664806551063 0 0,0 0.4843031908829528,0.29081015096430907 l -6.216848886418449 10.154755441632542" fill="#ff910d" stroke="none" /><path d="M 111.8722381534696 82.67804972795209 l 8.889762486274119 -12.970429141244534 a36.72450028364692,36.72450028364692 0 0,0 0.5169496456207926,0.3608710009760303 l -9.111107223068672 12.815913324463377" fill="#ffc312" stroke="none" /><path d="M 113.31354834802062 83.75963576809568 l 7.539140754761909 -9.196525873669954 a32.89179260940893,32.89179260940893 0 0,0 0.433585351890884,0.3617123215447898 l -7.695900440814685 9.065751368213293" fill="#ff910d" stroke="none" /><path d="M 113.59037401385872 83.9905735841838 l 4.927106778160558 -5.804119395639368 a28.613421252120023,28.613421252120023 0 0,0 0.37172992722703885,0.3210914575390839 l -5.026016185150458 5.718683805635564" fill="#ff5608" stroke="none" /><path d="M 114.39649973595853 84.71141617570332 l 10.754433226523261 -11.420835403193587 a36.68736164339267,36.68736164339267 0 0,0 0.45479665032308153,0.4356849030930699 l -10.948902362711655 11.234538369794938" fill="#ffc212" stroke="none" /><path d="M 115.41159269507618 85.73525988315684 l 8.738114778536502 -8.087868586534402 a32.90664806551063,32.90664806551063 0 0,0 0.38015373706095534,0.41785555016283404 l -8.875666216439337 7.9366754608138965" fill="#ff910d" stroke="none" /><path d="M 115.6541949942343 86.00192230759917 l 5.547983498984537 -4.961041055355909 a28.4425835069505,28.4425835069505 0 0,0 0.3223342946232428,0.3667572571909083 l -5.63232885756637 4.865071520353703" fill="#ff5407" stroke="none" /><path d="M 116.35404254752997 86.82634096563983 l 7.537134042347968 -6.071381658790988 a30.67832965025599,30.67832965025599 0 0,0 0.3268462949812693,0.4129596164827787 l -7.640246767970797 5.9411020983935305" fill="#ff730a" stroke="none" /><path d="M 116.57777611688842 87.10902102172516 l 5.875308719498647 -4.568675596769237 a28.4425835069505,28.4425835069505 0 0,0 0.29640967425862497,0.388009778482911 l -5.952870371111579 4.467144905045445" fill="#ff5407" stroke="none" /><path d="M 117.01052211995028 87.68569379921539 l 9.716880699073863 -7.034272281657588 a32.99578080212082,32.99578080212082 0 0,0 0.3282057343703821,0.46166246772211644 l -9.836201531974206 6.866432587225968" fill="#ff920d" stroke="none" /><path d="M 117.21940702142032 87.97951657250589 l 6.1027083189090705 -4.260164366811403 a28.4425835069505,28.4425835069505 0 0,0 0.27604240143827036,0.4027541133255523 l -6.174940457162666 4.154775518415803" fill="#ff5407" stroke="none" /><path d="M 117.42321728460499 88.27688183743584 l 6.174940457162666 -4.154775518415803 a28.4425835069505,28.4425835069505 0 0,0 0.269087916037502,0.4074334014720158 l -6.245352812120892 4.0481622386047285" fill="#ff5407" stroke="none" /><path d="M 117.81537515405839 88.88188828441811 l 6.584881478464904 -4.109453058290559 a28.761975813137,28.761975813137 0 0,0 0.25780596445672677,0.42110666806966224 l -6.654455407377033 3.9958092740963425" fill="#ff5808" stroke="none" /><line stroke="#e1ed5e" stroke-width="0.3" x1="172.87174338648825" x2="177.1583165268699" y1="56.24261187166439" y2="53.66864786411523" /><path d="M 173.72905801456457 55.72781907015455 a86.0,86.0 0 0,1 12.242430191666344,42.057860355516425" fill="none" id="id51" stroke="none" /><text fill="#e1ed5e" style="font-size:6.75px; font-family:Arial;" text-anchor="middle"><textPath startOffset="22.145653131862474" xlink:href="#id51">March</textPath></text><path d="M 118.18653347947321 89.5 l 10.427246519972922 -6.020173585212957 a33.04034717042591,33.04034717042591 0 0,0 0.2793744412180015,0.4936278684902805 l -10.529054326212298 5.840288946623558" fill="#ff930d" stroke="none" /><path d="M 118.53625476483649 90.13048839642627 l 6.562854368282394 -3.4943502968680167 a28.435155778899652,28.435155778899652 0 0,0 0.22571004884681176,0.43282877964924343 l -6.6218724861041505 3.3811752741142747" fill="#ff5307" stroke="none" /><path d="M 118.70294669586156 90.45014215332178 l 6.641718257790775 -3.3913086665441874 a28.457438963052198,28.457438963052198 0 0,0 0.21841773723030716,0.43698178670232424 l -6.698955908232819 3.2767950236781127" fill="#ff5407" stroke="none" /><path d="M 119.0197475246899 91.09779779509293 l 6.75421934562086 -3.1613156942782483 a28.457438963052198,28.457438963052198 0 0,0 0.20328847309033268,0.4442220014305544 l -6.807492283566243 3.0449047106330096" fill="#ff5407" stroke="none" /><path d="M 119.31412917781788 91.75594674310238 l 10.991776162215162 -4.691735632237153 a32.95121443381572,32.95121443381572 0 0,0 0.2175943730050781,0.5221472827620572 l -11.070696379756724 4.502355840033818" fill="#ff910d" stroke="none" /><path d="M 119.58574465831526 92.42381321644754 l 6.941359055491479 -2.6850668000401825 a28.4425835069505,28.4425835069505 0 0,0 0.17223923310140782,0.45688502905337597 l -6.986428972407327 2.5655134907926485" fill="#ff5407" stroke="none" /><path d="M 119.71291397450082 92.76114493625339 l 6.986428972407327 -2.5655134907926485 a28.4425835069505,28.4425835069505 0 0,0 0.16437081418640273,0.45977442146792225 l -7.029439956637673 2.4452041129438093" fill="#ff5407" stroke="none" /><path d="M 119.94978838288452 93.4421083053983 l 7.056266799049949 -2.3195350521153024 a28.427728050848803,28.427728050848803 0 0,0 0.14841343069817367,0.46490295783149843 l -7.09504494552538 2.198063060592417" fill="#ff5307" stroke="none" /><path d="M 120.16314734710363 94.1308016681162 l 11.417903171652872 -3.323585206964333 a32.89179260940893,32.89179260940893 0 0,0 0.15315281331991062,0.5434853049566826 l -11.473274477047365 3.1270919781046373" fill="#ff910d" stroke="none" /><path d="M 120.35273937422433 94.82641323984039 l 8.652946905722485 -2.199545266348995 a29.92812911712026,29.92812911712026 0 0,0 0.12229556125142359,0.49900762336840654 l -8.689429993490199 2.0506818183724937" fill="#ff6809" stroke="none" /><path d="M 120.43855184770803 95.1765574152323 l 8.682200850400775 -2.0489757602873255 a29.920701389069414,29.920701389069414 0 0,0 0.11368318978210394,0.5009091101361758 l -8.716094901740547 1.8996323162121238" fill="#ff6809" stroke="none" /><path d="M 120.592083275326 95.88100663000786 l 7.298014255175833 -1.4598072438448537 a28.4425835069505,28.4425835069505 0 0,0 0.09165786109474822,0.4795926601731869 l -7.321998408552738 1.3343120186383524" fill="#ff5407" stroke="none" /><path d="M 120.7213421655516 96.59031103205396 l 13.19982869105719 -2.172026787989544 a34.37733821957869,34.37733821957869 0 0,0 0.09081921088954346,0.5831244832168512 l -13.235169394084998 1.9451141228412518" fill="#ffa40f" stroke="none" /><path d="M 120.82617615685814 97.30363454192243 l 7.373612571668851 -0.9546617722690884 a28.435155778899652,28.435155778899652 0 0,0 0.05851943379264341,0.4846248595683781 l -7.388914091721158 0.8279432357772974" fill="#ff5307" stroke="none" /><path d="M 120.86939407059847 97.66154086499901 l 7.396295624280318 -0.8287703518969548 a28.4425835069505,28.4425835069505 0 0,0 0.05020469153538472,0.4856848485801205 l -7.409432708297369 0.7016809810339029" fill="#ff5407" stroke="none" /><path d="M 120.9064616781168 98.02013634271609 l 1.6268215527199827 -0.15406169244257364 a22.634100171186738,22.634100171186738 0 0,0 0.033311335227991755,0.38712820919434293 l -1.6292265106457153 0.12611243587256868" fill="#ff0000" stroke="none" /><path d="M 120.99303781780057 99.45929381324524 l 15.748988163052513 -0.4056380695732094 a36.75421119585031,36.75421119585031 0 0,0 0.010831235715361643,0.6308651798413578 l -15.75363083036654 0.1352259737627852" fill="#ffc312" stroke="none" /><line stroke="#e1ed5e" stroke-width="0.3" x1="184.99686870605535" x2="189.99668451229388" y1="99.2704041080226" y2="99.22748670261217" /><path d="M 185.99683186730306 99.26182062694052 a86.0,86.0 0 0,1 -10.086455211305974,41.156179273409016" fill="none" id="id52" stroke="none" /><text fill="#e1ed5e" style="font-size:6.75px; font-family:Arial;" text-anchor="middle"><textPath startOffset="21.40746469413373" xlink:href="#id52">April</textPath></text><path d="M 120.99922638620191 99.81974689727618 l 7.51658387568644 -0.06452083236583622 a28.516860787458988,28.516860787458988 0 0,0 0.0,0.4895478701793253 l -7.51658387568644 -0.0645208323658353" fill="#ff5507" stroke="none" /><path d="M 120.99303781780057 100.54070618675476 l 7.432690783222805 0.19143974900649563 a28.435155778899652,28.435155778899652 0 0,0 -0.016756854907492003,0.48785754729910336 l -7.428309241318467 -0.31900356086970966" fill="#ff5307" stroke="none" /><path d="M 120.98066250479742 100.90099992219065 l 12.081206238627836 0.5188189781177696 a33.09234126678185,33.09234126678185 0 0,0 -0.029244821670101884,0.56734172758308 l -12.07051982750116 -0.7261324990775802" fill="#ff930d" stroke="none" /><path d="M 120.93736805541906 101.62068470465957 l 7.479630798873504 0.5789707283240622 a28.50200533135729,28.50200533135729 0 0,0 -0.04194732050675865,0.4874914486957305 l -7.468589855669005 -0.7072832243954501" fill="#ff5407" stroke="none" /><path d="M 120.86939407059847 102.33845913500097 l 7.396295624280318 0.8287703518969538 a28.4425835069505,28.4425835069505 0 0,0 -0.058534720026461894,0.4847514515129312 l -7.380978817994192 -0.9556154803332936" fill="#ff5407" stroke="none" /><path d="M 120.82617615685814 102.69636545807757 l 7.565134976127781 0.9794581819384158 a28.62827670822172,28.62827670822172 0 0,0 -0.06728392557740469,0.48683296802805515 l -7.547206533995166 -1.109179458166556" fill="#ff5608" stroke="none" /><path d="M 120.7213421655516 103.40968896794604 l 7.343824735391063 1.2084235655555353 a28.4425835069505,28.4425835069505 0 0,0 -0.08341150934609107,0.48109542016222817 l -7.321998408552738 -1.3343120186383515" fill="#ff5407" stroke="none" /><path d="M 120.592083275326 104.11899336999214 l 11.689933013530156 2.3383139983742414 a32.92150352161233,32.92150352161233 0 0,0 -0.11560509679940188,0.55321223770126 l -11.648070205906391 -2.5386426873609103" fill="#ff910d" stroke="none" /><path d="M 120.43855184770803 104.8234425847677 l 7.243601375604973 1.7094702013388012 a28.4425835069505,28.4425835069505 0 0,0 -0.11622516395229668,0.4742383308598309 l -7.21318868513638 -1.8335643568067317" fill="#ff5407" stroke="none" /><path d="M 120.35273937422433 105.17358676015961 l 7.21318868513638 1.8335643568067317 a28.4425835069505,28.4425835069505 0 0,0 -0.12434896947752098,0.47217329126321467 l -7.180650234854129 -1.9571181524427497" fill="#ff5407" stroke="none" /><path d="M 120.16314734710363 105.8691983318838 l 7.145995613988868 2.0800951763761772 a28.4425835069505,28.4425835069505 0 0,0 -0.1404842585688083,0.4676264067466997 l -7.10923503541643 -2.2024591867136007" fill="#ff5407" stroke="none" /><path d="M 119.94978838288452 106.5578916946017 l 11.381758346867569 3.741410039061984 a32.98092534601912,32.98092534601912 0 0,0 -0.18141798511898577,0.536330037140869 l -11.31585494017622 -3.9362417506770138" fill="#ff920d" stroke="none" /><path d="M 119.71291397450082 107.23885506374661 l 8.380925773287036 3.0775920318690253 a29.92812911712026,29.92812911712026 0 0,0 -0.1812352245017768,0.480747965030926 l -8.326859864970817 -3.22100827709411" fill="#ff6809" stroke="none" /><path d="M 119.58574465831526 107.57618678355244 l 6.934431551444085 2.6823870926549125 a28.435155778899652,28.435155778899652 0 0,0 -0.18000987079959924,0.4537424655658627 l -6.887363005678361 -2.801030575434339" fill="#ff5307" stroke="none" /><path d="M 119.31412917781788 108.2440532568976 l 6.845096155711369 2.9217645142956035 a28.4425835069505,28.4425835069505 0 0,0 -0.19553073172889154,0.44741257932922496 l -6.793931541965511 -3.038839163400673" fill="#ff5407" stroke="none" /><path d="M 119.0197475246899 108.90220220490707 l 10.8646058198981 5.085184109820091 a32.99578080212082,32.99578080212082 0 0,0 -0.2445156139341968,0.5109435905452362 l -10.775710948003992 -5.27094020243043" fill="#ff920d" stroke="none" /><path d="M 118.70294669586154 109.54985784667822 l 7.356166038509306 3.7561107940210543 a29.25963359254387,29.25963359254387 0 0,0 -0.2322545154584086,0.4453786572972543 l -7.290603454075948 -3.8818356944228114" fill="#ff5f08" stroke="none" /><path d="M 118.5362547648365 109.86951160357373 l 7.2250404733738245 3.8469271000485046 a29.18535631203538,29.18535631203538 0 0,0 -0.23925689582143864,0.4402057402456516 l -7.157938227937047 -3.9703876737687596" fill="#ff5e08" stroke="none" /><line stroke="#e1ed5e" stroke-width="0.3" x1="174.33088141563837" x2="178.70328620479359" y1="141.23008692659167" y2="143.65538615756765" /><path d="M 175.20536237346943 141.71514677278685 a86.0,86.0 0 0,1 -30.301960400862466,31.631185727798858" fill="none" id="id53" stroke="none" /><text fill="#e1ed5e" style="font-size:6.75px; font-family:Arial;" text-anchor="middle"><textPath startOffset="22.145653131862474" xlink:href="#id53">May</textPath></text><path d="M 118.18653347947321 110.5 l 7.731986623693678 4.464064558560128 a29.92812911712026,29.92812911712026 0 0,0 -0.2606972201024833,0.442720873590153 l -7.654215693461429 -4.596136600443831" fill="#ff6809" stroke="none" /><path d="M 117.81537515405839 111.11811171558189 l 10.28375748598538 6.417825254670038 a33.12205217898524,33.12205217898524 0 0,0 -0.3051681482703708,0.4797750161631813 l -10.172071646089119 -6.593413945511891" fill="#ff940d" stroke="none" /><path d="M 117.423217284605 111.72311816256416 l 6.797364595060305 4.57357025630003 a29.19278404008623,29.19278404008623 0 0,0 -0.28332328563349957,0.4133771409582492 l -6.717851572611485 -4.689582132328323" fill="#ff5e08" stroke="none" /><path d="M 117.21940702142032 112.02048342749411 l 6.711761045347104 4.685330471283601 a29.18535631203538,29.18535631203538 0 0,0 -0.29030382274321437,0.4083486824320723 l -6.630342124073929 -4.799856380425178" fill="#ff5e08" stroke="none" /><path d="M 116.79662413953412 112.60449989151573 l 5.95287037111158 4.467144905045444 a28.4425835069505,28.4425835069505 0 0,0 -0.29640967425862813,0.38800977848291734 l -5.875308719498647 -4.568675596769238" fill="#ff5407" stroke="none" /><path d="M 116.1254893667686 113.45245675266167 l 9.70183572596011 8.093616420340618 a33.634565414493814,33.634565414493814 0 0,0 -0.37367271263223756,0.44018551589410454 l -9.561468449820758 -8.25896871868428" fill="#ff9a0e" stroke="none" /><path d="M 115.89218393027572 113.72728997021213 l 6.256269479512348 5.404016569015639 a29.267061320594717,29.267061320594717 0 0,0 -0.3316779421308177,0.3773886128648119 l -6.162580473422945 -5.510617459691744" fill="#ff5f08" stroke="none" /><path d="M 115.6541949942343 113.99807769240083 l 5.603352595780791 5.010552443133913 a28.516860787458988,28.516860787458988 0 0,0 -0.32944076151474244,0.3621131064318179 l -5.5165141334241685 -5.106003125123403" fill="#ff5507" stroke="none" /><path d="M 115.16444852881244 114.52719865689866 l 5.417322557630673 5.189672465416199 a28.50200533135729,28.50200533135729 0 0,0 -0.34149908262093126,0.3504081431962297 l -5.3274366738589345 -5.281903300680166" fill="#ff5407" stroke="none" /><path d="M 114.65682725009322 115.03919595460226 l 8.356832674569691 8.574846520885153 a32.97349761796827,32.97349761796827 0 0,0 -0.4087575555815111,0.39158049177710164 l -8.20840263312287 -8.717039142967835" fill="#ff920d" stroke="none" /><path d="M 114.13192950727249 115.5334660781643 l 5.008479308200635 5.5051961161486025 a28.4425835069505,28.4425835069505 0 0,0 -0.36397699599115124,0.32547047420882175 l -4.913237285386106 -5.590362120240812" fill="#ff5407" stroke="none" /><path d="M 113.86319453409587 115.77377054828091 l 4.908333854961571 5.584782916527998 a28.435155778899652,28.435155778899652 0 0,0 -0.3694139996487451,0.3190910144560712 l -4.81174037554997 -5.668218063448787" fill="#ff5307" stroke="none" /><path d="M 113.31354834802062 116.24036423190432 l 4.718437873998397 5.755726999011425 a28.4425835069505,28.4425835069505 0 0,0 -0.3802492099372739,0.3063018470962121 l -4.61893789370587 -5.835877139901041" fill="#ff5407" stroke="none" /><path d="M 112.7482090630111 116.68781488649013 l 7.241548069952025 9.479418880383166 a32.92893124966318,32.92893124966318 0 0,0 -0.45214090020015435,0.33929496071230936 l -7.077754180841104 -9.60233286835949" fill="#ff910d" stroke="none" /><path d="M 112.16784306229584 117.11559508785304 l 4.316693691420819 6.071970271344715 a28.450011235001348,28.450011235001348 0 0,0 -0.4004744274870534,0.2795622527973834 l -4.211824172760008 -6.14517733994722" fill="#ff5407" stroke="none" /><path d="M 111.8722381534696 117.32195027204791 l 4.211824172760008 6.14517733994722 a28.450011235001348,28.450011235001348 0 0,0 -0.4052144744795648,0.27264638257726603 l -4.10571341018344 -6.216573396581607" fill="#ff5407" stroke="none" /><path d="M 111.27062007382361 117.71928675628689 l 3.998392675019887 6.286137400502285 a28.450011235001348,28.450011235001348 0 0,0 -0.4143349510475732,0.25857565353416895 l -3.8898935951825986 -6.353848850878002" fill="#ff5407" stroke="none" /><line stroke="#e1ed5e" stroke-width="0.3" x1="143.1302829299769" x2="145.66735839644613" y1="173.24464959558577" y2="177.55315839532614" /><path d="M 143.63769802327073 174.10635135553383 a86.0,86.0 0 0,1 -40.68552437913181,11.842963189579606" fill="none" id="id54" stroke="none" /><text fill="#e1ed5e" style="font-size:6.75px; font-family:Arial;" text-anchor="middle"><textPath startOffset="21.407464694133747" xlink:href="#id54">June</textPath></text><path d="M 110.65571695917076 118.09573695890943 l 6.045381880299948 10.266380079466602 a32.91407579356148,32.91407579356148 0 0,0 -0.48933439886493446,0.28251734690841473 l -5.868255013574616 -10.368644323651187" fill="#ff910d" stroke="none" /><path d="M 110.02825361518725 118.45085714620011 l 4.259955045473396 7.837837474934698 a29.920701389069414,29.920701389069414 0 0,0 -0.4533858010244136,0.24140240198870125 l -4.124780428662429 -7.909810344645968" fill="#ff6809" stroke="none" /><path d="M 109.71004243097381 118.62028667847754 l 3.441323888026438 6.5991923108536685 a28.4425835069505,28.4425835069505 0 0,0 -0.43486377658190656,0.2220445428498033 l -3.327532889730949 -6.657294805376308" fill="#ff5407" stroke="none" /><path d="M 109.06512990194946 118.94263497670748 l 5.149395779505763 10.760256682124222 a32.92893124966318,32.92893124966318 0 0,0 -0.5119841758649655,0.23963444590134983 l -4.963922889769292 -10.847067359596105" fill="#ff910d" stroke="none" /><path d="M 108.07796709384702 119.3841803445677 l 2.862902126778796 6.869922901344456 a28.4425835069505,28.4425835069505 0 0,0 -0.4522987559221173,0.1839459664786452 l -2.744548909666238 -6.9180561244023915" fill="#ff5407" stroke="none" /><path d="M 107.06938296918513 119.77432235084164 l 2.5104519999589887 7.022181046053352 a28.457438963052198,28.457438963052198 0 0,0 -0.4614092242523987,0.16050207980321754 l -2.389537003661568 -7.06424155842516" fill="#ff5407" stroke="none" /><path d="M 106.38641147887787 120.00534299687104 l 2.2656589175705606 7.097144289844987 a28.450011235001348,28.450011235001348 0 0,0 -0.4665251363657258,0.1445306797852023 l -2.1434931483332105 -7.134991557436834" fill="#ff5407" stroke="none" /><path d="M 105.69591212413111 120.21278271476187 l 3.277838359254005 11.631891975478746 a33.084913538731,33.084913538731 0 0,0 -0.5479784893922931,0.1493539740359754 l -3.0776784689270165 -11.686446443658864" fill="#ff930d" stroke="none" /><path d="M 104.64783097203109 120.47920084513623 l 1.957937331594853 8.627033146689259 a29.846424108560925,29.846424108560925 0 0,0 -0.5006205857409458,0.10910792660651643 l -1.8095543292347713 -8.659372531429494" fill="#ff6709" stroke="none" /><path d="M 103.94208987418118 120.62667999033965 l 1.397111099071304 7.310275633297513 a28.4425835069505,28.4425835069505 0 0,0 -0.4803617360947098,0.0875379100078043 l -1.271414629425537 -7.33318171723668" fill="#ff5407" stroke="none" /><path d="M 103.58742460773223 120.69131181640829 l 1.271414629425537 7.33318171723668 a28.4425835069505,28.4425835069505 0 0,0 -0.4817936583197112,0.07927896313251677 l -1.1453434680527534 -7.353926678864868" fill="#ff5407" stroke="none" /><path d="M 103.2317021107853 120.74984581791261 l 2.1386603081104814 13.731733349457258 a34.89727918313811,34.89727918313811 0 0,0 -0.5927134936773762,0.08710847236044539 l -1.9026217088254196 -13.766422895116586" fill="#ffab0f" stroke="none" /><path d="M 102.15924093988457 120.88869738790638 l 0.917999138393405 8.880808922270514 a29.92812911712026,29.92812911712026 0 0,0 -0.5114866003430524,0.04843831284310067 l -0.7654129746653373 -8.895258990618798" fill="#ff6809" stroke="none" /><path d="M 101.44090949804482 120.95050786540614 l 0.5106709173884129 7.425043061967066 a28.4425835069505,28.4425835069505 0 0,0 -0.48739163404381586,0.029320270403881965 l -0.3831349312121319 -7.432715310195639" fill="#ff5407" stroke="none" /><path d="M 101.08105385017728 120.97215588758144 l 0.4209895801043486 8.167085385753893 a29.17792858398453,29.17792858398453 0 0,0 -0.5004351540466639,0.021490838754703465 l -0.2807286654568551 -8.173108792934427" fill="#ff5e08" stroke="none" /><path d="M 100.72087961077811 120.9876233191556 l 0.40821670608212984 11.884783994085392 a32.89179260940893,32.89179260940893 0 0,0 -0.5644649587036803,0.01453861504115387 l -0.20413843330770573 -11.89004032647659" fill="#ff910d" stroke="none" /><line stroke="#e1ed5e" stroke-width="0.3" x1="101.45913802915013" x2="101.54496967792366" y1="184.9874750549273" y2="189.98673829345242" /><path d="M 101.47630435890484 185.9873277026323 a86.0,86.0 0 0,1 -42.54439059252881,-10.42667462771756" fill="none" id="id55" stroke="none" /><text fill="#e1ed5e" style="font-size:6.75px; font-family:Arial;" text-anchor="middle"><textPath startOffset="22.145653131862474" xlink:href="#id55">July</textPath></text><path d="M 99.63950707515114 120.99690560180557 l -0.12763433587820772 7.434060191632149 a28.435155778899652,28.435155778899652 0 0,0 -0.4879834073828467,-0.012568721577865653 l 0.2552310573317983 -7.430773752704236" fill="#ff5307" stroke="none" /><path d="M 98.91894614982273 120.97215588758144 l -0.38275256102129646 7.425297430644548 a28.435155778899652,28.435155778899652 0 0,0 -0.48726435262051176,-0.029312613469522113 l 0.5101612657742546 -7.417632839350334" fill="#ff5307" stroke="none" /><path d="M 98.55909050195518 120.95050786540614 l -0.5101612657742546 7.417632839350334 a28.435155778899652,28.435155778899652 0 0,0 -0.48668936311107885,-0.03767283474345204 l 0.6374196236605695 -7.407782237611829" fill="#ff5307" stroke="none" /><path d="M 98.19965949673042 120.92268563240118 l -1.0341353334912737 12.018220133747866 a33.06263035457846,33.06263035457846 0 0,0 -0.5650567842808598,-0.05351146495872131 l 1.240291681157149 -11.99869691328396" fill="#ff930d" stroke="none" /><path d="M 97.12497278360702 120.80226474461374 l -1.017917867736096 7.365146615719778 a28.435155778899652,28.435155778899652 0 0,0 -0.48295743735562197,-0.07097811173852386 l 1.1442004106994028 -7.346587430682372" fill="#ff5307" stroke="none" /><path d="M 96.41257539226777 120.69131181640829 l -1.271414629425535 7.33318171723668 a28.4425835069505,28.4425835069505 0 0,0 -0.4803617360947098,-0.08753791000780115 l 1.397111099071302 -7.310275633297513" fill="#ff5407" stroke="none" /><path d="M 96.05791012581884 120.62667999033965 l -1.397111099071302 7.310275633297513 a28.4425835069505,28.4425835069505 0 0,0 -0.478788249061248,-0.09577105905921024 l 1.5223958336635082 -7.2852151775754415" fill="#ff5407" stroke="none" /><path d="M 95.70440661134978 120.55596938700252 l -2.889817241145702 13.828821624499493 a35.12753875271442,35.12753875271442 0 0,0 -0.5892018743035125,-0.12841380616177017 l 3.1267815320683505 -13.777176360204004" fill="#ffae10" stroke="none" /><path d="M 94.6519064749342 120.30758222061772 l -1.893519451380422 7.1900017763383675 a28.435155778899652,28.435155778899652 0 0,0 -0.4709655260581231,-0.12836374841780782 l 2.01666637837324 -7.1564375337764154" fill="#ff5307" stroke="none" /><path d="M 93.95794788825049 120.11202640906438 l -2.139218984527962 7.120764256225595 a28.435155778899652,28.435155778899652 0 0,0 -0.4662815356294473,-0.14445521165440464 l 2.2611411530290426 -7.082992456764541" fill="#ff5307" stroke="none" /><path d="M 93.61358852112213 120.00534299687104 l -2.2611411530290426 7.082992456764541 a28.435155778899652,28.435155778899652 0 0,0 -0.4637330621770237,-0.15243826844659547 l 2.38239695285381 -7.043133266915924" fill="#ff5307" stroke="none" /><path d="M 93.27111125876986 119.89276391827306 l -3.8818076224820826 11.475874483856018 a33.1146244509344,33.1146244509344 0 0,0 -0.5369208803066644,-0.18676895356529286 l 4.078234274833768 -11.407547097722134" fill="#ff940d" stroke="none" /><path d="M 92.25597844496254 119.51999308798841 l -2.744548909666236 6.918056124402392 a28.4425835069505,28.4425835069505 0 0,0 -0.4522987559221173,-0.1839459664786452 l 2.862902126778794 -6.869922901344456" fill="#ff5407" stroke="none" /><path d="M 91.59046798132341 119.24265499422711 l -5.654453608056029 12.938496425132556 a35.12011102466357,35.12011102466357 0 0,0 -0.5503598965923252,-0.2461689814504728 l 5.8757269075039895 -12.839523692772227" fill="#ffae10" stroke="none" /><path d="M 91.26138138417905 119.09545874513695 l -3.115587965683336 6.8081219791238325 a28.487149875255593,28.487149875255593 0 0,0 -0.4429226639954919,-0.20731017122627446 l 3.231999343550318 -6.7536355763270315" fill="#ff5407" stroke="none" /><path d="M 90.93487009805054 118.94263497670748 l -3.4051421655262284 7.1154374822016955 a28.88824719000143,28.88824719000143 0 0,0 -0.44548394139360886,-0.21790851922060073 l 3.5267863561819066 -7.055935212883873" fill="#ff5a08" stroke="none" /><path d="M 89.97174638481275 118.45085714620012 l -3.550553705677658 6.532618911248654 a28.435155778899652,28.435155778899652 0 0,0 -0.42687371999927143,-0.23677965667906883 l 3.662171613833032 -6.470706339136436" fill="#ff5307" stroke="none" /><line stroke="#e1ed5e" stroke-width="0.3" x1="58.13341422392154" x2="55.67067388415222" y1="173.97424548756322" y2="178.32567169271397" /><path d="M 57.64086615596768 174.84453072859336 a86.0,86.0 0 0,1 -31.369924170532247,-30.572349798747897" fill="none" id="id56" stroke="none" /><text fill="#e1ed5e" style="font-size:6.75px; font-family:Arial;" text-anchor="middle"><textPath startOffset="22.145653131862474" xlink:href="#id56">August</textPath></text><path d="M 89.34428304082925 118.09573695890944 l -3.772710263204639 6.406886820165881 a28.435155778899652,28.435155778899652 0 0,0 -0.41849405778307897,-0.25129365738780657 l 3.882137077545145 -6.341179162242156" fill="#ff5307" stroke="none" /><path d="M 89.03521579738668 117.91015095944536 l -6.216848886418449 10.154755441632542 a32.90664806551063,32.90664806551063 0 0,0 -0.4792396847488459,-0.29908100769711016 l 6.390252699957007 -10.046538637093883" fill="#ff910d" stroke="none" /><path d="M 88.72937992617639 117.7192867562869 l -3.9944062416449904 6.279870065107966 a28.4425835069505,28.4425835069505 0 0,0 -0.4097281031705874,-0.26558080628067093 l 4.101619977072588 -6.210375417123401" fill="#ff5407" stroke="none" /><path d="M 87.83215693770417 117.11559508785305 l -4.742768143515194 6.671297346980937 a29.18535631203538,29.18535631203538 0 0,0 -0.4058418220055581,-0.29379818150316744 l 4.856590975894706 -6.588898394104705" fill="#ff5e08" stroke="none" /><path d="M 87.2517909369889 116.68781488649013 l -4.522585749789465 5.920209923427342 a28.450011235001348,28.450011235001348 0 0,0 -0.38555191773797187,-0.2998075032229723 l 4.623547612162665 -5.841701368583577" fill="#ff5407" stroke="none" /><path d="M 86.96720088162412 116.46651593811092 l -8.551027737349695 10.803944206104225 a34.77843553432453,34.77843553432453 0 0,0 -0.4649532849767047,-0.3745334540611129 l 8.735231792681663 -10.655562458249701" fill="#ffaa0f" stroke="none" /><path d="M 86.68645165197938 116.24036423190432 l -4.723146893832726 5.761471237533395 a28.450011235001348,28.450011235001348 0 0,0 -0.37503301443956577,-0.3128658791568556 l 4.821354242434184 -5.679543174464669" fill="#ff5407" stroke="none" /><path d="M 85.86807049272751 115.53346607816431 l -5.003480825857123 5.499701908447859 a28.435155778899652,28.435155778899652 0 0,0 -0.3582426508164975,-0.33158404934351926 l 5.097153247987587 -5.413000112971963" fill="#ff5307" stroke="none" /><path d="M 85.34317274990678 115.03919595460226 l -5.18932351566021 5.324703081517395 a28.435155778899652,28.435155778899652 0 0,0 -0.346649030083881,-0.34368623566413264 l 5.2799644658740545 -5.234836835624603" fill="#ff5307" stroke="none" /><path d="M 85.08716467003676 114.78537596483092 l -5.28523915565015 5.2400664428529975 a28.4425835069505,28.4425835069505 0 0,0 -0.34078711522471633,-0.34967760192681213 l 5.374413072025676 -5.148566148858448" fill="#ff5407" stroke="none" /><path d="M 84.83555147118756 114.52719865689866 l -8.592624492400333 8.231539890689856 a32.89922033745978,32.89922033745978 0 0,0 -0.3871833514775623,-0.41117530184448725 l 8.732663677614148 -8.082823128900877" fill="#ff910d" stroke="none" /><path d="M 84.1078160697243 113.72728997021213 l -5.626707770882174 4.860216159554948 a28.435155778899652,28.435155778899652 0 0,0 -0.3159084014637831,-0.37213930258395905 l 5.7093107358530695 -4.762910074521435" fill="#ff5307" stroke="none" /><path d="M 83.64595745247003 113.17365903436017 l -5.796015587438727 4.668859878824689 a28.4425835069505,28.4425835069505 0 0,0 -0.3030267014183564,-0.382864338140769 l 5.875308719498645 -4.568675596769239" fill="#ff5407" stroke="none" /><path d="M 83.4222238831116 112.89097897827486 l -9.387594071773783 7.29984993056642 a32.89179260940893,32.89179260940893 0 0,0 -0.3427763701829407,-0.4487052718387696 l 9.511522419311019 -7.13762374548678" fill="#ff910d" stroke="none" /><path d="M 83.20337586046588 112.60449989151573 l -5.976634324688876 4.484977818838041 a28.472294419153897,28.472294419153897 0 0,0 -0.2900079178129331,-0.39345143814654043 l 6.052744262085639 -4.381720071422621" fill="#ff5407" stroke="none" /><path d="M 82.576782715395 111.72311816256416 l -6.174940457162666 4.154775518415803 a28.4425835069505,28.4425835069505 0 0,0 -0.2690879160374988,-0.4074334014720126 l 6.245352812120892 -4.0481622386047285" fill="#ff5407" stroke="none" /><path d="M 82.18462484594161 111.11811171558189 l -6.307623310950593 3.936423455836221 a28.435155778899652,28.435155778899652 0 0,0 -0.25487653587094977,-0.4163216666299026 l 6.3742678112769475 -3.8275646730817616" fill="#ff5307" stroke="none" /><path d="M 81.99639281039703 110.81064883170644 l -10.284158356855416 6.175341605421624 a32.99578080212082,32.99578080212082 0 0,0 -0.28741884588111055,-0.4881000360676502 l 10.388650912866296 -5.997890401060415" fill="#ff920d" stroke="none" /><line stroke="#e1ed5e" stroke-width="0.3" x1="26.387840678322732" x2="22.057713659400548" y1="142.50000000000003" y2="145.00000000000006" /><path d="M 25.521815274538298 143.00000000000003 a86.0,86.0 0 0,1 -11.493303480769221,-40.785679425670985" fill="none" id="id57" stroke="none" /><text fill="#e1ed5e" style="font-size:6.75px; font-family:Arial;" text-anchor="middle"><textPath startOffset="21.40746469413373" xlink:href="#id57">September</textPath></text><path d="M 81.81346652052679 110.50000000000001 l -6.644877023523766 3.8364215382634104 a28.672843076526814,28.672843076526814 0 0,0 -0.2424447743032827,-0.4283766855843125 l 6.7097551628484275 -3.7217880825799763" fill="#ff5708" stroke="none" /><path d="M 81.4637452351635 109.86951160357371 l -6.7595433103887625 3.5990760799909327 a28.657987620425118,28.657987620425118 0 0,0 -0.2274788236066982,-0.43622063847302556 l 6.82033020297041 -3.4825091984134042" fill="#ff5708" stroke="none" /><path d="M 81.29705330413844 109.54985784667822 l -6.628487743333023 3.384553071590911 a28.4425835069505,28.4425835069505 0 0,0 -0.218303718006319,-0.4367536718758946 l 6.685611374551079 -3.2702675435512636" fill="#ff5407" stroke="none" /><path d="M 80.9802524753101 108.90220220490708 l -6.7407647254104575 3.15501825265618 a28.4425835069505,28.4425835069505 0 0,0 -0.2031823516999969,-0.44399010704081654 l 6.79393154196551 -3.0388391634006746" fill="#ff5407" stroke="none" /><path d="M 80.83023694016515 108.57439118712176 l -6.787151171165148 3.0358063897845073 a28.435155778899652,28.435155778899652 0 0,0 -0.19547966924012009,-0.44729573836204795 l 6.838264722422236 -2.91884858164661" fill="#ff5307" stroke="none" /><path d="M 80.68587082218212 108.24405325689762 l -10.957618995769497 4.67715596899217 a32.91407579356148,32.91407579356148 0 0,0 -0.21734912683496396,-0.5215587812325201 l 11.036293967140947 -4.488364678318368" fill="#ff910d" stroke="none" /><path d="M 80.28708602549918 107.23885506374661 l -6.979456488402931 2.562953098087267 a28.435155778899652,28.435155778899652 0 0,0 -0.1643278890524403,-0.4596543522285459 l 7.022424547499315 -2.4427637894777994" fill="#ff5307" stroke="none" /><path d="M 80.05021161711548 106.5578916946017 l -14.103439840773776 4.636080805572539 a35.845883624025994,35.845883624025994 0 0,0 -0.18714160187312076,-0.5862184024373889 l 14.180946158424153 -4.393293369443759" fill="#ffb811" stroke="none" /><path d="M 79.94057633289273 106.21446072829308 l -14.253145599872209 4.415660940961747 a35.92146846113651,35.92146846113651 0 0,0 -0.177424138079173,-0.5905872515920114 l 14.326846057955011 -4.170336085779012" fill="#ffb911" stroke="none" /><path d="M 79.83685265289637 105.86919833188381 l -22.782455953175248 6.631640892898603 a44.728020570429706,44.728020570429706 0 0,0 -0.2082653951379068,-0.7390604151163295 l 22.89293984038773 -6.239572553879278" fill="#d8ff1c" stroke="none" /><path d="M 79.64726062577567 105.17358676015961 l -30.23785713491975 7.686345039476071 a52.19948563963348,52.19948563963348 0 0,0 -0.21330318939591258,-0.8703498026271815 l 30.36534785083196 -7.166139412240789" fill="#83ff25" stroke="none" /><path d="M 79.56144815229197 104.8234425847677 l -14.441152575799352 3.408072686668826 a35.83785183761903,35.83785183761903 0 0,0 -0.13616530103560115,-0.5999694405470012 l 14.49752873839262 -3.1596689121827986" fill="#ffb711" stroke="none" /><path d="M 79.407916724674 104.11899336999214 l -14.435418271555934 2.8874879417784873 a35.72137518334096,35.72137518334096 0 0,0 -0.11511418587794428,-0.602326063138269 l 14.482858749716035 -2.6392593136069036" fill="#ffb610" stroke="none" /><path d="M 79.34024301695615 103.76489593502545 l -23.282519570203927 4.242850647224641 a44.665956544191985,44.665956544191985 0 0,0 -0.13098862312657114,-0.7555075693220495 l 23.351923010822734 -3.8425500449819983" fill="#d9ff1c" stroke="none" /><path d="M 79.2786578344484 103.40968896794605 l -14.690981956266414 2.4173954903293575 a35.88854431420379,35.88854431420379 0 0,0 -0.09481156608960425,-0.6087582675236313 l 14.730315014494286 -2.164849040874276" fill="#ffb811" stroke="none" /><path d="M 79.17382384314188 102.69636545807758 l -16.177580489442988 2.094511680803174 a37.31260523869279,37.31260523869279 0 0,0 -0.07678918831586352,-0.635924635494726 l 16.211151764018513 -1.8164933683850486" fill="#ffca12" stroke="none" /><path d="M 79.13060592940153 102.33845913500099 l -14.667634667203671 1.6435390582183733 a35.75942842275555,35.75942842275555 0 0,0 -0.06311983132641227,-0.6106271103879689 l 14.693686891011751 -1.391507425547473" fill="#ffb610" stroke="none" /><path d="M 79.03789590574601 101.26102812881392 l -44.31479322564877 2.6658679171159 a65.39490680678938,65.39490680678938 0 0,0 -0.05779169180807465,-1.1211433819021048 l 44.35402650691342 -1.9047527418370642" fill="#36ff6b" stroke="none" /><line stroke="#e1ed5e" stroke-width="0.3" x1="15.003131293944662" x2="10.003315487706104" y1="100.72959589197737" y2="100.7725132973878" /><path d="M 14.003168132696942 100.73817937305945 a86.0,86.0 0 0,1 10.791469493833604,-42.45332614584628" fill="none" id="id58" stroke="none" /><text fill="#e1ed5e" style="font-size:6.75px; font-family:Arial;" text-anchor="middle"><textPath startOffset="22.145653131862435" xlink:href="#id58">October</textPath></text><path d="M 79.00077361379809 100.18025310272382 l -14.7846527205231 0.1269084620812303 a35.785197388747264,35.785197388747264 0 0,0 0.0,-0.6143231296100903 l 14.7846527205231 0.1269084620812249" fill="#ffb711" stroke="none" /><path d="M 79.00696218219943 99.45929381324524 l -16.28014124294567 -0.41931868878157125 a37.28554042864474,37.28554042864474 0 0,0 0.021972392061717375,-0.6397022208943449 l 16.270544163887106 0.6987271742400547" fill="#ffca12" stroke="none" /><path d="M 79.01933749520258 99.09900007780938 l -14.760876974568543 -0.6338955694325928 a35.774481806523504,35.774481806523504 0 0,0 0.03161512001637706,-0.613324882270481 l 14.747820265095594 0.8871922450797858" fill="#ffb710" stroke="none" /><path d="M 79.06263194458094 98.37931529534042 l -27.985940986839626 -2.16628882784231 a49.06965799942181,49.06965799942181 0 0,0 0.07221739829632559,-0.8392756364698037 l 27.944629965845557 2.6463855116877943" fill="#a6ff21" stroke="none" /><path d="M 79.13060592940154 97.66154086499901 l -16.329509861804183 -1.829755640113309 a37.43170405129324,37.43170405129324 0 0,0 0.07703429318297214,-0.6379544554042131 l 16.295693482361543 2.109803772440958" fill="#ffcc13" stroke="none" /><path d="M 79.2786578344484 96.59031103205396 l -16.23705583645241 -2.6718013589638456 a37.455409588880926,37.455409588880926 0 0,0 0.10984277311592136,-0.6335439257515878 l 16.188798245844254 2.9501383176360263" fill="#ffcc13" stroke="none" /><path d="M 79.34024301695615 96.23510406497455 l -16.31446883146539 -2.9730396846436635 a37.58314982804298,37.58314982804298 0 0,0 0.1211138617418475,-0.6337189024799355 l 16.261028677441384 3.2526611521569135" fill="#ffce13" stroke="none" /><path d="M 79.407916724674 95.88100663000787 l -27.519038087115348 -5.5045783330338915 a49.06417360024363,49.06417360024363 0 0,0 0.17229068941869682,-0.8244733188001294 l 27.420489686872287 5.97616810311943" fill="#a6ff21" stroke="none" /><path d="M 79.64726062577567 94.8264132398404 l -14.333274494258477 -3.643462326606589 a35.78910326737771,35.78910326737771 0 0,0 0.15646743583386852,-0.5941323395249307 l 14.268617577619883 3.8889751705043043" fill="#ffb711" stroke="none" /><path d="M 79.83685265289637 94.1308016681162 l -14.261807460201283 -4.151404297855576 a35.853730496952835,35.853730496952835 0 0,0 0.17708956517819235,-0.5894735672185856 l 14.18844157501946 4.395615468664885" fill="#ffb811" stroke="none" /><path d="M 79.94057633289273 93.78553927170692 l -26.690017420938393 -8.268635622460964 a48.94149897530598,48.94149897530598 0 0,0 0.25551024525927374,-0.8003822040800522 l 26.544142459901863 8.725586860232408" fill="#a7ff21" stroke="none" /><path d="M 80.05021161711548 93.44210830539832 l -14.04354709015592 -4.616392868823256 a35.78283795462661,35.78283795462661 0 0,0 0.1968304495844319,-0.5818942497174953 l 13.962231218999122 4.856788793014913" fill="#ffb710" stroke="none" /><path d="M 80.41425534168474 92.42381321644754 l -13.788203642990622 -5.333573373458909 a35.78382780712254,35.78382780712254 0 0,0 0.2265309277839363,-0.5710059189700512 l 13.694614040240554 5.569480309642543" fill="#ffb710" stroke="none" /><path d="M 80.5471966667186 92.08871423366112 l -14.037230992418099 -5.7088196413897165 a36.153695114803526,36.153695114803526 0 0,0 0.23874205413957242,-0.572894018941848 l 13.937163093742049 5.948946169772829" fill="#ffbc11" stroke="none" /><path d="M 80.9802524753101 91.09779779509293 l -15.087896211069125 -7.06189725932119 a37.658781617429355,37.658781617429355 0 0,0 0.2790708352204879,-0.5831507128309115 l 14.964446117888732 7.319860474217188" fill="#ffcf13" stroke="none" /><path d="M 81.29705330413844 90.45014215332179 l -14.848617561437964 -7.581809927459142 a37.67229094221793,37.67229094221793 0 0,0 0.29903175825219935,-0.5734328252638468 l 14.716277734210825 7.835588995827475" fill="#ffcf13" stroke="none" /><line stroke="#e1ed5e" stroke-width="0.3" x1="26.387840678322718" x2="22.05771365940052" y1="57.49999999999999" y2="54.99999999999999" /><path d="M 25.521815274538284 56.99999999999999 a86.0,86.0 0 0,1 29.574782752854787,-30.34633250058573" fill="none" id="id59" stroke="none" /><text fill="#e1ed5e" style="font-size:6.75px; font-family:Arial;" text-anchor="middle"><textPath startOffset="21.40746469413373" xlink:href="#id59">November</textPath></text><path d="M 82.18462484594161 88.88188828441811 l -53.44612546217515 -33.35433514674566 a84.0,84.0 0 0,0 0.7739292334964403,-1.2167453012853122 l 52.865678537052815 34.266894122709644" fill="#4dd2ff" stroke="none" /><path d="M 82.98947788004972 87.6856937992154 l -7.136593369243947 -5.166343240945494 a29.810338665522448,29.810338665522448 0 0,0 0.3036367255275072,-0.4119415332996698 l 7.046854624132621 5.288091083514027" fill="#ff6709" stroke="none" /><path d="M 83.64595745247003 86.82634096563983 l -12.992559771521714 -10.465886456888454 a37.683566427627085,37.683566427627085 0 0,0 0.41012852235555003,-0.5002901113088432 l 12.810984429927535 10.68737884989579" fill="#ffcf13" stroke="none" /><path d="M 83.8745106332314 86.54754324733833 l -12.849908880051204 -10.719851010584996 a37.734257196384874,37.734257196384874 0 0,0 0.41921939742558945,-0.49383939605516314 l 12.663994919118501 10.938857189089717" fill="#ffd013" stroke="none" /><path d="M 84.34580500576568 86.00192230759919 l -12.345252313509917 -11.039200743343963 a37.561075077906864,37.561075077906864 0 0,0 0.43392396060721417,-0.47695844499692774 l 12.153930652060836 11.249496763898549" fill="#ffce13" stroke="none" /><path d="M 84.83555147118756 85.47280134310135 l -10.739040736537397 -10.287758098673384 a35.87161600626608,35.87161600626608 0 0,0 0.4297986691060326,-0.4410112976989472 l 10.560855266280562 10.47059208844006" fill="#ffb811" stroke="none" /><path d="M 85.34317274990677 84.96080404539775 l -19.62451873860385 -20.136485051548224 a49.117605978337465,49.117605978337465 0 0,0 0.6088887745042024,-0.5833016723537168 l 19.275957478234346 20.47039885420751" fill="#a5ff21" stroke="none" /><path d="M 86.13680546590413 84.22622945171909 l -10.872647460029675 -12.371076945148152 a37.46991219080618,37.46991219080618 0 0,0 0.4867886160541011,-0.42047641256169255 l 10.658679364212725 12.555897490174555" fill="#ffcd13" stroke="none" /><path d="M 86.40962598614128 83.9905735841838 l -10.818261205931043 -12.7438844984559 a37.71649986180532,37.71649986180532 0 0,0 0.49718548511078686,-0.41476981469395857 l 10.597901386658348 12.927716497061741" fill="#ffd013" stroke="none" /><path d="M 86.96720088162412 83.53348406188908 l -10.191260846087818 -12.87632515680665 a37.421374704232726,37.421374704232726 0 0,0 0.5071310047096593,-0.3943481366166913 l 9.968719896742915 13.049374345044146" fill="#ffcc13" stroke="none" /><path d="M 88.12776184653039 82.6780497279521 l -4.455825641172298 -6.501182774432973 a28.88160894812173,28.88160894812173 0 0,0 0.41136173533878173,-0.27678253402688574 l 4.343567617736527 6.576714982516968" fill="#ff5a08" stroke="none" /><path d="M 88.72937992617638 82.28071324371311 l -6.417590190638187 -10.089517713081191 a32.957584686614375,32.957584686614375 0 0,0 0.47998150598180933,-0.2995439590113451 l 6.243444555866679 10.198197468934072" fill="#ff910d" stroke="none" /><line stroke="#e1ed5e" stroke-width="0.3" x1="56.869717070023135" x2="54.33264160355391" y1="26.7553504044142" y2="22.446841604673864" /><path d="M 56.362301976729285 25.89364864446614 a86.0,86.0 0 0,1 42.16139366436587,-11.88097634709845" fill="none" id="id60" stroke="none" /><text fill="#e1ed5e" style="font-size:6.75px; font-family:Arial;" text-anchor="middle"><textPath startOffset="22.145653131862474" xlink:href="#id60">December</textPath></text><path d="M 90.93487009805054 81.0573650232925 l -3.3000312909382514 -6.895796180759973 a28.644750583750618,28.644750583750618 0 0,0 0.44537306447285097,-0.2084570823776505 l 3.1811695125938777 6.951429494708167" fill="#ff5608" stroke="none" /><path d="M 96.05791012581881 79.37332000966035 l -3.1259929963322772 -16.356516275718295 a37.65255106255363,37.65255106255363 0 0,0 0.6359072407182719,-0.1158834824435954 l 2.844751022062967 16.40776793209325" fill="#ffcf13" stroke="none" /></svg>