<?xml version="1.0" encoding="utf-8" ?>
<svg baseProfile="full" height="200mm" version="1.1" viewBox="0,0,200,200" width="200mm" xmlns="http://www.w3.org/2000/svg" xmlns:ev="http://www.w3.org/2001/xml-events" xmlns:xlink="http://www.w3.org/1999/xlink"><defs /><rect fill="#1a1a1a" height="200" width="200" x="0" y="0" /><text alignment-baseline="middle" fill="#e1ed5e" style="dominant-baseline: central; font-size:9.0px; font-family:Arial;" text-anchor="middle" x="100.0" y="100.0">2026</text><line stroke="#e1ed5e" stroke-width="0.3" x1="100.0" x2="100.0" y1="15.0" y2="10.0" /><path d="M 100.0 14.0 a86.0,86.0 0 0,1 42.46469731375804,11.215312516191453" fill="none" id="id73" stroke="none" /><text fill="#e1ed5e" style="font-size:6.75px; font-family:Arial;" text-anchor="middle"><textPath startOffset="22.20632615414155" xlink:href="#id73">January</textPath></text><path d="M 100.0 79.0 l 0.0 -62.22350041084634 a83.22350041084634,83.22350041084634 0 0,0 1.4325557531071522,0.012330459640985558 l -1.0710752738346239 62.214281327813914" fill="#49edff" stroke="none" /><path d="M 100.72285384407766 79.0124445844662 l 2.140051273797708 -62.13489084812513 a83.17173377156944,83.17173377156944 0 0,0 1.430392101794102,0.06159569281296732 l -3.209284207981142 62.08884742878797" fill="#49efff" stroke="none" /><path d="M 101.44485096284872 79.0497635885617 l 4.323867877317197 -62.69577732987534 a83.84470008216927,83.84470008216927 0 0,0 1.4389739275993296,0.11169207150883392 l -5.402431994278867 62.61205999617804" fill="#4cd7ff" stroke="none" /><path d="M 103.59715602781102 79.31037775812273 l 10.658459027351332 -61.303843717509814 a83.22350041084634,83.22350041084634 0 0,0 1.4092706088091282,0.2575351959288316 l -11.712124757263362 61.111293040230244" fill="#49edff" stroke="none" /><path d="M 104.307194497241 79.44645832069477 l 12.75170236118269 -60.849967683267636 a83.17173377156944,83.17173377156944 0 0,0 1.398700139342642,0.30570167557757105 l -13.79724522467886 60.62145250959419" fill="#49efff" stroke="none" /><path d="M 105.01212808612495 79.60689891045804 l 14.838699666646017 -60.37497389122406 a83.17173377156944,83.17173377156944 0 0,0 1.3873485263255376,0.35366602996389235 l -15.875757081656579 60.110604865091304" fill="#49efff" stroke="none" /><path d="M 106.0581310904928 79.89281104454417 l 17.93545301482787 -59.52851422063052 a83.17173377156944,83.17173377156944 0 0,0 1.3672428130931291,0.42480899742502126 l -18.95748120063172 59.21096508832297" fill="#49efff" stroke="none" /><path d="M 106.40334571778207 80.00007090966166 l 18.95748120063172 -59.21096508832297 a83.17173377156944,83.17173377156944 0 0,0 1.3597278527457255,0.44828089488125017 l -19.97389187561986 58.87587046918249" fill="#49efff" stroke="none" /><path d="M 108.09893153111575 80.62456947434976 l 23.97736261841417 -57.36210039763173 a83.17173377156944,83.17173377156944 0 0,0 1.3161580011920135,0.5635101686272377 l -24.9612043773965 56.9408707010417" fill="#49efff" stroke="none" /><path d="M 108.43124777332544 80.76684994638697 l 24.98198806130773 -56.98828191727903 a83.22350041084634,83.22350041084634 0 0,0 1.307076123775447,0.5864469563835413 l -25.95924630354996 56.54981463037896" fill="#49edff" stroke="none" /><path d="M 109.08828744355905 81.06846463323043 l 26.906408922878615 -56.04792270046897 a83.17173377156944,83.17173377156944 0 0,0 1.2853151134015766,0.6306985440839029 l -27.867195303290625 55.57646899625024" fill="#49efff" stroke="none" /><line stroke="#e1ed5e" stroke-width="0.3" x1="143.23703022742887" x2="145.7803849466894" y1="26.81831364943548" y2="22.513508569990506" /><path d="M 143.74570117128098 25.957352633546492 a86.0,86.0 0 0,1 28.547481713284135,27.462654790039103" fill="none" id="id74" stroke="none" /><text fill="#e1ed5e" style="font-size:6.75px; font-family:Arial;" text-anchor="middle"><textPath startOffset="19.985693538727396" xlink:href="#id74">February</textPath></text><path d="M 110.68208982089419 81.91981866633111 l 31.624954498505982 -53.52743906755052 a83.17173377156944,83.17173377156944 0 0,0 1.2263392282916905,0.7388556634424632 l -32.54165579301531 52.97513679464944" fill="#49efff" stroke="none" /><path d="M 111.2981086023043 82.29822771554956 l 33.44871429260671 -52.40713684541901 a83.17173377156944,83.17173377156944 0 0,0 1.2001798978798437,0.7806303907568406 l -34.34586121627083 51.82360753050264" fill="#49efff" stroke="none" /><path d="M 112.48926042617603 83.11751280151076 l 37.00597625044434 -50.02321186339542 a83.22350041084634,83.22350041084634 0 0,0 1.144338373396318,0.8618919382196369 l -37.861560777599045 49.378803335669936" fill="#49edff" stroke="none" /><path d="M 112.77801427241765 83.33499621200491 l 37.830061974955456 -49.337722800448915 a83.17173377156944,83.17173377156944 0 0,0 1.1286303074211552,0.880913856979507 l -38.673724837536035 48.67923055424618" fill="#49efff" stroke="none" /><path d="M 113.34407831869373 83.78471172551755 l 39.57171623021008 -48.086257504196524 a83.27526705012326,83.27526705012326 0 0,0 1.0990053628884962,0.9203853857168676 l -40.39357913005769 47.39797096108583" fill="#4aebff" stroke="none" /><path d="M 113.89432698308785 84.25364557470407 l 41.47747734556955 -47.00616731889905 a83.68940016433854,83.68940016433854 0 0,0 1.0719775761375911,0.9624320521519371 l -42.280465909303125 46.28523625797782" fill="#4cddff" stroke="none" /><path d="M 116.82858285166822 87.43820079747576 l 49.86349199927326 -37.220910373296974 a83.22350041084634,83.22350041084634 0 0,0 0.847046359775497,1.1553702828039325 l -50.49680097156238 36.35707764682155" fill="#49edff" stroke="none" /><path d="M 117.45458315368197 88.32363383020206 l 51.675318901163614 -34.56856804419225 a83.17173377156944,83.17173377156944 0 0,0 0.7857881820663943,1.1968093111155393 l -52.262703718587936 33.67394066909904" fill="#49efff" stroke="none" /><path d="M 117.65298651832404 88.62581576622439 l 52.262703718587936 -33.67394066909904 a83.17173377156944,83.17173377156944 0 0,0 0.7650706541450235,1.2101580427424208 l -52.834601968978916 32.76933497864241" fill="#49efff" stroke="none" /><line stroke="#e1ed5e" stroke-width="0.3" x1="172.23445277983987" x2="176.4835382374775" y1="55.19839476539836" y2="52.563006222186495" /><path d="M 173.08426987136738 54.67131705675599 a86.0,86.0 0 0,1 12.851231095245387,41.99856678651699" fill="none" id="id75" stroke="none" /><text fill="#e1ed5e" style="font-size:6.75px; font-family:Arial;" text-anchor="middle"><textPath startOffset="22.20632615414155" xlink:href="#id75">March</textPath></text><path d="M 117.84615892207809 88.93136811851018 l 52.834601968978916 -32.76933497864241 a83.17173377156944,83.17173377156944 0 0,0 0.7441264192772397,1.2231481784238845 l -53.39084418654238 31.855019027011444" fill="#49efff" stroke="none" /><path d="M 118.21658344932153 89.55222093294921 l 53.93126554470459 -30.931263745755146 a83.17173377156944,83.17173377156944 0 0,0 0.701582718956839,1.2480373723207012 l -54.45570590495386 29.99834286349965" fill="#49efff" stroke="none" /><path d="M 118.89224826269711 90.83032412892265 l 56.024752654128086 -27.192572077829194 a83.27526705012326,83.27526705012326 0 0,0 0.614816562464819,1.2949604783227218 l -56.48452741043466 26.224169183865932" fill="#4aebff" stroke="none" /><path d="M 119.04729006885535 91.15688171328212 l 57.00101103596648 -26.46395792952056 a83.84470008216927,83.84470008216927 0 0,0 0.5964859012942457,1.3142776162994387 l -57.44809925422407 25.47885830437906" fill="#4cd7ff" stroke="none" /><path d="M 119.34039704204932 91.81776055985345 l 57.59211083022741 -24.365189590050193 a83.5341002465078,83.5341002465078 0 0,0 0.5488521066424966,1.3290889107933932 l -58.002984623756106 23.370226108803497" fill="#4be2ff" stroke="none" /><path d="M 119.61058180528143 92.48833698450437 l 58.54169572603733 -22.42388803228894 a83.68940016433854,83.68940016433854 0 0,0 0.5037121986582724,1.349698262454999 l -58.91901251319723 21.412866632804608" fill="#4cddff" stroke="none" /><path d="M 119.85752413597 93.16781622104841 l 59.27887032537304 -20.39550013880945 a83.68940016433854,83.68940016433854 0 0,0 0.45695490978382514,1.366237017934903 l -59.621162528928636 19.37209001795223" fill="#4cddff" stroke="none" /><path d="M 120.18372546131832 94.20196356495316 l 60.352158548674886 -17.3369388554934 a83.79293344289235,83.79293344289235 0 0,0 0.38629830906305734,1.3897205510251187 l -60.64164362830431 16.29550700104933" fill="#4cd9ff" stroke="none" /><path d="M 120.37134235888165 94.90015583598534 l 60.81272538193676 -15.224103408270514 a83.68940016433854,83.68940016433854 0 0,0 0.33781505237060455,1.4004614843482994 l -61.065773234568184 14.175056692262809" fill="#4cddff" stroke="none" /><path d="M 120.53481517161879 95.60439243477599 l 61.1994861359584 -13.100138569488509 a83.58586688578472,83.58586688578472 0 0,0 0.28905069070481104,1.4095138221400438 l -61.41591612257821 12.044749091185054" fill="#4be0ff" stroke="none" /><path d="M 120.6074358757038 95.95851677861258 l 61.822307627111385 -12.124449664162288 a84.0,84.0 0 0,0 0.26605710436056285,1.4212876901497489 l -62.02185045538181 11.058483896549978" fill="#4dd2ff" stroke="none" /><path d="M 120.83666639777658 97.38593545837742 l 46.33033629612442 -5.812373582276658 a67.69350862777321,67.69350862777321 0 0,0 0.13509576431135636,1.1574180070267894 l -46.423522413439365 5.0140118369250155" fill="#ff0300" stroke="none" /><path d="M 120.91429891909075 98.10471618934814 l 47.84339210414846 -4.335636917711414 a69.03944124897288,69.03944124897288 0 0,0 0.0970678637947424,1.1844738021788965 l -47.91093445176269 3.511449198324748" fill="#ff4c07" stroke="none" /><path d="M 120.94382443527127 98.46500227214037 l 46.56860223651935 -3.4130680785440983 a67.69350862777321,67.69350862777321 0 0,0 0.07517012447796052,1.1628485545894354 l -46.62045295200172 2.610960459701628" fill="#ff0300" stroke="none" /><line stroke="#e1ed5e" stroke-width="0.3" x1="184.98032266829074" x2="189.97916517819016" y1="98.17113171792111" y2="98.06355123074" /><path d="M 185.9800911702706 98.14961562048488 a86.0,86.0 0 0,1 -9.607161424134198,41.387399972396054" fill="none" id="id76" stroke="none" /><text fill="#e1ed5e" style="font-size:6.75px; font-family:Arial;" text-anchor="middle"><textPath startOffset="21.466115282336823" xlink:href="#id76">April</textPath></text><path d="M 120.99980553446 99.90962569577887 l 46.69307623356511 -0.20094730256563512 a67.69350862777321,67.69350862777321 0 0,0 -0.005014808326441807,1.1652648455274814 l -46.68961712794916 -0.602827021165531" fill="#ff0300" stroke="none" /><path d="M 120.9904718944345 100.63252640178507 l 46.62057972938083 1.404863487284343 a67.6417419884963,67.6417419884963 0 0,0 -0.04508762466991247,1.1635112503739489 l -46.58948997185971 -2.207151984672298" fill="#ff0000" stroke="none" /><line stroke="#e1ed5e" stroke-width="0.3" x1="174.80103733775053" x2="179.2010983576182" y1="140.37084112569926" y2="142.7455964860345" /><path d="M 175.68104954172406 140.8457921977663 a86.0,86.0 0 0,1 -30.038265399797805,32.042727171017184" fill="none" id="id77" stroke="none" /><text fill="#e1ed5e" style="font-size:6.75px; font-family:Arial;" text-anchor="middle"><textPath startOffset="22.206326154141568" xlink:href="#id77">May</textPath></text><line stroke="#e1ed5e" stroke-width="0.3" x1="143.8653032363475" x2="146.44561519142675" y1="172.8068346515853" y2="177.08958963109032" /><path d="M 144.38136562736335 173.6633856474863 a86.0,86.0 0 0,1 -40.68145358897372,12.25698825130547" fill="none" id="id78" stroke="none" /><text fill="#e1ed5e" style="font-size:6.75px; font-family:Arial;" text-anchor="middle"><textPath startOffset="21.466115282336833" xlink:href="#id78">June</textPath></text><line stroke="#e1ed5e" stroke-width="0.3" x1="102.19456741930631" x2="102.32365962044197" y1="184.97166512339345" y2="189.96999836594603" /><path d="M 102.22038585953345 185.97133177190398 a86.0,86.0 0 0,1 -42.740103519485714,-10.115201625700543" fill="none" id="id79" stroke="none" /><text fill="#e1ed5e" style="font-size:6.75px; font-family:Arial;" text-anchor="middle"><textPath startOffset="22.20632615414155" xlink:href="#id79">July</textPath></text><line stroke="#e1ed5e" stroke-width="0.3" x1="58.666819895761336" x2="56.23545636021788" y1="174.27360380694188" y2="178.64263932499728" /><path d="M 58.180547188652646 175.14741091055294 a86.0,86.0 0 0,1 -31.652253787137756,-30.449443065178592" fill="none" id="id80" stroke="none" /><text fill="#e1ed5e" style="font-size:6.75px; font-family:Arial;" text-anchor="middle"><textPath startOffset="22.20632615414155" xlink:href="#id80">August</textPath></text><line stroke="#e1ed5e" stroke-width="0.3" x1="26.63291911575756" x2="22.317208475507996" y1="142.92168965132927" y2="145.44649492493687" /><path d="M 25.769776987707644 143.4266507060508 a86.0,86.0 0 0,1 -11.730757126820373,-40.83630448921669" fill="none" id="id81" stroke="none" /><text fill="#e1ed5e" style="font-size:6.75px; font-family:Arial;" text-anchor="middle"><textPath startOffset="21.46611528233685" xlink:href="#id81">September</textPath></text><line stroke="#e1ed5e" stroke-width="0.3" x1="15.007084014347285" x2="10.007500721073583" y1="101.09737516637583" y2="101.16192664675087" /><path d="M 14.007167355692545 101.11028546245083 a86.0,86.0 0 0,1 10.666146001902534,-42.60595125391555" fill="none" id="id82" stroke="none" /><text fill="#e1ed5e" style="font-size:6.75px; font-family:Arial;" text-anchor="middle"><textPath startOffset="22.20632615414155" xlink:href="#id82">October</textPath></text><line stroke="#e1ed5e" stroke-width="0.3" x1="26.266209847984243" x2="21.928928074336255" y1="57.711370442889674" y2="55.22380399835377" /><path d="M 25.398753493254645 57.213857153982495 a86.0,86.0 0 0,1 29.58750427330803,-30.492523968695096" fill="none" id="id83" stroke="none" /><text fill="#e1ed5e" style="font-size:6.75px; font-family:Arial;" text-anchor="middle"><textPath startOffset="21.46611528233685" xlink:href="#id83">November</textPath></text><line stroke="#e1ed5e" stroke-width="0.3" x1="56.762969772571076" x2="54.21961505331055" y1="26.818313649435495" y2="22.513508569990535" /><path d="M 56.25429882871897 25.957352633546506 a86.0,86.0 0 0,1 42.265352541879196,-11.944610805530505" fill="none" id="id84" stroke="none" /><text fill="#e1ed5e" style="font-size:6.75px; font-family:Arial;" text-anchor="middle"><textPath startOffset="22.20632615414155" xlink:href="#id84">December</textPath></text></svg>