<?xml version="1.0" encoding="utf-8" ?>
<svg baseProfile="full" height="200mm" version="1.1" viewBox="0,0,200,200" width="200mm" xmlns="http://www.w3.org/2000/svg" xmlns:ev="http://www.w3.org/2001/xml-events" xmlns:xlink="http://www.w3.org/1999/xlink"><defs /><rect fill="#1a1a1a" height="200" width="200" x="0" y="0" /><text alignment-baseline="middle" fill="#e1ed5e" style="dominant-baseline: central; font-size:9.0px; font-family:Arial;" text-anchor="middle" x="100.0" y="100.0">2025</text><line stroke="#e1ed5e" stroke-width="0.3" x1="100.0" x2="100.0" y1="15.0" y2="10.0" /><path d="M 100.0 14.0 a86.0,86.0 0 0,1 42.46469731375804,11.215312516191453" fill="none" id="id61" stroke="none" /><text fill="#e1ed5e" style="font-size:6.75px; font-family:Arial;" text-anchor="middle"><textPath startOffset="22.20632615414155" xlink:href="#id61">January</textPath></text><path d="M 103.95276090670814 79.375362276772 l 6.9594916276276315 -36.313097843602286 a57.97398543184183,57.97398543184183 0 0,0 0.9784727530527747,0.1962724292686434 l -7.583530790147531 36.18792145825643" fill="#ffee16" stroke="none" /><path d="M 106.0581310904928 79.89281104454417 l 10.883832807217273 -36.123893581263765 a58.727887617065555,58.727887617065555 0 0,0 0.9654155159624814,0.29995930021147343 l -11.504033695890472 35.93119414616977" fill="#fffe18" stroke="none" /><path d="M 107.08798089147638 80.2323363322302 l 12.734026024072808 -35.513913967122306 a58.727887617065555,58.727887617065555 0 0,0 0.9486446404643089,0.34939382702445615 l -13.343452990309693 35.28945687229153" fill="#fffe18" stroke="none" /><path d="M 108.09893153111575 80.62456947434976 l 14.550265648773506 -34.80924120971398 a58.727887617065555,58.727887617065555 0 0,0 0.9293443298007573,0.3978967415192504 l -15.147293736364578 34.55362494023194" fill="#fffe18" stroke="none" /><path d="M 108.43124777332544 80.76684994638697 l 10.672854231269916 -24.346646243725548 a47.58324661810614,47.58324661810614 0 0,0 0.747324076002691,0.33530252892846324 l -11.090360425739387 24.15932338428055" fill="#ff0000" stroke="none" /><line stroke="#e1ed5e" stroke-width="0.3" x1="143.23703022742887" x2="145.7803849466894" y1="26.81831364943548" y2="22.513508569990506" /><path d="M 143.74570117128098 25.957352633546492 a86.0,86.0 0 0,1 28.547481713284135,27.462654790039103" fill="none" id="id62" stroke="none" /><text fill="#e1ed5e" style="font-size:6.75px; font-family:Arial;" text-anchor="middle"><textPath startOffset="19.985693538727396" xlink:href="#id62">February</textPath></text><path d="M 111.60114157652 82.49532879139004 l 20.824109489591073 -31.420975894747343 a58.69510926118627,58.69510926118627 0 0,0 0.837370437902215,0.5653962576126661 l -21.361884621899833 31.057867724836008" fill="#fffd17" stroke="none" /><path d="M 112.19680574252982 82.90503203632743 l 21.912367444825943 -30.71223953098928 a58.727887617065555,58.727887617065555 0 0,0 0.8178688473456741,0.594216499927353 l -22.437781608525405 30.33050379624525" fill="#fffe18" stroke="none" /><path d="M 113.06298171725822 83.55741782278167 l 38.78115175789562 -48.81445052196032 a83.34443288241415,83.34443288241415 0 0,0 1.1156112777055471,0.9020800676738914 l -39.61566643416566 48.1396643570223" fill="#4cdcff" stroke="none" /><path d="M 113.6212207817346 84.01681056812373 l 24.47142318383434 -28.7148559356237 a58.727887617065555,58.727887617065555 0 0,0 0.7637595381236434,0.6623247452493585 l -24.962076520604747 28.28936619695467" fill="#fffe18" stroke="none" /><path d="M 114.16331599549186 84.49514656593476 l 25.445333055376363 -27.855493708546962 a58.727887617065555,58.727887617065555 0 0,0 0.7405086496372,0.688222086289702 l -25.921049588808412 27.41336703618262" fill="#fffe18" stroke="none" /><path d="M 114.68862486808459 84.99185889309783 l 26.41201224979206 -26.986543010121714 a58.76066597294485,58.76066597294485 0 0,0 0.7167799514568883,0.7137018705534139 l -26.872628001416274 26.52790528891818" fill="#ffff18" stroke="none" /><line stroke="#e1ed5e" stroke-width="0.3" x1="172.23445277983987" x2="176.4835382374775" y1="55.19839476539836" y2="52.563006222186495" /><path d="M 173.08426987136738 54.67131705675599 a86.0,86.0 0 0,1 12.851231095245387,41.99856678651699" fill="none" id="id63" stroke="none" /><text fill="#e1ed5e" style="font-size:6.75px; font-family:Arial;" text-anchor="middle"><textPath startOffset="22.20632615414155" xlink:href="#id63">March</textPath></text><path d="M 117.84615892207809 88.93136811851018 l 32.117514938328874 -19.92008203853969 a58.793444328824144,58.793444328824144 0 0,0 0.5260171120821171,0.8646338253760119 l -32.45564784869722 19.364280439956595" fill="#ffff18" stroke="none" /><path d="M 118.03404312379186 89.2402003453031 l 53.5391519585621 -31.943505114308277 a83.34443288241415,83.34443288241415 0 0,0 0.7244628528305637,1.2383418535715331 l -54.08107448586299 31.017183848382846" fill="#4cdcff" stroke="none" /><path d="M 118.3937258080291 89.86733742301442 l 33.07425410642485 -18.2198136660053 a58.76066597294485,58.76066597294485 0 0,0 0.48041573486113226,0.890137394192527 l -33.38297794050445 17.647795288480317" fill="#ffff18" stroke="none" /><path d="M 118.73160827565052 90.50648371742162 l 33.65257199574466 -17.05572930475712 a58.727887617065555,58.727887617065555 0 0,0 0.4492403383847197,0.9056411091665684 l -33.94117234708279 16.4739286070916" fill="#fffe18" stroke="none" /><path d="M 119.04729006885535 91.15688171328212 l 34.21971519654398 -15.887246328843311 a58.727887617065555,58.727887617065555 0 0,0 0.4178004923631685,0.9205680033683208 l -34.4881180058705 15.295856316632927" fill="#fffe18" stroke="none" /><path d="M 119.196687751892 91.48605970444005 l 56.96082739284085 -25.262747921736917 a83.31165452653485,83.31165452653485 0 0,0 0.5701266063733399,1.3159308129693827 l -57.387244709056866 24.27851796418093" fill="#4cddff" stroke="none" /><path d="M 119.47837535516314 92.15188598940014 l 34.99418839821971 -14.099655399896609 a58.727887617065555,58.727887617065555 0 0,0 0.3697240735618419,0.9409074394823927 l -35.23170602166325 13.49519895551843" fill="#fffe18" stroke="none" /><path d="M 119.7369772167798 92.82701384747503 l 35.45878373025008 -12.886743592439498 a58.727887617065555,58.727887617065555 0 0,0 0.33711742489452323,0.9530763568974748 l -35.675354235954416 12.274469609115407" fill="#fffe18" stroke="none" /><path d="M 119.97218684219823 93.5106431181261 l 35.97487557111876 -11.68894564258451 a58.82622268470343,58.82622268470343 0 0,0 0.30462043464723093,0.9657300228720912 l -36.17075148953419 11.067965453286" fill="#feff18" stroke="none" /><path d="M 120.08093135843002 93.85539295169968 l 59.835324604437425 -18.309138691787677 a83.57388137356921,83.57388137356921 0 0,0 0.40909057908043145,1.379250062838602 l -60.141621080629555 17.276459242202545" fill="#4cd9ff" stroke="none" /><path d="M 120.28053869075195 94.5502522615342 l 36.46698320251756 -9.79933828519136 a58.76066597294485,58.76066597294485 0 0,0 0.2540801910517753,0.979074621955402 l -36.630259725439636 9.170167237687108" fill="#ffff18" stroke="none" /><path d="M 120.45610955862082 95.25157060432595 l 36.78268191185931 -8.53827887172192 a58.76066597294485,58.76066597294485 0 0,0 0.2202282969318636,0.9872402727160741 l -36.924204595793206 7.903860429455882" fill="#ffff18" stroke="none" /><path d="M 120.53481517161879 95.60439243477599 l 36.95625685672706 -7.910721419412008 a58.793444328824144,58.793444328824144 0 0,0 0.20331530108293533,0.9914376140398965 l -37.08695145372499 7.2734081492086995" fill="#ffff18" stroke="none" /><path d="M 120.67395015179393 96.31383870115 l 61.60234782483033 -10.983686658956248 a83.57388137356921,83.57388137356921 0 0,0 0.24032719627045482,1.4184247165307786 l -61.78228688262101 9.921676154109631" fill="#4cd9ff" stroke="none" /><path d="M 120.78858239683441 97.02765380044208 l 37.41295864237786 -5.349295267570666 a58.793444328824144,58.793444328824144 0 0,0 0.13462019202382075,1.0030767957076177 l -37.499494833459515 4.704500129798384" fill="#ffff18" stroke="none" /><path d="M 120.87857604477298 97.74499172005257 l 37.607507943290365 -4.061830731101978 a58.82622268470343,58.82622268470343 0 0,0 0.10006865521689948,1.0076777017103653 l -37.671853724189496 3.413877498687177" fill="#feff18" stroke="none" /><path d="M 120.94382443527127 98.46500227214037 l 37.626964503117414 -2.7577248461494865 a58.727887617065555,58.727887617065555 0 0,0 0.06521426813281302,1.0088358634963244 l -37.66885936225464 2.109629918400127" fill="#fffe18" stroke="none" /><path d="M 120.96714384426684 98.82574320788733 l 62.50870667411501 -3.5007759723234084 a83.6066597294485,83.6066597294485 0 0,0 0.06810515598193807,1.437592201935903 l -62.55970543833045 2.4242726637645053" fill="#4cd8ff" stroke="none" /><line stroke="#e1ed5e" stroke-width="0.3" x1="184.98032266829074" x2="189.97916517819016" y1="98.17113171792111" y2="98.06355123074" /><path d="M 185.9800911702706 98.14961562048488 a86.0,86.0 0 0,1 -9.607161424134198,41.387399972396054" fill="none" id="id64" stroke="none" /><text fill="#e1ed5e" style="font-size:6.75px; font-family:Arial;" text-anchor="middle"><textPath startOffset="21.466115282336823" xlink:href="#id64">April</textPath></text><path d="M 120.99513854157772 99.54816195383933 l 37.75192445353411 -0.8124621683305235 a58.76066597294485,58.76066597294485 0 0,0 0.013058838564477504,1.011421438163804 l -37.760316299216306 0.16250447210625676" fill="#ffff18" stroke="none" /><path d="M 120.99824983174949 100.27111621757518 l 37.69196770007064 0.4866550211417217 a58.69510926118627,58.69510926118627 0 0,0 -0.021739375263340247,1.0101433452526032 l -37.67800626212229 -1.1353881821844396" fill="#fffd17" stroke="none" /><path d="M 120.9904718944345 100.63252640178507 l 37.74353322953468 1.137362770327369 a58.76066597294485,58.76066597294485 0 0,0 -0.03916780932686224,1.0107471204779785 l -37.71836328735661 -1.7868871378193538" fill="#ffff18" stroke="none" /><path d="M 120.95626037817324 101.35467743843564 l 62.18186937394482 4.019628216128231 a83.31165452653485,83.31165452653485 0 0,0 -0.10482764837899333,1.430289976176965 l -62.10346516690149 -5.089391328801965" fill="#4cddff" stroke="none" /><path d="M 120.89721153311464 102.0752229133903 l 37.543221344352176 3.7282750884166003 a58.727887617065555,58.727887617065555 0 0,0 -0.1085562588094933,1.0050961341671416 l -37.47348278404163 -4.373967544468533" fill="#fffe18" stroke="none" /><path d="M 120.81339534386255 102.79330883721812 l 37.42512711154473 5.022723902927056 a58.76066597294485,58.76066597294485 0 0,0 -0.1431688208286774,1.001322399422143 l -37.33312423969945 -5.666191774329608" fill="#ffff18" stroke="none" /><path d="M 120.70491114924044 103.5080841355445 l 37.19774099808909 6.302504953192069 a58.727887617065555,58.727887617065555 0 0,0 -0.1774520668193864,0.9952454291409737 l -37.08374248893051 -6.941869133066261" fill="#fffe18" stroke="none" /><path d="M 120.64145759157962 103.86396538481128 l 61.924372774738885 11.591896154433844 a84.0,84.0 0 0,0 -0.2782802680973435,1.4189450917282203 l -61.715662573665874 -12.656104973230008" fill="#4dd2ff" stroke="none" /><path d="M 120.49622156327973 104.57218783832717 l 36.79082434615769 8.207100958495696 a58.69510926118627,58.69510926118627 0 0,0 -0.2284621435073206,0.9842089348197239 l -36.644101636719824 -8.839178550663984" fill="#fffd17" stroke="none" /><path d="M 120.32669344350535 105.2749913415812 l 36.51824789824348 9.476870500769982 a58.727887617065555,58.727887617065555 0 0,0 -0.2623512433209924,0.9763065734554777 l -36.34970857858071 -10.104068007401008" fill="#fffe18" stroke="none" /><path d="M 120.13307415673323 105.97154293290107 l 36.29609883094725 10.765554767170775 a58.859001040582726,58.859001040582726 0 0,0 -0.2964622146251109,0.9688556705838024 l -36.10540984381601 -11.388737410306634" fill="#fdff18" stroke="none" /><path d="M 120.02730092923936 106.31721596034902 l 59.5192210758664 18.77416106426306 a83.40998959417274,83.40998959417274 0 0,0 -0.4436924847773,1.3655450559674878 l -59.18723634007285 -19.79590502020834" fill="#4cdbff" stroke="none" /><path d="M 119.79798401119884 107.00284435728193 l 35.59928862783724 12.592003173135446 a58.76066597294485,58.76066597294485 0 0,0 -0.34550079308735204,0.9506697958902325 l -35.37726357374466 -13.20292076603181" fill="#ffff18" stroke="none" /><path d="M 119.54520255179757 107.68017299344265 l 35.11424787271436 13.797938265534581 a58.727887617065555,58.727887617065555 0 0,0 -0.37780876605958147,0.9376903734884897 l -34.87153649239739 -14.400328006865884" fill="#fffe18" stroke="none" /><path d="M 119.26925614724726 108.34839909993367 l 57.50699961530194 24.914889301362923 a83.67221644120707,83.67221644120707 0 0,0 -0.583948060940641,1.3166487196352745 l -57.06961046963003 -25.901086357490883" fill="#4cd7ff" stroke="none" /><path d="M 119.12269723197855 108.67885076344098 l 34.35518914777415 15.592128868970715 a58.727887617065555,58.727887617065555 0 0,0 -0.4257083426045299,0.9169378971780882 l -34.08170618832978 -16.181186833427635" fill="#fffe18" stroke="none" /><path d="M 118.81262510543309 109.33194174019688 l 33.827488222880724 16.780015949074095 a58.76066597294485,58.76066597294485 0 0,0 -0.4572736284544459,0.9022442505009938 l -33.53363592464001 -17.35981441127778" fill="#ffff18" stroke="none" /><line stroke="#e1ed5e" stroke-width="0.3" x1="174.80103733775053" x2="179.2010983576182" y1="140.37084112569926" y2="142.7455964860345" /><path d="M 175.68104954172406 140.8457921977663 a86.0,86.0 0 0,1 -30.038265399797805,32.042727171017184" fill="none" id="id65" stroke="none" /><text fill="#e1ed5e" style="font-size:6.75px; font-family:Arial;" text-anchor="middle"><textPath startOffset="22.206326154141568" xlink:href="#id65">May</textPath></text><path d="M 118.48025628344425 109.97397251340804 l 33.172156179959764 17.903332555285 a58.69510926118627,58.69510926118627 0 0,0 -0.48751484309390775,0.884981048473981 l -32.85906492741435 -18.471684122156788" fill="#fffd17" stroke="none" /><path d="M 118.12598468904814 110.60418214915192 l 54.03844550897286 31.61392492957365 a83.6066597294485,83.6066597294485 0 0,0 -0.7374072524230829,1.2359369706469987 l -53.486257380851555 -32.539423994106755" fill="#4cd8ff" stroke="none" /><line stroke="#e1ed5e" stroke-width="0.3" x1="143.8653032363475" x2="146.44561519142675" y1="172.8068346515853" y2="177.08958963109032" /><path d="M 144.38136562736335 173.6633856474863 a86.0,86.0 0 0,1 -40.68145358897372,12.25698825130547" fill="none" id="id66" stroke="none" /><text fill="#e1ed5e" style="font-size:6.75px; font-family:Arial;" text-anchor="middle"><textPath startOffset="21.466115282336833" xlink:href="#id66">June</textPath></text><line stroke="#e1ed5e" stroke-width="0.3" x1="102.19456741930631" x2="102.32365962044197" y1="184.97166512339345" y2="189.96999836594603" /><path d="M 102.22038585953345 185.97133177190398 a86.0,86.0 0 0,1 -42.740103519485714,-10.115201625700543" fill="none" id="id67" stroke="none" /><text fill="#e1ed5e" style="font-size:6.75px; font-family:Arial;" text-anchor="middle"><textPath startOffset="22.20632615414155" xlink:href="#id67">July</textPath></text><line stroke="#e1ed5e" stroke-width="0.3" x1="58.666819895761336" x2="56.23545636021788" y1="174.27360380694188" y2="178.64263932499728" /><path d="M 58.180547188652646 175.14741091055294 a86.0,86.0 0 0,1 -31.652253787137756,-30.449443065178592" fill="none" id="id68" stroke="none" /><text fill="#e1ed5e" style="font-size:6.75px; font-family:Arial;" text-anchor="middle"><textPath startOffset="22.20632615414155" xlink:href="#id68">August</textPath></text><line stroke="#e1ed5e" stroke-width="0.3" x1="26.63291911575756" x2="22.317208475507996" y1="142.92168965132927" y2="145.44649492493687" /><path d="M 25.769776987707644 143.4266507060508 a86.0,86.0 0 0,1 -11.730757126820373,-40.83630448921669" fill="none" id="id69" stroke="none" /><text fill="#e1ed5e" style="font-size:6.75px; font-family:Arial;" text-anchor="middle"><textPath startOffset="21.46611528233685" xlink:href="#id69">September</textPath></text><line stroke="#e1ed5e" stroke-width="0.3" x1="15.007084014347285" x2="10.007500721073583" y1="101.09737516637583" y2="101.16192664675087" /><path d="M 14.007167355692545 101.11028546245083 a86.0,86.0 0 0,1 10.666146001902534,-42.60595125391555" fill="none" id="id70" stroke="none" /><text fill="#e1ed5e" style="font-size:6.75px; font-family:Arial;" text-anchor="middle"><textPath startOffset="22.20632615414155" xlink:href="#id70">October</textPath></text><line stroke="#e1ed5e" stroke-width="0.3" x1="26.266209847984243" x2="21.928928074336255" y1="57.711370442889674" y2="55.22380399835377" /><path d="M 25.398753493254645 57.213857153982495 a86.0,86.0 0 0,1 29.58750427330803,-30.492523968695096" fill="none" id="id71" stroke="none" /><text fill="#e1ed5e" style="font-size:6.75px; font-family:Arial;" text-anchor="middle"><textPath startOffset="21.46611528233685" xlink:href="#id71">November</textPath></text><line stroke="#e1ed5e" stroke-width="0.3" x1="56.762969772571076" x2="54.21961505331055" y1="26.818313649435495" y2="22.513508569990535" /><path d="M 56.25429882871897 25.957352633546506 a86.0,86.0 0 0,1 42.265352541879196,-11.944610805530505" fill="none" id="id72" stroke="none" /><text fill="#e1ed5e" style="font-size:6.75px; font-family:Arial;" text-anchor="middle"><textPath startOffset="22.20632615414155" xlink:href="#id72">December</textPath></text></svg>