<?xml version="1.0" encoding="utf-8" ?>
<svg baseProfile="full" height="200mm" version="1.1" viewBox="0,0,200,200" width="200mm" xmlns="http://www.w3.org/2000/svg" xmlns:ev="http://www.w3.org/2001/xml-events" xmlns:xlink="http://www.w3.org/1999/xlink"><defs /><rect fill="#1a1a1a" height="200" width="200" x="0" y="0" /><text alignment-baseline="middle" fill="#e1ed5e" style="dominant-baseline: central; font-size:9.0px; font-family:Arial;" text-anchor="middle" x="100.0" y="100.0">2022</text><line stroke="#e1ed5e" stroke-width="0.3" x1="100.0" x2="100.0" y1="15.0" y2="10.0" /><path d="M 100.0 14.0 a86.0,86.0 0 0,1 42.46469731375804,11.215312516191453" fill="none" id="id25" stroke="none" /><text fill="#e1ed5e" style="font-size:6.75px; font-family:Arial;" text-anchor="middle"><textPath startOffset="22.20632615414155" xlink:href="#id25">January</textPath></text><path d="M 101.44485096284872 79.0497635885617 l 0.9414376882393058 -13.650779659906371 a34.683204677419354,34.683204677419354 0 0,0 0.5952460585759939,0.04620255034831559 l -1.176273936177641 13.632551847369593" fill="#ffa00e" stroke="none" /><line stroke="#e1ed5e" stroke-width="0.3" x1="143.23703022742887" x2="145.7803849466894" y1="26.81831364943548" y2="22.513508569990506" /><path d="M 143.74570117128098 25.957352633546492 a86.0,86.0 0 0,1 28.547481713284135,27.462654790039103" fill="none" id="id26" stroke="none" /><text fill="#e1ed5e" style="font-size:6.75px; font-family:Arial;" text-anchor="middle"><textPath startOffset="19.985693538727396" xlink:href="#id26">February</textPath></text><path d="M 114.68862486808459 84.99185889309783 l 9.600760371660684 -9.809602170759744 a34.72599338709678,34.72599338709678 0 0,0 0.42359791949526165,0.4217788554099735 l -9.768194091323268 9.642887464699653" fill="#ffa00e" stroke="none" /><path d="M 114.94478906791727 85.2469230424477 l 9.729369319944706 -9.604560738413703 a34.67143790322581,34.67143790322581 0 0,0 0.41562094995430865,0.4283339230408402 l -9.893254533602123 9.435662619822748" fill="#ff9f0e" stroke="none" /><path d="M 115.9244219780498 86.31012108654704 l 10.244768834710571 -8.807204747326098 a34.510075645161294,34.510075645161294 0 0,0 0.3833730655129931,0.4537927874778013 l -10.394852513710681 8.62955301021919" fill="#ff9d0e" stroke="none" /><path d="M 116.15771136456269 86.58626213691792 l 10.442379453716045 -8.669008716555458 a34.57184588709677,34.57184588709677 0 0,0 0.3761770912811245,0.46114863423070834 l -10.59005503707358 8.48797591271665" fill="#ff9e0e" stroke="none" /><path d="M 116.60985879189232 87.15038557335679 l 10.85832586460665 -8.400149719945146 a34.72828306451613,34.72828306451613 0 0,0 0.36171005051986344,0.4759680273086007 l -11.001311855350627 8.211996916755513" fill="#ffa00e" stroke="none" /><path d="M 117.04232023915458 87.72973835380427 l 10.943746753623177 -7.879363500525498 a34.48517564516129,34.48517564516129 0 0,0 0.34269623623769774,0.48471952294547954 l -11.077755609664758 7.689817477248225" fill="#ff9d0e" stroke="none" /><path d="M 117.45458315368197 88.32363383020206 l 11.096861839270524 -7.423323778640205 a34.350883064516125,34.350883064516125 0 0,0 0.32453956087745117,0.4942960165958102 l -11.222998035505901 7.231209698066721" fill="#ff9b0e" stroke="none" /><path d="M 117.65298651832404 88.62581576622439 l 11.26492387848692 -7.258223385621937 a34.400758064516126,34.400758064516126 0 0,0 0.3164417679182812,0.5005348831917806 l -11.388193242651157 7.063240854715951" fill="#ff9c0e" stroke="none" /><line stroke="#e1ed5e" stroke-width="0.3" x1="172.23445277983987" x2="176.4835382374775" y1="55.19839476539836" y2="52.563006222186495" /><path d="M 173.08426987136738 54.67131705675599 a86.0,86.0 0 0,1 12.851231095245387,41.99856678651699" fill="none" id="id27" stroke="none" /><text fill="#e1ed5e" style="font-size:6.75px; font-family:Arial;" text-anchor="middle"><textPath startOffset="22.20632615414155" xlink:href="#id27">March</textPath></text><path d="M 118.03404312379186 89.2402003453031 l 11.673904832939309 -6.965097972107663 a34.59384580645161,34.59384580645161 0 0,0 0.3007034226110943,0.5139996236889413 l -11.79206793002073 6.763118936064827" fill="#ff9e0e" stroke="none" /><path d="M 118.3937258080291 89.86733742301442 l 11.928908427395136 -6.571349669341742 a34.61915903225807,34.61915903225807 0 0,0 0.28303948655745903,0.5244291823428174 l -12.04025601317106 6.365039503666465" fill="#ff9f0e" stroke="none" /><path d="M 118.73160827565052 90.50648371742162 l 11.943290700709868 -6.053074731556577 a34.389619354838715,34.389619354838715 0 0,0 0.2630641908427865,0.5303213563445451 l -12.045714904506063 5.846593786713082" fill="#ff9c0e" stroke="none" /><path d="M 118.89224826269711 90.83032412892265 l 12.289804710933772 -5.965066949740243 a34.660941532258065,34.660941532258065 0 0,0 0.25589976087174177,0.5389901589713648 l -12.390662665647271 5.752634375128338" fill="#ff9f0e" stroke="none" /><path d="M 119.196687751892 91.48605970444005 l 12.376981714193443 -5.4893263210729835 a34.539659516129035,34.539659516129035 0 0,0 0.23636523577801907,0.5455635527232137 l -12.469637659814143 5.275463623763167" fill="#ff9e0e" stroke="none" /><path d="M 119.47837535516314 92.15188598940014 l 12.47780596195223 -5.027485198635218 a34.45255548387097,34.45255548387097 0 0,0 0.21689762181077787,0.5519807893538851 l -12.562497133644708 4.811955404385548" fill="#ff9d0e" stroke="none" /><path d="M 119.7369772167798 92.82701384747503 l 12.47975436183831 -4.5355022829065454 a34.27836774193548,34.27836774193548 0 0,0 0.19676912505517752,0.5562928137463324 l -12.555976567703297 4.3200118427335985" fill="#ff9a0e" stroke="none" /><path d="M 119.85752413597 93.16781622104841 l 11.810278494000523 -4.063446812357082 a33.48976693548387,33.48976693548387 0 0,0 0.18285844322739409,0.5467234705879438 l -11.878474230999686 3.859550238846824" fill="#ff8f0d" stroke="none" /><path d="M 120.08093135843002 93.85539295169968 l 12.615503888908849 -3.8602449622490953 a34.19289314516129,34.19289314516129 0 0,0 0.16737275123867998,0.5642977117251868 l -12.680082537259231 3.6425178637773783" fill="#ff990e" stroke="none" /><path d="M 120.28053869075195 94.5502522615342 l 12.601950571151095 -3.386372160652013 a34.049010483870966,34.049010483870966 0 0,0 0.14722738324390494,0.5673271654681484 l -12.658374286265301 3.168948569635014" fill="#ff970d" stroke="none" /><path d="M 120.67395015179393 96.31383870115 l 13.27975229997486 -2.3677772572279254 a34.489187903225805,34.489187903225805 0 0,0 0.09917799310262138,0.5853541294359602 l -13.318542154597704 2.1388373394761273" fill="#ff9d0e" stroke="none" /><path d="M 120.73433829027371 96.67025291283417 l 13.250841434706718 -2.1279652165416914 a34.42061975806452,34.42061975806452 0 0,0 0.08891027457341864,0.5858076215974711 l -13.285507602719436 1.899558482552138" fill="#ff9c0e" stroke="none" /><path d="M 120.83666639777658 97.38593545837742 l 13.749506419341492 -1.72494469650135 a34.85728548387097,34.85728548387097 0 0,0 0.06956459666105508,0.5959869818086708 l -13.777161369006135 1.4880139763678264" fill="#ffa20f" stroke="none" /><path d="M 120.87857604477298 97.74499172005257 l 13.218576715221367 -1.4276835679800586 a34.295452258064515,34.295452258064515 0 0,0 0.05833962527076026,0.5874720648944592 l -13.241193466174357 1.1999359723811642" fill="#ff9a0e" stroke="none" /><path d="M 120.91429891909075 98.10471618934814 l 13.279542772809869 -1.2034112416358111 a34.33395870967742,34.33395870967742 0 0,0 0.04827275492492285,0.589049880488566 l -13.298290011554286 0.9746474439394763" fill="#ff9b0e" stroke="none" /><path d="M 120.96714384426684 98.82574320788733 l 13.551650842169735 -0.7589549708797547 a34.572886693548384,34.572886693548384 0 0,0 0.028162730679941683,0.5944707331915144 l -13.562707181083173 0.5255731310652405" fill="#ff9e0e" stroke="none" /><line stroke="#e1ed5e" stroke-width="0.3" x1="184.98032266829074" x2="189.97916517819016" y1="98.17113171792111" y2="98.06355123074" /><path d="M 185.9800911702706 98.14961562048488 a86.0,86.0 0 0,1 -9.607161424134198,41.387399972396054" fill="none" id="id28" stroke="none" /><text fill="#e1ed5e" style="font-size:6.75px; font-family:Arial;" text-anchor="middle"><textPath startOffset="21.466115282336823" xlink:href="#id28">April</textPath></text><path d="M 120.99513854157772 99.54816195383933 l 13.570018404718821 -0.2920414452236185 a34.57316056451613,34.57316056451613 0 0,0 0.007683461632032103,0.5950925708726879 l -13.573034873468568 0.058412616290467914" fill="#ff9e0e" stroke="none" /><path d="M 120.99824983174949 100.27111621757518 l 13.208510464185697 0.17053999383499674 a34.20961137096774,34.20961137096774 0 0,0 -0.012670486324459202,0.5887477117776206 l -13.20361791517623 -0.39787752140273225" fill="#ff990e" stroke="none" /><path d="M 120.9764740272857 100.99374915477107 l 13.462380583654818 0.6377730265253957 a34.47747919354838,34.47747919354838 0 0,0 -0.0331864603190903,0.5925665424004082 l -13.449407772448199 -0.8694112852612272" fill="#ff9d0e" stroke="none" /><path d="M 120.95626037817324 101.35467743843564 l 13.597644101403667 0.878993739705325 a34.62602491935484,34.62602491935484 0 0,0 -0.04356851134017878,0.5944577218933178 l -13.58049903139915 -1.112924598095413" fill="#ff9f0e" stroke="none" /><path d="M 120.89721153311464 102.0752229133903 l 13.511994211799962 1.3418249582960065 a34.578456532258066,34.578456532258066 0 0,0 -0.0639169571537227,0.5917916410114481 l -13.486894953145187 -1.574212921192246" fill="#ff9e0e" stroke="none" /><path d="M 120.81339534386255 102.79330883721812 l 13.12773811113945 1.7618378103476542 a34.24543620967742,34.24543620967742 0 0,0 -0.08343810676278991,0.5835659243637673 l -13.095465953360058 -1.987549206691831" fill="#ff9a0e" stroke="none" /><path d="M 120.76222939487914 103.15116336523771 l 13.442051666539829 2.0401518526560567 a34.5959910483871,34.5959910483871 0 0,0 -0.09442769109648183,0.5880013225960624 l -13.40494222108206 -2.2712324049453243" fill="#ff9e0e" stroke="none" /><path d="M 120.5718875245553 104.21870165774334 l 13.23791719075946 2.7147155617619094 a34.51340564516129,34.51340564516129 0 0,0 -0.12435666738258866,0.5809529495451664 l -13.189226484652426 -2.942182330723245" fill="#ff9d0e" stroke="none" /><path d="M 120.49622156327973 104.57218783832717 l 13.344630583918939 2.9768490487082566 a34.67262943548387,34.67262943548387 0 0,0 -0.13495814798838604,0.5813961693510764 l -13.29141187 -3.206113875407898" fill="#ff9f0e" stroke="none" /><path d="M 120.32669344350535 105.2749913415812 l 16.829436659066115 4.367416319186334 a38.38689919354839,38.38689919354839 0 0,0 -0.17148327888671688,0.6381530740830466 l -16.751765303837622 -4.656460326444928" fill="#ffd013" stroke="none" /><path d="M 120.23288151984713 105.62410040840565 l 13.21639000069792 3.6737379363221443 a34.71748209677419,34.71748209677419 0 0,0 -0.16500287343014688,0.5743966487537001 l -13.151194490381673 -3.9006920605804263" fill="#ffa00e" stroke="none" /><path d="M 119.9155931802556 106.66101706037122 l 12.837195805436972 4.293559297652018 a34.53618290322581,34.53618290322581 0 0,0 -0.19341770350671364,0.5621623832106284 l -12.761387270987028 -4.513894383951947" fill="#ff9e0e" stroke="none" /><path d="M 119.67450827220406 107.3425965602758 l 12.75278506390399 4.759384806401973 a34.61195322580645,34.61195322580645 0 0,0 -0.21312016888279767,0.5563895102336097 l -12.668970615427687 -4.978197883468726" fill="#ff9f0e" stroke="none" /><path d="M 119.54520255179757 107.68017299344265 l 12.684752465787684 4.984399269235908 a34.628909758064516,34.628909758064516 0 0,0 -0.22277500854434232,0.5529093015615807 l -12.597074842985949 -5.202007938640302" fill="#ff9f0e" stroke="none" /><path d="M 119.26925614724726 108.34839909993367 l 12.34649283139952 5.349114094148256 a34.455441532258064,34.455441532258064 0 0,0 -0.24046438743203763,0.5421837129149341 l -12.252587359236209 -5.560846143555877" fill="#ff9d0e" stroke="none" /><path d="M 119.12269723197855 108.67885076344098 l 12.410339697559301 5.632442162950067 a34.62868064516129,34.62868064516129 0 0,0 -0.25101734188289493,0.540669022864683 l -12.311547738836575 -5.845231253093581" fill="#ff9f0e" stroke="none" /><path d="M 118.81262510543309 109.33194174019688 l 22.953138678479686 11.385830084945017 a46.621937903225806,46.621937903225806 0 0,0 -0.3628104337755773,0.7158594056739848 l -22.75374957491784 -11.779243702321697" fill="#c8ff1d" stroke="none" /><line stroke="#e1ed5e" stroke-width="0.3" x1="174.80103733775053" x2="179.2010983576182" y1="140.37084112569926" y2="142.7455964860345" /><path d="M 175.68104954172406 140.8457921977663 a86.0,86.0 0 0,1 -30.038265399797805,32.042727171017184" fill="none" id="id29" stroke="none" /><text fill="#e1ed5e" style="font-size:6.75px; font-family:Arial;" text-anchor="middle"><textPath startOffset="22.206326154141568" xlink:href="#id29">May</textPath></text><path d="M 118.48025628344425 109.97397251340804 l 12.99206088305056 7.011940535486952 a35.76350080645162,35.76350080645162 0 0,0 -0.2970475343450059,0.5392275581250694 l -12.869436939254044 -7.2345386120098265" fill="#ffae10" stroke="none" /><path d="M 118.30583269289576 110.29060199501025 l 11.491241832804901 6.459787878193553 a34.18246935483871,34.18246935483871 0 0,0 -0.29274518476429523,0.5104259052016068 l -11.378344651888225 -6.656633629253475" fill="#ff990e" stroke="none" /><path d="M 117.94076556474637 110.91462005526583 l 11.59089987782447 7.0515535030274314 a34.56736403225806,34.56736403225806 0 0,0 -0.3136335791245233,0.50567719265437 l -11.467801659031984 -7.250027027047075" fill="#ff9e0e" stroke="none" /><path d="M 117.55443506779139 111.5257021239791 l 12.839386614995341 8.429946335929518 a36.359487096774195,36.359487096774195 0 0,0 -0.34800685691955097,0.5202230329043297 l -12.692376652665068 -8.649706283039656" fill="#ffb610" stroke="none" /><path d="M 117.14729908036423 112.12312394758627 l 10.882310130385877 7.693782789256589 a34.32737661290323,34.32737661290323 0 0,0 -0.34526836263706173,0.4795475576785038 l -10.748261975373211 -7.879963952386223" fill="#ff9b0e" stroke="none" /><path d="M 116.93607887273984 112.41649034213515 l 10.530938913696229 7.720636063285589 a34.05790548387097,34.05790548387097 0 0,0 -0.3506970638500255,0.4698160271222139 l -10.396480583151112 -7.900764969917118" fill="#ff970d" stroke="none" /><path d="M 115.56566222782051 114.09645910891815 l 18.602892343954355 16.84701282836953 a46.09759838709678,46.09759838709678 0 0,0 -0.5377034432233319,0.5835708898991282 l -18.310142492735302 -17.16473497306999" fill="#ceff1d" stroke="none" /><path d="M 115.07121518719521 114.62390073753431 l 9.9403040143661 9.645275274850402 a34.850667096774195,34.850667096774195 0 0,0 -0.4214596967759232,0.42693644770287775 l -9.772803692534643 -9.814952216533944" fill="#ffa20f" stroke="none" /><path d="M 114.81725581225074 114.88116024355365 l 9.612623011798572 9.654080702391347 a34.62364838709677,34.62364838709677 0 0,0 -0.4259533909395336,0.41688504433916546 l -9.445019668483244 -9.818115849653084" fill="#ff9f0e" stroke="none" /><path d="M 114.29624159901734 115.38237550388516 l 9.214312622048437 9.91435516676496 a34.53506540322581,34.53506540322581 0 0,0 -0.4389249769196327,0.40094755960532846 l -9.042288095661942 -10.07149549295687" fill="#ff9e0e" stroke="none" /><path d="M 113.75828350139079 115.86535959552629 l 8.834274674083877 10.187240614414085 a34.484223387096776,34.484223387096776 0 0,0 -0.45180001748664345,0.3850337764941731 l -8.657609180020186 -10.337798781131205" fill="#ff9d0e" stroke="none" /><path d="M 113.48314897796784 116.09983520530334 l 8.806659489210547 10.515775411010882 a34.71636919354839,34.71636919354839 0 0,0 -0.4614464604947717,0.3797390218721117 l -8.624342900171085 -10.665809551740171" fill="#ffa00e" stroke="none" /><path d="M 112.92097659922987 116.55440617244103 l 8.288423920320023 10.619161411880565 a34.47087822580645,34.47087822580645 0 0,0 -0.47089069840871606,0.3610589077303294 l -8.104404493417814 -10.760259661438266" fill="#ff9d0e" stroke="none" /><path d="M 112.34349029814194 116.9893568818739 l 7.859971996277751 10.818323351086411 a34.37218306451613,34.37218306451613 0 0,0 -0.48165686466964175,0.3436493841588623 l -7.672587803759225 -10.952016997089492" fill="#ff9b0e" stroke="none" /><path d="M 111.7513745106137 117.40417183066458 l 7.697265922814096 11.399903783679116 a34.75520661290322,34.75520661290322 0 0,0 -0.49869633823751686,0.3305087399036605 l -7.499894885836615 -11.530710544674095" fill="#ffa10e" stroke="none" /><path d="M 111.45004920935366 117.60387380957326 l 7.396536557988669 11.371802322767294 a34.56564193548387,34.56564193548387 0 0,0 -0.5015609581748426,0.320119934042585 l -7.199693797766896 -11.497436685633689" fill="#ff9e0e" stroke="none" /><line stroke="#e1ed5e" stroke-width="0.3" x1="143.8653032363475" x2="146.44561519142675" y1="172.8068346515853" y2="177.08958963109032" /><path d="M 144.38136562736335 173.6633856474863 a86.0,86.0 0 0,1 -40.68145358897372,12.25698825130547" fill="none" id="id30" stroke="none" /><text fill="#e1ed5e" style="font-size:6.75px; font-family:Arial;" text-anchor="middle"><textPath startOffset="21.466115282336833" xlink:href="#id30">June</textPath></text><path d="M 110.8373102113329 117.98757091392108 l 7.082284603225564 11.75504752091274 a34.723698387096775,34.723698387096775 0 0,0 -0.5146252654659268,0.3040496778409801 l -6.878891466731256 -11.875215771047468" fill="#ffa00e" stroke="none" /><path d="M 110.21172684928248 118.3499491758327 l 6.641302908977778 11.934080556572553 a34.65756870967742,34.65756870967742 0 0,0 -0.5237867478355488,0.28561029773751173 l -6.4348933492735805 -12.046631506069835" fill="#ff9f0e" stroke="none" /><path d="M 109.57404056367764 118.69057910512821 l 6.200721677571373 12.105137663947056 a34.60085685483871,34.60085685483871 0 0,0 -0.5324348420699666,0.26697388297989005 l -5.991432927818646 -12.210079387836249" fill="#ff9f0e" stroke="none" /><path d="M 108.92500713936063 119.00905698771935 l 5.808133888022792 12.37053890778608 a34.6661864516129,34.6661864516129 0 0,0 -0.5423310340023199,0.24895757805299812 l -5.5943348582530525 -12.468683556173154" fill="#ff9f0e" stroke="none" /><path d="M 108.59647513512805 119.15986991738527 l 5.624996940071436 12.537023368689542 a34.74108967741935,34.74108967741935 0 0,0 -0.5477169777168797,0.2401030271128415 l -5.408359287696802 -12.631990949096839" fill="#ffa00e" stroke="none" /><path d="M 107.59598834532513 119.57807347666477 l 4.923032943590142 12.68873730657674 a34.61030153225806,34.61030153225806 0 0,0 -0.5572749341201305,0.2107136959636356 l -4.703887788709737 -12.771599252647007" fill="#ff9f0e" stroke="none" /><path d="M 106.91757812671514 119.82793768551818 l 4.43769410954822 12.719816192852461 a34.47170564516129,34.47170564516129 0 0,0 -0.5619384856960651,0.19064004429314968 l -4.218085890914928 -12.794319224043734" fill="#ff9d0e" stroke="none" /><path d="M 106.2309692047433 120.05430185196036 l 4.0506733982545775 13.037045179177683 a34.65183145161291,34.65183145161291 0 0,0 -0.5711364784229433,0.17207873584486005 l -3.825661945391388 -13.10483928412827" fill="#ff9f0e" stroke="none" /><path d="M 105.53697534728816 120.25689768951611 l 3.2917456864011774 12.042776318661552 a33.4845525,33.4845525 0 0,0 -0.5572938627109603,0.1471863743070621 l -3.0839613808787196 -12.097654042272199" fill="#ff8f0d" stroke="none" /><path d="M 104.83641907484287 120.43548508189849 l 3.466474955145604 14.6470138622043 a36.05162661290323,36.05162661290323 0 0,0 -0.6051177125076403,0.1377228212726085 l -3.2138370932451017 -14.704513417054594" fill="#ffb210" stroke="none" /><path d="M 104.48393922423573 120.51570834832081 l 2.9200693353715703 13.360415439522182 a34.6758,34.6758 0 0,0 -0.5842187677031988,0.12242872302488587 l -2.6896591062389934 -13.40870014327361" fill="#ffa00e" stroke="none" /><path d="M 104.13013068566511 120.58985236759428 l 2.6666964361054077 13.29422483389483 a34.559044354838704,34.559044354838704 0 0,0 -0.5842657121628885,0.11197591430013248 l -2.437463109370815 -13.338157946543431" fill="#ff9e0e" stroke="none" /><path d="M 103.7750983002368 120.6578951692458 l 2.4540137405074933 13.428725443285149 a34.65111169354839,34.65111169354839 0 0,0 -0.5876680509187684,0.10217362342342386 l -2.222496718116675 -13.468977645229579" fill="#ff9f0e" stroke="none" /><path d="M 103.41894727170886 120.7198165907248 l 0.6541391067933984 3.9642735732526715 a25.017880403225806,25.017880403225806 0 0,0 -0.42549950707445466,0.0664542721656956 l -0.5858037361104266 -3.974946152765473" fill="#ff1702" stroke="none" /><path d="M 103.06178313531738 120.77559828337769 l 2.4951142739387113 16.930491003275748 a38.113360887096775,38.113360887096775 0 0,0 -0.6498716584498807,0.09006629021711542 l -2.203314024302 -16.970931858985466" fill="#ffcd13" stroke="none" /><path d="M 102.34483914955558 120.86867818915974 l 1.52231090773364 13.54831372691897 a34.63357016129032,34.63357016129032 0 0,0 -0.5930048996748971,0.06146738250205198 l -1.2888734114531402 -13.57251047787678" fill="#ff9f0e" stroke="none" /><path d="M 101.98527174616119 120.90594882070398 l 1.426435360898435 15.021109683673417 a36.088686290322585,36.088686290322585 0 0,0 -0.6189307348906,0.05340394813107253 l -1.1676603082662933 -15.043437884083152" fill="#ffb210" stroke="none" /><path d="M 101.26447882468166 120.96189622390904 l 0.9790796898278017 16.230692402677644 a37.260195967741936,37.260195967741936 0 0,0 -0.6405416817907997,0.03310868842077573 l -0.6995499396235223 -16.245140897860622" fill="#ffc212" stroke="none" /><line stroke="#e1ed5e" stroke-width="0.3" x1="102.19456741930631" x2="102.32365962044197" y1="184.97166512339345" y2="189.96999836594603" /><path d="M 102.22038585953345 185.97133177190398 a86.0,86.0 0 0,1 -42.740103519485714,-10.115201625700543" fill="none" id="id31" stroke="none" /><text fill="#e1ed5e" style="font-size:6.75px; font-family:Arial;" text-anchor="middle"><textPath startOffset="22.20632615414155" xlink:href="#id31">July</textPath></text><path d="M 100.54218724476979 120.99299961872073 l 0.38889151561121926 15.057527667247829 a36.06254879032258,36.06254879032258 0 0,0 -0.6206885151445232,0.010685715677104551 l -0.12964331057402817 -15.061990860204093" fill="#ffb210" stroke="none" /><path d="M 99.81925306533755 120.99922214144158 l -0.12745143122885225 14.807337793128145 a35.80788629032258,35.80788629032258 0 0,0 -0.6163054059553466,-0.010610256477466646 l 0.3823165270768667 -14.802950059371518" fill="#ffaf10" stroke="none" /><path d="M 99.45781275523022 120.99299961872073 l -0.34001645244723083 13.165129437182475 a34.16951951612903,34.16951951612903 0 0,0 -0.5878453330587389,-0.020246581858224564 l 0.5665821371806128 -13.157326056898157" fill="#ff990e" stroke="none" /><path d="M 98.73552117531835 120.96189622390904 l -0.883806513041164 14.6513014269322 a35.677934032258065,35.677934032258065 0 0,0 -0.6127043633573812,-0.04225568017242989 l 1.1358736371774751 -14.633917402243485" fill="#ffad10" stroke="none" /><path d="M 97.65516085044442 120.86867818915974 l -1.6289608377673 14.49748035491166 a35.58870967741935,35.58870967741935 0 0,0 -0.6081815215338782,-0.07364231249425371 l 1.8782697823525676 -14.467292513692058" fill="#ffac0f" stroke="none" /><path d="M 97.2962882734958 120.8252237178851 l -1.875154907091618 14.443300320468689 a35.564516129032256,35.564516129032256 0 0,0 -0.6064112568610119,-0.08404307456897556 l 2.123494755139461 -14.408882680407109" fill="#ffab0f" stroke="none" /><path d="M 96.93821686468263 120.77559828337769 l -1.7742821625168592 12.039315595090994 a33.16935483870968,33.16935483870968 0 0,0 -0.5641382845538284,-0.08810679795750921 l 1.9812563106792047 -12.006990489786379" fill="#ff8b0c" stroke="none" /><path d="M 96.58105272829116 120.7198165907248 l -0.8744312146536449 5.2993079298858365 a26.370967741935484,26.370967741935484 0 0,0 -0.4472403468841769,-0.0777584670646351 l 0.9655205330098717 -5.283470884300195" fill="#ff2b04" stroke="none" /><path d="M 96.22490169976321 120.6578951692458 l -2.644308486801811 14.470046385831164 a35.70967741935484,35.70967741935484 0 0,0 -0.603718664622325,-0.11570411893739752 l 2.892994765995831 -14.4223850685453" fill="#ffad10" stroke="none" /><path d="M 95.51606077576429 120.51570834832081 l -3.10982881680864 14.228636435125726 a35.564516129032256,35.564516129032256 0 0,0 -0.5969416824798294,-0.1358619834571434 l 3.354290648681332 -14.172997718090896" fill="#ffab0f" stroke="none" /><path d="M 94.81253420990036 120.34920634021253 l -3.6037348749194504 14.136603022060086 a35.58870967741935,35.58870967741935 0 0,0 -0.5923140076316812,-0.1564355128737689 l 3.8465393253626208 -14.072476159882736" fill="#ffac0f" stroke="none" /><path d="M 94.46302465271185 120.25689768951611 l -3.8592973330752676 14.119151039351673 a35.63709677419355,35.63709677419355 0 0,0 -0.5903350108086449,-0.16683457075156458 l 4.101763511988526 -14.050627675261586" fill="#ffac10" stroke="none" /><path d="M 93.76903079525671 120.05430185196036 l -4.314300106049214 13.8855246693873 a35.54032258064516,35.54032258064516 0 0,0 -0.5826559263380283,-0.186548027945727 l 4.552677377478183 -13.809203794781865" fill="#ffab0f" stroke="none" /><path d="M 93.08242187328487 119.8279376855182 l -7.977529613873089 22.866089427654043 a45.21774193548387,45.21774193548387 0 0,0 -0.732700623482766,-0.2627203753413812 l 8.369949797985582 -22.725381511272705" fill="#d8ff1c" stroke="none" /><path d="M 92.40401165467489 119.57807347666478 l -5.2594343266594406 13.555785898013287 a35.54032258064516,35.54032258064516 0 0,0 -0.5684402526434452,-0.2261941077966454 l 5.491995655344744 -13.463244945810574" fill="#ffab0f" stroke="none" /><path d="M 92.06813273071674 119.44442032107085 l -5.510271847209451 13.508047757610276 a35.58870967741935,35.58870967741935 0 0,0 -0.5652309712894389,-0.23626659184057539 l 5.741974277996352 -13.411196122749727" fill="#ffac0f" stroke="none" /><path d="M 91.40352486487194 119.15986991738527 l -5.952167691488432 13.266223295332429 a35.54032258064516,35.54032258064516 0 0,0 -0.5560063527853235,-0.2552352461742451 l 6.179642040041175 -13.16180097882411" fill="#ffab0f" stroke="none" /><path d="M 90.7491055286396 118.85261126421891 l -6.4798892149621174 13.205515724245505 a35.70967741935484,35.70967741935484 0 0,0 -0.549497272189223,-0.2755293396519241 l 6.706240394834101 -13.09201854368428" fill="#ffad10" stroke="none" /><path d="M 90.42595943632237 118.69057910512821 l -1.1140300655892181 2.174825448868607 a23.443548387096776,23.443548387096776 0 0,0 -0.3575800869260666,-0.18706900120111689 l 1.1513010550417802 -2.1553270287227733" fill="#ff0000" stroke="none" /><path d="M 90.10565033884886 118.52300852407294 l -13.724420497725765 25.693205372101158 a50.12903225806451,50.12903225806451 0 0,0 -0.757610061990987,-0.41310941192830086 l 14.164653371585393 -25.45315530841309" fill="#9fff22" stroke="none" /><line stroke="#e1ed5e" stroke-width="0.3" x1="58.666819895761336" x2="56.23545636021788" y1="174.27360380694188" y2="178.64263932499728" /><path d="M 58.180547188652646 175.14741091055294 a86.0,86.0 0 0,1 -31.652253787137756,-30.449443065178592" fill="none" id="id32" stroke="none" /><text fill="#e1ed5e" style="font-size:6.75px; font-family:Arial;" text-anchor="middle"><textPath startOffset="22.20632615414155" xlink:href="#id32">August</textPath></text><path d="M 89.4739219176387 118.17145234162733 l -7.348851748745323 12.686520874454105 a35.66129032258065,35.66129032258065 0 0,0 -0.5285209194748443,-0.3122594751601535 l 7.56614053924855 -12.558142827000202" fill="#ffad10" stroke="none" /><path d="M 89.1626897886671 117.98757091392108 l -7.61608206095976 12.641034858861588 a35.75806451612903,35.75806451612903 0 0,0 -0.5244870305300089,-0.322182771921264 l 7.832548291422078 -12.508063620111944" fill="#ffae10" stroke="none" /><path d="M 88.54995079064634 117.60387380957326 l -8.086267471582719 12.432228853995861 a35.83064516129032,35.83064516129032 0 0,0 -0.5141276165508255,-0.3407357497278311 l 8.299069786873506 -12.29119508317671" fill="#ffaf10" stroke="none" /><path d="M 87.95078237400918 117.19931262002967 l -13.978758236604556 19.95358042438927 a45.36290322580645,45.36290322580645 0 0,0 -0.6356696547043053,-0.45353342055540186 l 14.320155219157748 -19.710002741989648" fill="#d7ff1c" stroke="none" /><path d="M 87.65650970185807 116.9893568818739 l -8.660352064018937 11.919952005830881 a35.733870967741936,35.733870967741936 0 0,0 -0.49451428420712046,-0.3658298452895905 l 8.864251318644623 -11.769112211801524" fill="#ffae10" stroke="none" /><path d="M 87.07902340077011 116.55440617244103 l -9.020866151075243 11.557569286289478 a35.66129032258065,35.66129032258065 0 0,0 -0.4806505250398781,-0.3818578464935915 l 9.21847416883248 -11.400577525790757" fill="#ffad10" stroke="none" /><path d="M 86.51685102203217 116.09983520530335 l -9.584219953232898 11.444237697778991 a35.92741935483871,35.92741935483871 0 0,0 -0.4707082572385611,-0.4011477886162639 l 9.779793687048516 -11.277565518939776" fill="#ffb010" stroke="none" /><path d="M 85.97065885151581 115.62618273729859 l -16.22748676621904 18.074524733004353 a45.29032258064516,45.29032258064516 0 0,0 -0.575619404836461,-0.525814678513744 l 16.536205720522357 -17.792517287904033" fill="#d8ff1c" stroke="none" /><path d="M 85.70375840098266 115.38237550388516 l -9.948075951389942 10.703864981966168 a35.61290322580645,35.61290322580645 0 0,0 -0.4454396909870016,-0.4211910307718777 l 10.130851476767761 -10.53103931444836" fill="#ffac0f" stroke="none" /><path d="M 84.9287848128048 114.62390073753433 l -10.469980135804953 10.159230581489858 a35.58870967741935,35.58870967741935 0 0,0 -0.42281666235202015,-0.44332158007735284 l 10.64330334953593 -9.977501884830005" fill="#ffac0f" stroke="none" /><path d="M 84.67929136418377 114.36230785411682 l -10.660953935521894 9.994048322449954 a35.61290322580645,35.61290322580645 0 0,0 -0.415405169850561,-0.4508402683553242 l 10.831405513368184 -9.809056799293286" fill="#ffac0f" stroke="none" /><path d="M 84.19399662182784 113.82643327865904 l -18.246100673880775 15.960928738728516 a45.24193548387097,45.24193548387097 0 0,0 -0.5076952846804651,-0.5905643140183621 l 18.51813846813202 -15.644487325548623" fill="#d8ff1c" stroke="none" /><path d="M 83.95833913139862 113.55231037782056 l -11.12566802177193 9.399183003972325 a35.564516129032256,35.564516129032256 0 0,0 -0.3910470969544948,-0.47104141940411415 l 11.28581111861996 -9.20628032745445" fill="#ffab0f" stroke="none" /><path d="M 83.50135304334701 112.99209946851258 l -11.423602328281621 8.995681774857216 a35.54032258064516,35.54032258064516 0 0,0 -0.3743465270814026,-0.48389334867238687 l 11.576755672581092 -8.797710432071575" fill="#ffab0f" stroke="none" /><path d="M 82.85270091963577 112.12312394758628 l -11.931991525967733 8.435906525739762 a35.61290322580645,35.61290322580645 0 0,0 -0.34958150306145036,-0.5035982281805501 l 12.075433936191319 -8.2292670353722" fill="#ffac0f" stroke="none" /><path d="M 82.6465618267979 111.8261652097733 l -20.072410052874314 13.679112754161737 a45.29032258064516,45.29032258064516 0 0,0 -0.43348639017409296,-0.6480033371044969 l 20.304899548459137 -13.33157250285142" fill="#d8ff1c" stroke="none" /><path d="M 82.44556493220864 111.52570212397912 l -12.437762173607934 8.166252080929903 a35.87903225806451,35.87903225806451 0 0,0 -0.3345209534698632,-0.5191839485213043 l 12.576487990454844 -7.9509465324871496" fill="#ffb010" stroke="none" /><path d="M 82.05923443525364 110.91462005526583 l -12.48412719021521 7.594966029240276 a35.61290322580645,35.61290322580645 0 0,0 -0.3141043213965468,-0.5264569099074244 l 12.613012387309988 -7.37894702544674" fill="#ffac0f" stroke="none" /><line stroke="#e1ed5e" stroke-width="0.3" x1="26.63291911575756" x2="22.317208475507996" y1="142.92168965132927" y2="145.44649492493687" /><path d="M 25.769776987707644 143.4266507060508 a86.0,86.0 0 0,1 -11.730757126820373,-40.83630448921669" fill="none" id="id33" stroke="none" /><text fill="#e1ed5e" style="font-size:6.75px; font-family:Arial;" text-anchor="middle"><textPath startOffset="21.46611528233685" xlink:href="#id33">September</textPath></text><path d="M 81.69416730710424 110.29060199501025 l -12.738160076623311 7.160741480398834 a35.61290322580645,35.61290322580645 0 0,0 -0.2957966881190871,-0.5369569088921718 l 12.859533174193915 -6.94041405310884" fill="#ffac0f" stroke="none" /><path d="M 81.35079622478065 109.6543875284942 l -21.549713578968905 11.155933975898247 a45.266129032258064,45.266129032258064 0 0,0 -0.35225957238467165,-0.6950415551892585 l 21.738551821139843 -10.783338209006304" fill="#d8ff1c" stroke="none" /><path d="M 81.18737489456691 109.33194174019688 l -13.047465798929396 6.47215314239461 a35.564516129032256,35.564516129032256 0 0,0 -0.2673210976686211,-0.55076063909105 l 13.156940153212737 -6.2466035473382755" fill="#ffab0f" stroke="none" /><path d="M 80.87730276802145 108.67885076344099 l -13.30657733653806 6.039200300827602 a35.61290322580645,35.61290322580645 0 0,0 -0.24854230792114745,-0.5603972911091609 l 13.408560729190487 -5.8092546732257455" fill="#ffac0f" stroke="none" /><path d="M 80.73074385275274 108.34839909993369 l -3.4853378054352753 1.510021496186162 a24.798387096774192,24.798387096774192 0 0,0 -0.16632516621876237,-0.39314356128132166 l 3.5108139528463442 -1.4498034092386816" fill="#ff1402" stroke="none" /><path d="M 80.58989483394504 108.01547362559985 l -13.573656492851796 5.605290887948281 a35.685483870967744,35.685483870967744 0 0,0 -0.22957217047275694,-0.5697793000367075 l 13.66813127758194 -5.3708122200687685" fill="#ffad10" stroke="none" /><path d="M 80.32549172779594 107.34259656027581 l -48.05294647128179 17.93353076933723 a72.29032258064515,72.29032258064515 0 0,0 -0.4250524287055178,-1.1695617310434585 l 48.354523160992535 -17.103721241287655" fill="#3effb6" stroke="none" /><path d="M 80.20201598880116 107.00284435728193 l -13.776477353414853 4.872946995159313 a35.61290322580645,35.61290322580645 0 0,0 -0.19944780743268167,-0.5796886878485656 l 13.858315991790763 -4.635085604221451" fill="#ffac0f" stroke="none" /><path d="M 79.86692584326677 105.97154293290107 l -14.009650680491779 4.155313285106278 a35.61290322580645,35.61290322580645 0 0,0 -0.16925856970467143,-0.5892112857802243 l 14.079101887082555 -3.9135445238214577" fill="#ffac0f" stroke="none" /><path d="M 79.76711848015287 105.62410040840567 l -14.079101887082555 3.9135445238214577 a35.61290322580645,35.61290322580645 0 0,0 -0.15909118850795775,-0.5920374958129109 l 14.144381151932288 -3.6706160948330075" fill="#ffac0f" stroke="none" /><path d="M 79.58551787078972 104.9243191809786 l -29.30465983064057 7.068780759791864 a51.14516129032258,51.14516129032258 0 0,0 -0.199075073298164,-0.8576102054897626 l 29.421995469869287 -6.5633018969535275" fill="#94ff23" stroke="none" /><path d="M 79.50377843672027 104.57218783832718 l -14.26234772375686 3.1815684957944868 a35.61290322580645,35.61290322580645 0 0,0 -0.1283183122092433,-0.5994604352758144 l 14.315000074690545 -2.935594241102508" fill="#ffac0f" stroke="none" /><path d="M 79.35854240842038 103.8639653848113 l -14.36341058215909 2.688750106481592 a35.61290322580645,35.61290322580645 0 0,0 -0.10760787658607628,-0.6035221185722459 l 14.407564901084356 -2.441109237176133" fill="#ffac0f" stroke="none" /><path d="M 79.23777060512086 103.15116336523772 l -14.423530328470187 2.189114641979662 a35.58870967741935,35.58870967741935 0 0,0 -0.08671095732094798,-0.6064562335447359 l 14.459075336807734 -1.9405129364545257" fill="#ffac0f" stroke="none" /><path d="M 79.1416061653843 102.43462659150553 l -34.507665376161455 4.027792379495327 a55.74193548387097,55.74193548387097 0 0,0 -0.10303684025527242,-0.953993173245924 l 34.57188451791778 -3.4332028843646216" fill="#62ff29" stroke="none" /><path d="M 79.10278846688536 102.07522291339032 l -18.537848940666215 1.840923552201085 a39.62903225806451,39.62903225806451 0 0,0 -0.06156729412229331,-0.6793899603196412 l 18.566790831065582 -1.5215522033328777" fill="#ffe015" stroke="none" /><path d="M 79.07016306316243 101.71520430193888 l -15.432137833612956 1.2646667664065478 a36.483870967741936,36.483870967741936 0 0,0 -0.04590616305781371,-0.6263531223074712 l 15.451620555335104 -0.9988405076023161" fill="#ffb811" stroke="none" /><path d="M 79.04373962182676 101.35467743843564 l -24.263872903299653 1.568491734594262 a45.314516129032256,45.314516129032256 0 0,0 -0.043617701368264115,-0.7788233586448449 l 24.287276955555452 -1.1505966596139794" fill="#d7ff1c" stroke="none" /><path d="M 79.0095281055655 100.63252640178507 l -19.998986470849463 0.6026490026224165 a41.00806451612903,41.00806451612903 0 0,0 -0.01518848358169627,-0.7057491500411655 l 20.006397017116168 -0.25831003679112213" fill="#fff216" stroke="none" /><line stroke="#e1ed5e" stroke-width="0.3" x1="15.007084014347285" x2="10.007500721073583" y1="101.09737516637583" y2="101.16192664675087" /><path d="M 14.007167355692545 101.11028546245083 a86.0,86.0 0 0,1 10.666146001902534,-42.60595125391555" fill="none" id="id34" stroke="none" /><text fill="#e1ed5e" style="font-size:6.75px; font-family:Arial;" text-anchor="middle"><textPath startOffset="22.20632615414155" xlink:href="#id34">October</textPath></text><path d="M 79.05617556472873 98.46500227214037 l -36.74820808170292 -2.6933197460025586 a57.846774193548384,57.846774193548384 0 0,0 0.08133123178292913,-0.9924470322076058 l 36.69640236610049 3.3254806954179426" fill="#4cff2c" stroke="none" /><path d="M 79.16333360222342 97.38593545837743 l -28.902472745302994 -3.625960493218393 a50.12903225806451,50.12903225806451 0 0,0 0.11478116353936432,-0.8552529899101678 l 28.835775582705796 4.12293182519322" fill="#9fff22" stroke="none" /><path d="M 79.21141760316559 97.0276538004421 l -15.543536838186101 -2.2224109257063125 a36.70161290322581,36.70161290322581 0 0,0 0.09480220006057435,-0.624628048964512 l 15.502978744686224 2.4896380870629167" fill="#ffba11" stroke="none" /><path d="M 79.32604984820605 96.31383870115002 l -15.862731337666775 -2.828321918242037 a37.11290322580645,37.11290322580645 0 0,0 0.11754942341275607,-0.627953720244716 l 15.811696190344158 3.1009537159493257" fill="#ffc011" stroke="none" /><path d="M 79.46518482838121 95.60439243477599 l -15.164535167059501 -3.2460650337656554 a36.50806451612903,36.50806451612903 0 0,0 0.1368280760529093,-0.6133734356556585 l 15.106412704004555 3.5066166389712734" fill="#ffb811" stroke="none" /><path d="M 79.62865764111835 94.90015583598534 l -49.59060645658632 -12.414712809404332 a72.12096774193549,72.12096774193549 0 0,0 0.31184992476337997,-1.2016849717037292 l 49.36956019995263 13.266494206656926" fill="#3effb5" stroke="none" /><path d="M 79.81627453868168 94.20196356495316 l -19.114081024428177 -5.490767223051276 a40.88709677419355,40.88709677419355 0 0,0 0.20014059202904985,-0.6747745811040884 l 19.01673453528742 5.8189711909019035" fill="#fff016" stroke="none" /><path d="M 79.91906864156998 93.8553929516997 l -14.15844469050596 -4.332372711474409 a35.806451612903224,35.806451612903224 0 0,0 0.1854169170772561,-0.5878222968766205 l 14.081772289660499 4.575445174777444" fill="#ffaf10" stroke="none" /><path d="M 80.14247586403 93.16781622104843 l -13.81790850014502 -4.75419239917828 a35.61290322580645,35.61290322580645 0 0,0 0.2044297984423506,-0.5779505690092493 l 13.73402562089286 4.99134059461414" fill="#ffac0f" stroke="none" /><path d="M 80.38941819471856 92.48833698450439 l -28.579937769217764 -10.947296906223453 a51.60483870967742,51.60483870967742 0 0,0 0.32488059689211163,-0.8267856826697427 l 28.387263622443964 11.437631593788959" fill="#8fff24" stroke="none" /><path d="M 80.52162464483688 92.15188598940014 l -15.798129320316637 -6.365290626108637 a38.03225806451613,38.03225806451613 0 0,0 0.24988699103098388,-0.6051211696398556 l 15.686220642399453 6.636286366201804" fill="#ffcc13" stroke="none" /><path d="M 80.803312248108 91.48605970444005 l -16.0562157924811 -7.121106744903822 a38.564516129032256,38.564516129032256 0 0,0 0.2743547312908035,-0.6045042833015425 l 15.931258744226946 7.396433037047436" fill="#ffd313" stroke="none" /><path d="M 81.10775173730289 90.83032412892265 l -15.45333671257482 -7.500541323116256 a38.177419354838705,38.177419354838705 0 0,0 0.2920390547920675,-0.5887329139961275 l 15.32193764482934 7.765433825611344" fill="#ffce13" stroke="none" /><path d="M 81.43458229118936 90.18545643968196 l -27.591461802264657 -14.586130406463452 a52.20967741935484,52.20967741935484 0 0,0 0.4268561312056887,-0.790899582913046 l 27.336297571840497 15.05891097270897" fill="#88ff25" stroke="none" /><path d="M 81.6062741919709 89.86733742301443 l -16.995124536911693 -9.36220666675395 a40.403225806451616,40.403225806451616 0 0,0 0.34081536755949404,-0.6062725096876841 l 16.831451528059766 9.653362686376418" fill="#ffea16" stroke="none" /><line stroke="#e1ed5e" stroke-width="0.3" x1="26.266209847984243" x2="21.928928074336255" y1="57.711370442889674" y2="55.22380399835377" /><path d="M 25.398753493254645 57.213857153982495 a86.0,86.0 0 0,1 29.58750427330803,-30.492523968695096" fill="none" id="id35" stroke="none" /><text fill="#e1ed5e" style="font-size:6.75px; font-family:Arial;" text-anchor="middle"><textPath startOffset="21.46611528233685" xlink:href="#id35">November</textPath></text><path d="M 81.96595687620814 89.24020034530311 l -21.960810578165905 -13.102659256929284 a46.572580645161295,46.572580645161295 0 0,0 0.41667867315556734,-0.6849101803875366 l 21.73201610672412 13.478737210523896" fill="#c8ff1d" stroke="none" /><path d="M 82.15384107792192 88.93136811851018 l -5.201703003785432 -3.226225652093231 a27.120967741935484,27.120967741935484 0 0,0 0.2494772633735897,-0.3946131185626318 l 5.145398144165879 3.315286418370078" fill="#ff3605" stroke="none" /><path d="M 82.34701348167596 88.62581576622439 l -12.344888037583752 -7.954066624310821 a35.685483870967744,35.685483870967744 0 0,0 0.33714857470860327,-0.51350040971537 l 12.206142827517228 8.165385098003858" fill="#ffad10" stroke="none" /><path d="M 82.7489923806493 88.02491185347247 l -23.908942587648504 -16.596809954231116 a50.10483870967742,50.10483870967742 0 0,0 0.49791654883199105,-0.7042676472498512 l 23.619713419012633 17.005904101812757" fill="#9fff22" stroke="none" /><path d="M 82.95767976084542 87.72973835380427 l -15.844645660135654 -11.407950631889353 a40.524193548387096,40.524193548387096 0 0,0 0.41245405995353,-0.5625868742514244 l 15.64592898766849 11.678999949812278" fill="#ffec16" stroke="none" /><path d="M 83.39014120810768 87.1503855733568 l -15.327761396665611 -11.857766308457613 a40.37903225806451,40.37903225806451 0 0,0 0.43002884733716856,-0.5460929660050269 l 15.121378468734472 12.119851668415686" fill="#ffea16" stroke="none" /><path d="M 83.84228863543731 86.58626213691792 l -11.31784390513147 -9.39579795017731 a35.70967741935484,35.70967741935484 0 0,0 0.3966994637016183,-0.46956703957076606 l 11.154433827942727 9.58922393937719" fill="#ffad10" stroke="none" /><path d="M 84.31358615837235 86.03803664274999 l -21.722430227691753 -19.33442391176788 a50.08064516129032,50.08064516129032 0 0,0 0.5786850966875425,-0.6389985372719112 l 21.386401490388167 19.70547523630935" fill="#a0ff22" stroke="none" /><path d="M 84.5562425177563 85.77008943001954 l -14.58972481041456 -13.443003073023021 a40.83870967741936,40.83870967741936 0 0,0 0.4807935028961641,-0.5128769865320869 l 14.35616398554794 13.692149476433158" fill="#fff016" stroke="none" /><path d="M 85.05521093208273 85.24692304244772 l -14.066696622682505 -13.886248703133894 a40.766129032258064,40.766129032258064 0 0,0 0.4972772773249738,-0.4951418106619421 l 13.825583545190218 14.126326364445946" fill="#ffef16" stroke="none" /><path d="M 85.57189188830299 84.74124197986013 l -10.023213354093663 -10.600266228276887 a35.58870967741935,35.58870967741935 0 0,0 0.44874332135687395,-0.4170580113873197 l 9.839262148941934 10.771228825738854" fill="#ffac0f" stroke="none" /><path d="M 86.10567301691215 84.25364557470407 l -24.299064931252705 -27.53797928294843 a57.725806451612904,57.725806451612904 0 0,0 0.7507274152405512,-0.6510234167058089 l 23.82144371736538 27.952167693073918" fill="#4dff2c" stroke="none" /><path d="M 86.37877921826538 84.01681056812374 l -12.836588248224558 -15.062498796399515 a40.79032258064516,40.79032258064516 0 0,0 0.5383204984872579,-0.45082793621432293 l 12.575410212778191 15.281227890007651" fill="#ffef16" stroke="none" /><path d="M 86.93701828274178 83.55741782278169 l -9.074859418786533 -11.42266941574037 a35.58870967741935,35.58870967741935 0 0,0 0.48293446009272445,-0.3769380062818442 l 8.876892403534383 11.577185811245435" fill="#ffac0f" stroke="none" /><path d="M 87.51073957382395 83.11751280151077 l -11.74105588451573 -15.87109395618343 a40.74193548387097,40.74193548387097 0 0,0 0.5673890406223866,-0.4122322679363264 l 11.46612152753956 16.070845458936425" fill="#ffef16" stroke="none" /><path d="M 88.09926311788651 82.69761687909137 l -16.534894792429565 -24.039947055087325 a50.177419354838705,50.177419354838705 0 0,0 0.71585329930972,-0.48334734319420253 l 16.118636798713304 24.321006310580195" fill="#9fff22" stroke="none" /><path d="M 88.39885842347998 82.49532879139004 l -12.362967693872145 -18.65417150687121 a43.37903225806451,43.37903225806451 0 0,0 0.6259655792266972,-0.4071454250944167 l 12.040035088861162 18.864215856125163" fill="#efff19" stroke="none" /><path d="M 89.00827224532344 82.1063720568725 l -8.88962313799878 -14.471574672898043 a37.983870967741936,37.983870967741936 0 0,0 0.5600593963574779,-0.33742951975802743 l 8.639201675423655 14.62245080211469" fill="#ffcb12" stroke="none" /><line stroke="#e1ed5e" stroke-width="0.3" x1="56.762969772571076" x2="54.21961505331055" y1="26.818313649435495" y2="22.513508569990535" /><path d="M 56.25429882871897 25.957352633546506 a86.0,86.0 0 0,1 42.265352541879196,-11.944610805530505" fill="none" id="id36" stroke="none" /><text fill="#e1ed5e" style="font-size:6.75px; font-family:Arial;" text-anchor="middle"><textPath startOffset="22.20632615414155" xlink:href="#id36">December</textPath></text><path d="M 89.63071344664047 81.73862282372117 l -7.239386695087411 -12.749302498646282 a35.66129032258065,35.66129032258065 0 0,0 0.5364067888338766,-0.2985097972307465 l 7.018855817181489 12.872027693437213" fill="#ffad10" stroke="none" /><path d="M 90.26544431104013 81.39251694778311 l -18.011171009757557 -34.428131085092545 a59.854838709677416,59.854838709677416 0 0,0 0.9170317439002287,-0.4697392769318688 l 17.415878778268564 34.73306288733692" fill="#38ff2e" stroke="none" /><path d="M 90.58718382345135 81.22770947309562 l -8.783849197009674 -17.51792088340156 a40.596774193548384,40.596774193548384 0 0,0 0.6273723663093378,-0.3078488954997187 l 8.48100556368991 17.66652493903611" fill="#ffed16" stroke="none" /><path d="M 91.23893434514133 80.91482961587045 l -6.1569701030688835 -13.412389325252335 a35.75806451612903,35.75806451612903 0 0,0 0.5616023374494326,-0.2519745984983528 l 5.925185647152676 13.516384254267217" fill="#ffae10" stroke="none" /><path d="M 92.57280143429618 80.3572730644239 l -22.28159569711144 -58.92818080672833 a84.0,84.0 0 0,0 1.3568706969097222,-0.4997469287747105 l 21.26394267442915 59.30299100330936" fill="#4dd2ff" stroke="none" /><path d="M 92.91201910852362 80.23233633223022 l -6.67152118471913 -18.606199558257966 a40.766129032258064,40.766129032258064 0 0,0 0.6625815934946593,-0.23116170783966183 l 6.3502575871611855 18.718282119269837" fill="#ffef16" stroke="none" /><path d="M 93.59665428221793 80.00007090966166 l -4.441030094590795 -13.87091856265401 a35.564516129032256,35.564516129032256 0 0,0 0.5846376752479594,-0.18164977156991693 l 4.201607046632107 13.945308469106452" fill="#ffab0f" stroke="none" /><path d="M 94.63758080256005 79.69619591428918 l -4.954677645560876 -18.759966447857238 a40.403225806451616,40.403225806451616 0 0,0 0.6739471842120404,-0.17180414331566646 l 4.631021572663836 18.842473587341768" fill="#ffea16" stroke="none" /><path d="M 94.98787191387505 79.60689891045804 l -8.20533872164004 -33.385480009492085 a55.37903225806452,55.37903225806452 0 0,0 0.9276681803488015,-0.2195490865317354 l 7.6294468543287035 33.52177500816469" fill="#66ff29" stroke="none" /><path d="M 95.33964822691252 79.52364482259891 l -4.3059932281292195 -18.919397295248473 a40.403225806451616,40.403225806451616 0 0,0 0.679461579105553,-0.1485039840782259 l 3.9796889248701453 18.990714777422568" fill="#ffea16" stroke="none" /><path d="M 96.04723909329186 79.375362276772 l -2.736877079414277 -14.280423124032296 a35.54032258064516,35.54032258064516 0 0,0 0.6018243860597348,-0.10997955978775176 l 2.490657572251649 14.325418165170785" fill="#ffab0f" stroke="none" /><path d="M 96.75951476605007 79.25152402106235 l -3.0836875613394397 -19.744517463827762 a40.983870967741936,40.983870967741936 0 0,0 0.69795731238925,-0.10286076478262511 l 2.743361268521541 19.794672712771355" fill="#fff216" stroke="none" /><path d="M 97.83486435360386 79.11191278185805 l -0.5786998501888312 -5.582991053696925 a26.612903225806452,26.612903225806452 0 0,0 0.45606262695937794,-0.043308641743434795 l 0.482512096139217 5.59212523995554" fill="#ff2f04" stroke="none" /></svg>