<?xml version="1.0" encoding="utf-8" ?>
<svg baseProfile="full" height="200mm" version="1.1" viewBox="0,0,200,200" width="200mm" xmlns="http://www.w3.org/2000/svg" xmlns:ev="http://www.w3.org/2001/xml-events" xmlns:xlink="http://www.w3.org/1999/xlink"><defs /><rect fill="#1a1a1a" height="200" width="200" x="0" y="0" /><text alignment-baseline="middle" fill="#e1ed5e" style="dominant-baseline: central; font-size:9.0px; font-family:Arial;" text-anchor="middle" x="100.0" y="100.0">2025</text><line stroke="#e1ed5e" stroke-width="0.3" x1="100.0" x2="100.0" y1="15.0" y2="10.0" /><path d="M 100.0 14.0 a86.0,86.0 0 0,1 42.46469731375804,11.215312516191453" fill="none" id="id61" stroke="none" /><text fill="#e1ed5e" style="font-size:6.75px; font-family:Arial;" text-anchor="middle"><textPath startOffset="22.20632615414155" xlink:href="#id61">January</textPath></text><path d="M 103.95276090670814 79.375362276772 l 7.006884708381513 -36.56038452352205 a58.22577265584076,58.22577265584076 0 0,0 0.9827223649505006,0.19712486143705413 l -7.635173482799138 36.43435570600779" fill="#fff116" stroke="none" /><path d="M 106.0581310904928 79.89281104454417 l 10.95795005524966 -36.3698918088994 a58.98480880041907,58.98480880041907 0 0,0 0.9696389897983912,0.30127155409110773 l -11.582374417758768 36.17588011992577" fill="#fdff18" stroke="none" /><path d="M 107.08798089147638 80.2323363322302 l 12.820742806845436 -35.755758326248866 a58.98480880041907,58.98480880041907 0 0,0 0.9527947455251152,0.3509223457425285 l -13.434319878143128 35.52977271270001" fill="#fdff18" stroke="none" /><path d="M 108.09893153111575 80.62456947434976 l 14.64935074748176 -35.04628685441083 a58.98480880041907,58.98480880041907 0 0,0 0.9334100003815242,0.3996374494832455 l -15.250444505653599 34.788929876964794" fill="#fdff18" stroke="none" /><path d="M 108.43124777332544 80.76684994638697 l 10.745534747250279 -24.5124432060977 a47.764274489261396,47.764274489261396 0 0,0 0.7501672297628289,0.33657816914469424 l -11.165884095479887 24.323844706436475" fill="#ff0000" stroke="none" /><line stroke="#e1ed5e" stroke-width="0.3" x1="143.23703022742887" x2="145.7803849466894" y1="26.81831364943548" y2="22.513508569990506" /><path d="M 143.74570117128098 25.957352633546492 a86.0,86.0 0 0,1 28.547481713284135,27.462654790039103" fill="none" id="id62" stroke="none" /><text fill="#e1ed5e" style="font-size:6.75px; font-family:Arial;" text-anchor="middle"><textPath startOffset="19.985693538727396" xlink:href="#id62">February</textPath></text><path d="M 111.60114157652 82.49532879139004 l 20.965918511783155 -31.63494796736741 a58.95180722891566,58.95180722891566 0 0,0 0.841032604858744,0.5678689690892754 l -21.50735581104844 31.269367085979464" fill="#feff18" stroke="none" /><path d="M 112.19680574252982 82.90503203632743 l 22.061587338373737 -30.921385216637713 a58.98480880041907,58.98480880041907 0 0,0 0.8214468379837533,0.5968160622907226 l -22.59057949271128 30.537049919530315" fill="#fdff18" stroke="none" /><path d="M 113.06298171725822 83.55741782278167 l 39.04524551004473 -49.146869514514265 a83.76898899947616,83.76898899947616 0 0,0 1.121294195878156,0.9066752589490061 l -39.88544310448738 48.46748815830113" fill="#4dd6ff" stroke="none" /><path d="M 113.6212207817346 84.01681056812373 l 24.638069858213516 -28.910399742414224 a58.98480880041907,58.98480880041907 0 0,0 0.7671008128109222,0.6652222657326992 l -25.132064469671203 28.482012483261855" fill="#fdff18" stroke="none" /><path d="M 114.16331599549186 84.49514656593476 l 25.61861190803215 -28.045185389118526 a58.98480880041907,58.98480880041907 0 0,0 0.7437482069628242,0.691232901764158 l -26.09756799878982 27.600047901279726" fill="#fdff18" stroke="none" /><path d="M 114.68862486808459 84.99185889309783 l 26.59187404091165 -27.170317268441032 a59.01781037192247,59.01781037192247 0 0,0 0.7199166747523911,0.7168251237622385 l -27.055626515831364 26.708556294028675" fill="#fdff18" stroke="none" /><line stroke="#e1ed5e" stroke-width="0.3" x1="172.23445277983987" x2="176.4835382374775" y1="55.19839476539836" y2="52.563006222186495" /><path d="M 173.08426987136738 54.67131705675599 a86.0,86.0 0 0,1 12.851231095245387,41.99856678651699" fill="none" id="id63" stroke="none" /><text fill="#e1ed5e" style="font-size:6.75px; font-family:Arial;" text-anchor="middle"><textPath startOffset="22.20632615414155" xlink:href="#id63">March</textPath></text><path d="M 117.84615892207809 88.93136811851018 l 32.3362303360231 -20.055734771122722 a59.05081194342588,59.05081194342588 0 0,0 0.5283197458352802,0.8684187498294326 l -32.676665880144604 19.496148248086207" fill="#fcff18" stroke="none" /><path d="M 118.03404312379186 89.2402003453031 l 53.90374545016048 -32.1610355315351 a83.76898899947616,83.76898899947616 0 0,0 0.72815326291695,1.244649960673173 l -54.449358387547754 31.22840615850803" fill="#4dd6ff" stroke="none" /><path d="M 118.3937258080291 89.86733742301442 l 33.299484752513656 -18.343887829262542 a59.01781037192247,59.01781037192247 0 0,0 0.4825180972723605,0.8940327524470189 l -33.61031094900448 17.767974093483065" fill="#fdff18" stroke="none" /><path d="M 118.73160827565052 90.50648371742162 l 33.88174089880631 -17.171876230352638 a58.98480880041907,58.98480880041907 0 0,0 0.45120566293547704,0.9096030835351655 l -34.17230657469519 16.586113558318523" fill="#fdff18" stroke="none" /><path d="M 119.04729006885535 91.15688171328212 l 34.45274625864722 -15.995436062879437 a58.98480880041907,58.98480880041907 0 0,0 0.41962827472107567,0.9245952795122364 l -34.72297685033164 15.400018774525137" fill="#fdff18" stroke="none" /><path d="M 119.196687751892 91.48605970444005 l 57.348721974353126 -25.434783397369493 a83.73598742797276,83.73598742797276 0 0,0 0.5730304435188655,1.322633269464002 l -57.778043127714675 24.44385098331889" fill="#4cd6ff" stroke="none" /><path d="M 119.47837535516314 92.15188598940014 l 35.23249350517459 -14.195671911263114 a58.98480880041907,58.98480880041907 0 0,0 0.3713415324957162,0.9450236960444233 l -35.471628587552004 13.587099210322906" fill="#fdff18" stroke="none" /><path d="M 119.7369772167798 92.82701384747503 l 35.70025266083848 -12.974500358653072 a58.98480880041907,58.98480880041907 0 0,0 0.338592237138712,0.9572458497121491 l -35.918297978787 12.358056882514308" fill="#fdff18" stroke="none" /><path d="M 119.97218684219823 93.5106431181261 l 36.21985900874293 -11.76854558671945 a59.08381351492928,59.08381351492928 0 0,0 0.3059543198957384,0.9699588036268741 l -36.417068812406875 11.143336616666156" fill="#fbff18" stroke="none" /><path d="M 120.08093135843002 93.85539295169968 l 60.24279407529006 -18.433821144900946 a84.0,84.0 0 0,0 0.41117641155319085,1.3862824530138804 l -60.551176383954946 17.394109305140535" fill="#4dd2ff" stroke="none" /><path d="M 120.28053869075195 94.5502522615342 l 36.71531781835451 -9.866070290276477 a59.01781037192247,59.01781037192247 0 0,0 0.2551920793692122,0.9833591812102763 l -36.87970622959402 9.232614683517351" fill="#fdff18" stroke="none" /><path d="M 120.45610955862082 95.25157060432595 l 37.03316638794845 -8.596423253771363 a59.01781037192247,59.01781037192247 0 0,0 0.2211920449104601,0.991560565932134 l -37.17565281986095 7.957684518289264" fill="#fdff18" stroke="none" /><path d="M 120.53481517161879 95.60439243477599 l 37.20792335182263 -7.964592230544723 a59.05081194342588,59.05081194342588 0 0,0 0.20420531143441414,0.9957776205944502 l -37.339507959172046 7.322938953786862" fill="#fcff18" stroke="none" /><line stroke="#e1ed5e" stroke-width="0.3" x1="184.98032266829074" x2="189.97916517819016" y1="98.17113171792111" y2="98.06355123074" /><path d="M 185.9800911702706 98.14961562048488 a86.0,86.0 0 0,1 -9.607161424134198,41.387399972396054" fill="none" id="id64" stroke="none" /><text fill="#e1ed5e" style="font-size:6.75px; font-family:Arial;" text-anchor="middle"><textPath startOffset="21.466115282336823" xlink:href="#id64">April</textPath></text><line stroke="#e1ed5e" stroke-width="0.3" x1="174.80103733775053" x2="179.2010983576182" y1="140.37084112569926" y2="142.7455964860345" /><path d="M 175.68104954172406 140.8457921977663 a86.0,86.0 0 0,1 -30.038265399797805,32.042727171017184" fill="none" id="id65" stroke="none" /><text fill="#e1ed5e" style="font-size:6.75px; font-family:Arial;" text-anchor="middle"><textPath startOffset="22.206326154141568" xlink:href="#id65">May</textPath></text><line stroke="#e1ed5e" stroke-width="0.3" x1="143.8653032363475" x2="146.44561519142675" y1="172.8068346515853" y2="177.08958963109032" /><path d="M 144.38136562736335 173.6633856474863 a86.0,86.0 0 0,1 -40.68145358897372,12.25698825130547" fill="none" id="id66" stroke="none" /><text fill="#e1ed5e" style="font-size:6.75px; font-family:Arial;" text-anchor="middle"><textPath startOffset="21.466115282336833" xlink:href="#id66">June</textPath></text><line stroke="#e1ed5e" stroke-width="0.3" x1="102.19456741930631" x2="102.32365962044197" y1="184.97166512339345" y2="189.96999836594603" /><path d="M 102.22038585953345 185.97133177190398 a86.0,86.0 0 0,1 -42.740103519485714,-10.115201625700543" fill="none" id="id67" stroke="none" /><text fill="#e1ed5e" style="font-size:6.75px; font-family:Arial;" text-anchor="middle"><textPath startOffset="22.20632615414155" xlink:href="#id67">July</textPath></text><line stroke="#e1ed5e" stroke-width="0.3" x1="58.666819895761336" x2="56.23545636021788" y1="174.27360380694188" y2="178.64263932499728" /><path d="M 58.180547188652646 175.14741091055294 a86.0,86.0 0 0,1 -31.652253787137756,-30.449443065178592" fill="none" id="id68" stroke="none" /><text fill="#e1ed5e" style="font-size:6.75px; font-family:Arial;" text-anchor="middle"><textPath startOffset="22.20632615414155" xlink:href="#id68">August</textPath></text><line stroke="#e1ed5e" stroke-width="0.3" x1="26.63291911575756" x2="22.317208475507996" y1="142.92168965132927" y2="145.44649492493687" /><path d="M 25.769776987707644 143.4266507060508 a86.0,86.0 0 0,1 -11.730757126820373,-40.83630448921669" fill="none" id="id69" stroke="none" /><text fill="#e1ed5e" style="font-size:6.75px; font-family:Arial;" text-anchor="middle"><textPath startOffset="21.46611528233685" xlink:href="#id69">September</textPath></text><line stroke="#e1ed5e" stroke-width="0.3" x1="15.007084014347285" x2="10.007500721073583" y1="101.09737516637583" y2="101.16192664675087" /><path d="M 14.007167355692545 101.11028546245083 a86.0,86.0 0 0,1 10.666146001902534,-42.60595125391555" fill="none" id="id70" stroke="none" /><text fill="#e1ed5e" style="font-size:6.75px; font-family:Arial;" text-anchor="middle"><textPath startOffset="22.20632615414155" xlink:href="#id70">October</textPath></text><line stroke="#e1ed5e" stroke-width="0.3" x1="26.266209847984243" x2="21.928928074336255" y1="57.711370442889674" y2="55.22380399835377" /><path d="M 25.398753493254645 57.213857153982495 a86.0,86.0 0 0,1 29.58750427330803,-30.492523968695096" fill="none" id="id71" stroke="none" /><text fill="#e1ed5e" style="font-size:6.75px; font-family:Arial;" text-anchor="middle"><textPath startOffset="21.46611528233685" xlink:href="#id71">November</textPath></text><line stroke="#e1ed5e" stroke-width="0.3" x1="56.762969772571076" x2="54.21961505331055" y1="26.818313649435495" y2="22.513508569990535" /><path d="M 56.25429882871897 25.957352633546506 a86.0,86.0 0 0,1 42.265352541879196,-11.944610805530505" fill="none" id="id72" stroke="none" /><text fill="#e1ed5e" style="font-size:6.75px; font-family:Arial;" text-anchor="middle"><textPath startOffset="22.20632615414155" xlink:href="#id72">December</textPath></text></svg>