<?xml version="1.0" encoding="utf-8" ?>
<svg baseProfile="full" height="200mm" version="1.1" viewBox="0,0,200,200" width="200mm" xmlns="http://www.w3.org/2000/svg" xmlns:ev="http://www.w3.org/2001/xml-events" xmlns:xlink="http://www.w3.org/1999/xlink"><defs /><rect fill="#1a1a1a" height="200" width="200" x="0" y="0" /><text alignment-baseline="middle" fill="#e1ed5e" style="dominant-baseline: central; font-size:9.0px; font-family:Arial;" text-anchor="middle" x="100.0" y="100.0">2025</text><line stroke="#e1ed5e" stroke-width="0.3" x1="100.0" x2="100.0" y1="15.0" y2="10.0" /><path d="M 100.0 14.0 a86.0,86.0 0 0,1 42.46469731375804,11.215312516191453" fill="none" id="id61" stroke="none" /><text fill="#e1ed5e" style="font-size:6.75px; font-family:Arial;" text-anchor="middle"><textPath startOffset="22.20632615414155" xlink:href="#id61">January</textPath></text><path d="M 103.95276090670814 79.375362276772 l 7.003216182356182 -36.54124296094429 a58.20628272251309,58.20628272251309 0 0,0 0.9823934179481876,0.19705887776296288 l -7.631176009771495 36.41528012710412" fill="#fff116" stroke="none" /><path d="M 106.0581310904928 79.89281104454417 l 10.952212908623874 -36.350849980727205 a58.96492146596859,58.96492146596859 0 0,0 0.9693120660483865,0.30116997729059797 l -11.576310347382979 36.15693986855409" fill="#feff18" stroke="none" /><path d="M 107.08798089147638 80.2323363322302 l 12.814030376056513 -35.737038033931455 a58.96492146596859,58.96492146596859 0 0,0 0.9524735009851688,0.35080402866737204 l -13.427286202814257 35.51117073745776" fill="#feff18" stroke="none" /><path d="M 108.09893153111575 80.62456947434976 l 14.64168093033648 -35.0279380131258 a58.96492146596859,58.96492146596859 0 0,0 0.9330952916076122,0.39950270761023704 l -15.24245997973441 34.77071577755277" fill="#feff18" stroke="none" /><path d="M 108.43124777332544 80.76684994638697 l 10.73990881282763 -24.499609466199214 a47.75026178010471,47.75026178010471 0 0,0 0.7499471515700384,0.3364794264747145 l -11.16003808286445 24.311109709207965" fill="#ff0000" stroke="none" /><line stroke="#e1ed5e" stroke-width="0.3" x1="143.23703022742887" x2="145.7803849466894" y1="26.81831364943548" y2="22.513508569990506" /><path d="M 143.74570117128098 25.957352633546492 a86.0,86.0 0 0,1 28.547481713284135,27.462654790039103" fill="none" id="id62" stroke="none" /><text fill="#e1ed5e" style="font-size:6.75px; font-family:Arial;" text-anchor="middle"><textPath startOffset="19.985693538727396" xlink:href="#id62">February</textPath></text><path d="M 111.60114157652 82.49532879139004 l 20.954941591096354 -31.618385167384492 a58.931937172774866,58.931937172774866 0 0,0 0.8407491298329506,0.5676775654864545 l -21.496095415335848 31.25299568959937" fill="#feff18" stroke="none" /><path d="M 112.19680574252982 82.90503203632743 l 22.05003676908663 -30.905196009718008 a58.96492146596859,58.96492146596859 0 0,0 0.8211698787406446,0.59661483962208 l -22.578751964181066 30.521061935279253" fill="#feff18" stroke="none" /><path d="M 113.06298171725822 83.55741782278167 l 39.02480297312847 -49.12113816921871 a83.73612565445026,83.73612565445026 0 0,0 1.120854301849652,0.9063195619038684 l -39.86456067354262 48.44211251005071" fill="#4cd6ff" stroke="none" /><path d="M 113.6212207817346 84.01681056812373 l 24.625170345198747 -28.89526340747055 a58.96492146596859,58.96492146596859 0 0,0 0.766842176888693,0.6649979792095827 l -25.118906320734204 28.4671004348413" fill="#feff18" stroke="none" /><path d="M 114.16331599549186 84.49514656593476 l 25.605199022216425 -28.03050204598286 a58.96492146596859,58.96492146596859 0 0,0 0.7434974446116422,0.6909998454878026 l -26.083904350622916 27.58559761442042" fill="#feff18" stroke="none" /><path d="M 114.68862486808459 84.99185889309783 l 26.57795159376981 -27.156091971441846 a58.9979057591623,58.9979057591623 0 0,0 0.7196738724095012,0.7165833640897712 l -27.041461266346634 26.69457275670196" fill="#fdff18" stroke="none" /><line stroke="#e1ed5e" stroke-width="0.3" x1="172.23445277983987" x2="176.4835382374775" y1="55.19839476539836" y2="52.563006222186495" /><path d="M 173.08426987136738 54.67131705675599 a86.0,86.0 0 0,1 12.851231095245387,41.99856678651699" fill="none" id="id63" stroke="none" /><text fill="#e1ed5e" style="font-size:6.75px; font-family:Arial;" text-anchor="middle"><textPath startOffset="22.20632615414155" xlink:href="#id63">March</textPath></text><path d="M 117.84615892207809 88.93136811851018 l 32.319300372496386 -20.0452343864258 a59.03089005235602,59.03089005235602 0 0,0 0.5281415073305046,0.8681257725922407 l -32.65955767811311 19.485940840626476" fill="#fcff18" stroke="none" /><path d="M 118.03404312379186 89.2402003453031 l 53.87552359390385 -32.14419729303691 a83.73612565445026,83.73612565445026 0 0,0 0.7278676016931871,1.2441616730433158 l -54.42085087006737 31.2120562076397" fill="#4cd6ff" stroke="none" /><path d="M 118.3937258080291 89.86733742301442 l 33.282050467302916 -18.334283699508998 a58.9979057591623,58.9979057591623 0 0,0 0.48235536104383125,0.8937312269309039 l -33.59271392756521 17.758671489245636" fill="#fdff18" stroke="none" /><path d="M 118.73160827565052 90.50648371742162 l 33.86400176744568 -17.16288571923727 a58.96492146596859,58.96492146596859 0 0,0 0.4510535343093572,0.9092964015079225 l -34.154415314708444 16.5774297292304" fill="#feff18" stroke="none" /><path d="M 119.04729006885535 91.15688171328212 l 34.4347081716008 -15.987061489024526 a58.96492146596859,58.96492146596859 0 0,0 0.4194867927359006,0.9242835427120509 l -34.70479728130005 15.391955937470412" fill="#feff18" stroke="none" /><path d="M 119.196687751892 91.48605970444005 l 57.318696465466026 -25.42146675684731 a83.70314136125654,83.70314136125654 0 0,0 0.5728056680459013,1.3221144566817764 l -57.74779284335461 24.43105315557893" fill="#4cd7ff" stroke="none" /><path d="M 119.47837535516314 92.15188598940014 l 35.21404717349648 -14.188239622304337 a58.96492146596859,58.96492146596859 0 0,0 0.3712163308819061,0.9447050715936692 l -35.45305705426009 13.579985545814884" fill="#feff18" stroke="none" /><path d="M 119.7369772167798 92.82701384747503 l 35.68156142907888 -12.967707426528122 a58.96492146596859,58.96492146596859 0 0,0 0.3384780772863829,0.9569231044366838 l -35.899492587175075 12.351586695664825" fill="#feff18" stroke="none" /><path d="M 119.97218684219823 93.5106431181261 l 36.200895731775 -11.76238404452745 a59.063874345549735,59.063874345549735 0 0,0 0.3058510686896316,0.9696314690875791 l -36.39800228423284 11.13750240901345" fill="#fbff18" stroke="none" /><path d="M 120.08093135843002 93.85539295169968 l 60.2112533454077 -18.424169929641835 a83.96701570680628,83.96701570680628 0 0,0 0.41101495484708356,1.3857381012653147 l -60.519474197366485 17.38500244162999" fill="#4dd3ff" stroke="none" /><path d="M 120.28053869075195 94.5502522615342 l 36.69609513886845 -9.860904808449106 a58.9979057591623,58.9979057591623 0 0,0 0.2551060121381967,0.9830275290601406 l -36.86039748287695 9.227780853840116" fill="#fdff18" stroke="none" /><path d="M 120.45610955862082 95.25157060432595 l 37.013777295598736 -8.591922508612319 a58.9979057591623,58.9979057591623 0 0,0 0.2211174446843279,0.9912261477460177 l -37.1561891272851 7.953518191316338" fill="#fdff18" stroke="none" /><path d="M 120.53481517161879 95.60439243477599 l 37.188442763680314 -7.960422286968522 a59.03089005235602,59.03089005235602 0 0,0 0.2041364189698333,0.9954416764704932 l -37.31995847856515 7.319104954334617" fill="#fcff18" stroke="none" /><path d="M 120.67395015179393 96.31383870115 l 61.98937828236852 -11.052694114405186 a83.96701570680628,83.96701570680628 0 0,0 0.2414577034398203,1.4250970338387152 l -62.17044784732856 9.984011292250633" fill="#4dd3ff" stroke="none" /><path d="M 120.78858239683441 97.02765380044208 l 37.64801387992159 -5.382903405377392 a59.03089005235602,59.03089005235602 0 0,0 0.13516387489972642,1.00712786463603 l -37.735093753879156 4.734057198676698" fill="#fcff18" stroke="none" /><path d="M 120.87857604477298 97.74499172005257 l 37.843785480106845 -4.087350086480629 a59.063874345549735,59.063874345549735 0 0,0 0.10047292190317672,1.0117486120710866 l -37.90853552769225 3.435325943705107" fill="#fbff18" stroke="none" /><path d="M 120.94382443527127 98.46500227214037 l 37.863364280100356 -2.7750508661252953 a58.96492146596859,58.96492146596859 0 0,0 0.06547748190749718,1.012907664089514 l -37.905522353012266 2.1228841377827457" fill="#feff18" stroke="none" /><path d="M 120.96714384426684 98.82574320788733 l 62.90143153280055 -3.5227703763380056 a84.0,84.0 0 0,0 0.0684255670660141,1.444355573508001 l -62.95275070810006 2.4395036962070047" fill="#4dd2ff" stroke="none" /><line stroke="#e1ed5e" stroke-width="0.3" x1="184.98032266829074" x2="189.97916517819016" y1="98.17113171792111" y2="98.06355123074" /><path d="M 185.9800911702706 98.14961562048488 a86.0,86.0 0 0,1 -9.607161424134198,41.387399972396054" fill="none" id="id64" stroke="none" /><text fill="#e1ed5e" style="font-size:6.75px; font-family:Arial;" text-anchor="middle"><textPath startOffset="21.466115282336823" xlink:href="#id64">April</textPath></text><path d="M 120.99513854157772 99.54816195383933 l 37.98910931921076 -0.8175666426865268 a58.9979057591623,58.9979057591623 0 0,0 0.013111562202271387,1.0155049420144278 l -37.997553888530746 0.16352544261163637" fill="#fdff18" stroke="none" /><line stroke="#e1ed5e" stroke-width="0.3" x1="174.80103733775053" x2="179.2010983576182" y1="140.37084112569926" y2="142.7455964860345" /><path d="M 175.68104954172406 140.8457921977663 a86.0,86.0 0 0,1 -30.038265399797805,32.042727171017184" fill="none" id="id65" stroke="none" /><text fill="#e1ed5e" style="font-size:6.75px; font-family:Arial;" text-anchor="middle"><textPath startOffset="22.206326154141568" xlink:href="#id65">May</textPath></text><line stroke="#e1ed5e" stroke-width="0.3" x1="143.8653032363475" x2="146.44561519142675" y1="172.8068346515853" y2="177.08958963109032" /><path d="M 144.38136562736335 173.6633856474863 a86.0,86.0 0 0,1 -40.68145358897372,12.25698825130547" fill="none" id="id66" stroke="none" /><text fill="#e1ed5e" style="font-size:6.75px; font-family:Arial;" text-anchor="middle"><textPath startOffset="21.466115282336833" xlink:href="#id66">June</textPath></text><line stroke="#e1ed5e" stroke-width="0.3" x1="102.19456741930631" x2="102.32365962044197" y1="184.97166512339345" y2="189.96999836594603" /><path d="M 102.22038585953345 185.97133177190398 a86.0,86.0 0 0,1 -42.740103519485714,-10.115201625700543" fill="none" id="id67" stroke="none" /><text fill="#e1ed5e" style="font-size:6.75px; font-family:Arial;" text-anchor="middle"><textPath startOffset="22.20632615414155" xlink:href="#id67">July</textPath></text><line stroke="#e1ed5e" stroke-width="0.3" x1="58.666819895761336" x2="56.23545636021788" y1="174.27360380694188" y2="178.64263932499728" /><path d="M 58.180547188652646 175.14741091055294 a86.0,86.0 0 0,1 -31.652253787137756,-30.449443065178592" fill="none" id="id68" stroke="none" /><text fill="#e1ed5e" style="font-size:6.75px; font-family:Arial;" text-anchor="middle"><textPath startOffset="22.20632615414155" xlink:href="#id68">August</textPath></text><line stroke="#e1ed5e" stroke-width="0.3" x1="26.63291911575756" x2="22.317208475507996" y1="142.92168965132927" y2="145.44649492493687" /><path d="M 25.769776987707644 143.4266507060508 a86.0,86.0 0 0,1 -11.730757126820373,-40.83630448921669" fill="none" id="id69" stroke="none" /><text fill="#e1ed5e" style="font-size:6.75px; font-family:Arial;" text-anchor="middle"><textPath startOffset="21.46611528233685" xlink:href="#id69">September</textPath></text><line stroke="#e1ed5e" stroke-width="0.3" x1="15.007084014347285" x2="10.007500721073583" y1="101.09737516637583" y2="101.16192664675087" /><path d="M 14.007167355692545 101.11028546245083 a86.0,86.0 0 0,1 10.666146001902534,-42.60595125391555" fill="none" id="id70" stroke="none" /><text fill="#e1ed5e" style="font-size:6.75px; font-family:Arial;" text-anchor="middle"><textPath startOffset="22.20632615414155" xlink:href="#id70">October</textPath></text><line stroke="#e1ed5e" stroke-width="0.3" x1="26.266209847984243" x2="21.928928074336255" y1="57.711370442889674" y2="55.22380399835377" /><path d="M 25.398753493254645 57.213857153982495 a86.0,86.0 0 0,1 29.58750427330803,-30.492523968695096" fill="none" id="id71" stroke="none" /><text fill="#e1ed5e" style="font-size:6.75px; font-family:Arial;" text-anchor="middle"><textPath startOffset="21.46611528233685" xlink:href="#id71">November</textPath></text><line stroke="#e1ed5e" stroke-width="0.3" x1="56.762969772571076" x2="54.21961505331055" y1="26.818313649435495" y2="22.513508569990535" /><path d="M 56.25429882871897 25.957352633546506 a86.0,86.0 0 0,1 42.265352541879196,-11.944610805530505" fill="none" id="id72" stroke="none" /><text fill="#e1ed5e" style="font-size:6.75px; font-family:Arial;" text-anchor="middle"><textPath startOffset="22.20632615414155" xlink:href="#id72">December</textPath></text></svg>